<?xml version="1.0" encoding="UTF-8" standalone="no"?>
<svg
   xmlns:dc="http://purl.org/dc/elements/1.1/"
   xmlns:cc="http://creativecommons.org/ns#"
   xmlns:rdf="http://www.w3.org/1999/02/22-rdf-syntax-ns#"
   xmlns:svg="http://www.w3.org/2000/svg"
   xmlns="http://www.w3.org/2000/svg"
   xmlns:sodipodi="http://sodipodi.sourceforge.net/DTD/sodipodi-0.dtd"
   xmlns:inkscape="http://www.inkscape.org/namespaces/inkscape"
   height="60"
   width="60"
   viewBox="0 0 12.8 12.8"
   x="0px"
   y="0px"
   version="1.1"
   id="svg8"
   sodipodi:docname="_Notes.svg"
   style="fill:#000000"
   inkscape:version="0.92.4 (5da689c313, 2019-01-14)">
  <metadata
     id="metadata14">
    <rdf:RDF>
      <cc:Work
         rdf:about="">
        <dc:format>image/svg+xml</dc:format>
        <dc:type
           rdf:resource="http://purl.org/dc/dcmitype/StillImage" />
        <dc:title>language, translator, translate</dc:title>
      </cc:Work>
    </rdf:RDF>
  </metadata>
  <defs
     id="defs12" />
  <sodipodi:namedview
     pagecolor="#ffffff"
     bordercolor="#666666"
     borderopacity="1"
     objecttolerance="10"
     gridtolerance="10"
     guidetolerance="10"
     inkscape:pageopacity="0"
     inkscape:pageshadow="2"
     inkscape:window-width="1920"
     inkscape:window-height="1051"
     id="namedview10"
     showgrid="false"
     inkscape:zoom="3.1466667"
     inkscape:cx="139.78091"
     inkscape:cy="52.37483"
     inkscape:window-x="-9"
     inkscape:window-y="-9"
     inkscape:window-maximized="1"
     inkscape:current-layer="svg8" />
  <title
     id="title2">language, translator, translate</title>
  <g
     data-name="Language"
     id="g6"
     transform="matrix(0.19922799,0,0,0.19922799,0.02470432,0.02470432)">
    <path
       d="M 44.32,5.23 H 19.68 a 12.5174,12.5174 0 0 0 -12.5,12.5 v 28.54 a 12.5174,12.5174 0 0 0 12.5,12.5 h 24.64 a 12.5174,12.5174 0 0 0 12.5,-12.5 V 17.73 A 12.5174,12.5174 0 0 0 44.32,5.23 Z M 27.91,51.76 h -4.85 a 6.5127,6.5127 0 0 1 -6.5,-6.5 v -1.03 l -0.59,0.63 A 1.5,1.5 0 0 1 13.79,42.8 l 3.18,-3.38 a 1.5006,1.5006 0 0 1 2.59,1.03 v 4.81 a 3.5038,3.5038 0 0 0 3.5,3.5 h 4.85 a 1.5,1.5 0 1 1 0,3 z m 4.24,-31.6 h -2.5 c 0.3,2.84 0.42,8.4 -2.6,12.11 a 2,2 0 0 1 -0.19,0.22 9.9625,9.9625 0 0 0 2.72,0.35 1.5,1.5 0 0 1 0,3 11.8462,11.8462 0 0 1 -5.48,-1.19 11.8186,11.8186 0 0 1 -5.46,1.19 1.5,1.5 0 0 1 0,-3 10.3427,10.3427 0 0 0 2.72,-0.33 c -1.76,-2 -2.75,-4.87 -2.92,-8.54 a 1.5016324,1.5016324 0 1 1 3,-0.14 c 0.15,3.3 1.05,5.7 2.69,7.18 a 5.8644,5.8644 0 0 0 0.59,-0.63 c 2.43,-2.98 2.18,-7.95 1.9,-10.22 H 16.06 a 1.5,1.5 0 1 1 0,-3 h 6.55 v -3.42 a 1.5,1.5 0 0 1 3,0 v 3.42 h 6.54 a 1.5,1.5 0 0 1 0,3 z M 48.34,51.7 a 1.4533,1.4533 0 0 1 -0.41,0.06 1.5123,1.5123 0 0 1 -1.44,-1.1 L 42.3,35.62 39.63,45.16 h 2.67 a 1.5,1.5 0 0 1 0,3 h -3.5 l -0.7,2.5 a 1.4945,1.4945 0 0 1 -1.44,1.1 1.3858,1.3858 0 0 1 -0.4,-0.06 1.5055,1.5055 0 0 1 -1.05,-1.85 l 5.64,-20.21 c 0.01,-0.02 0.01,-0.05 0.03,-0.07 a 0.8488,0.8488 0 0 1 0.09,-0.22 0.9172,0.9172 0 0 1 0.13,-0.21 0.55,0.55 0 0 1 0.07,-0.09 0.7637,0.7637 0 0 1 0.09,-0.09 0.6549,0.6549 0 0 1 0.18,-0.15 1.1252,1.1252 0 0 1 0.21,-0.12 1.1725,1.1725 0 0 1 0.24,-0.09 0.7789,0.7789 0 0 1 0.21,-0.04 1.2745,1.2745 0 0 1 0.39,0 0.7789,0.7789 0 0 1 0.21,0.04 1.1725,1.1725 0 0 1 0.24,0.09 1.1252,1.1252 0 0 1 0.21,0.12 0.6549,0.6549 0 0 1 0.18,0.15 0.69,0.69 0 0 1 0.16,0.18 0.9172,0.9172 0 0 1 0.13,0.21 0.8488,0.8488 0 0 1 0.09,0.22 c 0.02,0.02 0.02,0.05 0.03,0.07 l 5.64,20.21 a 1.5,1.5 0 0 1 -1.04,1.85 z m 1.87,-30.5 -3.18,3.38 a 1.5318,1.5318 0 0 1 -1.09,0.47 1.5507,1.5507 0 0 1 -0.56,-0.11 1.4985,1.4985 0 0 1 -0.94,-1.39 v -4.81 a 3.5038,3.5038 0 0 0 -3.5,-3.5 h -4.85 a 1.5,1.5 0 0 1 0,-3 h 4.85 a 6.5127,6.5127 0 0 1 6.5,6.5 v 1.03 l 0.59,-0.63 a 1.5,1.5 0 1 1 2.18,2.06 z"
       id="path4"
       inkscape:connector-curvature="0" />
  </g>
</svg>
