<?xml version="1.0" encoding="UTF-8" standalone="no"?>
<!-- Generator: Adobe Illustrator 21.1.0, SVG Export Plug-In . SVG Version: 6.00 Build 0)  -->

<svg
   xmlns:dc="http://purl.org/dc/elements/1.1/"
   xmlns:cc="http://creativecommons.org/ns#"
   xmlns:rdf="http://www.w3.org/1999/02/22-rdf-syntax-ns#"
   xmlns:svg="http://www.w3.org/2000/svg"
   xmlns="http://www.w3.org/2000/svg"
   xmlns:sodipodi="http://sodipodi.sourceforge.net/DTD/sodipodi-0.dtd"
   xmlns:inkscape="http://www.inkscape.org/namespaces/inkscape"
   version="1.0"
   id="Layer_1"
   x="0px"
   y="0px"
   viewBox="0 0 62 13"
   enable-background="new 0 0 492 110"
   xml:space="preserve"
   sodipodi:docname="_YouTube.svg"
   width="62"
   height="13"
   inkscape:version="0.92.4 (5da689c313, 2019-01-14)"><metadata
   id="metadata905"><rdf:RDF><cc:Work
       rdf:about=""><dc:format>image/svg+xml</dc:format><dc:type
         rdf:resource="http://purl.org/dc/dcmitype/StillImage" /><dc:title></dc:title></cc:Work></rdf:RDF></metadata><defs
   id="defs903">
	
	

		
		
	
		
	</defs><sodipodi:namedview
   pagecolor="#ffffff"
   bordercolor="#666666"
   borderopacity="1"
   objecttolerance="10"
   gridtolerance="10"
   guidetolerance="10"
   inkscape:pageopacity="0"
   inkscape:pageshadow="2"
   inkscape:window-width="1920"
   inkscape:window-height="1051"
   id="namedview901"
   showgrid="false"
   fit-margin-top="0"
   fit-margin-left="0"
   fit-margin-right="0"
   fit-margin-bottom="0"
   inkscape:zoom="16.395679"
   inkscape:cx="26.745885"
   inkscape:cy="2.4171495"
   inkscape:window-x="-9"
   inkscape:window-y="-9"
   inkscape:window-maximized="1"
   inkscape:current-layer="g836" />
<g
   id="g836"
   transform="matrix(0.75,0,0,0.75,0,-2)"><g
     id="g841"
     transform="matrix(0.86666667,0,0,0.86666667,2.5873021,2.6666666)"><path
       d="M 27.912087,3.1318681 C 27.582417,1.9047619 26.611721,0.93406592 25.384615,0.6043956 23.168498,0 14.249084,0 14.249084,0 c 0,0 -8.9194138,0.01831502 -11.1355309,0.62271061 C 1.8864469,0.95238094 0.9157509,1.9230769 0.58608058,3.1501831 0,5.3663003 0,9.9999998 0,9.9999998 c 0,0 0,4.6336992 0.6043956,6.8681322 0.32967032,1.227106 1.3003663,2.197802 2.5274725,2.527472 C 5.3479853,20 14.267399,20 14.267399,20 c 0,0 8.919414,0 11.135531,-0.604396 1.227106,-0.32967 2.197802,-1.300366 2.527472,-2.527472 0.604396,-2.216118 0.604396,-6.8681322 0.604396,-6.8681322 0,0 -0.01831,-4.6336995 -0.622711,-6.8681317 z"
       id="path874"
       inkscape:connector-curvature="0"
       style="fill:#000000;stroke-width:0.18315019" /><polygon
       points="64.2,31.6 64.2,78.4 104.6,55 "
       id="polygon876"
       style="fill:#ffffff"
       transform="matrix(0.18315018,0,0,0.18315018,-0.34798534,-0.07326007)" /><g
       style="fill:#000000;fill-opacity:1"
       transform="matrix(0.18315018,0,0,0.18315018,-0.34798534,-0.07326007)"
       id="g894">
			<path
   d="m 227.9,99.7 c -3.1,-2.1 -5.3,-5.3 -6.6,-9.7 -1.3,-4.4 -1.9,-10.2 -1.9,-17.5 v -9.9 c 0,-7.3 0.7,-13.3 2.2,-17.7 1.5,-4.5 3.8,-7.7 7,-9.7 3.2,-2 7.3,-3.1 12.4,-3.1 5,0 9.1,1 12.1,3.1 3,2.1 5.3,5.3 6.7,9.7 1.4,4.4 2.1,10.3 2.1,17.6 v 9.9 c 0,7.3 -0.7,13.1 -2.1,17.5 -1.4,4.4 -3.6,7.6 -6.7,9.7 -3.1,2 -7.3,3.1 -12.5,3.1 -5.4,0.1 -9.6,-1 -12.7,-3 z M 245.2,89 c 0.9,-2.2 1.3,-5.9 1.3,-10.9 V 56.8 c 0,-4.9 -0.4,-8.5 -1.3,-10.7 -0.9,-2.3 -2.4,-3.4 -4.5,-3.4 -2.1,0 -3.5,1.1 -4.4,3.4 -0.9,2.3 -1.3,5.8 -1.3,10.7 v 21.3 c 0,5 0.4,8.7 1.2,10.9 0.8,2.2 2.3,3.3 4.5,3.3 2.1,0 3.6,-1.1 4.5,-3.3 z"
   id="path880"
   inkscape:connector-curvature="0"
   style="fill:#000000;fill-opacity:1" />
			<path
   d="m 464.4,72.7 v 3.5 c 0,4.4 0.1,7.7 0.4,9.9 0.3,2.2 0.8,3.8 1.6,4.8 0.8,1 2.1,1.5 3.8,1.5 2.3,0 3.9,-0.9 4.7,-2.7 0.9,-1.8 1.3,-4.8 1.4,-8.9 l 13.3,0.8 c 0.1,0.6 0.1,1.4 0.1,2.4 0,6.3 -1.7,11 -5.2,14.1 -3.5,3.1 -8.3,4.7 -14.6,4.7 -7.6,0 -12.9,-2.4 -15.9,-7.1 -3,-4.7 -4.6,-12.1 -4.6,-22 V 61.6 c 0,-10.2 1.6,-17.7 4.7,-22.4 3.2,-4.7 8.6,-7.1 16.2,-7.1 5.3,0 9.3,1 12.1,2.9 2.8,1.9 4.8,4.9 6,9 1.2,4.1 1.7,9.7 1.7,16.9 v 11.7 h -25.7 z m 2,-28.8 c -0.8,1 -1.3,2.5 -1.6,4.7 -0.3,2.2 -0.4,5.5 -0.4,10 v 4.9 h 11.2 v -4.9 c 0,-4.4 -0.1,-7.7 -0.4,-10 -0.3,-2.3 -0.8,-3.9 -1.6,-4.8 -0.8,-0.9 -2,-1.4 -3.6,-1.4 -1.7,0.1 -2.9,0.6 -3.6,1.5 z"
   id="path882"
   inkscape:connector-curvature="0"
   style="fill:#000000;fill-opacity:1" />
			<path
   d="M 190.5,71.4 173,8.2 h 15.3 l 6.1,28.6 c 1.6,7.1 2.7,13.1 3.5,18 h 0.4 c 0.5,-3.6 1.7,-9.5 3.5,-17.9 l 6.3,-28.7 h 15.3 l -17.7,63.1 v 30.3 H 190.6 V 71.4 Z"
   id="path884"
   inkscape:connector-curvature="0"
   style="fill:#000000;fill-opacity:1" />
			<path
   d="m 311.5,33.4 v 68.3 h -12 l -1.3,-8.4 h -0.3 c -3.3,6.3 -8.2,9.5 -14.7,9.5 -4.5,0 -7.9,-1.5 -10,-4.5 -2.2,-3 -3.2,-7.6 -3.2,-13.9 v -51 h 15.4 v 50.1 c 0,3 0.3,5.2 1,6.5 0.7,1.3 1.8,1.9 3.3,1.9 1.3,0 2.6,-0.4 3.8,-1.2 1.2,-0.8 2.1,-1.9 2.7,-3.1 V 33.4 Z"
   id="path886"
   inkscape:connector-curvature="0"
   style="fill:#000000;fill-opacity:1" />
			<path
   d="m 390.4,33.4 v 68.3 h -12 l -1.3,-8.4 h -0.3 c -3.3,6.3 -8.2,9.5 -14.7,9.5 -4.5,0 -7.9,-1.5 -10,-4.5 -2.2,-3 -3.2,-7.6 -3.2,-13.9 v -51 h 15.4 v 50.1 c 0,3 0.3,5.2 1,6.5 0.7,1.3 1.8,1.9 3.3,1.9 1.3,0 2.6,-0.4 3.8,-1.2 1.2,-0.8 2.1,-1.9 2.7,-3.1 V 33.4 Z"
   id="path888"
   inkscape:connector-curvature="0"
   style="fill:#000000;fill-opacity:1" />
			<path
   d="M 353.3,20.6 H 338 v 81.1 H 323 V 20.6 H 307.7 V 8.2 h 45.5 v 12.4 z"
   id="path890"
   inkscape:connector-curvature="0"
   style="fill:#000000;fill-opacity:1" />
			<path
   d="m 441.2,44.3 c -0.9,-4.3 -2.4,-7.4 -4.5,-9.4 -2.1,-1.9 -4.9,-2.9 -8.6,-2.9 -2.8,0 -5.5,0.8 -7.9,2.4 -2.5,1.6 -4.3,3.7 -5.7,6.3 h -0.1 v -36 h -14.8 v 96.9 h 12.7 l 1.6,-6.5 h 0.3 c 1.2,2.3 3,4.1 5.3,5.5 2.4,1.3 5,2 7.9,2 5.2,0 9,-2.4 11.5,-7.2 2.4,-4.8 3.7,-12.3 3.7,-22.4 V 62.2 c 0,-7.6 -0.5,-13.6 -1.4,-17.9 z m -14.1,27.9 c 0,5 -0.2,8.9 -0.6,11.7 -0.4,2.8 -1.1,4.8 -2.1,6 -1,1.2 -2.3,1.8 -3.9,1.8 -1.3,0 -2.4,-0.3 -3.5,-0.9 -1.1,-0.6 -1.9,-1.5 -2.6,-2.7 V 49.3 c 0.5,-1.9 1.4,-3.4 2.7,-4.6 1.3,-1.2 2.6,-1.8 4.1,-1.8 1.6,0 2.8,0.6 3.6,1.8 0.9,1.2 1.4,3.3 1.8,6.2 0.3,2.9 0.5,7 0.5,12.4 z"
   id="path892"
   inkscape:connector-curvature="0"
   style="fill:#000000;fill-opacity:1" />
		</g></g></g>
</svg>