<?xml version="1.0" encoding="UTF-8" standalone="no"?>
<!-- Created with Inkscape (http://www.inkscape.org/) -->

<svg
   xmlns:osb="http://www.openswatchbook.org/uri/2009/osb"
   xmlns:dc="http://purl.org/dc/elements/1.1/"
   xmlns:cc="http://creativecommons.org/ns#"
   xmlns:rdf="http://www.w3.org/1999/02/22-rdf-syntax-ns#"
   xmlns:svg="http://www.w3.org/2000/svg"
   xmlns="http://www.w3.org/2000/svg"
   xmlns:sodipodi="http://sodipodi.sourceforge.net/DTD/sodipodi-0.dtd"
   xmlns:inkscape="http://www.inkscape.org/namespaces/inkscape"
   width="816"
   height="1056"
   viewBox="0 0 215.9 279.4"
   version="1.1"
   id="svg8"
   inkscape:version="0.92.4 (5da689c313, 2019-01-14)"
   sodipodi:docname="cover.svg">
  <defs
     id="defs2">
    <linearGradient
       id="linearGradient972"
       osb:paint="gradient">
      <stop
         id="stop968"
         offset="0"
         style="stop-color:#e9e8e7;stop-opacity:1" />
      <stop
         id="stop970"
         offset="1"
         style="stop-color:#ae1c28;stop-opacity:1" />
    </linearGradient>
  </defs>
  <sodipodi:namedview
     id="base"
     pagecolor="#ffffff"
     bordercolor="#666666"
     borderopacity="1.0"
     inkscape:pageopacity="0.0"
     inkscape:pageshadow="2"
     inkscape:zoom="0.5"
     inkscape:cx="204.35993"
     inkscape:cy="656.58947"
     inkscape:document-units="px"
     inkscape:current-layer="layer2"
     showgrid="false"
     units="px"
     inkscape:window-width="1920"
     inkscape:window-height="1051"
     inkscape:window-x="-9"
     inkscape:window-y="-9"
     inkscape:window-maximized="1"
     fit-margin-top="0"
     fit-margin-left="0"
     fit-margin-right="0"
     fit-margin-bottom="0" />
  <metadata
     id="metadata5">
    <rdf:RDF>
      <cc:Work
         rdf:about="">
        <dc:format>image/svg+xml</dc:format>
        <dc:type
           rdf:resource="http://purl.org/dc/dcmitype/StillImage" />
        <dc:title></dc:title>
      </cc:Work>
    </rdf:RDF>
  </metadata>
  <g
     inkscape:groupmode="layer"
     id="layer5"
     inkscape:label="Page"
     style="display:inline"
     sodipodi:insensitive="true">
    <rect
       y="6.1035157e-06"
       x="0"
       height="279.39999"
       width="215.89999"
       id="rect3877"
       style="display:inline;opacity:1;fill:#ccebe7;fill-opacity:1;stroke:none;stroke-width:1.09398353;stroke-miterlimit:4;stroke-dasharray:none;stroke-opacity:1" />
  </g>
  <g
     inkscape:groupmode="layer"
     id="layer2"
     inkscape:label="Background"
     style="display:inline"
     transform="translate(-3.0517579e-6,-2.9658108e-5)">
    <rect
       style="fill:#88bacd;fill-opacity:1;stroke:none;stroke-width:0;stroke-miterlimit:10;stroke-dasharray:none"
       id="rect820"
       width="43.127083"
       height="46.566666"
       x="3.0517579e-06"
       y="232.83337" />
    <rect
       style="display:inline;fill:#ccebe7;fill-opacity:1;stroke:none;stroke-width:0;stroke-miterlimit:10;stroke-dasharray:none"
       id="rect820-6"
       width="43.127083"
       height="46.566666"
       x="5.2452087e-06"
       y="139.70003" />
    <rect
       style="display:inline;fill:#88bacd;fill-opacity:1;stroke:none;stroke-width:0;stroke-miterlimit:10;stroke-dasharray:none"
       id="rect820-3"
       width="43.127083"
       height="46.566666"
       x="5.2452087e-06"
       y="93.133362" />
    <rect
       style="display:inline;fill:#4469ad;fill-opacity:1;stroke:none;stroke-width:0;stroke-miterlimit:10;stroke-dasharray:none"
       id="rect820-4"
       width="43.127083"
       height="46.566666"
       x="3.3378601e-06"
       y="46.566696" />
    <rect
       style="display:inline;fill:#00008b;fill-opacity:1;stroke:none;stroke-width:0;stroke-miterlimit:10;stroke-dasharray:none"
       id="rect820-2"
       width="43.127083"
       height="46.566666"
       x="3.0517579e-06"
       y="3.5761623e-05" />
    <rect
       style="display:inline;fill:#ccebe7;fill-opacity:1;stroke:none;stroke-width:0;stroke-miterlimit:10;stroke-dasharray:none"
       id="rect820-22"
       width="43.127083"
       height="46.566666"
       x="43.127087"
       y="232.83336" />
    <rect
       style="display:inline;fill:#88bacd;fill-opacity:1;stroke:none;stroke-width:0;stroke-miterlimit:10;stroke-dasharray:none"
       id="rect820-5"
       width="43.127083"
       height="46.566666"
       x="86.254166"
       y="232.83336" />
    <rect
       style="display:inline;fill:#4469ad;fill-opacity:1;stroke:none;stroke-width:0;stroke-miterlimit:10;stroke-dasharray:none"
       id="rect820-40"
       width="43.127083"
       height="46.566666"
       x="129.38126"
       y="232.83336" />
    <rect
       style="display:inline;fill:#4469ad;fill-opacity:1;stroke:none;stroke-width:0;stroke-miterlimit:10;stroke-dasharray:none"
       id="rect820-7"
       width="43.127083"
       height="46.566666"
       x="172.50833"
       y="186.26669" />
    <rect
       style="display:inline;fill:#4469ad;fill-opacity:1;stroke:none;stroke-width:0;stroke-miterlimit:10;stroke-dasharray:none"
       id="rect820-8"
       width="43.127083"
       height="46.566666"
       x="1.1444092e-05"
       y="186.26669" />
    <rect
       style="display:inline;fill:#00008b;fill-opacity:1;stroke:none;stroke-width:0;stroke-miterlimit:10;stroke-dasharray:none"
       id="rect820-23"
       width="43.127083"
       height="46.566666"
       x="172.50833"
       y="232.83336" />
    <rect
       style="display:inline;fill:#88bacd;fill-opacity:1;stroke:none;stroke-width:0;stroke-miterlimit:10;stroke-dasharray:none"
       id="rect820-10"
       width="43.127083"
       height="46.566666"
       x="129.38126"
       y="93.133362" />
    <rect
       style="display:inline;fill:#88bacd;fill-opacity:1;stroke:none;stroke-width:0;stroke-miterlimit:10;stroke-dasharray:none"
       id="rect820-81"
       width="43.127083"
       height="46.566666"
       x="172.50833"
       y="46.566692" />
    <rect
       style="display:inline;fill:#4469ad;fill-opacity:1;stroke:none;stroke-width:0;stroke-miterlimit:10;stroke-dasharray:none"
       id="rect820-69"
       width="43.127083"
       height="46.566666"
       x="172.50833"
       y="2.5689602e-05" />
    <rect
       style="display:inline;fill:#4469ad;fill-opacity:1;stroke:none;stroke-width:0;stroke-miterlimit:10;stroke-dasharray:none"
       id="rect820-85"
       width="43.127083"
       height="46.566666"
       x="43.127087"
       y="3.5761623e-05" />
    <rect
       style="display:inline;fill:#88bacd;fill-opacity:1;stroke:none;stroke-width:0;stroke-miterlimit:10;stroke-dasharray:none"
       id="rect820-72"
       width="43.127083"
       height="46.566666"
       x="86.254166"
       y="3.5761623e-05" />
    <rect
       style="display:inline;fill:#ccebe7;fill-opacity:1;stroke:none;stroke-width:0;stroke-miterlimit:10;stroke-dasharray:none"
       id="rect820-14"
       width="43.127083"
       height="46.566666"
       x="129.38126"
       y="3.5761623e-05"
       inkscape:transform-center-x="34.851948"
       inkscape:transform-center-y="8.5258977" />
    <rect
       style="display:inline;fill:#88bacd;fill-opacity:1;stroke:none;stroke-width:0;stroke-miterlimit:10;stroke-dasharray:none"
       id="rect820-236"
       width="43.127083"
       height="46.566666"
       x="172.50833"
       y="139.70003" />
    <rect
       style="display:inline;fill:#88bacd;fill-opacity:1;stroke:none;stroke-width:0;stroke-miterlimit:10;stroke-dasharray:none"
       id="rect820-3-8"
       width="43.127079"
       height="46.566666"
       x="43.127087"
       y="46.566696" />
    <rect
       style="display:inline;fill:#ccebe7;fill-opacity:1;stroke:none;stroke-width:0;stroke-miterlimit:10;stroke-dasharray:none"
       id="rect820-69-3"
       width="43.127083"
       height="46.566666"
       x="43.127087"
       y="93.133362" />
    <rect
       style="display:inline;fill:#4469ad;fill-opacity:1;stroke:none;stroke-width:0;stroke-miterlimit:10;stroke-dasharray:none"
       id="rect820-14-0"
       width="43.127083"
       height="46.566666"
       x="86.254166"
       y="93.133362"
       inkscape:transform-center-x="34.851948"
       inkscape:transform-center-y="8.5258977" />
    <rect
       style="display:inline;fill:#ccebe7;fill-opacity:1;stroke:none;stroke-width:0;stroke-miterlimit:10;stroke-dasharray:none"
       id="rect820-8-5"
       width="43.127083"
       height="46.566666"
       x="172.50833"
       y="93.133362" />
    <rect
       style="display:inline;fill:#00008b;fill-opacity:1;stroke:none;stroke-width:0;stroke-miterlimit:10;stroke-dasharray:none"
       id="rect820-3-8-7"
       width="43.127079"
       height="46.566666"
       x="86.254173"
       y="46.566692" />
    <rect
       style="display:inline;fill:#4469ad;fill-opacity:1;stroke:none;stroke-width:0;stroke-miterlimit:10;stroke-dasharray:none"
       id="rect820-3-8-5"
       width="43.127079"
       height="46.566666"
       x="129.38126"
       y="46.566692" />
    <g
       id="g1969">
      <rect
         y="186.26669"
         x="43.127087"
         height="46.566666"
         width="43.127079"
         id="rect820-68"
         style="display:inline;fill:#00008b;fill-opacity:1;stroke:none;stroke-width:0;stroke-miterlimit:10;stroke-dasharray:none" />
      <rect
         y="139.70003"
         x="129.38124"
         height="46.566666"
         width="43.127083"
         id="rect820-8-5-0"
         style="display:inline;fill:#4469ad;fill-opacity:1;stroke:none;stroke-width:0;stroke-miterlimit:10;stroke-dasharray:none" />
      <rect
         y="139.70003"
         x="43.127087"
         height="46.566666"
         width="43.127083"
         id="rect820-8-5-03"
         style="display:inline;fill:#4469ad;fill-opacity:1;stroke:none;stroke-width:0;stroke-miterlimit:10;stroke-dasharray:none" />
      <rect
         y="139.70003"
         x="86.254158"
         height="46.566666"
         width="43.127083"
         id="rect820-8-5-9"
         style="display:inline;fill:#00008b;fill-opacity:1;stroke:none;stroke-width:0;stroke-miterlimit:10;stroke-dasharray:none" />
      <rect
         y="186.26669"
         x="86.254166"
         height="46.566666"
         width="43.127083"
         id="rect820-8-5-9-3"
         style="display:inline;fill:#4469ad;fill-opacity:1;stroke:none;stroke-width:0;stroke-miterlimit:10;stroke-dasharray:none" />
      <rect
         y="186.26669"
         x="129.38126"
         height="46.566666"
         width="43.127083"
         id="rect820-8-5-9-6"
         style="display:inline;fill:#00008b;fill-opacity:1;stroke:none;stroke-width:0;stroke-miterlimit:10;stroke-dasharray:none" />
    </g>
    <path
       style="fill:#00008b;fill-opacity:1;stroke-width:0.48879805"
       inkscape:connector-curvature="0"
       d="m 79.132727,117.44537 c -0.50248,-0.57092 -1.11348,-0.9732 -1.76456,-1.26745 2.4347,-1.31243 3.04374,-5.22917 2.03193,-8.34477 -0.82851,-2.54908 -4.26281,-3.32529 -5.93596,-3.55405 0.0303,-0.2835 0.0499,-0.56896 0.0499,-0.85735 0,-4.50574 -3.66599,-8.17172 -8.17173,-8.17172 -4.50574,0 -8.17172,3.66598 -8.17172,8.17172 0,0.26249 0.0166,0.52106 0.0411,0.77866 -0.65939,0.0582 -1.59641,0.2224 -2.72456,0.64619 -2.64146,0.99226 -3.32041,4.80733 -3.47291,6.03763 -1.47764,1.0607 -1.74892,3.3952 -1.5143,4.94126 0.0738,0.48929 0.32701,0.87006 0.73174,1.10077 0.18623,0.10608 0.39592,0.1706 0.62321,0.20628 0.19015,0.86664 0.69263,2.43568 1.95373,3.45336 0.1266,0.10215 0.25809,0.19454 0.39299,0.28057 -0.20774,1.14036 -1.22933,6.75128 -1.38965,7.79193 -0.14713,0.95658 -0.59487,3.86785 1.84766,4.88114 l 2.08423,0.81091 c -0.16179,0.48146 -0.2532,0.99519 -0.25564,1.52945 -0.0103,0.19063 -0.008,0.82264 0.41352,1.27723 0.25809,0.27861 0.60953,0.42623 1.01621,0.42623 h 6.83633 c 0.41695,0 0.95023,-0.16375 1.3178,-0.55088 0.0308,0.0421 0.0606,0.0851 0.0973,0.12465 0.25759,0.27861 0.60904,0.42623 1.0162,0.42623 h 6.83633 c 0.70143,0 1.74403,-0.44725 1.74403,-1.68049 0,-0.50346 -0.0772,-0.98982 -0.21996,-1.4483 l 2.36432,-0.91944 c 2.43226,-1.00936 1.98403,-3.92065 1.83691,-4.87771 -0.13589,-0.88277 -0.86762,-4.92513 -1.21075,-6.80847 0.0323,0.001 0.0631,0.006 0.0953,0.006 0.27519,0 0.56847,-0.0454 0.87055,-0.15788 0.68676,-0.25662 1.18826,-0.83144 1.37499,-1.57686 0.22729,-0.9033 -0.044,-1.87943 -0.74444,-2.67519 z m -10.53458,-8.16048 c -0.024,0.0132 -0.044,0.0308 -0.066,0.0459 -1.90777,-0.02 -3.89278,0.12904 -5.71356,0.31624 -0.0283,-0.0166 -0.0557,-0.0342 -0.0865,-0.0474 -1.13695,-0.48049 -2.08668,-1.25035 -2.78664,-2.19959 l 10.68512,0.14175 c -0.54451,0.70045 -1.23128,1.29727 -2.03242,1.74305 z m -13.59494,-3.06623 c 1.08953,-0.40913 1.94639,-0.53328 2.48016,-0.5675 0.4805,1.70053 1.50111,3.19821 2.91031,4.26965 -0.17695,0.0215 -0.35536,0.043 -0.52497,0.0635 -1.40432,0.17059 -2.73238,0.33092 -3.15959,0.284 l -0.28595,-0.0323 c -1.37988,-0.15544 -2.34867,-0.26297 -3.83169,0.0484 0.28497,-1.46493 0.98444,-3.52961 2.41173,-4.06582 z m -2.6659,5.63193 c 1.59299,-0.41988 2.42053,-0.32603 3.92163,-0.15691 l 0.28839,0.0323 c 0.57189,0.064 1.59299,-0.0542 3.49833,-0.28546 3.80186,-0.46142 9.54769,-1.15845 13.12227,-0.064 0.38664,0.11927 0.79723,-0.0992 0.91601,-0.48636 0.11828,-0.38713 -0.0992,-0.79722 -0.48636,-0.91551 -0.83389,-0.25516 -1.76652,-0.41793 -2.75096,-0.51813 1.10713,-1.01132 1.91463,-2.30566 2.33499,-3.7393 1.59348,0.20187 4.27552,0.88179 4.82395,2.56961 0.84709,2.60774 0.32554,6.04301 -1.6409,6.7371 -0.46044,0.16277 -1.22786,0.29964 -2.20594,0.39984 -0.006,4.9e-4 -0.0113,10e-4 -0.0171,0.002 -3.69385,0.37588 -10.40749,0.21849 -15.32578,-1.16286 -0.30012,-0.11095 -1.72496,-0.55234 -3.61221,0.19259 l -0.51715,0.20676 c -0.63446,0.25613 -2.28122,0.91992 -3.1811,1.04065 -0.0333,-0.001 -0.067,-0.004 -0.10167,-0.001 -0.0313,0.003 -0.0606,0.0113 -0.0909,0.0186 -0.15495,0.006 -0.27911,-0.009 -0.34901,-0.0601 0,0 -0.008,-0.0151 -0.0142,-0.0552 -0.20529,-1.35348 0.0894,-3.41328 1.3877,-3.75446 z m 12.18231,21.12878 c -0.9121,-1.22297 -2.37507,-2.02167 -4.02721,-2.02167 -1.18044,0 -2.2646,0.40766 -3.12146,1.08562 v -10.78728 c 0.66916,-0.12074 1.69417,-0.26151 3.09653,-0.3319 0.99618,-0.0489 2.45426,-0.0103 4.05214,0.0469 z m -0.77425,3.13808 -6.77768,-0.001 c -0.0108,-0.0484 -0.0181,-0.11193 -0.0156,-0.15544 l 0.002,-0.0572 c 0,-1.91854 1.58761,-3.47927 3.53841,-3.47927 1.95128,0 3.5389,1.56073 3.5389,3.47927 0,0.0753 0,0.20236 -0.28595,0.2136 z m 2.24065,-3.45237 v -11.64024 c 2.59796,0.0958 5.22427,0.18085 6.87738,-0.008 l 0.11438,-0.0225 c 0.005,-10e-4 0.14762,-0.0381 0.37002,-0.0758 l -0.39788,11.17637 c -0.86615,-0.70973 -1.97816,-1.13743 -3.18892,-1.13743 -1.50647,0 -2.85653,0.6633 -3.77498,1.70737 z m 7.02696,3.45237 -6.77768,-0.001 c -0.0108,-0.0484 -0.0176,-0.11193 -0.0156,-0.15544 l 0.002,-0.0572 c 0,-1.91854 1.58713,-3.47927 3.53841,-3.47927 1.95129,0 3.53842,1.56073 3.53842,3.47927 0,0.0753 0,0.20236 -0.28595,0.2136 z m 5.44179,-16.35273 c -0.0679,0.27079 -0.23756,0.47462 -0.46583,0.56016 -0.66036,0.24684 -1.32366,-0.30306 -1.32562,-0.30501 l -0.0987,-0.0723 c -1.50012,-0.92481 -3.52668,-0.47902 -3.91771,-0.38078 -1.64285,0.17842 -4.38892,0.0762 -7.04652,-0.023 -2.02411,-0.0748 -3.93531,-0.14615 -5.2057,-0.0831 -2.59796,0.13002 -4.0057,0.49124 -4.34492,0.58851 -0.93751,0.0939 -1.69466,-0.10167 -2.31446,-0.59927 -0.83242,-0.66818 -1.22346,-1.73816 -1.39894,-2.42785 0.84025,-0.19308 1.81491,-0.56212 2.89857,-0.99959 l 0.50689,-0.20334 c 1.49816,-0.59097 2.52268,-0.19797 2.55739,-0.18429 l 0.087,0.0308 c 4.85229,1.3701 11.76047,1.63649 15.83461,1.22786 1.37548,0.15984 2.88781,0.47218 3.81116,1.52065 0.37686,0.42819 0.53083,0.9209 0.42281,1.35055 z"
       id="path3264" />
    <g
       transform="matrix(0.45358213,0,0,0.45358213,171.50049,93.720211)"
       id="g4431"
       style="fill:#00008b;fill-opacity:1">
      <path
         inkscape:connector-curvature="0"
         id="path3856"
         d="m 57.9,44.5 c 1.5,-0.4 2.8,-0.8 4,-1.5 0.8,-0.5 1.1,-0.3 1.2,0.6 0.1,1 -0.3,2 -0.6,2.9 -0.3,1.2 -0.1,2.3 0.1,3.5 0.2,0.9 -0.4,1.4 -1.3,1.2 -1,-0.2 -2,-0.5 -2.9,-1.1 -0.3,0.2 -0.1,0.3 -0.1,0.4 0.8,1.6 0.4,2.4 -1.4,2.4 -0.6,0 -1.1,0.1 -1.5,0.5 -0.1,0.1 -0.2,0.2 -0.2,0.1 -1.2,-0.5 -1.4,0.6 -2,1.2 -1,1 -2,1.9 -3.3,2.4 -0.3,0.1 -0.7,0.3 -0.5,0.8 0.6,2.1 0.1,4.2 -0.4,6.2 -0.1,0.5 -0.1,0.9 0.2,1.3 2.2,3.1 3.4,6.6 3.8,10.4 0.1,0.7 0.2,1.4 0.4,2.2 0.4,1.2 -0.2,1.8 -1.5,2 -1.7,0.2 -3.4,-0.2 -5.1,0.2 -0.4,0.1 -0.6,0.1 -0.6,0.6 0.2,2.6 -0.3,5.3 -0.3,7.9 0,1.5 0.7,2.7 1.3,3.9 0.2,0.5 0.6,1 0.5,1.6 -0.2,1.3 -2,2.3 -3.4,1.7 -0.5,-0.2 -0.9,-0.2 -1.2,0.2 -0.8,1.1 -1.7,0.4 -2.5,0.2 -0.5,-0.1 -1,-1.6 -0.9,-2.3 0.2,-0.6 0.3,-1.3 0.6,-1.8 1.4,-1.9 1.1,-4.1 0.9,-6.2 -0.2,-2 -0.3,-4 -0.3,-6 0,-0.5 -0.4,-0.5 -0.8,-0.5 -1.2,0.1 -2.4,0 -3.6,0 -0.5,0 -1,-0.2 -0.8,-0.9 0.4,-1.3 0.4,-2.7 0.6,-4.1 0.6,-3.3 1.7,-6.3 4.1,-8.6 0.7,-0.7 0.8,-1.3 0.4,-2.1 -0.3,-0.7 -0.4,-1.4 -0.6,-2.1 -0.2,-0.5 -0.1,-1 -1,-0.5 -1.3,0.8 -2.4,2 -3.8,2.8 -2,1.2 -3.8,2.6 -6.3,2.9 -0.1,0 -0.3,0 -0.3,0.1 -0.9,1.6 -2.7,2.3 -4.1,3.3 -0.5,0.4 -1.4,0.2 -1.9,-0.3 -0.5,-0.6 -0.5,-1.3 0,-2 0.6,-0.8 1.3,-1.4 2.2,-1.4 2.1,-0.1 4,-0.7 5.9,-1.3 0.9,-0.2 1.8,-0.9 2.6,-1.4 2,-1.2 3.9,-2.7 5.7,-4.2 0.7,-0.5 0.8,-1.5 1.1,-2.2 0.1,-0.2 -0.1,-0.4 -0.3,-0.5 -2.5,-0.7 -3.3,-2.8 -3.9,-5 -0.2,-0.7 -0.4,-1.2 -1.3,-0.8 -0.7,0.3 -1.6,0.1 -2.4,-0.2 -1,-0.3 -1.2,-0.8 -0.8,-1.7 0.1,-0.3 0.3,-0.7 0.1,-0.9 -0.3,-0.3 -0.8,0 -1,0.2 -1.3,1.2 -3,1.9 -4.3,3 -0.3,0.3 -0.7,0.4 -1,0.3 C 25,51.8 25.1,51.4 25.1,51 25.1,49.7 24.9,48.4 24.2,47.2 24,46.3 25,45 27,45 c 1.5,0 2.9,-0.4 4.4,0.2 0.6,0.2 1,0 0.7,-0.8 -0.1,-0.4 -0.3,-0.8 -0.3,-1.2 -0.1,-0.8 0.5,-1.3 1.2,-1 1,0.4 2.2,0.1 3.1,0.9 0.4,0.3 0.7,0 1,-0.3 1.6,-1.5 3.4,-2.7 5.6,-3.3 2.9,-0.8 5.6,-0.3 8.1,1.3 0.6,0.4 1.1,0.9 1.7,1.3 0.9,0.7 2,0.7 3,0.4 0.5,-0.1 0.9,-0.4 1.5,-0.2 0.3,0.1 0.7,0 0.7,-0.4 0,-0.4 0.2,-0.8 -0.2,-1.1 -1.4,-0.9 -1.5,-2.4 -1.6,-3.9 0,-0.3 0.1,-0.7 0.4,-0.9 1.4,-0.7 1.4,-2 1.7,-3.3 0.1,-0.4 -0.1,-1.2 0.6,-1.2 0.6,0.1 0.6,0.7 0.6,1.3 0,0.7 0,1.5 0,2.2 0,0.3 0.1,0.3 0.2,0.5 1,1 1,2.7 0,3.7 -0.6,0.6 -0.8,1.2 -0.7,2.1 0,1.1 -0.5,2.1 -0.8,3.2 z m -13,-2.2 c 0,-0.3 -0.1,-0.6 0,-0.9 0.1,-0.9 -0.3,-1.2 -1.2,-1.1 -3.4,0.5 -5.8,2.2 -6.6,5.6 -0.6,2.4 -0.1,4.8 0.7,7.2 0.3,0.9 0.6,1.8 1.4,2.4 2.6,2 7.3,3.3 10.8,0.9 0.4,-0.3 0.9,-0.6 1.3,-0.9 2.1,-1.7 3.1,-3.8 2.9,-6.6 0,-0.4 -0.4,-0.6 -0.4,-1.1 0,-1.4 -0.5,-2.6 -1.2,-3.8 -1.2,-2.1 -3.1,-3.2 -5.4,-3.6 -0.7,-0.1 -1.2,0 -1.3,0.9 0,0.7 0,1.4 -0.2,2.1 -0.2,0.9 0.1,1.8 0,2.8 -0.2,1.5 -0.5,3.1 -0.3,4.7 0.2,1.7 0.2,3.4 0.7,5.1 0.1,0.5 -0.1,0.9 -0.6,0.9 -0.5,0 -0.6,-0.4 -0.6,-0.8 0,-1.8 -0.2,-3.6 -0.3,-5.3 0,-0.5 -0.1,-1 0,-1.5 0.4,-2.4 0.1,-4.8 0.3,-7 z m 4.5,36.5 c 0.4,0 0.9,0 1.3,0 1.4,-0.2 1.7,-0.5 1.6,-1.8 0,-0.5 -0.1,-1 -0.2,-1.6 C 51.8,72.5 50.6,69.9 49.5,67.3 49,66.2 48.3,65.8 47,66 c -0.4,0.1 -0.8,0 -1.2,0 -1.2,-0.2 -2.4,-0.2 -3.6,0.3 -2.3,1.1 -3.3,3.3 -4.1,5.5 -0.6,1.7 -0.6,3.7 -1,5.5 -0.2,1 0.3,1.2 1.1,1.2 1,-0.1 2.1,-0.2 3,0 2.8,0.6 5.5,0.2 8.2,0.3 z M 46.3,64.9 c 0.9,0.1 1.7,0 2,-1.1 0.4,-1.3 0.6,-2.5 0.6,-3.8 0,-1.5 -0.2,-1.7 -1.7,-1.5 -1.6,0.2 -3.1,0.2 -4.7,-0.3 -0.3,-0.1 -0.7,-0.1 -0.9,0.3 -0.6,1.1 -0.3,5.2 0.6,6.1 0.2,0.2 0.4,0.2 0.6,0.2 1.2,0 2.4,-0.1 3.5,0.1 z m -2.7,27.8 c 0.5,-1.4 1.3,-2.5 1.5,-3.8 0.1,-0.7 0,-1.3 0.1,-2 0.1,-1.8 0.4,-3.6 0.1,-5.3 -0.1,-0.4 0,-1.2 -0.7,-1.3 -0.7,-0.1 -1.3,-0.1 -2,-0.2 -0.3,0 -0.6,0 -0.6,0.4 0,0.9 -0.2,1.7 -0.1,2.6 0.1,2.1 0.3,4.1 0.6,6.2 0.3,1 0.1,2.3 1.1,3.4 z M 26.4,51.4 c 0.7,-0.4 1.1,-0.6 1.5,-0.9 1.5,-1 2.9,-2.3 4.7,-3.1 0.2,-0.1 0.5,0 0.5,-0.3 0,-0.2 -0.2,-0.5 -0.3,-0.4 -0.3,0.2 -0.8,-0.3 -0.9,0.2 -0.1,0.6 -0.5,0.5 -0.8,0.7 -1.2,0.6 -2.6,0.6 -3.6,1.6 -0.1,0.1 -0.3,0.2 -0.5,0.1 -0.2,-0.1 -0.1,-0.4 -0.1,-0.6 0.1,-0.3 0.3,-0.6 0.7,-0.6 0.4,0 0.7,-0.2 1,-0.6 -0.5,-0.1 -0.9,0 -1.3,0.2 -0.3,0.2 -0.5,0 -0.6,-0.1 -0.2,-0.2 -0.1,-0.5 0.1,-0.6 0.6,-0.3 0.9,-0.8 1.7,-0.8 0.3,0 0.7,-0.1 0.7,-0.5 -1.1,-0.3 -2.1,-0.1 -3.1,0.4 -0.4,0.2 -0.6,0.4 -0.4,0.9 0.4,1.4 1,2.7 0.7,4.4 z m 32.4,-5.9 c 0.6,0 1,0.1 1.4,0.1 0.2,0 0.6,-0.2 0.7,0.1 0.2,0.5 -0.4,0.3 -0.6,0.6 0.4,0.1 1,0.1 0.9,0.6 -0.1,0.6 -0.6,0.2 -1,0.3 -0.4,0 -0.8,0 -1.2,0.2 -0.8,0.4 -1.4,0 -1.9,-0.7 -0.1,-0.2 -0.2,-0.4 -0.5,-0.5 0.4,0.9 0.8,1.7 1.2,2.5 0,0.1 0.8,-0.3 1.3,-0.5 0,0 0.1,0 0.1,0 0.3,0 0.7,-0.2 0.8,0.1 0.2,0.4 -0.3,0.4 -0.5,0.6 -0.1,0.1 -0.3,0.2 -0.3,0.2 0.2,0.5 0.7,0.7 1.2,0.8 0.5,0 1.2,-0.1 1.1,-0.6 -0.3,-1.7 0.3,-3.2 0.5,-4.8 0.1,-0.7 -0.2,-0.6 -0.7,-0.5 -0.9,0.3 -1.7,0.7 -2.5,1.5 z m -3.3,6.8 c 0.4,-0.2 1.1,-0.2 1.8,-0.2 0.4,0 0.6,-0.2 0.4,-0.7 -0.3,-0.9 -1.2,-1.5 -1.3,-2.5 0,-0.3 0,-0.8 -0.5,-0.6 -0.4,0.1 -0.7,0.3 -0.7,0.8 0.1,1 -0.1,1.9 -0.3,2.9 -0.2,0.4 0,0.4 0.6,0.3 z M 35,47.3 c -1.2,0.6 -1.6,1.6 -2.1,2.6 -0.1,0.1 -0.1,0.4 0,0.5 0.6,0.5 1.4,0.7 2.2,0.4 0.7,-0.2 0.7,-0.7 0.7,-1.4 0,-0.8 -0.9,-1.2 -0.8,-2.1 z M 57.9,36.5 c -0.7,0 -1.5,0.7 -1.3,1.3 0.3,0.7 0.2,1.7 1.1,1.9 0.5,0.1 1.4,-1.4 1.4,-2.2 0,-0.9 -0.7,-0.9 -1.2,-1 z m -12.4,55 c -0.3,0.1 -0.4,0.3 -0.4,0.5 -0.2,0.7 -0.3,1.4 -0.2,2.2 0,0.4 0.1,0.7 0.5,0.9 0.5,0.3 0.8,-0.1 1.2,-0.3 0.4,-0.2 0.2,-0.6 0.1,-0.9 -0.2,-0.6 -0.4,-1.1 -0.6,-1.7 -0.1,-0.3 -0.4,-0.5 -0.6,-0.7 z m -3.4,0.8 c -0.9,0.7 -1.1,1.5 -1,2.4 0.1,0.5 1,1.1 1.4,0.9 0.5,-0.3 0.7,-0.7 0.4,-1.3 -0.3,-0.6 -0.5,-1.3 -0.8,-2 z M 55.4,45 c 0,-0.4 0.2,-0.9 -0.3,-1.1 -0.3,-0.1 -0.8,-0.2 -1,0.1 -0.4,0.4 0.1,0.7 0.2,1.1 0,0.2 0.1,0.5 0.2,0.7 0.1,0.2 -0.1,0.7 0.4,0.7 0.4,0 0.5,-0.4 0.6,-0.7 0.1,-0.3 0,-0.6 -0.1,-0.8 z M 33.2,44.4 c 0.2,0.4 0.1,1.3 0.8,1.3 0.5,0 1.1,-0.5 1,-1.2 -0.1,-0.7 -0.7,-0.9 -1.3,-0.9 -0.6,-0.1 -0.5,0.3 -0.5,0.8 z m -6.4,23.5 c -1.1,-0.2 -1.9,0.1 -2.7,0.8 -0.2,0.1 -0.4,0.3 -0.2,0.6 0.2,0.2 0.3,0.4 0.7,0.3 1,-0.3 1.6,-0.9 2.2,-1.7 z"
         style="fill:#00008b;fill-opacity:1" />
      <path
         inkscape:connector-curvature="0"
         id="path3858"
         d="m 54.3,29.8 c 0.3,0.7 -0.1,1.3 -0.4,1.9 -0.9,1.9 -2.3,3.4 -2.8,5.5 -0.1,0.4 -0.5,0.4 -0.8,0.3 -0.4,-0.1 -0.4,-0.5 -0.2,-0.8 1.4,-2.2 2.6,-4.4 3.5,-6.8 0.1,-0.4 0.1,-0.5 -0.1,-0.7 -0.9,-0.9 -1.8,-1.8 -2.7,-2.7 -0.3,-0.3 -0.6,-0.5 -1,-0.3 -2.3,0.9 -4.7,1.5 -6.6,3.1 -0.1,0 -0.1,0.1 -0.2,0.1 -0.4,0.2 -0.8,0.4 -1,0 -0.2,-0.4 0.2,-0.6 0.5,-0.8 2,-1.1 4,-2.3 6.1,-3.2 0.7,-0.3 0.9,-0.7 0.5,-1.3 C 49,23.4 49,22.8 49,22.3 49,21.4 48.4,21.1 47.8,21 46,20.8 44.3,20.4 42.5,20.4 c -0.5,0 -1,0.3 -1.5,0.1 -0.4,-0.1 -0.7,-0.2 -0.7,-0.7 0.1,-0.4 0.5,-0.4 0.8,-0.4 1.5,0 3,0.3 4.5,0.6 0.4,0.1 0.7,0.2 1.1,0.2 1.8,0.3 2.3,0 2.9,-1.7 0.7,-2.1 0.7,-2.1 -1,-3.4 -1.5,-1.2 -2.9,-2.7 -4.6,-3.7 -0.2,-0.1 -0.4,-0.3 -0.4,-0.6 0.1,-0.3 0.3,-0.5 0.5,-0.6 0.3,-0.1 0.5,0 0.7,0.3 1.3,1.7 2.9,3 4.6,4.2 1.1,0.7 1.4,1.2 2.9,-0.1 1,-0.9 2.3,-1.5 3.5,-2.2 0.5,-0.3 0.7,-0.7 0.6,-1.2 C 55.9,9 56.1,6.6 55.3,4.5 c -0.1,-0.4 0,-0.7 0.2,-0.9 0.1,-0.1 0.3,-0.3 0.4,-0.2 0.4,0.2 0.2,0.6 0.3,0.9 0.5,2.4 0.7,4.8 1,7.2 0.1,0.5 0.4,0.6 0.8,0.5 1.4,-0.1 2.7,0.1 3.9,0.6 0.4,0.2 0.8,0 1,-0.3 1.4,-1.9 2.6,-3.9 3.6,-6 C 66.9,6 67.2,5.6 67.2,5 67.2,4.6 67.5,4.3 68,4.5 68.4,4.7 68.3,5 68.2,5.3 67.8,6.7 67,7.9 66.2,9 c -0.9,1.3 -1.4,2.8 -2.3,4.1 -0.2,0.4 -0.1,0.8 0.3,1.1 1.2,0.9 2.3,1.9 3,3.2 0.2,0.3 0.4,0.4 0.7,0.4 0.7,0 1.3,-0.1 1.9,-0.3 1.8,-0.7 3.8,-1 5.5,-2.1 0.3,-0.2 0.7,-0.5 0.9,0.1 0.2,0.5 -0.1,0.8 -0.6,0.9 -2.3,0.5 -4.3,1.8 -6.6,2.2 -1.1,0.2 -1.4,0.9 -1.4,1.8 0.1,1.2 -0.2,2.3 -0.5,3.5 -0.2,0.7 -0.1,1.2 1,1.3 1.5,0.1 3.1,0.5 4.6,0.9 1.1,0.3 2.2,0.1 3.3,0.1 0.5,0 1.1,-0.2 1.1,0.7 -0.1,0.8 -0.8,0.7 -1.2,0.5 -2.1,-0.7 -4.4,-0.6 -6.5,-1.1 -1.6,-0.3 -2.9,-0.3 -3.7,1.4 -0.3,0.7 -1,1.3 -1.7,1.7 -0.6,0.3 -0.4,0.6 0,0.8 1.4,0.8 2.3,2.2 3.7,3 0.7,0.4 1.4,0.8 2,1.2 0.2,0.2 0.5,0.3 0.7,0.6 0.2,0.2 0.2,0.4 0.1,0.7 -0.2,0.2 -0.5,0.3 -0.7,0.1 -1,-1 -2.3,-1.6 -3.4,-2.5 -1.2,-0.9 -2.5,-1.7 -3.6,-2.6 -0.4,-0.3 -0.9,-0.3 -1.2,-0.2 -2.4,0.9 -4.7,0.4 -6.9,-0.6 -0.1,-0.2 -0.2,-0.2 -0.4,-0.1 z M 66.7,19.7 c -0.1,-0.9 -0.3,-2 -1.1,-2.8 -0.6,-0.6 -1.2,-1.1 -1.8,-1.6 -0.9,-0.9 -2,-1.6 -3.3,-1.9 -1.5,-0.4 -2.9,0 -4.3,0.4 -1.8,0.6 -3.4,1.6 -4.7,3.1 -1.2,1.5 -1.7,3.2 -1.6,5.1 0.1,2.4 1.8,3.9 3.4,5.4 1.6,1.5 3.5,2.3 5.8,2.3 2.4,0 4.9,-1.1 6.1,-3.2 1.2,-2.1 1.2,-4.4 1.5,-6.8 z"
         style="fill:#00008b;fill-opacity:1" />
      <path
         inkscape:connector-curvature="0"
         id="path3860"
         d="m 46.5,43.6 c 0,-0.2 -0.1,-0.4 0.2,-0.5 0.2,-0.1 0.4,0 0.5,0.2 1.2,1.1 2.5,2 4,2.7 0.3,0.1 0.8,0.3 0.4,0.9 -0.4,0.6 -0.6,0.2 -1,-0.1 -1,-0.7 -2,-1.6 -3.2,-2.1 -0.3,-0.1 -0.9,-0.4 -0.9,-1.1 z"
         style="fill:#00008b;fill-opacity:1" />
      <path
         inkscape:connector-curvature="0"
         id="path3862"
         d="m 42.1,43.7 c 0.1,0.1 0.3,0.1 0.3,0.2 0.1,0.2 0,0.4 -0.2,0.6 -0.6,0.6 -1.5,0.8 -2.2,1.3 -0.6,0.5 -1.3,0.7 -2,1.1 -0.2,0.1 -0.3,0.3 -0.5,0.1 -0.2,-0.3 0,-0.4 0.1,-0.6 0.2,-0.4 0.7,-0.4 1,-0.6 1,-0.7 2,-1.3 3.1,-1.9 0.2,0 0.3,-0.1 0.4,-0.2 z"
         style="fill:#00008b;fill-opacity:1" />
      <path
         inkscape:connector-curvature="0"
         id="path3864"
         d="m 52.2,51.2 c -0.3,0.3 -0.4,0.7 -0.7,0.8 -1.1,0.7 -2.3,1.2 -3.1,2.4 -0.2,0.2 -0.4,0.3 -0.6,0.1 -0.2,-0.2 -0.1,-0.4 0.1,-0.6 1.1,-1.1 2.3,-2.1 3.5,-2.9 0.3,-0.3 0.6,-0.2 0.8,0.2 z"
         style="fill:#00008b;fill-opacity:1" />
      <path
         inkscape:connector-curvature="0"
         id="path3866"
         d="m 51.3,48.7 c 0,0.4 -0.4,0.5 -0.5,0.5 -1.3,-0.1 -2.5,0.4 -3.6,1 -0.3,0.1 -0.5,0 -0.6,-0.2 -0.1,-0.3 0.2,-0.5 0.4,-0.6 0.8,-0.3 1.6,-0.6 2.4,-0.7 0.4,-0.1 0.8,-0.2 1.3,-0.3 0.2,0 0.5,0 0.6,0.3 z"
         style="fill:#00008b;fill-opacity:1" />
      <path
         inkscape:connector-curvature="0"
         id="path3868"
         d="m 38.8,52.2 c 0,-0.5 0.4,-0.5 0.7,-0.4 0.9,0.4 1.9,0.7 2.6,1.6 0.2,0.2 0.3,0.4 0.1,0.6 -0.3,0.3 -0.4,0 -0.5,-0.2 -0.5,-0.6 -1.1,-1 -1.9,-1.1 -0.4,0 -0.9,0 -1,-0.5 z"
         style="fill:#00008b;fill-opacity:1" />
      <path
         inkscape:connector-curvature="0"
         id="path3870"
         d="m 40.8,49.6 c -0.5,0 -1,0 -1.5,-0.1 -0.2,0 -0.6,-0.1 -0.5,-0.5 0.1,-0.4 0.4,-0.2 0.6,-0.2 0.5,0 1,0 1.5,0.2 0.2,0.1 0.8,-0.1 0.8,0.4 -0.2,0.5 -0.7,-0.1 -0.9,0.2 z"
         style="fill:#00008b;fill-opacity:1" />
    </g>
    <g
       transform="matrix(0.43679343,0,0,0.43679343,42.850879,234.27716)"
       id="g5661"
       style="fill:#00008b;fill-opacity:1">
      <circle
         style="fill:#00008b;fill-opacity:1"
         id="circle5083"
         r="6.855"
         cy="23.743999"
         cx="47.110001" />
      <path
         style="fill:#00008b;fill-opacity:1"
         inkscape:connector-curvature="0"
         id="path5085"
         d="M 75.342,91.271 63.211,70.297 c 3.185,-1.378 3.773,-2.481 3.773,-2.481 0,0 -8.823,-14.526 -14.815,-16.683 -0.614,-2.38 -1.134,-4.84 -1.251,-6.682 -0.13,-2.025 -0.052,-4.44 0.085,-6.606 l 10.06,4.309 -1.216,11.538 c -0.163,1.555 0.963,2.946 2.517,3.11 0.146,0.015 0.295,0.019 0.438,0.012 1.369,-0.066 2.523,-1.123 2.672,-2.529 l 1.433,-13.613 c 0.131,-1.233 -0.558,-2.407 -1.698,-2.896 L 51.406,31.863 c -0.791,-0.339 -1.649,-0.289 -2.364,0.064 L 39.399,31.851 34.849,3.813 C 34.612,2.337 33.22,1.339 31.746,1.575 30.27,1.815 29.269,3.204 29.508,4.679 L 34.6,36.076 c 0.011,0.065 0.024,0.127 0.042,0.192 -0.098,3.57 -0.059,8.56 0.662,12.151 0.696,3.466 1.829,6.638 2.882,9.116 l -14.074,9.732 c 0,0 0.683,0.865 2.117,1.991 l -0.061,0.053 c -0.938,0.816 -1.449,2.017 -1.39,3.259 l 1.066,22.027 c 0.111,2.238 2.013,3.966 4.251,3.857 2.24,-0.107 3.965,-2.011 3.858,-4.25 L 32.98,74.142 34.064,73.2 c 3.432,1.003 7.802,1.524 13.194,0.824 3.115,-0.403 5.744,-0.858 7.962,-1.337 l 13.099,22.646 c 0.783,1.362 2.24,2.095 3.711,2.023 0.624,-0.031 1.254,-0.207 1.832,-0.541 1.939,-1.122 2.603,-3.607 1.48,-5.544 z" />
    </g>
  </g>
  <g
     inkscape:groupmode="layer"
     id="layer3"
     inkscape:label="Text PL"
     style="display:inline"
     transform="translate(-3.0517579e-6,-2.9658108e-5)">
    <text
       xml:space="preserve"
       style="font-style:normal;font-variant:normal;font-weight:300;font-stretch:normal;font-size:10.58333302px;line-height:1.25;font-family:'Bookman Old Style';-inkscape-font-specification:'Bookman Old Style, Light';font-variant-ligatures:normal;font-variant-caps:normal;font-variant-numeric:normal;font-feature-settings:normal;text-align:center;letter-spacing:0px;word-spacing:0px;writing-mode:lr-tb;text-anchor:middle;fill:#ccebe7;fill-opacity:1;stroke:none;stroke-width:0.26458332"
       x="108.0761"
       y="159.4518"
       id="text814"><tspan
         sodipodi:role="line"
         x="108.0761"
         y="159.4518"
         style="font-style:normal;font-variant:normal;font-weight:600;font-stretch:normal;font-size:21.16666603px;line-height:1;font-family:'Bookman Old Style';-inkscape-font-specification:'Bookman Old Style Semi-Bold';font-variant-ligatures:normal;font-variant-caps:normal;font-variant-numeric:normal;font-feature-settings:normal;text-align:center;writing-mode:lr-tb;text-anchor:middle;fill:#ccebe7;fill-opacity:1;stroke-width:0.26458332"
         id="tspan844">O</tspan><tspan
         sodipodi:role="line"
         x="108.0761"
         y="180.61847"
         style="font-style:normal;font-variant:normal;font-weight:600;font-stretch:normal;font-size:21.16666603px;line-height:1;font-family:'Bookman Old Style';-inkscape-font-specification:'Bookman Old Style Semi-Bold';font-variant-ligatures:normal;font-variant-caps:normal;font-variant-numeric:normal;font-feature-settings:normal;text-align:center;writing-mode:lr-tb;text-anchor:middle;fill:#ccebe7;fill-opacity:1;stroke-width:0.26458332"
         id="tspan1911">czym</tspan><tspan
         sodipodi:role="line"
         x="108.0761"
         y="201.78513"
         style="font-style:normal;font-variant:normal;font-weight:600;font-stretch:normal;font-size:21.16666603px;line-height:1;font-family:'Bookman Old Style';-inkscape-font-specification:'Bookman Old Style Semi-Bold';font-variant-ligatures:normal;font-variant-caps:normal;font-variant-numeric:normal;font-feature-settings:normal;text-align:center;writing-mode:lr-tb;text-anchor:middle;fill:#ccebe7;fill-opacity:1;stroke-width:0.26458332"
         id="tspan882">śpiewają</tspan><tspan
         sodipodi:role="line"
         x="108.0761"
         y="222.9518"
         style="font-style:normal;font-variant:normal;font-weight:600;font-stretch:normal;font-size:21.16666603px;line-height:1;font-family:'Bookman Old Style';-inkscape-font-specification:'Bookman Old Style Semi-Bold';font-variant-ligatures:normal;font-variant-caps:normal;font-variant-numeric:normal;font-feature-settings:normal;text-align:center;writing-mode:lr-tb;text-anchor:middle;fill:#ccebe7;fill-opacity:1;stroke-width:0.26458332"
         id="tspan1901">Holendrzy?</tspan></text>
    <text
       xml:space="preserve"
       style="font-style:normal;font-variant:normal;font-weight:300;font-stretch:normal;font-size:10.58333302px;line-height:1.25;font-family:'Bookman Old Style';-inkscape-font-specification:'Bookman Old Style, Light';font-variant-ligatures:normal;font-variant-caps:normal;font-variant-numeric:normal;font-feature-settings:normal;text-align:center;letter-spacing:0px;word-spacing:0px;writing-mode:lr-tb;text-anchor:middle;display:inline;fill:#ccebe7;fill-opacity:1;stroke:none;stroke-width:0.26458332"
       x="107.64081"
       y="65.483711"
       id="text814-1"><tspan
         sodipodi:role="line"
         x="107.64081"
         y="65.483711"
         style="font-style:normal;font-variant:normal;font-weight:bold;font-stretch:normal;font-size:9.17222214px;line-height:0;font-family:'Bookman Old Style';-inkscape-font-specification:'Bookman Old Style Bold';font-variant-ligatures:normal;font-variant-caps:normal;font-variant-numeric:normal;font-feature-settings:normal;text-align:center;writing-mode:lr-tb;text-anchor:middle;fill:#ccebe7;fill-opacity:1;stroke-width:0.26458332"
         id="tspan842-9">Jacek</tspan><tspan
         sodipodi:role="line"
         x="107.64081"
         y="78.712875"
         style="font-style:normal;font-variant:normal;font-weight:bold;font-stretch:normal;font-size:9.17222214px;line-height:0;font-family:'Bookman Old Style';-inkscape-font-specification:'Bookman Old Style Bold';font-variant-ligatures:normal;font-variant-caps:normal;font-variant-numeric:normal;font-feature-settings:normal;text-align:center;writing-mode:lr-tb;text-anchor:middle;fill:#ccebe7;fill-opacity:1;stroke-width:0.26458332"
         id="tspan1845">Pardyak</tspan></text>
  </g>
  <g
     style="display:none"
     inkscape:label="Text NL"
     id="g828"
     inkscape:groupmode="layer">
    <text
       id="text826"
       y="161.6015"
       x="107.78671"
       style="font-style:normal;font-variant:normal;font-weight:300;font-stretch:normal;font-size:10.58333302px;line-height:1.25;font-family:'Bookman Old Style';-inkscape-font-specification:'Bookman Old Style, Light';font-variant-ligatures:normal;font-variant-caps:normal;font-variant-numeric:normal;font-feature-settings:normal;text-align:center;letter-spacing:0px;word-spacing:0px;writing-mode:lr-tb;text-anchor:middle;fill:#ccebe7;fill-opacity:1;stroke:none;stroke-width:0.26458332"
       xml:space="preserve"><tspan
         id="tspan824"
         style="font-style:normal;font-variant:normal;font-weight:600;font-stretch:normal;font-size:21.16666603px;line-height:1;font-family:'Bookman Old Style';-inkscape-font-specification:'Bookman Old Style, Semi-Bold';font-variant-ligatures:normal;font-variant-caps:normal;font-variant-numeric:normal;font-feature-settings:normal;text-align:center;writing-mode:lr-tb;text-anchor:middle;fill:#ccebe7;fill-opacity:1;stroke-width:0.26458332"
         y="161.6015"
         x="107.78671"
         sodipodi:role="line">Waar</tspan><tspan
         style="font-style:normal;font-variant:normal;font-weight:600;font-stretch:normal;font-size:21.16666603px;line-height:1;font-family:'Bookman Old Style';-inkscape-font-specification:'Bookman Old Style, Semi-Bold';font-variant-ligatures:normal;font-variant-caps:normal;font-variant-numeric:normal;font-feature-settings:normal;text-align:center;writing-mode:lr-tb;text-anchor:middle;fill:#ccebe7;fill-opacity:1;stroke-width:0.26458332"
         y="182.76817"
         x="107.78671"
         sodipodi:role="line"
         id="tspan834">zingen</tspan><tspan
         style="font-style:normal;font-variant:normal;font-weight:600;font-stretch:normal;font-size:21.16666603px;line-height:1;font-family:'Bookman Old Style';-inkscape-font-specification:'Bookman Old Style, Semi-Bold';font-variant-ligatures:normal;font-variant-caps:normal;font-variant-numeric:normal;font-feature-settings:normal;text-align:center;writing-mode:lr-tb;text-anchor:middle;fill:#ccebe7;fill-opacity:1;stroke-width:0.26458332"
         y="203.93483"
         x="107.78671"
         sodipodi:role="line"
         id="tspan836">Polen</tspan><tspan
         style="font-style:normal;font-variant:normal;font-weight:600;font-stretch:normal;font-size:21.16666603px;line-height:1;font-family:'Bookman Old Style';-inkscape-font-specification:'Bookman Old Style, Semi-Bold';font-variant-ligatures:normal;font-variant-caps:normal;font-variant-numeric:normal;font-feature-settings:normal;text-align:center;writing-mode:lr-tb;text-anchor:middle;fill:#ccebe7;fill-opacity:1;stroke-width:0.26458332"
         y="225.1015"
         x="107.78671"
         sodipodi:role="line"
         id="tspan838">over?</tspan></text>
    <text
       xml:space="preserve"
       style="font-style:normal;font-variant:normal;font-weight:300;font-stretch:normal;font-size:10.58333302px;line-height:1.25;font-family:'Bookman Old Style';-inkscape-font-specification:'Bookman Old Style, Light';font-variant-ligatures:normal;font-variant-caps:normal;font-variant-numeric:normal;font-feature-settings:normal;text-align:center;letter-spacing:0px;word-spacing:0px;writing-mode:lr-tb;text-anchor:middle;display:inline;fill:#ccebe7;fill-opacity:1;stroke:none;stroke-width:0.26458332"
       x="107.64081"
       y="65.483681"
       id="text814-1-8"><tspan
         sodipodi:role="line"
         x="107.64081"
         y="65.483681"
         style="font-style:normal;font-variant:normal;font-weight:bold;font-stretch:normal;font-size:9.17222309px;line-height:1;font-family:'Bookman Old Style';-inkscape-font-specification:'Bookman Old Style Bold';font-variant-ligatures:normal;font-variant-caps:normal;font-variant-numeric:normal;font-feature-settings:normal;text-align:center;writing-mode:lr-tb;text-anchor:middle;fill:#ccebe7;fill-opacity:1;stroke-width:0.26458332"
         id="tspan842-9-8">Jacek</tspan><tspan
         sodipodi:role="line"
         x="107.64081"
         y="78.712845"
         style="font-style:normal;font-variant:normal;font-weight:bold;font-stretch:normal;font-size:9.17222309px;line-height:1;font-family:'Bookman Old Style';-inkscape-font-specification:'Bookman Old Style Bold';font-variant-ligatures:normal;font-variant-caps:normal;font-variant-numeric:normal;font-feature-settings:normal;text-align:center;writing-mode:lr-tb;text-anchor:middle;fill:#ccebe7;fill-opacity:1;stroke-width:0.26458332"
         id="tspan1899">Pardyak</tspan></text>
  </g>
  <g
     inkscape:label="Graphics"
     inkscape:groupmode="layer"
     id="layer1"
     transform="translate(-3.0517579e-6,-17.600013)"
     style="display:inline">
    <g
       style="font-style:normal;font-weight:normal;font-family:Dialog;display:inline;fill:#88bacd;fill-opacity:1;stroke:#000000;stroke-width:0;stroke-linecap:square;stroke-linejoin:miter;stroke-miterlimit:10;stroke-dasharray:none;stroke-dashoffset:0pt;stroke-opacity:1"
       id="g902"
       transform="matrix(0.06122588,0,0,0.06122588,3.1677185,22.044919)">
      <path
         inkscape:connector-curvature="0"
         transform="scale(0.66666667)"
         id="path17"
         d="m 739.4375,34.78125 -3,1.5 -12,1.5 -1.5,1.5 -4.5,1.5 h -1.5 l -1.5,1.5 h -3 l -3,3 h -1.5 -1.5 -1.5 l -3,1.5 -3,1.5 -1.5,-1.5 -1.5,1.5 h -7.5 l -4.5,1.5 -6,1.5 h -3 l -3,1.5 h -3 l -4.5,1.5 -4.5,1.5 -1.5,1.5 v 1.5 l -3,1.5 -1.5,-1.5 -1.5,-1.5 -7.5,-4.5 h -1.5 l -6,3 v -1.5 h -1.5 v 1.5 h -1.5 v -1.5 l -1.5,1.5 1.5,1.5 h 1.5 l 1.5,1.5 h 1.5 l 1.5,1.5 h 1.5 v 1.5 h -1.5 -1.5 -1.5 v -1.5 l -3,-1.5 v -1.5 h -3 l -1.5,3 h 1.5 l 1.5,1.5 h 1.5 v 1.5 l -1.5,1.5 -1.5,-1.5 v 1.5 l 1.5,1.5 h 1.5 1.5 1.5 1.5 1.5 v 1.5 h -3 -1.5 l -3,-1.5 v 1.5 l -1.5,-1.5 v 1.5 l 1.5,1.5 h 1.5 1.5 1.5 1.5 1.5 l 1.5,-1.5 v 1.5 1.5 h -1.5 l 1.5,1.5 1.5,-1.5 h 1.5 v 1.5 l -1.5,1.5 h -3 v 1.5 l 1.5,1.5 1.5,-1.5 h 1.5 l -1.5,1.5 h -1.5 -1.5 l 1.5,1.5 v 1.5 h -1.5 v -1.5 l -1.5,-1.5 v -1.5 h -1.5 l 1.5,-1.5 h -1.5 l -1.5,-1.5 v 1.5 l -1.5,3 v -1.5 -1.5 l -3,-1.5 -1.5,1.5 v 1.5 l 3,3 v 1.5 h -1.5 v -1.5 l -1.5,1.5 v -1.5 l -1.5,-1.5 v -1.5 -1.5 -3 l -1.5,-1.5 v -1.5 l 1.5,-1.5 h -1.5 v -1.5 -1.5 l -1.5,-1.5 1.5,-3 v -1.5 -1.5 l 3,-1.5 -7.5,3 h -1.5 l -3,-1.5 h -4.5 v 1.5 h -1.5 -1.5 l -1.5,-1.5 -6,1.5 h -3 -1.5 l -1.5,1.5 -6,1.5 h -1.5 -1.5 l -6,3 h -3 -1.5 -1.5 -1.5 v -1.5 l -1.5,-1.5 v 3 l -3,1.5 -3,1.5 -1.5,1.5 -3,1.5 -1.5,1.5 -3,1.5 h -3 l -4.5,3 -6,3 -3,1.5 -7.5,4.5 h -4.5 l -1.5,1.5 -3,1.5 h -1.5 l -1.5,1.5 -3,1.5 -3,1.5 -1.5,1.5 -3,3 -1.5,3 -1.5,1.5 v 1.5 h -1.5 v 1.5 l -3,1.5 -1.5,1.5 h -1.5 l -3,3 -1.5,1.5 h -1.5 l -1.5,1.5 -1.5,3 h -1.5 l -1.5,1.5 -1.5,3 -1.5,4.5 -1.5,1.5 v 1.5 h 1.5 l -1.5,1.5 -1.5,1.5 -1.5,1.5 v 1.5 h 1.5 v 3 l -1.5,3 v 4.5 3 1.5 l -1.5,1.5 v 1.5 l -3,1.5 h -1.5 l 1.5,1.5 -1.5,1.5 v 1.5 l -1.5,1.5 h 1.5 l 1.5,1.5 1.5,3 v 1.5 1.5 1.5 l 1.5,3 h -1.5 l 1.5,1.5 h -1.5 v -1.5 -1.5 -1.5 h -1.5 v -1.5 -1.5 h -1.5 -1.5 v -1.5 h -1.5 l 1.5,3 v 1.5 l 1.5,1.5 1.5,1.5 h -1.5 v 1.5 1.5 h 1.5 1.5 v 3 1.5 l 1.5,-1.5 v 1.5 h -1.5 v 1.5 h 1.5 l 1.5,1.5 v 1.5 1.5 1.5 l -1.5,1.5 v 3 l 1.5,4.5 v 3 l 1.5,1.5 v 0.5 l 3,-2 -3,3 v -1 l -1.5,1 v 1.5 3 h -1.5 l -1.5,1.5 1.5,1.5 1.5,3 v 1.5 3 1.5 l -1.5,1.5 h -1.5 -1.5 l -3,3 -1.5,1.5 -1.5,1.5 1.5,1.5 v 1.5 1.5 h 3 v 1.5 h 1.5 l 3,3 3,3 h 1.5 1.5 1.5 3 v -1.5 l 4.5,1.5 h 3 l 1.5,1.5 6,3 h 3 v 1.5 h 3 l 1.5,-1.5 h 1.5 v -1.5 l 1.5,-1.5 v -1.5 l 3,-1.5 3,1.5 1.5,-1.5 3,-1.5 h 1.5 l 1.5,1.5 v 3 h 1.5 1.5 3 1.5 1.5 v 1.5 h 1.5 l 1.5,-1.5 v 1.5 1.5 h -1.5 l -7.5,1.5 h -1.5 v 1.5 l -4.5,7.5 -7.5,12 v 1.5 l -1.5,4.5 v 15 7.5 3 1.5 1.5 h 1.5 l 1.5,1.5 1.5,1.5 3,4.5 4.5,6 1.5,1.5 h 1.5 15 1.5 4.5 12 1.5 l -1.5,1.5 v 3 1.5 1.5 l 1.5,1.5 v 1.5 l -6,-1.5 1.5,1.5 h 1.5 1.5 v 1.5 l 1.5,1.5 v 1.5 1.5 l 1.5,1.5 1.5,1.5 v 1.5 1.5 l 1.5,1.5 v 3 3 1.5 l -1.5,4.5 -1.5,3 v 1.5 1.5 l -1.5,3 v 1.5 1.5 l -1.5,-1.5 v 3 h -1.5 v -1.5 -1.5 l 4.5,-9 1.5,-3 v -1.5 -3 -7.5 l -1.5,-3 -7.5,-7.5 v -1.5 h -1.5 -7.5 -1.5 l -6,-1.5 -13.5,-4.5 h -1.5 l -1.5,-3 h -1.5 l -1.5,1.5 -10.5,3 h -1.5 l -1.5,1.5 -12,10.5 v 1.5 h -1.5 -6 -1.5 v 1.5 l -1.5,4.5 v -1.5 l -1.5,3 v 1.5 1.5 1.5 1.5 l -3,1.5 h -1.5 l -1.5,1.5 -1.5,3 h -1.5 -1.5 v 1.5 l -25.5,16.5 -4.5,3 v 1.5 h -1.5 v 1.5 h -1.5 -0.90625 l -9.59375,6 -1.5,1.5 -6,4.5 h -1.5 v 1.5 l 3,3 v 3 4.5 l -1.5,1.5 h 1.5 l 1.5,3 h -1.5 l 1.5,1.5 1.5,-1.5 h 1.5 l 6,-1.5 h 1.5 1.5 l 1.5,1.5 h 1.5 1.5 3 l 4.5,1.5 3,3 4.5,1.5 1.5,1.5 v 1.5 h 1.5 l 13.5,12 1.5,3 h 1.5 l 3,1.5 3,-1.5 7.5,-3 h 1.5 3 l 1.5,-1.5 4.5,-1.5 h 1.5 l 1.5,-6 1.5,-1.5 v -4.5 h 1.5 v -3 -1.5 -1.5 -1.5 h -1.5 v -1.5 l -1.5,-3 1.5,-1.5 4.5,-4.5 3,1.5 4.5,-1.5 h 1.5 l 1.5,-1.5 h -1.5 l 1.5,-1.5 1.5,-1.5 1.5,-1.5 4.5,-4.5 12,-6 h 1.5 1.5 l 1.5,1.5 h 1.5 l 6,-4.5 1.5,-3 3,-3 1.5,-3 1.5,-1.5 v 1.5 h 1.5 v 1.5 h -1.5 l 1.5,1.5 -1.5,1.5 -1.5,1.5 -4.5,4.5 -3,3 -3,1.5 v 1.5 h -1.5 l -1.5,1.5 h -1.5 l -1.5,1.5 v 1.5 h -1.5 v 1.5 h -1.5 -1.5 l -3,1.5 -1.5,1.5 h -1.5 l -1.5,1.5 -3,1.5 h -1.5 l -1.5,1.5 -1.5,1.5 v 1.5 h -1.5 -1.5 v 1.5 1.5 h -1.5 v 1.5 h -1.5 v 1.5 h -1.5 v 1.5 l -3,1.5 -1.5,1.5 -1.5,1.5 v 1.5 l -1.5,3 v 3 l -1.5,3 v 1.5 l -1.5,3 -1.5,1.5 h -6 -1.5 l -3,3 -1.5,-1.5 -1.5,1.5 -4.5,1.5 h -3 l -1.5,1.5 h -3 l -1.5,-1.5 -1.5,-1.5 -1.5,-1.5 h -1.5 v -1.5 l -1.5,-1.5 h -1.5 -1.5 -1.5 l -1.5,-1.5 h -3 l -1.5,-1.5 -3,-3 v -1.5 l 1.5,-1.5 h -1.5 -1.5 l -1.5,-1.5 h -1.5 l -1.5,-1.5 h -1.5 v -1.5 l -1.5,-1.5 -1.5,1.5 h -1.5 -1.5 -6 l -1.5,1.5 h -1.5 l -1.5,1.5 h -1.5 v -1.5 h -1.5 l -1.5,-1.5 -1.5,-1.5 -1.5,-3 h -1.5 v -1.5 h -3 -1.5 l -1.5,-3 h -4.5 -1.5 -1.5 l -3,1.5 -1.5,-1.5 v 1.5 h -1.5 v -1.5 h 1.5 v -1.5 l -1.5,-1.5 h -1.5 l -1.5,1.5 h -1.5 -1.5 v -1.5 h 1.5 v -1.5 -1.5 l -3,-1.5 h -1.5 v 1.5 h -1.5 l -1.5,-1.5 h -1.5 v -1.5 h 1.5 1.5 l 1.5,-1.5 -4.5,-3 v -1.5 l 3,1.5 1.5,1.5 h 1.5 l 1.5,-1.5 v 1.5 l 1.5,1.5 1.5,-1.5 v -1.5 -1.5 h 1.5 l 1.5,-1.5 v -3 l 1.5,-1.5 1.5,-1.5 1.5,-1.5 h 1.5 1.5 v -1.5 l 1.5,-1.5 v -1.5 l 3,-3 h -1.5 -1.5 l -1.5,-1.5 v 1.5 l -3,-1.5 v -1.5 -1.5 -1.5 l 1.5,-1.5 v -1.5 h -1.5 l -1.5,1.5 -1.5,-1.5 3,-1.5 h 3 v -1.5 l -1.5,-1.5 v -1.5 -1.5 l 1.5,-1.5 1.5,1.5 v -1.5 l 1.5,-1.5 1.5,-3 h -1.5 v -3 h -1.5 v -1.5 l -1.5,-1.5 v -1.5 l -1.5,-3 v -1.5 l -3,-4.5 v -1.5 l -1.5,-1.5 v -3 l -1.5,-3 v -1.5 l -1.5,-1.5 1.5,-1.5 -1.5,-1.5 v -1.5 -1.5 -1.5 -3 -1.5 h 1.5 v -1.5 h 1.5 l 1.5,-1.5 h 1.5 1.5 v 1.5 l 1.5,1.5 v -1.5 l 1.5,-1.5 h 1.5 1.5 1.5 l 1.5,1.5 1.5,1.5 h 1.5 l 1.5,1.5 v 1.5 h 3 1.5 1.5 l 1.5,-1.5 3,-3 h 1.5 3 v -1.5 l 1.5,-1.5 h 1.5 v -1.5 l 3,-1.5 v -1.5 l 1.5,-1.5 v -3 -1.5 l 1.5,-3 h 1.5 1.5 1.5 l 1.5,-1.5 h 1.5 l -1.5,-1.5 h 1.5 l 1.5,-1.5 1.5,-1.5 -1.5,-1.5 -1.5,-1.5 v -1.5 -1.5 -1.5 -1.5 -1.5 -1.5 h -1.5 l -1.5,-1.5 -3,-1.5 h -4.5 -1.5 l -1.5,-1.5 h -3 -1.5 l -1.5,3 -1.5,1.5 v 1.5 l -1.5,-1.5 h -1.5 -1.5 -1.5 l -3,-3 -1.5,-1.5 -1.5,-1.5 1.5,-3 h -1.5 l -1.5,-1.5 h -1.5 l 3,-22.5 -3,-4.5 -4.5,-9 v -1.5 l -1.5,-1.5 -4.5,-9 h -1.5 -1.5 v 3 l -3,3 h -1.5 l -3,1.5 h -1.5 l -1.5,3 h -1.5 -1.5 -4.5 -1.5 v 1.5 h -3 l -3,-1.5 -4.5,1.5 -1.5,-1.5 -4.5,-3 h -1.5 l -4.5,-3 -1.5,-1.5 -1.5,-1.5 -1.5,-3 v -3 -3 l 1.5,-3 v -1.5 h -1.5 v 1.5 h -1.5 -1.5 v -1.5 -1.5 h -3 -3 -1.5 -1.5 l -3,4.5 v 1.5 1.5 3 l -1.5,4.5 v 4.5 6 l -3,9 -1.5,9 -3,9 v 3 h -1.5 v 3 l -3,6 v 3 l -3,9 v 1.5 1.5 1.5 1.5 4.5 l -1.5,6 v 3 3 l -1.5,6 v 3 1.5 3 l -1.5,1.5 v 1.5 l -1.5,10.5 -1.5,13.5 -1.5,7.5 -1.5,3 -1.5,3 -1.5,3 -1.5,4.5 3,-1.5 h 1.5 l 3,-1.5 1.5,1.5 h -1.5 v 1.5 h -3 l -1.5,1.5 h 3 v 1.5 l -3,-1.5 h -1.5 v 1.5 l -3,-1.5 v 3 l 1.5,3 -1.5,1.5 v 3 l -1.5,3 -1.5,6 -1.5,4.5 -3,7.5 -6,12 -9,19.5 -3,4.5 -1.5,3 -4.5,7.5 -1.5,1.5 v 1.5 l -3,4.5 -1.5,3 -4.5,6 -9,12 -4.5,3 v 1.5 l -3,3 h -1.5 v 1.5 1.5 h 1.5 l -1.5,1.5 v -1.5 h -1.5 l -1.5,1.5 -1.5,3 -1.5,1.5 -4.5,4.5 -3,3 -4.5,6 -1.5,1.5 -3,3 -1.5,1.5 v 1.5 l -3,4.5 -3,1.5 -3,3 h -1.5 l -1.5,-1.5 -7.5,-1.5 -1.5,1.5 h -1.5 -1.5 l -1.5,1.5 v 1.5 l -1.5,1.5 -1.5,3 1.5,1.5 1.5,1.5 v 1.5 l -3,3 -1.5,3 -3,4.5 h 1.5 1.5 l 1.5,1.5 1.5,-1.5 6,-1.5 h 1.5 l 1.5,3 h -1.5 v 1.5 l -3,3 v 1.5 l -1.5,1.5 v 1.5 l 1.5,1.5 6,9 v 1.5 1.5 l -1.5,1.5 3,-1.5 1.5,1.5 1.5,1.5 1.5,1.5 v 1.5 h 1.5 1.5 1.5 1.5 l -1.5,1.5 1.5,1.5 h 1.5 v -1.5 h 1.5 1.5 1.5 l 1.5,1.5 3,4.5 h 1.5 1.5 1.5 v 1.5 h 3 l 1.5,3 1.5,1.5 h 1.5 1.5 l -1.5,1.5 h -1.5 l 1.5,3 1.5,1.5 4.5,1.5 v 1.5 h 3 l 3,1.5 h 3 v 1.5 l 6,1.5 3,3 h 1.5 l 3,1.5 4.5,3 h 1.5 l 1.5,1.5 h 3 v 1.5 h 6 1.5 l 3,1.5 h 1.5 1.5 l 1.5,1.5 h 1.5 l 1.5,1.5 h 1.5 l 3,-1.5 h 1.5 l 4.5,-1.5 h 1.5 l 1.5,-1.5 h 3 l 1.5,-3 1.5,1.5 h 1.5 l 3,-1.5 v 1.5 1.5 l -3,1.5 -1.5,1.5 h -1.5 l -1.5,1.5 -1.5,1.5 -12,3 h -1.5 -1.5 l -4.5,1.5 h -3 l -4.5,-1.5 -1.5,-1.5 h -1.5 l -1.5,-1.5 h -1.5 -3 l -1.5,1.5 -3,1.5 -1.5,1.5 v 1.5 l -1.5,3 -1.5,1.5 -1.5,1.5 -1.5,1.5 -3,1.5 h -1.5 l -1.5,1.5 h -1.5 v -1.5 h -1.5 l -1.5,1.5 h -3 -1.5 l -1.5,1.5 h -1.5 -1.5 l -1.5,3 h -1.5 v -1.5 h -1.5 -1.5 -1.5 l -3,-1.5 h -3 -1.5 -1.5 l -3,-1.5 -4.5,-3 h -1.5 l -4.5,-1.5 v 1.5 l -3,3 h -1.5 l 1.5,3 h 1.5 l 1.5,3 1.5,3 h 3 3 1.5 1.5 v -1.5 h 1.5 v 1.5 1.5 l -1.5,1.5 h -1.5 -1.5 -1.5 -1.5 -1.5 l -1.5,1.5 h -1.5 l -3,-3 -6,-1.5 h -1.5 l -3,1.5 -1.5,1.5 h -1.5 l -3,1.5 -1.5,1.5 -1.5,-1.5 -3,1.5 -1.5,1.5 v 3 h 1.5 v 1.5 h 1.5 1.5 l 1.5,1.5 1.5,1.5 h 1.5 v 1.5 1.5 l 1.5,1.5 h 1.5 l 1.5,1.5 1.5,1.5 v 3 l 1.5,1.5 h 1.5 v 1.5 h 1.5 1.5 6 1.5 1.5 l 1.5,1.5 h 1.5 v -1.5 l 3,1.5 3,1.5 -1.5,1.5 v 1.5 1.5 h 1.5 l 6,3 1.5,1.5 v 9 1.5 l 1.5,6 h -1.5 -1.5 -1.5 l -1.5,-1.5 h -1.5 -1.5 -1.5 l -1.5,1.5 h -1.5 l -1.5,1.5 h -1.5 -1.5 -1.5 v -1.5 h -1.5 l -4.5,-3 h -1.5 l -1.5,-4.5 h -1.5 l -3,-4.5 v -1.5 l -1.5,-1.5 1.5,-1.5 -1.5,-1.5 v -1.5 -1.5 h -1.5 l -1.5,-1.5 -3,-3 -1.5,-1.5 h -1.5 -1.5 l -1.5,-1.5 h -1.5 l -3,-1.5 h -1.5 l -1.5,-1.5 -1.5,1.5 h -1.5 v 1.5 l -3,-4.5 h 1.5 l -1.5,-1.5 v -1.5 h -1.5 -1.5 -1.5 l -1.5,1.5 h -1.5 -1.5 -3 -1.5 -1.5 -1.5 v -1.5 l -1.5,-1.5 h -3 l -3,1.5 h -1.5 l -1.5,1.5 -4.5,-1.5 h -1.5 l -1.5,-1.5 -1.5,1.5 -3,1.5 v 1.5 l -1.5,1.5 v 1.5 l -1.5,1.5 h -1.5 l -1.5,1.5 h 1.5 1.5 l -3,1.5 v -1.5 l -3,-3 -1.5,-1.5 v -1.5 l -1.5,-4.5 v -1.5 h -1.5 l -1.5,-1.5 -3,-1.5 -1.5,-1.5 -1.5,-1.5 v -1.5 -3 l 1.5,-1.5 h -1.5 -1.5 l -1.5,-1.5 h -4.5 -1.5 -1.5 -3 v 1.5 h -1.5 -1.5 l -1.5,1.5 -3,1.5 -1.5,1.5 -3,1.5 h -1.5 l -1.5,1.5 -1.5,1.5 -3,1.5 -1.5,1.5 h -1.5 l -1.5,1.5 -1.5,1.5 v 1.5 1.5 1.5 l 1.5,3 h 1.5 l 1.5,1.5 1.5,1.5 3,1.5 v 1.5 h 1.5 l 1.5,1.5 1.5,1.5 v 1.5 l 1.5,1.5 v 1.5 l 1.5,1.5 v 1.5 l 1.5,1.5 1.5,1.5 3,1.5 v 1.5 h 1.5 l 1.5,1.5 v 1.5 h 1.5 3 1.5 v -1.5 -3 h 1.5 v 3 l 1.5,1.5 h 1.5 3 l 1.5,-1.5 v -1.5 h 1.5 3 1.5 l -3,-1.5 1.5,-1.5 3,-1.5 h 1.5 v 1.5 l 4.5,-3 v -1.5 -1.5 l 1.5,1.5 v 1.5 h 1.5 l -1.5,1.5 h -1.5 l -3,1.5 3,1.5 h 1.5 1.5 l -1.5,1.5 1.5,1.5 v 1.5 l -1.5,-1.5 -1.5,1.5 h -1.5 l 1.5,-3 -3,-1.5 -1.5,-1.5 -1.5,3 1.5,1.5 4.5,3 1.5,1.5 v 1.5 h 1.5 v 3 1.5 h 1.5 l 1.5,1.5 h 1.5 v -1.5 h 1.5 l 3,1.5 h 1.5 v 1.5 l 3,1.5 v 1.5 h 1.5 l 3,3 h 1.5 3 l 3,-1.5 h 1.5 l 1.5,-1.5 h 3 1.5 l 1.5,1.5 1.5,-1.5 1.5,-6 h 1.5 v -1.5 -1.5 h 1.5 v -3 -1.5 -1.5 -1.5 -1.5 l 3,1.5 3,-1.5 h 1.5 l 3,-3 1.5,1.5 1.5,1.5 1.5,1.5 v 1.5 h 1.5 v 1.5 h 1.5 1.5 l 1.5,1.5 1.5,1.5 h 3 v 1.5 3 l 3,1.5 h 1.5 l 1.5,1.5 h 1.5 l 3,1.5 3,1.5 h 3 l 1.5,1.5 h 3 l 4.5,-1.5 3,-1.5 h 1.5 1.5 v 1.5 h 1.5 1.5 l 3,1.5 1.5,4.5 v 3 h 4.5 l 3,-1.5 h 10.5 v 1.5 l 1.5,1.5 v 4.5 l 1.5,-1.5 4.5,1.5 h 1.5 1.5 1.5 1.5 l 1.5,-1.5 3,-1.5 h 1.5 v -1.5 -1.5 l -7.5,-10.5 -1.5,-4.5 1.5,-1.5 h 1.5 v -1.5 -1.5 -1.5 -1.5 h -1.5 l -1.5,-1.5 1.5,-1.5 10.5,-4.5 h 3 l 1.5,-1.5 1.5,-1.5 h 1.5 1.5 l 10.5,-1.5 1.5,3 -3,7.5 1.5,9 7.5,-3 h 1.5 3 l 6,1.5 3,1.5 h 1.5 v -1.5 l 1.5,1.5 3,-1.5 -1.5,-6 4.5,-1.5 h 1.5 l 1.5,-4.5 3,-1.5 1.5,-1.5 1.5,-3 3,-1.5 1.5,-1.5 -1.5,-1.5 h 1.5 1.5 v -1.5 l 3,-1.5 1.5,1.5 v 1.5 h 1.5 1.5 l 3,1.5 h 1.5 v 1.5 1.5 l 1.5,1.5 1.5,-1.5 1.5,1.5 -1.5,3 v 3 h 1.5 v 1.5 h -1.5 l -1.5,1.5 -1.5,1.5 1.5,6 v 1.5 h 1.5 1.5 v 1.5 h -1.5 l -4.5,-1.5 -1.5,-1.5 h -3 v -1.5 h -1.5 l -3,1.5 v 1.5 1.5 l 1.5,1.5 3,1.5 h 1.5 l 4.5,-1.5 h 3 3 l 1.5,1.5 h 1.5 v -1.5 h 1.5 1.5 1.5 1.5 l 3,3 v 1.5 h 1.5 l 1.5,1.5 h 1.5 l 6,-9 9,-6 v -3 h 1.5 v -1.5 l -1.5,-1.5 v -1.5 l 1.5,-1.5 v -1.5 l 1.5,-1.5 3,-1.5 h 1.5 l -1.5,1.5 1.5,1.5 v 1.5 h 1.5 6 l 4.5,13.5 -1.5,3 -4.5,9 9,10.5 v 1.5 l 1.5,1.5 1.5,1.5 v 10.5 l 6,1.5 1.5,-1.5 4.5,-1.5 h 1.5 v -1.5 l 9,6 -3,12 1.5,1.5 6,-1.5 6,1.5 h 4.5 3 l 1.5,-1.5 1.5,-3 4.5,1.5 6,1.5 3,1.5 4.5,-4.5 1.5,-1.5 4.5,-1.5 1.5,-1.5 1.5,-1.5 v -1.5 h 1.5 l 6,1.5 v 1.5 l 1.5,3 4.5,3 1.5,1.5 v 1.5 1.5 1.5 1.5 3 l 1.5,6 h 1.5 l 3,1.5 12,4.5 1.5,1.5 v 1.5 l 1.5,3 1.5,-1.5 1.5,1.5 h 1.5 1.5 3 1.5 1.5 3 l 1.5,-1.5 h 1.5 l 1.5,1.5 h 3 l 1.5,1.5 v 1.5 h 1.5 l -1.5,1.5 h -1.5 v 1.5 h 1.5 v 1.5 1.5 1.5 h 1.5 v -1.5 h 1.5 1.5 v -1.5 h 1.5 1.5 v -1.5 l 3,-1.5 v 1.5 h 1.5 v 3 l 4.5,3 -1.5,1.5 -1.5,1.5 v 1.5 l -3,1.5 h -1.5 v 1.5 l -1.5,1.5 -1.5,1.5 1.5,1.5 h 3 l 1.5,1.5 v 1.5 l -1.5,1.5 v 1.5 h -1.5 l -1.5,-1.5 h -1.5 -1.5 v 1.5 1.5 l 1.5,1.5 v 1.5 h -1.5 v 1.5 l 1.5,3 h -1.5 v 1.5 h -1.5 l -3,-1.5 -1.5,4.5 v 3 l -1.5,1.5 v 1.5 h 1.5 l 1.5,1.5 v 1.5 l -1.5,3 v 1.5 1.5 1.5 l -1.5,1.5 -1.5,1.5 -1.5,3 h -1.5 l -1.5,3 -1.5,3 v 1.5 h 1.5 1.5 l 1.5,-1.5 h 1.5 l 1.5,1.5 v 1.5 l -3,1.5 v 1.5 1.5 l -3,3 v 1.5 l -1.5,1.5 1.5,1.5 -1.5,1.5 h -1.5 -1.5 -1.5 l -1.5,1.5 v 1.5 1.5 l -3,3 v 1.5 h -1.5 l -1.5,1.5 h -1.5 v 1.5 h -1.5 -1.5 l 1.5,1.5 -1.5,1.5 v 1.5 1.5 1.5 1.5 1.5 1.5 h 1.5 v 1.5 1.5 h 1.5 v 1.5 l 1.5,1.5 h 1.5 1.5 v 1.5 h 3 l 1.5,1.5 v 1.5 l -1.5,1.5 1.5,4.5 v 3 l -3,4.5 v 1.5 h 1.5 1.5 l 1.5,-1.5 h 1.5 l 1.5,-1.5 v 1.5 l 1.5,1.5 h 1.5 l 1.5,-1.5 v -1.5 l 1.5,-1.5 3,-4.5 h 3 v 3 l 1.5,3 1.5,-1.5 3,4.5 h 1.5 l 1.5,-1.5 1.5,1.5 1.5,-1.5 1.5,-1.5 v 1.5 3 l 1.5,-1.5 1.5,-1.5 v -1.5 h 1.5 1.5 l 3,-1.5 v 1.5 3 l 3,1.5 v -1.5 h 1.5 1.5 v 1.5 l 3,-1.5 1.5,-1.5 h 1.5 1.5 1.5 1.5 l 1.5,1.5 3,1.5 h 1.5 v -1.5 h 3 1.5 v -3 l 1.5,-3 -4.5,-3 h -1.5 l -1.5,-1.5 v -1.5 h -1.5 l -1.5,-1.5 v -1.5 -1.5 l 1.5,-1.5 1.5,1.5 3,1.5 1.5,-3 1.5,-1.5 v -1.5 h 1.5 l -1.5,-1.5 v -1.5 l -1.5,-1.5 v -1.5 -1.5 l 1.5,-1.5 h 3 l 1.5,-1.5 h 1.5 v -1.5 h 1.5 v 1.5 l 3,1.5 v -3 -1.5 h 1.5 v -1.5 l 1.5,-1.5 v -3 l -1.5,-1.5 v 1.5 l -1.5,-3 v -1.5 -1.5 l 1.5,-1.5 v -1.5 l 1.5,-1.5 v -1.5 l -1.5,-1.5 h -1.5 -1.5 -3 v -1.5 -1.5 l -1.5,1.5 -1.5,-1.5 -4.5,-1.5 v -3 -1.5 l -3,-1.5 1.5,-1.5 h 1.5 v -1.5 l 1.5,-6 h -1.5 -6 -1.5 l -1.5,1.5 h -1.5 l -1.5,-1.5 v -1.5 h -1.5 l -3,1.5 h -1.5 l -1.5,1.5 h -1.5 l -1.5,1.5 h -1.5 l -1.5,-1.5 3,-3 v -4.5 h -1.5 l -1.5,-1.5 v -1.5 h -1.5 v -1.5 h -1.5 v -1.5 -1.5 -1.5 -3 l -1.5,-1.5 -1.5,-3 h 1.5 3 1.5 v -1.5 l 3,-1.5 1.5,-1.5 v 1.5 l 3,4.5 1.5,3 v 1.5 l 1.5,-1.5 h 1.5 v 1.5 h 1.5 v -1.5 l 1.5,-1.5 v -1.5 l 1.5,-1.5 v -1.5 -1.5 l 1.5,-1.5 v -1.5 l 1.5,-1.5 v -1.5 l 1.5,-1.5 3,-1.5 1.5,-1.5 3,-1.5 h 1.5 l 1.5,-1.5 1.5,-1.5 v -1.5 l 1.5,-1.5 h 1.5 1.5 l 1.5,-1.5 v -1.5 -1.5 l 1.5,-1.5 h 1.5 1.5 l 1.5,-1.5 h 1.5 v -1.5 h 3 l 1.5,-1.5 h 1.5 3 l -1.5,-1.5 h 1.5 l 1.5,-1.5 -6,-4.5 h -1.5 l 9,-4.5 -3,-3 -9,4.5 -1.5,1.5 -1.5,1.5 h -1.5 -1.5 -3 v -1.5 l -1.5,-1.5 v -10.5 l -1.5,-1.5 1.5,-1.5 h 3 l -3,-6 3,-1.5 1.5,-3 6,-6 v -1.5 l 1.5,-1.5 3,-4.5 1.5,-3 v -1.5 l 1.5,-1.5 v -1.5 -1.5 l 1.5,-1.5 v -1.5 h 1.5 1.5 1.5 v -1.5 l 7.5,-7.5 -1.5,-4.5 -1.5,-3 v -1.5 l 1.5,-1.5 1.5,-1.5 h -4.5 v -1.5 l 1.5,-9 v -4.5 h 1.5 l -1.5,-3 1.5,-1.5 v -4.5 l -1.5,-3 -1.5,-3 1.5,-3 -1.5,-1.5 v -3 -1.5 l -1.5,-3 -3,-1.5 -3,-1.5 -3,-9 -3,-1.5 -1.5,-1.5 -1.5,-1.5 -1.5,-3 v -1.5 h -1.5 l -4.5,-3 v -3 -3 h 1.5 v -1.5 l 1.5,-4.5 v -1.5 l 1.5,-1.5 v -1.5 l -3,-1.5 h -1.5 -1.5 v -1.5 h -1.5 -1.5 l -7.5,-3 -1.5,-1.5 v -1.5 -1.5 l 1.5,-1.5 -1.5,-1.5 v -1.5 -3 h 1.5 1.5 v -1.5 h -1.5 v -1.5 -1.5 h -1.5 l -4.5,-3 -1.5,-1.5 h -3 -1.5 -4.5 v -1.5 -1.5 l 1.5,-1.5 3,-1.5 h 1.5 l 1.5,-3 v -1.5 h -1.5 v -3 h 1.5 l -1.5,-1.5 h -1.5 v -1.5 -1.5 -1.5 l -3,-3 h -1.5 -1.5 v -1.5 l 1.5,-1.5 h 1.5 l -3,-1.5 3,-4.5 h 1.5 v 1.5 h 3 1.5 l 3,-1.5 h 1.5 l 1.5,-1.5 1.5,-1.5 1.5,1.5 1.5,-1.5 1.5,-1.5 h 1.5 l -1.5,-1.5 1.5,-1.5 1.5,-1.5 1.5,1.5 3,3 h 1.5 1.5 l 6,1.5 h 4.5 l 1.5,1.5 v -3 -1.5 -1.5 -1.5 l -3,-1.5 h -1.5 v -1.5 -1.5 l -1.5,-3 -1.5,-1.5 h -3 -1.5 l 1.5,-1.5 v -1.5 h 1.5 l 1.5,1.5 6,-3 1.5,1.5 h 1.5 l 1.5,1.5 3,1.5 v 1.5 h -3 l 1.5,1.5 1.5,1.5 1.5,1.5 3,1.5 h 3 v -1.5 h 3 l 1.5,1.5 h 1.5 v -1.5 h 1.5 v -1.5 l 1.5,1.5 4.5,1.5 v 1.5 l 1.5,3 v 1.5 l 3,-1.5 h 3 1.5 l 1.5,1.5 h 1.5 l 1.5,1.5 v 1.5 1.5 h 1.5 1.5 1.5 l 3,1.5 h 1.5 l -1.5,-3 1.5,1.5 -1.5,-3 v -1.5 l 1.5,-1.5 h -1.5 v -1.5 h -1.5 l -1.5,-1.5 v -1.5 -3 l 3,1.5 h 1.5 l 1.5,1.5 h 1.5 v 1.5 h 1.5 1.5 l 1.5,-1.5 1.5,3 h 1.5 l 1.5,1.5 1.5,-1.5 4.5,-1.5 v -1.5 -1.5 h 1.5 l 1.5,-1.5 h 1.5 1.5 l 1.5,-1.5 v -1.5 h 1.5 l 1.5,-1.5 v 1.5 h 1.5 l 1.5,-1.5 3,-1.5 7.5,-3 h 1.5 1.5 v -1.5 l 3,-1.5 3,-1.5 h 1.5 l 1.5,-1.5 v 1.5 h 1.5 1.5 v 1.5 l 1.5,1.5 3,3 3,-1.5 v -1.5 h 1.5 l 1.5,-1.5 h 1.5 v -1.5 l 1.5,-1.5 h 1.5 l 3,-4.5 1.5,-1.5 v -1.5 -1.5 -4.5 l 3,-1.5 h 3 l 1.5,-3 -1.5,-1.5 v -3 -1.5 l -4.5,-1.5 h 1.5 l -9,-6 -1.5,-1.5 -1.5,-3 -7.5,-3 h -6 v -1.5 -3 -1.5 l 1.5,-1.5 v -1.5 -1.5 h 4.5 l 3,-1.5 3,-1.5 v -1.5 -1.5 -1.5 h 1.5 v -1.5 l 1.5,-6 h 12 4.5 l 1.5,-1.5 1.5,-1.5 1.5,-1.5 v -1.5 l 1.5,-7.5 h 1.5 v -1.5 l 4.5,-3 v -1.5 l 4.5,-1.5 h 4.5 l 1.5,-3 v -1.5 l 1.5,-1.5 v -1.5 l 1.5,-1.5 v -1.5 -1.5 -1.5 l 1.5,-1.5 3,-1.5 1.5,1.5 h 1.5 1.5 3 l 4.5,-3 v -1.5 l -4.5,-6 -1.5,-1.5 v -3 h -1.5 v -1.5 -1.5 -1.5 -1.5 l 1.5,-4.5 v -1.5 h 1.5 v -1.5 h 1.5 v -1.5 -1.5 l 1.5,-3 v -1.5 l 3,-4.5 v -7.5 l -3,-6 v -1.5 -1.5 h -1.5 -1.5 -1.5 l -1.5,-3 -1.5,-3 -3,-3 v -1.5 l -1.5,-3 v -3 l -1.5,-3 v -1.5 h -1.5 -1.5 l -1.5,3 -1.5,4.5 -3,1.5 v 1.5 h -1.5 l -7.5,-1.5 -3,-1.5 -4.5,-1.5 h -3 l 1.5,-3 h -3 -4.5 -9 -3 l -1.5,-1.5 -6,-3 -1.5,-1.5 -3,-1.5 1.5,-12 -3,-4.5 -3,-6 h 1.5 l 3,1.5 h 3 l 1.5,-4.5 h 3 l 3,1.5 1.5,-1.5 -9,-7.5 v -3 l 1.5,-6 v -1.5 l -1.5,-1.5 -1.5,-1.5 1.5,-1.5 h 1.5 l 1.5,-1.5 1.5,-3 h 3 1.5 l 1.5,-1.5 h 1.5 1.5 1.5 1.5 1.5 l 1.5,1.5 1.5,-1.5 h 1.5 3 3 l 1.5,-1.5 1.5,1.5 h 3 1.5 l 3,1.5 v 1.5 h 1.5 3 1.5 1.5 3 l 1.5,-1.5 h 1.5 l 1.5,1.5 1.5,-1.5 v 1.5 h 1.5 l 4.5,1.5 h 1.5 l 3,-3 v -1.5 -3 -6 l 1.5,-15 v -19.5 -9 l 4.5,-9 -1.5,-3 v -1.5 l 3,-4.5 9,-15 6,-10.5 3,-12 1.5,-7.5 1.5,-1.5 v -1.5 l -3,-13.5 v -7.5 -1.5 -10.5 l -4.5,-3 v -3 -1.5 -1.5 l 1.5,-1.5 v -3 -1.5 l 1.5,-4.5 h 1.5 l 1.5,-1.5 h 3 l -3,-1.5 -1.5,-1.5 1.5,-1.5 v -1.5 -6 l -1.5,-4.5 v -1.5 h -1.5 l -4.5,-1.5 h -1.5 v -1.5 h -1.5 -1.5 -1.5 -1.5 v -1.5 h -1.5 -1.5 -3 l -1.5,-1.5 h -1.5 l -1.5,-1.5 -1.5,-1.5 v -1.5 -3 l 1.5,-1.5 -1.5,-3 v -1.5 h 1.5 l 1.5,-3 v -1.5 l -3,1.5 -1.5,1.5 h -4.5 -1.5 -1.5 -1.5 l -3,-1.5 v -1.5 h -1.5 -1.5 l -3,-1.5 -3,-1.5 v 1.5 l -3,-1.5 -3,-1.5 h -1.5 v -1.5 h 1.5 l -1.5,-1.5 -3,-3 h -1.5 l -1.5,-1.5 v -1.5 -3 -3 l -1.5,-1.5 v -1.5 -1.5 -3 l -1.5,-3 h -1.5 v -4.5 l 1.5,-4.5 v -1.5 l -4.5,-4.5 -3,-1.5 -1.5,3 1.5,1.5 h -1.5 -1.5 -1.5 v -1.5 l 1.5,1.5 v -1.5 l 1.5,-3 h -1.5 l -3,-1.5 -3,3 -1.5,-1.5 -3,-1.5 h -4.5 z m 37.5,43.5 1.5,1.5 v -1.5 z m 54,30 v -3 l -1.5,1.5 z m -447,598.5 h -1.5 -1.5 l 1.5,1.5 z m -259.5,-66 h 1.5 v 1.5 1.5 h 1.5 v 3 h 1.5 l 1.5,1.5 h 1.5 l 1.5,1.5 1.5,1.5 1.5,-1.5 v 1.5 h -1.5 l 3,3 v 1.5 1.5 l -1.5,1.5 1.5,1.5 v 1.5 l 1.5,-3 h 1.5 l 1.5,-3 1.5,-1.5 6,-1.5 h 3 l 1.5,1.5 h 3 1.5 1.5 v -1.5 h 1.5 3 l 1.5,1.5 1.5,1.5 h 3 l 1.5,-3 h 3 l 1.5,-1.5 v -1.5 -1.5 -1.5 h -1.5 v -1.5 l -1.5,-1.5 -1.5,-3 v -1.5 l -1.5,-1.5 h -1.5 -1.5 v -1.5 h -1.5 -1.5 l -3,1.5 -1.5,-1.5 h -3 l -3,1.5 -1.5,1.5 -3,-1.5 -3,1.5 h -1.5 l -1.5,1.5 h -1.5 l -1.5,-1.5 h -1.5 l -1.5,-1.5 h -1.5 -1.5 v -1.5 h -1.5 v 1.5 l -4.5,1.5 z m 87,-79.5 -1.5,1.5 h 1.5 z m 151.5,-360 v -1.5 h -1.5 z m 33,192 v 1.5 h 1.5 z m 129,3 -3,-1.5 1.5,1.5 z m -81.90625,-19.5 2.40625,-1.5 -3,1.5 z m 30.90625,-217.5 -4.5,4.5 h -1.5 -1.5 l 1.5,1.5 h 1.5 l 1.5,-1.5 z m 10.5,-30 v -1.5 l -1.5,1.5 z m 154.5,-55.5 v 1.5 l 1.5,1.5 z m -9,9 h 1.5 v 1.5 z m -3,1.5 h 1.5 l -1.5,1.5 z m -147,90 h 1.5 l -1.5,1.5 z m -62.09375,115.1875 0.125,0.0625 -0.9375,0.4375 z m -4.375,3.0625 -0.3125,0.28125 v -0.0312 z m -0.3125,0.8125 0.125,0.9375 -2.25,0.34375 -0.0312,-0.0312 -3.0625,1.1875 3,-1.1875 H 411 l 2.15625,-0.34375 z m 131.28125,23.4375 v 1.5 h 1.5 v 1.5 l 1.5,1.5 v -1.5 h 1.5 l 1.5,-1.5 -1.5,-1.5 h -1.5 -1.5 z m -123,43.5 v 1.5 1.5 l -1.5,3 h 1.5 l 1.5,-1.5 h 1.5 l 1.5,-1.5 h 1.5 v -1.5 l -3,1.5 -1.5,-1.5 z m -133.5,210 h 1.5 l -1.5,1.5 z"
         style="fill:#88bacd;fill-opacity:1;fill-rule:evenodd;stroke:#ffffff;stroke-width:0;stroke-linecap:butt;stroke-linejoin:bevel;stroke-miterlimit:10;stroke-dasharray:none;stroke-opacity:1" />
      <path
         inkscape:connector-curvature="0"
         id="path65"
         style="fill:#88bacd;fill-opacity:1;fill-rule:evenodd;stroke:#ffffff;stroke-width:0;stroke-linecap:butt;stroke-linejoin:bevel;stroke-miterlimit:10;stroke-dasharray:none;stroke-opacity:1"
         d="m 404.96708,27.18733 v 1 l -1,1 h -1 v 0 -1 -1 0 l 1,-1 v 0 h 1 z" />
      <path
         inkscape:connector-curvature="0"
         id="path71"
         style="fill:#88bacd;fill-opacity:1;fill-rule:evenodd;stroke:#ffffff;stroke-width:0;stroke-linecap:butt;stroke-linejoin:bevel;stroke-miterlimit:10;stroke-dasharray:none;stroke-opacity:1"
         d="m 362.96708,26.18733 h 3 3 l 13,-1 6,-1 h 3 l 2,1 h 1 v 1 0 1 h -1 -3 -2 -3 l -2,1 v 0 l -2,1 h -1 v 0 0 l -4,1 -4,1 h -2 -1 -1 l -3,-1 h -1 -2 -1 v 1 l -1,1 -1,1 h -2 l -1,1 h -1 -1 1 l -1,1 -1,-1 h -2 l -1,-1 -2,-1 -1,-2 v -1 l 1,-1 1,-2 1,-1 2,-2 h 1 1 l 1,1 h 1 l 1,1 h -1 v 0 l -1,-1 v 0 h -1 -2 l -1,1 h 2 1 v 0 l 4,1 z" />
      <path
         inkscape:connector-curvature="0"
         id="path99"
         style="fill:#88bacd;fill-opacity:1;fill-rule:evenodd;stroke:#ffffff;stroke-width:0;stroke-linecap:butt;stroke-linejoin:bevel;stroke-miterlimit:10;stroke-dasharray:none;stroke-opacity:1"
         d="m 441.96708,15.18733 v 2 h -1 -1 -1 -1 l -2,1 v 0 l -3,1 -1,1 v 1 l -2,1 h -1 -2 v 0 h -1 v 0 l -3,1 h -1 v 0 h -3 -1 l -1,2 v 1 h -1 v 1 0 h -1 v 0 h -1 v 1 0 l -1,-2 v 0 -1 h 1 l 1,-1 -1,-1 v -1 -2 l 1,-1 2,-1 v -1 0 h -1 -1 -1 v 0 h -1 1 v 0 l 1,-1 2,1 h 3 l 10,-1 h 3 l 6,-1 2,-1 z" />
      <path
         inkscape:connector-curvature="0"
         id="path105"
         style="fill:#88bacd;fill-opacity:1;fill-rule:evenodd;stroke:#ffffff;stroke-width:0;stroke-linecap:butt;stroke-linejoin:bevel;stroke-miterlimit:10;stroke-dasharray:none;stroke-opacity:1"
         d="m 299.96708,72.18733 v 0 0 l -1,-1 h 1 v 0 h 2 1 v 0 h -1 v 1 h -1 v 0 h -1 v -1 0 0 0 z" />
      <path
         inkscape:connector-curvature="0"
         id="path107"
         style="fill:#88bacd;fill-opacity:1;fill-rule:evenodd;stroke:#ffffff;stroke-width:0;stroke-linecap:butt;stroke-linejoin:bevel;stroke-miterlimit:10;stroke-dasharray:none;stroke-opacity:1"
         d="m 323.96708,38.18733 h -4 l -2,1 h -1 l -1,1 v 0 l -2,2 -1,1 v 0 h -1 -1 v 1 h -1 l -1,-1 v 1 h -1 l -1,1 v 0 0 h -1 v 1 0 l -1,-1 h -1 v 0 h -1 -1 v 0 l -1,1 -1,1 -1,-1 -1,1 h -1 l -1,1 v 1 0 0 h -1 l -2,1 h 1 l -1,1 h -1 -2 l -1,-2 h -1 v 0 -1 l 1,-1 2,-3 2,-3 v 0 l 2,-1 2,-1 4,-1 6,-1 h 2 l 6,-2 5,-2 11,-4 h 3 l 3,-1 1,1 h 1 l 1,1 v 0 2 1 0 -1 -1 l -1,-1 v 0 1 l -1,1 v 0 l -1,1 h -2 -1 l -2,1 v 0 0 l -1,-1 v 0 0 0 1 h 1 l -1,1 h -1 v 0 h -1 v -1 h -1 v 0 l 1,1 v 1 h -1 -1 v 0 l -1,-1 v 0 0 l 1,1 1,1 h 1 1 v 0 l -1,1 h -2 -2 z" />
      <path
         inkscape:connector-curvature="0"
         id="path109"
         style="fill:#88bacd;fill-opacity:1;fill-rule:evenodd;stroke:#ffffff;stroke-width:0;stroke-linecap:butt;stroke-linejoin:bevel;stroke-miterlimit:10;stroke-dasharray:none;stroke-opacity:1"
         d="m 288.96708,61.18733 v 0 l -1,1 -1,1 h -1 -1 -1 v 0 1 0 h -1 v 0 -1 0 h 1 -1 l 1,-1 1,-1 h 2 z" />
      <path
         inkscape:connector-curvature="0"
         id="path111"
         style="fill:#88bacd;fill-opacity:1;fill-rule:evenodd;stroke:#ffffff;stroke-width:0;stroke-linecap:butt;stroke-linejoin:bevel;stroke-miterlimit:10;stroke-dasharray:none;stroke-opacity:1"
         d="m 275.96708,62.18733 v 1 l -1,1 -2,1 -6,2 -2,1 v 1 2 h 1 v -1 0 0 0 h 1 l -1,1 -1,2 v 0 0 l -3,2 -1,1 h -1 v 1 l -1,1 -2,1 v 0 0 h -1 -2 -3 l -1,1 v 0 1 h 1 -1 -1 v 0 -2 -1 -1 l 6,-3 3,-3 2,-1 2,-2 1,-1 4,-3 2,-1 1,-1 v 0 l 3,-1 2,-1 2,-1 h 1 l 3,1 v 1 l -1,1 v 0 0 h -1 -1 z" />
      <path
         inkscape:connector-curvature="0"
         id="path415"
         style="fill:#88bacd;fill-opacity:1;fill-rule:evenodd;stroke:#ffffff;stroke-width:0;stroke-linecap:butt;stroke-linejoin:bevel;stroke-miterlimit:10;stroke-dasharray:none;stroke-opacity:1"
         d="m 227.96708,131.18733 -2,1 v 0 0 0 l -1,1 h -1 v 1 0 h -1 v 0 l -1,-1 v 0 -1 -1 -1 h 1 v 0 0 0 h 1 1 l 3,-1 v 0 h 2 v 1 0 z" />
      <path
         inkscape:connector-curvature="0"
         id="path417"
         style="fill:#88bacd;fill-opacity:1;fill-rule:evenodd;stroke:#ffffff;stroke-width:0;stroke-linecap:butt;stroke-linejoin:bevel;stroke-miterlimit:10;stroke-dasharray:none;stroke-opacity:1"
         d="m 249.96708,116.18733 -2,2 -1,1 h -1 -1 -1 l -3,4 v 1 0 1 h -1 -1 l -1,-1 -2,-1 h -1 l 1,1 1,1 v 0 l 1,1 h 1 -2 v 0 1 0 0 h -2 -1 1 l -1,1 h -1 l -1,1 h -1 v -1 -2 l -1,-4 v -2 -1 l 1,-3 v -1 0 l 1,-3 1,-3 1,-3 1,-1 2,-3 2,-4 3,-3 v 0 0 1 1 l 1,-1 v 0 0 l 1,-1 v 0 l 1,-1 h 1 v 1 -1 0 h -1 v -1 l -1,1 v 0 l -2,1 v 0 l 3,-6 1,-1 2,-1 v -1 h 1 1 v 0 l 1,1 1,1 v 1 1 h 1 -1 v 0 1 l 1,1 v 0 l 1,1 2,3 v 1 0 0 0 l -1,1 v 6 3 1 l -1,2 h -1 l -1,1 v 0 0 2 l -2,2 z" />
      <path
         inkscape:connector-curvature="0"
         id="path433"
         style="fill:#88bacd;fill-opacity:1;fill-rule:evenodd;stroke:#ffffff;stroke-width:0;stroke-linecap:butt;stroke-linejoin:bevel;stroke-miterlimit:10;stroke-dasharray:none;stroke-opacity:1"
         d="m 289.96708,126.18733 v 0 l -14,12 -1,1 h -1 v -1 h 2 z" />
      <path
         inkscape:connector-curvature="0"
         id="path435"
         style="fill:#88bacd;fill-opacity:1;fill-rule:evenodd;stroke:#ffffff;stroke-width:0;stroke-linecap:butt;stroke-linejoin:bevel;stroke-miterlimit:10;stroke-dasharray:none;stroke-opacity:1"
         d="m 256.96708,150.18733 -2,-1 -3,1 v 0 l 4,-2 1,-1 2,-1 h 1 l 2,-3 v -1 0 l 2,-2 h 2 l 1,-1 h 1 l 1,1 h 1 l 1,-1 v 0 h 1 l 1,1 v 0 0 0 0 -1 h 1 v 2 0 l -1,-1 v 0 0 2 0 h -1 v 2 0 l -2,2 h -1 l -2,1 h -1 l -1,2 h -1 v 0 h -1 v 0 h -3 -1 v 1 0 0 z" />
      <path
         inkscape:connector-curvature="0"
         transform="scale(0.66666667)"
         id="path479"
         d="m 200.9375,558.28125 -3,1.5 h 3 z m 0,1.5 -4.5,1.5 h -1.5 -1.5 l 3,-1.5 -4.5,1.5 -9,3 -3,1.5 h -1.5 l -4.5,1.5 h -1.5 l -1.5,3 v 1.5 1.5 l 1.5,4.5 v 1.5 h 1.5 v 1.5 h 1.5 l 3,-1.5 v -1.5 h -1.5 v -1.5 h 1.5 1.5 1.5 l 1.5,-1.5 h 1.5 1.5 1.5 l 1.5,-1.5 1.5,-1.5 3,1.5 h 3 l 3,1.5 v 1.5 l 1.5,1.5 1.5,3 h 1.5 v 3 1.5 h -1.5 v 1.5 h 1.5 l -1.5,1.5 v 1.5 l 1.5,3 h 1.5 v 1.5 l 1.5,1.5 v 1.5 l 1.5,3 v 3 h 1.5 1.5 l 1.5,1.5 1.5,-1.5 v 1.5 h 3 3 1.5 1.5 l 1.5,1.5 4.5,1.5 1.5,3 1.5,1.5 h 3 1.5 v 1.5 h 3 l 1.5,1.5 h 1.5 v 1.5 1.5 l 3,1.5 1.5,1.5 h 4.5 1.5 1.5 l 3,-1.5 h 3 1.5 l 4.5,-1.5 3,-1.5 1.5,-1.5 1.5,-3 v -1.5 h -1.5 v -1.5 h 1.5 1.5 1.5 1.5 l 3,-1.5 h -1.5 v -1.5 -1.5 h -1.5 l -1.5,1.5 h -3 -3 -3 -1.5 -3 l -3,-4.5 h -3 l -1.5,-1.5 h -1.5 l -1.5,-1.5 v -1.5 l -3,-1.5 v -1.5 -1.5 h -1.5 l -4.5,-4.5 -4.5,-4.5 h -1.5 v -1.5 h -3 l -1.5,-1.5 h -1.5 l -3,-3 -3,-1.5 h -1.5 l -6,-3 -1.5,-1.5 -4.5,-1.5 v -1.5 l -1.5,-1.5 h -1.5 v 1.5 l -1.5,-1.5 h 1.5 v -1.5 -1.5 h -1.5 v 1.5 h -1.5 v -1.5 l -3,-1.5 v -1.5 z m -28.5,21 -1.5,3 -1.5,1.5 -3,1.5 h 1.5 l 3,1.5 1.5,1.5 h 1.5 v -1.5 l -1.5,-1.5 -1.5,-1.5 z"
         style="fill:#88bacd;fill-opacity:1;fill-rule:evenodd;stroke:#ffffff;stroke-width:0;stroke-linecap:butt;stroke-linejoin:bevel;stroke-miterlimit:10;stroke-dasharray:none;stroke-opacity:1" />
      <path
         inkscape:connector-curvature="0"
         id="path483"
         style="fill:#88bacd;fill-opacity:1;fill-rule:evenodd;stroke:#ffffff;stroke-width:0;stroke-linecap:butt;stroke-linejoin:bevel;stroke-miterlimit:10;stroke-dasharray:none;stroke-opacity:1"
         d="m 126.96709,387.18733 1,1 v 0 l -1,-1 h -2 l -2,1 -2,1 h -1 v -1 0 l 2,-1 v -1 l 1,-1 1,-1 v 1 h 1 z" />
      <path
         inkscape:connector-curvature="0"
         id="path547"
         style="fill:#88bacd;fill-opacity:1;fill-rule:evenodd;stroke:#ffffff;stroke-width:0;stroke-linecap:butt;stroke-linejoin:bevel;stroke-miterlimit:10;stroke-dasharray:none;stroke-opacity:1"
         d="m 172.96708,394.18733 2,1 3,1 2,1 v 0 l 1,1 h -1 v 0 l -2,1 h -3 -1 l -1,-1 -1,-1 v 0 h -1 l -2,-2 h -1 l -1,-1 v 0 0 l 1,-1 v 0 h 2 z" />
      <path
         inkscape:connector-curvature="0"
         transform="scale(0.66666667)"
         id="path625"
         d="m 95.9375,699.28125 v 1.5 h -1.5 -1.5 l -3,1.5 h -1.5 -1.5 l -1.5,1.5 h -1.5 -1.5 -1.5 -1.5 -1.5 v 1.5 h -1.5 l -1.5,1.5 h -1.5 -1.5 l -1.5,1.5 h -1.5 v 1.5 l 1.5,1.5 v 3 1.5 1.5 l 1.5,1.5 v 3 l -4.5,4.5 -1.5,1.5 1.5,1.5 3,3 h -1.5 -1.5 v 1.5 l 1.5,1.5 1.5,1.5 v 1.5 l -1.5,1.5 1.5,1.5 h 1.5 l 1.5,3 h 1.5 l 1.5,3 1.5,-1.5 1.5,1.5 v 1.5 1.5 h 1.5 l 1.5,1.5 h 1.5 4.5 l 12,-1.5 -1.5,-10.5 -1.5,-1.5 3,-1.5 1.5,1.5 h 1.5 v -1.5 h 1.5 1.5 v -1.5 h 1.5 l 1.5,1.5 1.5,1.5 1.5,-1.5 -1.5,-3 3,-1.5 1.5,1.5 3,1.5 1.5,1.5 3,1.5 h 1.5 v -1.5 h 3 l 3,3 h 1.5 l 1.5,1.5 v 1.5 h 4.5 l 1.5,1.5 v -1.5 l 6,1.5 h 1.5 l 1.5,3 h 1.5 v -1.5 l 1.5,1.5 1.5,1.5 h 1.5 v 1.5 l -1.5,1.5 v 3 4.5 3 l 1.5,1.5 h 1.5 v -1.5 l 1.5,1.5 h 1.5 1.5 1.5 1.5 1.5 1.5 1.5 l 3,-3 h 1.5 1.5 v 3 h -1.5 l -1.5,1.5 1.5,1.5 h 1.5 1.5 l 3,-1.5 h 1.5 l -1.5,-3 3,-1.5 1.5,3 h 1.5 v -1.5 h 1.5 1.5 l 1.5,-1.5 v -1.5 h 3 l 1.5,-3 h 1.5 l 1.5,-1.5 3,-1.5 h 1.5 v 1.5 h 1.5 l 1.5,-1.5 v 1.5 h 3 l 1.5,-1.5 h 1.5 l 1.5,-1.5 3,-3 3,-1.5 3,-1.5 7.5,-6 1.5,-1.5 15,-18 h -1.5 v -1.5 h -1.5 v -1.5 -1.5 l -1.5,1.5 v -1.5 -1.5 l -1.5,-1.5 h -1.5 -1.5 l 1.5,-1.5 h -1.5 -1.5 v 1.5 l -1.5,1.5 v 1.5 l 1.5,1.5 h 1.5 v 1.5 1.5 l -1.5,-1.5 -1.5,1.5 h 1.5 l -1.5,1.5 h 1.5 v 1.5 l -1.5,-1.5 h -3 l 1.5,1.5 v 1.5 l -1.5,-3 -1.5,-1.5 h -1.5 l 1.5,1.5 1.5,1.5 h -1.5 v -1.5 h -1.5 v -1.5 -1.5 l -1.5,-1.5 -1.5,-1.5 h -1.5 -3 v 1.5 h 1.5 1.5 1.5 l -1.5,1.5 v 1.5 l 1.5,-1.5 1.5,1.5 h -1.5 v 1.5 1.5 h 1.5 v 1.5 h -1.5 l -3,-6 h -1.5 l -4.5,-3 v -1.5 h -1.5 v 1.5 l -6,-1.5 -1.5,-1.5 v -1.5 l -1.5,-1.5 v -1.5 l -1.5,-1.5 1.5,-1.5 h -1.5 l -1.5,-1.5 v -1.5 h -3 -1.5 l -1.5,-1.5 h -3 l -1.5,3 v 1.5 h -1.5 v 3 1.5 1.5 1.5 l -1.5,1.5 v -1.5 l -1.5,1.5 h -1.5 l -4.5,1.5 -3,1.5 -1.5,1.5 h -1.5 v 1.5 h -3 v 1.5 l -1.5,1.5 h -1.5 -3 -1.5 l -1.5,-1.5 h -1.5 v 1.5 l -1.5,-1.5 v 1.5 1.5 l -1.5,-3 v -1.5 h -1.5 -1.5 v -1.5 h -4.5 v 4.5 l -3,-1.5 v -1.5 l 1.5,-1.5 h -1.5 -3 -1.5 -1.5 -1.5 v -1.5 l -1.5,-1.5 -1.5,-1.5 h -1.5 v -1.5 l -1.5,-1.5 h -4.5 l -3,-1.5 h -1.5 l -4.5,-1.5 h -1.5 v -1.5 h -1.5 l -3,-1.5 h -1.5 l -1.5,-1.5 -1.5,-1.5 h -1.5 l -1.5,-1.5 h -1.5 v -1.5 h -4.5 -1.5 z m 136.5,21 -1.5,-1.5 -1.5,1.5 z m -1.5,-1.5 h 1.5 1.5 1.5 l -1.5,-1.5 h -1.5 v -1.5 h -1.5 v -1.5 h -1.5 -1.5 v 1.5 1.5 l 1.5,1.5 z m 3,-4.5 1.5,1.5 h -1.5 z m 3,0 h 1.5 l -1.5,1.5 z m -10.5,10.5 h 1.5 v 1.5 h -1.5 z"
         style="fill:#88bacd;fill-opacity:1;fill-rule:evenodd;stroke:#ffffff;stroke-width:0;stroke-linecap:butt;stroke-linejoin:bevel;stroke-miterlimit:10;stroke-dasharray:none;stroke-opacity:1" />
      <path
         inkscape:connector-curvature="0"
         id="path651"
         style="fill:#88bacd;fill-opacity:1;fill-rule:evenodd;stroke:#ffffff;stroke-width:0;stroke-linecap:butt;stroke-linejoin:bevel;stroke-miterlimit:10;stroke-dasharray:none;stroke-opacity:1"
         d="m 289.96708,126.18733 4,-4 1,-1 11,-10 h 1 l 3,-1 h 1 v 0 0 -1 1 l 1,1 -1,-1 h -1 v 0 l -2,1 h -2 l -9,9 -1,1 v 0 h -1 l -1,1 z" />
      <path
         inkscape:connector-curvature="0"
         id="path659"
         style="fill:#88bacd;fill-opacity:1;fill-rule:evenodd;stroke:#ffffff;stroke-width:0;stroke-linecap:butt;stroke-linejoin:bevel;stroke-miterlimit:10;stroke-dasharray:none;stroke-opacity:1"
         d="m 89.967095,437.18733 v 0 l -1,-1 v -1 0 h 1 l 1,1 v 1 l -1,1 v 0 z" />
      <path
         inkscape:connector-curvature="0"
         id="path661"
         style="fill:#88bacd;fill-opacity:1;fill-rule:evenodd;stroke:#ffffff;stroke-width:0;stroke-linecap:butt;stroke-linejoin:bevel;stroke-miterlimit:10;stroke-dasharray:none;stroke-opacity:1"
         d="m 94.967095,414.18733 v 0 0 l -1,1 v 2 1 0 l 1,1 1,-1 -1,-1 v 0 l 1,1 -1,1 v 0 l -2,-1 v 1 1 0 0 l -1,-1 v 0 0 l -1,1 v 0 h 1 v 1 h -1 v -1 l -1,1 v 0 1 2 h -1 v 0 l 1,-2 v -1 l -1,-1 v 0 h -1 v 0 0 0 h 1 l 1,-2 2,-1 v -1 0 -1 0 0 1 0 0 h 1 v 0 0 0 h 1 v -1 z" />
      <path
         inkscape:connector-curvature="0"
         id="path861"
         style="fill:#88bacd;fill-opacity:1;fill-rule:evenodd;stroke:#ffffff;stroke-width:0;stroke-linecap:butt;stroke-linejoin:bevel;stroke-miterlimit:10;stroke-dasharray:none;stroke-opacity:1"
         d="m 304.96708,192.18733 v 0 h 2 l 7,3 1,1 5,5 2,3 v 1 l 5,8 2,5 v 1 h -1 l -1,1 -2,1 -1,4 -1,2 h 1 v 0 l -1,2 v -2 0 l 1,-2 1,-4 1,-1 2,-1 h 1 v -1 l -2,-5 -7,-12 -5,-5 -1,-1 -6,-3 -1,2 v 0 h -1 -1 -1 1 l 1,-1 1,-1 h -1 v 0 z" />
      <path
         inkscape:connector-curvature="0"
         id="path869"
         style="fill:#88bacd;fill-opacity:1;fill-rule:evenodd;stroke:#ffffff;stroke-width:0;stroke-linecap:butt;stroke-linejoin:bevel;stroke-miterlimit:10;stroke-dasharray:none;stroke-opacity:1"
         d="m 441.96708,15.18733 h 2 v 0 1 0 l -2,1 z" />
      <path
         inkscape:connector-curvature="0"
         id="path871"
         style="fill:#88bacd;fill-opacity:1;fill-rule:evenodd;stroke:#ffffff;stroke-width:0;stroke-linecap:butt;stroke-linejoin:bevel;stroke-miterlimit:10;stroke-dasharray:none;stroke-opacity:1"
         d="m 459.96708,6.1873306 v 1 0 l 1,1 1,1 1,0.9999994 -1,-0.9999994 h -1 -2 -1 v 0 0.9999994 1 h 1 v 0 l -1,2 -1,-1 -1,-2.9999994 -1,-1 v -1 l 1,-2 h 1 1 1 z" />
      <path
         inkscape:connector-curvature="0"
         id="path873"
         style="fill:#88bacd;fill-opacity:1;fill-rule:evenodd;stroke:#ffffff;stroke-width:0;stroke-linecap:butt;stroke-linejoin:bevel;stroke-miterlimit:10;stroke-dasharray:none;stroke-opacity:1"
         d="m 469.96708,7.1873306 h 2 2 l 2,1 v 1 -1 h -2 -2 -1 v 0 h -1 l -1,1 v 0 -1 z" />
      <path
         inkscape:connector-curvature="0"
         id="path907"
         style="fill:#88bacd;fill-opacity:1;fill-rule:evenodd;stroke:#ffffff;stroke-width:0;stroke-linecap:butt;stroke-linejoin:bevel;stroke-miterlimit:10;stroke-dasharray:none;stroke-opacity:1"
         d="m 120.96709,396.18733 v 0 0 -1 h 1 l 2,1 h -1 z" />
      <path
         inkscape:connector-curvature="0"
         id="path909"
         style="fill:#88bacd;fill-opacity:1;fill-rule:evenodd;stroke:#ffffff;stroke-width:0;stroke-linecap:butt;stroke-linejoin:bevel;stroke-miterlimit:10;stroke-dasharray:none;stroke-opacity:1"
         d="m 157.96708,418.18733 v -1 l -1,-1 -1,-1 v 1 h -1 l -2,-2 1,-1 v 0 h -1 v 1 h -2 v -1 h 2 v 0 h 3 1 v 0 h -1 v 0 h -1 v 0 1 0 h 2 v 1 l 1,1 v 1 z" />
      <path
         inkscape:connector-curvature="0"
         id="path911"
         style="fill:#88bacd;fill-opacity:1;fill-rule:evenodd;stroke:#ffffff;stroke-width:0;stroke-linecap:butt;stroke-linejoin:bevel;stroke-miterlimit:10;stroke-dasharray:none;stroke-opacity:1"
         d="m 129.96709,392.18733 h 1 l 1,-1 v 0 1 1 l 1,3 1.99999,2 v 0 0 l -1,1 h -0.99999 v -1 l -1,-1 v -1 l -1,-2 -1,-1 v 0 z" />
      <path
         inkscape:connector-curvature="0"
         id="path913"
         style="fill:#88bacd;fill-opacity:1;fill-rule:evenodd;stroke:#ffffff;stroke-width:0;stroke-linecap:butt;stroke-linejoin:bevel;stroke-miterlimit:10;stroke-dasharray:none;stroke-opacity:1"
         d="m 126.96709,394.18733 -1,1 h -1 -1 v -1 h 1 1 2 z" />
      <path
         inkscape:connector-curvature="0"
         id="path915"
         style="fill:#88bacd;fill-opacity:1;fill-rule:evenodd;stroke:#ffffff;stroke-width:0;stroke-linecap:butt;stroke-linejoin:bevel;stroke-miterlimit:10;stroke-dasharray:none;stroke-opacity:1"
         d="m 123.96709,418.18733 -1,1 h -1 v 0 h -1 v 0 l -2,-1 h -1 v 0 l 2,-1 v -1 1 l -2,1 h -1 l 1,-2 -1,-1 v -2 h -1 v -1 -1 l -1,-2 -2,-1 -1,1 v -1 l -3,-1 v 0 0 -1 0 -1 l -1,-1 h -2 -0.99999 l -1,1 v 1 h 1 l 0.99999,-1 1,1 -1,-1 -0.99999,1 h -2 l -1,2 -2.000005,1 v 0 0 0 h -1 -1 l -2,1 -1,1 v 2 0 h 1 v 1 h -1 v 0 0 l -1,-1 v 0 0 h 1 v 0 -2 0 l -1,-1 h -1 -1 v -1 l -1,-1 -1,-2 v -2 -2 -1 l 1,-2 2,-2 2,-1 h 1 1 l 4.000005,-1 1,-1 h 2 1.99999 l 3,1 v -1 0 -1 l 1,-1 v -1 h 1 1 l -1,1 h 1 l -1,1 v 0 0 0 -1 0 h -1 v 1 l -1,2 h 1 1 1 1 v 0 0 h 3 l 2,-1 v 0 l 1,1 v 0 l 1,1 v 1 h 1 v 0 h 1 1 l 2,-1 1,1 h 3 v 0 1 0 -1 l 1,1 v 2 0 l 1,1 2,2 0.99999,2 v 2 h 1 2 1 l 2,1 v 0 l 3,2 h 1 v 0 1 h 1 l 2,-2 h 1 1 v 0 h 3 v 0 l 1,-1 h 1 v 2 1 h 1 v 0 l -1,1 v 0 h -1 l 1,-1 v 0 l -1,-1 v -1 h -1 v 1 l -1,-1 -3,1 h -1 l -1,1 h -1 v 1 l 1,1 v 0 1 0 0 0 l -1,1 h 1 v -1 l -1,1 v 1 h -1 l -1,1 -1,2 h -1 l -1,1 -1,-1 -2,1 -1,1 h -2 v 1 h -2.99999 -1 -2 -1 v 0 l -2,-2 v 0 0 z" />
      <path
         inkscape:connector-curvature="0"
         id="path929"
         style="fill:#88bacd;fill-opacity:1;fill-rule:evenodd;stroke:#ffffff;stroke-width:0;stroke-linecap:butt;stroke-linejoin:bevel;stroke-miterlimit:10;stroke-dasharray:none;stroke-opacity:1"
         d="m 113.96709,438.18733 v -1 h -1 1 v 0 z" />
      <path
         inkscape:connector-curvature="0"
         id="path949"
         style="fill:#88bacd;fill-opacity:1;fill-rule:evenodd;stroke:#ffffff;stroke-width:0;stroke-linecap:butt;stroke-linejoin:bevel;stroke-miterlimit:10;stroke-dasharray:none;stroke-opacity:1"
         d="m 186.96708,405.18733 -1,1 v 0 h 1 v 0 h -1 v 1 l -1,-1 v 0 0 z" />
    </g>
    <g
       transform="matrix(0.63802636,0,0,0.63802636,172.05996,18.871432)"
       id="g2045"
       style="fill:#ccebe7;fill-opacity:1">
      <path
         inkscape:connector-curvature="0"
         d="m 51.8042,27.20117 c 0.03076,0.0059 0.06152,0.0088 0.0918,0.0088 0.23633,0 0.44629,-0.16797 0.49121,-0.4082 0.10645,-0.57324 0.1582,-1.10156 0.1582,-1.61621 0,-4.48438 -3.65332,-8.13184 -8.14355,-8.13184 -4.48438,0 -8.13232,3.64746 -8.13232,8.13184 0,0.27637 0.22363,0.5 0.5,0.5 0.27637,0 0.5,-0.22363 0.5,-0.5 0,-3.93262 3.19971,-7.13184 7.13232,-7.13184 3.93896,0 7.14355,3.19922 7.14355,7.13184 0,0.45215 -0.04639,0.9209 -0.1416,1.43262 -0.05029,0.27148 0.1289,0.5332 0.40039,0.583 z"
         id="path2013"
         style="fill:#ccebe7;fill-opacity:1" />
      <path
         inkscape:connector-curvature="0"
         d="M 44.90771,15.31934 V 13.0166 c 0,-0.27637 -0.22363,-0.5 -0.5,-0.5 -0.27637,0 -0.5,0.22363 -0.5,0.5 v 2.30273 c 0,0.27637 0.22363,0.5 0.5,0.5 0.27637,0 0.5,-0.22363 0.5,-0.49999 z"
         id="path2015"
         style="fill:#ccebe7;fill-opacity:1" />
      <path
         inkscape:connector-curvature="0"
         d="m 39.72559,17.07324 c 0.23926,-0.1377 0.32129,-0.44336 0.18311,-0.68262 l -1.15137,-1.99316 c -0.13818,-0.23926 -0.44531,-0.32227 -0.68311,-0.18262 -0.23926,0.1377 -0.32129,0.44336 -0.18311,0.68262 l 1.15137,1.99316 c 0.13922,0.24035 0.44664,0.32068 0.68311,0.18262 z"
         id="path2017"
         style="fill:#ccebe7;fill-opacity:1" />
      <path
         inkscape:connector-curvature="0"
         d="M 36.11475,19.81934 34.1211,18.66797 c -0.23926,-0.14063 -0.54492,-0.05664 -0.68311,0.18262 -0.13819,0.23926 -0.05615,0.54492 0.18311,0.68262 l 1.99365,1.15137 c 0.23688,0.1383 0.54409,0.05737 0.68311,-0.18262 0.13818,-0.23926 0.05614,-0.54493 -0.18311,-0.68262 z"
         id="path2019"
         style="fill:#ccebe7;fill-opacity:1" />
      <path
         inkscape:connector-curvature="0"
         d="m 53.20068,20.68457 1.99365,-1.15137 c 0.23926,-0.1377 0.32129,-0.44336 0.18311,-0.68262 -0.13916,-0.23926 -0.44531,-0.32324 -0.68311,-0.18262 l -1.99365,1.15137 c -0.23926,0.1377 -0.32129,0.44336 -0.18311,0.68262 0.13923,0.24034 0.44665,0.32068 0.68311,0.18262 z"
         id="path2021"
         style="fill:#ccebe7;fill-opacity:1" />
      <path
         inkscape:connector-curvature="0"
         d="m 49.77344,16.89063 1.15088,-1.99316 C 51.0625,14.65821 50.98047,14.35255 50.74121,14.21485 50.50195,14.0752 50.1958,14.15821 50.0581,14.39747 l -1.15088,1.99316 c -0.13818,0.23926 -0.05615,0.54492 0.18311,0.68262 0.23688,0.13829 0.54409,0.05736 0.68311,-0.18262 z"
         id="path2023"
         style="fill:#ccebe7;fill-opacity:1" />
      <path
         inkscape:connector-curvature="0"
         d="M 18.52734,9.7334 C 18.08056,8.77051 17.10058,8.13086 16.00439,8.13086 c -0.21484,0 -0.42676,0.02441 -0.63135,0.07227 -0.02734,-1.51074 -1.26807,-2.73145 -2.78857,-2.73145 -1.50439,0 -2.7334,1.2002 -2.78076,2.69336 C 8.5874,7.97363 7.35352,8.6416 6.84717,9.7334 6.75928,9.72461 6.67041,9.7207 6.58057,9.7207 c -1.53809,0 -2.78906,1.24805 -2.78906,2.78223 0,1.53418 1.25098,2.78223 2.78906,2.78223 h 12.21289 c 1.53809,0 2.78906,-1.24805 2.78906,-2.78223 0,-1.53418 -1.25098,-2.78223 -2.78906,-2.78223 -0.08985,0 -0.17871,0.00391 -0.26612,0.0127 z m 2.05518,2.76953 c 0,0.98242 -0.80273,1.78223 -1.78906,1.78223 H 6.58057 c -0.98633,0 -1.78906,-0.7998 -1.78906,-1.78223 0,-0.98243 0.80273,-1.78223 1.78906,-1.78223 0.15869,0 0.30957,0.02051 0.44775,0.06152 0.12793,0.03809 0.26758,0.02246 0.38574,-0.04297 C 7.53125,10.67382 7.61767,10.56347 7.65283,10.43261 7.93115,9.40331 9.1665,8.83007 10.17187,9.31933 10.35156,9.40723 10.56445,9.37988 10.7168,9.25 10.86817,9.12012 10.92774,8.91211 10.86866,8.72168 10.82374,8.57813 10.80225,8.4248 10.80225,8.25391 c 0,-0.98242 0.79932,-1.78223 1.78223,-1.78223 0.98633,0 1.78906,0.7998 1.78906,1.78223 0,0.19922 -0.03516,0.40527 -0.10205,0.59473 -0.07178,0.2041 -0.0044,0.43066 0.16699,0.5625 0.17138,0.13184 0.40771,0.13965 0.58594,0.0166 0.28564,-0.19434 0.62451,-0.29688 0.97998,-0.29688 0.8042,0 1.51025,0.53516 1.7168,1.30176 0.03516,0.12988 0.12109,0.24023 0.23877,0.30664 0.11768,0.06543 0.25635,0.08203 0.38574,0.04297 0.13818,-0.04102 0.28906,-0.06152 0.44775,-0.06152 0.98633,-10e-6 1.78906,0.7998 1.78906,1.78222 z"
         id="path2025"
         style="fill:#ccebe7;fill-opacity:1" />
      <path
         inkscape:connector-curvature="0"
         d="m 56.96289,9.14746 c 0,0.27637 0.22363,0.5 0.5,0.5 0.27637,0 0.5,-0.22363 0.5,-0.5 0,-0.98438 0.80078,-1.78516 1.78516,-1.78516 h 0.1084 c 0.27637,0 0.5,-0.22363 0.5,-0.5 0,-0.27637 -0.22363,-0.5 -0.5,-0.5 h -0.1084 c -0.94482,0 -1.78125,0.47266 -2.28516,1.19434 C 56.95898,6.83496 56.12256,6.3623 55.17773,6.3623 h -0.1084 c -0.27637,0 -0.5,0.22363 -0.5,0.5 0,0.27637 0.22363,0.5 0.5,0.5 h 0.1084 c 0.98438,0 1.78516,0.80079 1.78516,1.78516 z"
         id="path2027"
         style="fill:#ccebe7;fill-opacity:1" />
      <path
         inkscape:connector-curvature="0"
         d="m 59.52539,16.28027 h 0.10889 c 0.98389,0 1.78467,0.80078 1.78467,1.78418 0,0.27637 0.22363,0.5 0.5,0.5 0.27637,0 0.5,-0.22363 0.5,-0.5 0,-0.9834 0.80078,-1.78418 1.78516,-1.78418 h 0.1084 c 0.27637,0 0.5,-0.22363 0.5,-0.5 0,-0.27637 -0.22363,-0.5 -0.5,-0.5 h -0.1084 c -0.94482,0 -1.78125,0.47266 -2.28516,1.19434 -0.50391,-0.72168 -1.33984,-1.19434 -2.28467,-1.19434 h -0.10889 c -0.27637,0 -0.5,0.22363 -0.5,0.5 0,0.27637 0.22363,0.5 0.5,0.5 z"
         id="path2029"
         style="fill:#ccebe7;fill-opacity:1" />
      <path
         inkscape:connector-curvature="0"
         d="m 3,55.54883 c 26.5244,0 36.51623,0 63,0 0.27637,0 0.5,-0.22363 0.5,-0.5 0,-0.27637 -0.22363,-0.5 -0.5,-0.5 H 61.9585 V 42.98334 c 2.12225,-0.33624 3.7749,-2.77869 3.7749,-5.73627 0,-2.48828 -1.56299,-10.32031 -4.2749,-10.32031 -2.71191,0 -4.2749,7.83203 -4.2749,10.32031 0,2.95758 1.65265,5.40002 3.7749,5.73627 V 54.54883 H 52.89112 V 36.84961 c 0,-0.20313 0.15153,0.32541 -3.9165,-9.93945 -0.15527,-0.39453 -0.55908,-0.65918 -1.00439,-0.65918 H 22.4126 c -0.21275,0 -0.3691,0.14305 -0.4292,0.24316 -3.58495,5.98707 -2.48993,4.15834 -6.04688,10.09863 -0.05004,0.12647 -0.09001,0.35355 -0.07013,0.25354 0,0.0012 -6.7e-4,0.0021 -6.7e-4,0.0033 V 54.54883 H 8.04102 V 42.98334 c 2.12238,-0.33624 3.77539,-2.77869 3.77539,-5.73627 0,-2.48828 -1.56348,-10.32031 -4.27539,-10.32031 -2.71191,0 -4.2749,7.83203 -4.2749,10.32031 0,2.95758 1.65265,5.40002 3.7749,5.73627 V 54.54883 H 3 c -0.27637,0 -0.5,0.22363 -0.5,0.5 0,0.27637 0.22363,0.5 0.5,0.5 z M 58.18359,37.24707 c 0,-3.16016 1.76807,-9.32031 3.2749,-9.32031 1.50683,0 3.2749,6.16016 3.2749,9.32031 0,2.3858 -1.2074,4.35101 -2.7749,4.70557 V 38.9798 c 0.4679,-0.18933 1.23303,-0.64282 1.8501,-1.72394 0.13721,-0.24023 0.05371,-0.54492 -0.18604,-0.68262 -0.24023,-0.13574 -0.54541,-0.05273 -0.68213,0.18652 -0.3252,0.56946 -0.68713,0.90106 -0.98193,1.09668 v -4.30566 c 0,-0.27637 -0.22363,-0.5 -0.5,-0.5 -0.27637,0 -0.5,0.22363 -0.5,0.5 V 35.906 c -0.28632,-0.19739 -0.60718,-0.52899 -0.79346,-1.08765 -0.0874,-0.26074 -0.36865,-0.4043 -0.63232,-0.31641 -0.26172,0.08789 -0.40332,0.37109 -0.31592,0.63281 0.39874,1.19659 1.23553,1.69458 1.7417,1.89648 v 4.92139 c -1.5675,-0.35454 -2.7749,-2.31975 -2.7749,-4.70555 z m -53.91748,0 c 0,-3.16016 1.76807,-9.32031 3.2749,-9.32031 1.50732,0 3.27539,6.16016 3.27539,9.32031 0,2.38586 -1.20746,4.35114 -2.77539,4.70557 V 38.9798 c 0.4679,-0.18933 1.23303,-0.64282 1.8501,-1.72394 0.13721,-0.24023 0.05371,-0.54492 -0.18604,-0.68262 -0.23975,-0.13574 -0.54541,-0.05273 -0.68213,0.18652 -0.3252,0.56946 -0.68713,0.90106 -0.98193,1.09668 v -4.30566 c 0,-0.27637 -0.22363,-0.5 -0.5,-0.5 -0.27637,0 -0.5,0.22363 -0.5,0.5 V 35.906 C 6.75469,35.70861 6.43383,35.37701 6.24755,34.81835 6.16064,34.55761 5.87987,34.41405 5.61523,34.50194 c -0.26172,0.08789 -0.40332,0.37109 -0.31592,0.63281 0.39874,1.19659 1.23553,1.69458 1.7417,1.89648 v 4.92139 c -1.5675,-0.35454 -2.7749,-2.31975 -2.7749,-4.70555 z m 12.59961,0.10254 H 27.95166 V 54.44727 H 25.93213 V 42.86035 c 0,-0.27637 -0.22363,-0.5 -0.5,-0.5 h -5.56396 c -0.27637,0 -0.5,0.22363 -0.5,0.5 V 54.44726 H 16.86573 V 37.34961 Z m 3.50244,17.09766 V 43.36035 h 4.56396 v 11.08691 h -4.56396 z m 8.5835,-17.09766 H 51.89111 V 54.44727 H 28.95166 Z M 48.04541,27.27832 51.6543,36.34961 H 28.73547 l -5.44049,-9.09766 z m -25.6333,0.44635 5.15778,8.62494 H 17.24805 Z"
         id="path2031"
         style="fill:#ccebe7;fill-opacity:1" />
      <path
         inkscape:connector-curvature="0"
         d="m 3,63.52832 h 63 c 0.27637,0 0.5,-0.22363 0.5,-0.5 0,-0.27637 -0.22363,-0.5 -0.5,-0.5 H 3 c -0.27637,0 -0.5,0.22363 -0.5,0.5 0,0.27637 0.22363,0.5 0.5,0.5 z"
         id="path2033"
         style="fill:#ccebe7;fill-opacity:1" />
      <path
         inkscape:connector-curvature="0"
         d="m 4.9585,58.53906 c -0.27637,0 -0.5,0.22363 -0.5,0.5 0,0.27637 0.22363,0.5 0.5,0.5 h 1.96875 c 0.27637,0 0.5,-0.22363 0.5,-0.5 0,-0.27637 -0.22363,-0.5 -0.5,-0.5 z"
         id="path2035"
         style="fill:#ccebe7;fill-opacity:1" />
      <path
         inkscape:connector-curvature="0"
         d="m 10.60352,58.53906 c -0.27637,0 -0.5,0.22363 -0.5,0.5 0,0.27637 0.22363,0.5 0.5,0.5 h 49.63086 c 0.27637,0 0.5,-0.22363 0.5,-0.5 0,-0.27637 -0.22363,-0.5 -0.5,-0.5 z"
         id="path2037"
         style="fill:#ccebe7;fill-opacity:1" />
      <path
         inkscape:connector-curvature="0"
         d="m 62.07227,58.53906 c -0.27637,0 -0.5,0.22363 -0.5,0.5 0,0.27637 0.22363,0.5 0.5,0.5 h 1.96875 c 0.27637,0 0.5,-0.22363 0.5,-0.5 0,-0.27637 -0.22363,-0.5 -0.5,-0.5 z"
         id="path2039"
         style="fill:#ccebe7;fill-opacity:1" />
      <path
         inkscape:connector-curvature="0"
         d="m 23.80859,48.91016 h -0.7085 c -0.27637,0 -0.5,0.22363 -0.5,0.5 0,0.27637 0.22363,0.5 0.5,0.5 h 0.7085 c 0.27637,0 0.5,-0.22363 0.5,-0.5 0,-0.27637 -0.22363,-0.5 -0.5,-0.5 z"
         id="path2041"
         style="fill:#ccebe7;fill-opacity:1" />
      <path
         inkscape:connector-curvature="0"
         d="M 47.9585,41.27344 H 34.1582 c -0.27637,0 -0.5,0.22363 -0.5,0.5 v 8.25 c 0,0.27637 0.22363,0.5 0.5,0.5 h 13.8003 c 0.27637,0 0.5,-0.22363 0.5,-0.5 v -8.25 c 0,-0.27637 -0.22364,-0.5 -0.5,-0.5 z m -0.5,4.125 h -5.8999 v -3.125 h 5.8999 z m -6.89991,-3.125 v 3.125 H 34.6582 v -3.125 z m -5.90039,4.125 h 5.90039 v 3.125 H 34.6582 Z m 6.90039,3.125 v -3.125 h 5.8999 v 3.125 z"
         id="path2043"
         style="fill:#ccebe7;fill-opacity:1" />
    </g>
    <path
       style="fill:#00008b;fill-opacity:1;stroke-width:0.46302083"
       inkscape:connector-curvature="0"
       d="m 106.5444,58.894867 c 0.32412,0.32411 0.78714,0.50932 1.25016,0.50932 0.46302,0 0.92604,-0.18521 1.29646,-0.50932 l 16.20572,-16.20573 c 2.2688,-2.2688 3.47266,-5.23214 3.51896,-8.42698 0,-3.19485 -1.25016,-6.15818 -3.47266,-8.42698 -2.3151,-2.2225 -5.27843,-3.47266 -8.47327,-3.47266 -3.19485,0 -6.15818,1.25016 -8.42698,3.47266 l -0.64823,0.69453 -0.64823,-0.64823 c -2.26881,-2.3151 -5.27844,-3.51896 -8.42698,-3.51896 -3.19485,0 -6.15818,1.25016 -8.42698,3.47266 -2.26881,2.2688 -3.47266,5.23213 -3.47266,8.42698 0,3.19484 1.25016,6.15818 3.51896,8.42698 z m -7.96396,-32.13365 c 0.97235,0 1.75948,0.78714 1.75948,1.75948 0,0.97234 -0.78713,1.75948 -1.75948,1.75948 -2.1299,0 -3.84307,1.71318 -3.84307,3.84307 0,0.97235 -0.78714,1.75948 -1.75948,1.75948 -0.97235,0 -1.75948,-0.78713 -1.75948,-1.75948 0,-4.02828 3.28745,-7.36203 7.36203,-7.36203 z"
       id="path2671" />
  </g>
</svg>
