<?xml version="1.0" encoding="UTF-8" standalone="no"?>
<svg
   xmlns:dc="http://purl.org/dc/elements/1.1/"
   xmlns:cc="http://creativecommons.org/ns#"
   xmlns:rdf="http://www.w3.org/1999/02/22-rdf-syntax-ns#"
   xmlns:svg="http://www.w3.org/2000/svg"
   xmlns="http://www.w3.org/2000/svg"
   xmlns:sodipodi="http://sodipodi.sourceforge.net/DTD/sodipodi-0.dtd"
   xmlns:inkscape="http://www.inkscape.org/namespaces/inkscape"
   height="300"
   width="160"
   data-name="Layer 1"
   viewBox="0 0 34.133333 64"
   x="0px"
   y="0px"
   version="1.1"
   id="svg10"
   sodipodi:docname="_notes.svg"
   style="fill:#000000"
   inkscape:version="0.92.4 (5da689c313, 2019-01-14)">
  <metadata
     id="metadata16">
    <rdf:RDF>
      <cc:Work
         rdf:about="">
        <dc:format>image/svg+xml</dc:format>
        <dc:type
           rdf:resource="http://purl.org/dc/dcmitype/StillImage" />
        <dc:title>content</dc:title>
      </cc:Work>
    </rdf:RDF>
  </metadata>
  <defs
     id="defs14" />
  <sodipodi:namedview
     pagecolor="#ffffff"
     bordercolor="#666666"
     borderopacity="1"
     objecttolerance="10"
     gridtolerance="10"
     guidetolerance="10"
     inkscape:pageopacity="0"
     inkscape:pageshadow="2"
     inkscape:window-width="1920"
     inkscape:window-height="1051"
     id="namedview12"
     showgrid="false"
     inkscape:zoom="0.78666667"
     inkscape:cx="167.59602"
     inkscape:cy="145.88111"
     inkscape:window-x="-9"
     inkscape:window-y="-9"
     inkscape:window-maximized="1"
     inkscape:current-layer="svg10" />
  <title
     id="title2">content</title>
  <g
     id="g826"
     transform="translate(-14.933333)">
    <path
       inkscape:connector-curvature="0"
       id="path4"
       d="M 48,11 H 43 V 8 A 1,1 0 0 0 42,7 h -4 a 1,1 0 0 0 -1,1 v 3 H 35 V 8 A 1,1 0 0 0 34,7 h -4 a 1,1 0 0 0 -1,1 v 3 H 27 V 8 A 1,1 0 0 0 26,7 h -4 a 1,1 0 0 0 -1,1 v 3 h -5 a 1,1 0 0 0 -1,1 v 44 a 1,1 0 0 0 1,1 h 32 a 1,1 0 0 0 1,-1 V 12 a 1,1 0 0 0 -1,-1 z m -9,2 V 9 h 2 v 6 h -2 z m -8,0 V 9 h 2 v 6 h -2 z m -8,0 V 9 h 2 v 6 H 23 Z M 47,55 H 17 V 13 h 4 v 3 a 1,1 0 0 0 1,1 h 4 a 1,1 0 0 0 1,-1 v -3 h 2 v 3 a 1,1 0 0 0 1,1 h 4 a 1,1 0 0 0 1,-1 v -3 h 2 v 3 a 1,1 0 0 0 1,1 h 4 a 1,1 0 0 0 1,-1 v -3 h 4 z" />
    <path
       inkscape:connector-curvature="0"
       id="path6"
       d="m 34,25 h -4 a 1,1 0 0 0 -1,1 v 12 a 1,1 0 0 0 1,1 h 4 a 1,1 0 0 0 1,-1 V 26 A 1,1 0 0 0 34,25 Z M 33,37 H 31 V 27 h 2 z" />
    <path
       inkscape:connector-curvature="0"
       id="path8"
       d="m 32,41 a 3,3 0 1 0 3,3 3.00328,3.00328 0 0 0 -3,-3 z m 0,4 a 1,1 0 1 1 1,-1 1.0013,1.0013 0 0 1 -1,1 z" />
  </g>
</svg>
