<svg height='300px' width='300px'  fill="#000000" xmlns="http://www.w3.org/2000/svg" xmlns:xlink="http://www.w3.org/1999/xlink" version="1.1" x="0px" y="0px" viewBox="0 0 69 69" style="enable-background:new 0 0 69 69;" xml:space="preserve"><g><path d="M51.8042,27.20117c0.03076,0.00586,0.06152,0.00879,0.0918,0.00879c0.23633,0,0.44629-0.16797,0.49121-0.4082   c0.10645-0.57324,0.1582-1.10156,0.1582-1.61621c0-4.48438-3.65332-8.13184-8.14355-8.13184   c-4.48438,0-8.13232,3.64746-8.13232,8.13184c0,0.27637,0.22363,0.5,0.5,0.5s0.5-0.22363,0.5-0.5   c0-3.93262,3.19971-7.13184,7.13232-7.13184c3.93896,0,7.14355,3.19922,7.14355,7.13184c0,0.45215-0.04639,0.9209-0.1416,1.43262   C51.35352,26.88965,51.53271,27.15137,51.8042,27.20117z"></path><path d="M44.90771,15.31934V13.0166c0-0.27637-0.22363-0.5-0.5-0.5s-0.5,0.22363-0.5,0.5v2.30273c0,0.27637,0.22363,0.5,0.5,0.5   S44.90771,15.5957,44.90771,15.31934z"></path><path d="M39.72559,17.07324c0.23926-0.1377,0.32129-0.44336,0.18311-0.68262l-1.15137-1.99316   c-0.13818-0.23926-0.44531-0.32227-0.68311-0.18262c-0.23926,0.1377-0.32129,0.44336-0.18311,0.68262l1.15137,1.99316   C39.1817,17.13097,39.48912,17.2113,39.72559,17.07324z"></path><path d="M36.11475,19.81934l-1.99365-1.15137c-0.23926-0.14063-0.54492-0.05664-0.68311,0.18262s-0.05615,0.54492,0.18311,0.68262   l1.99365,1.15137c0.23688,0.1383,0.54409,0.05737,0.68311-0.18262C36.43604,20.2627,36.354,19.95703,36.11475,19.81934z"></path><path d="M53.20068,20.68457l1.99365-1.15137c0.23926-0.1377,0.32129-0.44336,0.18311-0.68262   c-0.13916-0.23926-0.44531-0.32324-0.68311-0.18262l-1.99365,1.15137c-0.23926,0.1377-0.32129,0.44336-0.18311,0.68262   C52.6568,20.74229,52.96422,20.82263,53.20068,20.68457z"></path><path d="M49.77344,16.89063l1.15088-1.99316c0.13818-0.23926,0.05615-0.54492-0.18311-0.68262   c-0.23926-0.13965-0.54541-0.05664-0.68311,0.18262l-1.15088,1.99316c-0.13818,0.23926-0.05615,0.54492,0.18311,0.68262   C49.32721,17.21154,49.63442,17.13061,49.77344,16.89063z"></path><path d="M18.52734,9.7334c-0.44678-0.96289-1.42676-1.60254-2.52295-1.60254c-0.21484,0-0.42676,0.02441-0.63135,0.07227   c-0.02734-1.51074-1.26807-2.73145-2.78857-2.73145c-1.50439,0-2.7334,1.2002-2.78076,2.69336   C8.5874,7.97363,7.35352,8.6416,6.84717,9.7334c-0.08789-0.00879-0.17676-0.0127-0.2666-0.0127   c-1.53809,0-2.78906,1.24805-2.78906,2.78223s1.25098,2.78223,2.78906,2.78223h12.21289c1.53809,0,2.78906-1.24805,2.78906-2.78223   S20.33154,9.7207,18.79346,9.7207C18.70361,9.7207,18.61475,9.72461,18.52734,9.7334z M20.58252,12.50293   c0,0.98242-0.80273,1.78223-1.78906,1.78223H6.58057c-0.98633,0-1.78906-0.7998-1.78906-1.78223s0.80273-1.78223,1.78906-1.78223   c0.15869,0,0.30957,0.02051,0.44775,0.06152c0.12793,0.03809,0.26758,0.02246,0.38574-0.04297   c0.11719-0.06543,0.20361-0.17578,0.23877-0.30664c0.27832-1.0293,1.51367-1.60254,2.51904-1.11328   C10.35156,9.40723,10.56445,9.37988,10.7168,9.25c0.15137-0.12988,0.21094-0.33789,0.15186-0.52832   c-0.04492-0.14355-0.06641-0.29688-0.06641-0.46777c0-0.98242,0.79932-1.78223,1.78223-1.78223   c0.98633,0,1.78906,0.7998,1.78906,1.78223c0,0.19922-0.03516,0.40527-0.10205,0.59473   c-0.07178,0.2041-0.00439,0.43066,0.16699,0.5625s0.40771,0.13965,0.58594,0.0166c0.28564-0.19434,0.62451-0.29688,0.97998-0.29688   c0.8042,0,1.51025,0.53516,1.7168,1.30176c0.03516,0.12988,0.12109,0.24023,0.23877,0.30664   c0.11768,0.06543,0.25635,0.08203,0.38574,0.04297c0.13818-0.04102,0.28906-0.06152,0.44775-0.06152   C19.77979,10.7207,20.58252,11.52051,20.58252,12.50293z"></path><path d="M56.96289,9.14746c0,0.27637,0.22363,0.5,0.5,0.5s0.5-0.22363,0.5-0.5c0-0.98438,0.80078-1.78516,1.78516-1.78516h0.1084   c0.27637,0,0.5-0.22363,0.5-0.5s-0.22363-0.5-0.5-0.5h-0.1084c-0.94482,0-1.78125,0.47266-2.28516,1.19434   c-0.50391-0.72168-1.34033-1.19434-2.28516-1.19434h-0.1084c-0.27637,0-0.5,0.22363-0.5,0.5s0.22363,0.5,0.5,0.5h0.1084   C56.16211,7.3623,56.96289,8.16309,56.96289,9.14746z"></path><path d="M59.52539,16.28027h0.10889c0.98389,0,1.78467,0.80078,1.78467,1.78418c0,0.27637,0.22363,0.5,0.5,0.5s0.5-0.22363,0.5-0.5   c0-0.9834,0.80078-1.78418,1.78516-1.78418h0.1084c0.27637,0,0.5-0.22363,0.5-0.5s-0.22363-0.5-0.5-0.5h-0.1084   c-0.94482,0-1.78125,0.47266-2.28516,1.19434c-0.50391-0.72168-1.33984-1.19434-2.28467-1.19434h-0.10889   c-0.27637,0-0.5,0.22363-0.5,0.5S59.24902,16.28027,59.52539,16.28027z"></path><path d="M3,55.54883c26.5244,0,36.51623,0,63,0c0.27637,0,0.5-0.22363,0.5-0.5s-0.22363-0.5-0.5-0.5h-4.0415V42.98334   c2.12225-0.33624,3.7749-2.77869,3.7749-5.73627c0-2.48828-1.56299-10.32031-4.2749-10.32031s-4.2749,7.83203-4.2749,10.32031   c0,2.95758,1.65265,5.40002,3.7749,5.73627v11.56549h-8.06738V36.84961c0-0.20313,0.15153,0.32541-3.9165-9.93945   c-0.15527-0.39453-0.55908-0.65918-1.00439-0.65918H22.4126c-0.21275,0-0.3691,0.14305-0.4292,0.24316   c-3.58495,5.98707-2.48993,4.15834-6.04688,10.09863c-0.05004,0.12647-0.09001,0.35355-0.07013,0.25354   c0,0.00116-0.00067,0.00214-0.00067,0.0033v17.69922H8.04102V42.98334c2.12238-0.33624,3.77539-2.77869,3.77539-5.73627   c0-2.48828-1.56348-10.32031-4.27539-10.32031s-4.2749,7.83203-4.2749,10.32031c0,2.95758,1.65265,5.40002,3.7749,5.73627v11.56549   H3c-0.27637,0-0.5,0.22363-0.5,0.5S2.72363,55.54883,3,55.54883z M58.18359,37.24707c0-3.16016,1.76807-9.32031,3.2749-9.32031   s3.2749,6.16016,3.2749,9.32031c0,2.3858-1.2074,4.35101-2.7749,4.70557V38.9798c0.4679-0.18933,1.23303-0.64282,1.8501-1.72394   c0.13721-0.24023,0.05371-0.54492-0.18604-0.68262c-0.24023-0.13574-0.54541-0.05273-0.68213,0.18652   c-0.3252,0.56946-0.68713,0.90106-0.98193,1.09668v-4.30566c0-0.27637-0.22363-0.5-0.5-0.5s-0.5,0.22363-0.5,0.5v2.35522   c-0.28632-0.19739-0.60718-0.52899-0.79346-1.08765c-0.0874-0.26074-0.36865-0.4043-0.63232-0.31641   c-0.26172,0.08789-0.40332,0.37109-0.31592,0.63281c0.39874,1.19659,1.23553,1.69458,1.7417,1.89648v4.92139   C59.39099,41.59808,58.18359,39.63287,58.18359,37.24707z M4.26611,37.24707c0-3.16016,1.76807-9.32031,3.2749-9.32031   c1.50732,0,3.27539,6.16016,3.27539,9.32031c0,2.38586-1.20746,4.35114-2.77539,4.70557V38.9798   c0.4679-0.18933,1.23303-0.64282,1.8501-1.72394c0.13721-0.24023,0.05371-0.54492-0.18604-0.68262   c-0.23975-0.13574-0.54541-0.05273-0.68213,0.18652c-0.3252,0.56946-0.68713,0.90106-0.98193,1.09668v-4.30566   c0-0.27637-0.22363-0.5-0.5-0.5s-0.5,0.22363-0.5,0.5v2.35522c-0.28632-0.19739-0.60718-0.52899-0.79346-1.08765   c-0.08691-0.26074-0.36768-0.4043-0.63232-0.31641c-0.26172,0.08789-0.40332,0.37109-0.31592,0.63281   c0.39874,1.19659,1.23553,1.69458,1.7417,1.89648v4.92139C5.47351,41.59808,4.26611,39.63287,4.26611,37.24707z M16.86572,37.34961   h11.08594v17.09766h-2.01953V42.86035c0-0.27637-0.22363-0.5-0.5-0.5h-5.56396c-0.27637,0-0.5,0.22363-0.5,0.5v11.58691h-2.50244   V37.34961z M20.36816,54.44727V43.36035h4.56396v11.08691H20.36816z M28.95166,37.34961h22.93945v17.09766H28.95166V37.34961z    M48.04541,27.27832l3.60889,9.07129H28.73547l-5.44049-9.09766L48.04541,27.27832z M22.41211,27.72467l5.15778,8.62494H17.24805   L22.41211,27.72467z"></path><path d="M3,63.52832h63c0.27637,0,0.5-0.22363,0.5-0.5s-0.22363-0.5-0.5-0.5H3c-0.27637,0-0.5,0.22363-0.5,0.5   S2.72363,63.52832,3,63.52832z"></path><path d="M4.9585,58.53906c-0.27637,0-0.5,0.22363-0.5,0.5s0.22363,0.5,0.5,0.5h1.96875c0.27637,0,0.5-0.22363,0.5-0.5   s-0.22363-0.5-0.5-0.5H4.9585z"></path><path d="M10.60352,58.53906c-0.27637,0-0.5,0.22363-0.5,0.5s0.22363,0.5,0.5,0.5h49.63086c0.27637,0,0.5-0.22363,0.5-0.5   s-0.22363-0.5-0.5-0.5H10.60352z"></path><path d="M62.07227,58.53906c-0.27637,0-0.5,0.22363-0.5,0.5s0.22363,0.5,0.5,0.5h1.96875c0.27637,0,0.5-0.22363,0.5-0.5   s-0.22363-0.5-0.5-0.5H62.07227z"></path><path d="M23.80859,48.91016h-0.7085c-0.27637,0-0.5,0.22363-0.5,0.5s0.22363,0.5,0.5,0.5h0.7085c0.27637,0,0.5-0.22363,0.5-0.5   S24.08496,48.91016,23.80859,48.91016z"></path><path d="M47.9585,41.27344H34.1582c-0.27637,0-0.5,0.22363-0.5,0.5v8.25c0,0.27637,0.22363,0.5,0.5,0.5H47.9585   c0.27637,0,0.5-0.22363,0.5-0.5v-8.25C48.4585,41.49707,48.23486,41.27344,47.9585,41.27344z M47.4585,45.39844h-5.8999v-3.125   h5.8999V45.39844z M40.55859,42.27344v3.125H34.6582v-3.125H40.55859z M34.6582,46.39844h5.90039v3.125H34.6582V46.39844z    M41.55859,49.52344v-3.125h5.8999v3.125H41.55859z"></path></g></svg>
