<?xml version="1.0" encoding="UTF-8" standalone="no"?>
<svg
   xmlns:dc="http://purl.org/dc/elements/1.1/"
   xmlns:cc="http://creativecommons.org/ns#"
   xmlns:rdf="http://www.w3.org/1999/02/22-rdf-syntax-ns#"
   xmlns:svg="http://www.w3.org/2000/svg"
   xmlns="http://www.w3.org/2000/svg"
   xmlns:sodipodi="http://sodipodi.sourceforge.net/DTD/sodipodi-0.dtd"
   xmlns:inkscape="http://www.inkscape.org/namespaces/inkscape"
   version="1.0"
   width="300"
   height="300"
   viewBox="0 0 225.00001 225.00001"
   preserveAspectRatio="xMidYMid meet"
   id="svg12"
   sodipodi:docname="Belgie.svg"
   inkscape:version="0.92.4 (5da689c313, 2019-01-14)">
  <metadata
     id="metadata18">
    <rdf:RDF>
      <cc:Work
         rdf:about="">
        <dc:format>image/svg+xml</dc:format>
        <dc:type
           rdf:resource="http://purl.org/dc/dcmitype/StillImage" />
        <dc:title></dc:title>
      </cc:Work>
    </rdf:RDF>
  </metadata>
  <defs
     id="defs16" />
  <sodipodi:namedview
     pagecolor="#ffffff"
     bordercolor="#666666"
     borderopacity="1"
     objecttolerance="10"
     gridtolerance="10"
     guidetolerance="10"
     inkscape:pageopacity="0"
     inkscape:pageshadow="2"
     inkscape:window-width="1920"
     inkscape:window-height="1051"
     id="namedview14"
     showgrid="false"
     units="px"
     inkscape:zoom="0.553125"
     inkscape:cx="1267.7292"
     inkscape:cy="426.87641"
     inkscape:window-x="-9"
     inkscape:window-y="-9"
     inkscape:window-maximized="1"
     inkscape:current-layer="svg12" />
  <path
     style="fill:#000000;stroke:none;stroke-width:0.03784363"
     inkscape:connector-curvature="0"
     id="path2"
     d="m 128.65995,25.616131 c -0.49197,0.45412 -1.43806,1.77865 -2.00571,2.87611 -1.55159,2.80043 -2.30846,3.25455 -5.03321,2.87612 -1.17315,-0.18922 -2.72474,-0.30275 -3.36808,-0.26491 -1.09746,0 -1.28668,-0.11353 -1.62728,-1.36237 -0.18921,-0.75687 -0.37843,-1.81649 -0.37843,-2.30846 0,-0.8704 -0.0757,-0.8704 -1.89218,-0.64334 -1.02178,0.15137 -3.10318,0.8704 -4.61693,1.66512 -2.57336,1.32453 -2.76258,1.4759 -2.64905,2.53552 0.0757,0.6055 0.71903,2.04356 1.4759,3.17887 1.36237,1.93002 1.36237,2.04355 0.68119,2.53552 -1.05962,0.79472 -3.10318,0.64334 -3.97358,-0.22706 -0.68119,-0.68119 -1.17316,-0.75687 -3.70868,-0.68119 -2.838267,0.11353 -2.913957,0.15138 -2.913957,1.09747 -0.0378,1.05962 -2.9518,4.65476 -5.6387,6.84969 -2.04356,1.70297 -4.99536,3.25456 -6.69832,3.51946 -0.75687,0.11353 -1.93003,0.71903 -2.61121,1.32453 -0.87041,0.75687 -1.66512,1.13531 -2.49768,1.13531 -0.68119,0 -1.36237,0.15137 -1.4759,0.37843 -0.45413,0.71903 -1.62728,0.41628 -1.77865,-0.45412 -0.11353,-0.75687 -0.15138,-0.79472 -0.75688,-0.18922 -0.79471,0.83256 -3.78436,0.87041 -4.46554,0.11353 -0.22707,-0.30275 -0.41628,-1.13531 -0.37844,-1.81649 0.11353,-1.96787 0.0378,-2.19493 -0.71903,-2.19493 -0.41628,0 -0.8704,-0.18922 -0.98393,-0.37844 -0.11354,-0.22706 -0.64335,-0.37843 -1.13531,-0.37843 -1.4759,0 -5.60086,-1.13531 -6.96323,-1.93003 -0.75687,-0.45412 -1.51375,-0.64334 -1.89218,-0.49197 -0.3406,0.15138 -1.36237,0.49197 -2.27062,0.68119 -1.66512,0.41628 -1.70296,0.41628 -1.70296,2.11924 l -0.0378,1.70297 -2.49768,0.11353 -2.45983,0.11353 -1.96787,-2.0814 c -2.11924,-2.23278 -2.42199,-3.33024 -1.40022,-4.91967 0.52982,-0.79472 0.52982,-1.05963 -0.0378,-2.45984 -0.34059,-0.83256 -0.64334,-1.55159 -0.71903,-1.55159 -0.0378,0 -1.81649,0.6055 -3.93574,1.32453 -2.11924,0.71903 -4.12495,1.32453 -4.50339,1.32453 -1.32452,0 -7.7201,2.98964 -10.97465,5.14673 -1.81649,1.211 -4.01142,2.64905 -4.91967,3.25455 -0.87041,0.56766 -1.70296,1.05962 -1.77865,1.05962 -0.0757,0 -2.0814,1.24884 -4.42771,2.80043 -2.3463,1.55159 -6.31988,3.86005 -8.8175595,5.14673 -5.29811,2.76259 -7.87148004,4.20065 -8.17423004,4.61693 -0.11353,0.18922 0.11353,1.4759 0.45413,2.87611 0.37843,1.40022 0.68118004,3.10318 0.68118004,3.746524 0.0378,0.83256 0.30275,1.40022 0.83256,1.70297 0.83256,0.52981 2.23278,2.91396 2.23278,3.86005 0,0.30275 -0.41628,1.05962 -0.98394,1.70296 -0.90824,1.09746 -0.90824,1.17315 -0.30275,2.11924 0.49197,0.71903 0.56766,1.4759 0.41628,3.02749 -0.11353,1.13531 -0.0378,2.15709 0.15138,2.30846 0.18922,0.11354 0.6055,0.79472 0.90824,1.55159 0.49197,1.211 0.68119,1.32453 1.66512,1.13531 1.40022,-0.30275 3.82221,0.37844 3.82221,1.05962 0,0.30275 0.4541195,1.09747 1.0217795,1.77865 1.74081,2.04356 2.76258,3.63299 2.76258,4.23849 0,0.8704 1.70297,1.85434 2.64906,1.55159 0.56765,-0.18922 1.09746,0 1.70296,0.56765 1.05962,0.98394 3.17887,1.211 3.59515,0.37844 0.18921,-0.30275 0.56765,-1.13531 0.8704,-1.81649 0.71903,-1.66512 4.91967,-3.86005 7.41735,-3.86005 0.94609,0 2.0814,-0.26491 2.45984,-0.56766 0.79471,-0.6055 2.49768,-0.75687 2.49768,-0.22706 0,0.15137 0.68118,1.32453 1.51374,2.53552 0.83256,1.24884 1.51375,2.45984 1.51375,2.6869 0,0.26491 0.64334,0.79472 1.40021,1.13531 1.77865,0.8704 2.53552,2.57337 1.4759,3.33024 -0.56765,0.41628 -0.64334,0.79471 -0.41628,2.15709 0.15138,0.908245 0.6055,2.081405 1.02178,2.649055 0.49197,0.71903 0.79472,2.00571 0.98393,4.54124 l 0.26491,3.48161 2.80043,1.55159 2.80043,1.55159 2.11924,-0.71903 c 1.17315,-0.37844 2.45984,-1.13531 2.87612,-1.62728 0.68118,-0.83256 0.90824,-0.90825 1.81649,-0.56765 1.17315,0.45412 1.211,0.52981 0.45412,1.66512 -0.83256,1.28668 -0.18921,2.00571 1.32453,1.43805 1.28668,-0.41628 5.29811,-0.15137 5.29811,0.3406 0,0.15137 0.52981,0.8704 1.17315,1.55159 1.58943,1.7408 2.49768,5.22242 1.8165,7.22813 -0.41628,1.24884 -0.37844,1.77865 0.15137,3.44377 0.94609,2.9518 1.40021,3.44377 2.64905,2.87612 0.56766,-0.26491 1.02178,-0.75688 1.02178,-1.17316 0,-0.37843 0.34059,-1.02178 0.75687,-1.43806 0.6055,-0.60549 1.24884,-0.75687 3.59515,-0.71902 1.55159,0.0378 2.91396,0.18921 3.02749,0.34059 0.26491,0.45412 2.45984,1.51374 3.06533,1.51374 0.26491,0 1.05963,-0.22706 1.74081,-0.52981 0.68119,-0.30275 2.11924,-0.71903 3.21671,-0.98393 l 1.96787,-0.45412 1.62727,1.51374 c 0.90825,0.83256 2.04356,1.85434 2.53553,2.23277 0.49196,0.41628 1.17315,1.47591 1.51374,2.422 0.45413,1.21099 0.87041,1.70296 1.51375,1.77865 0.79471,0.11353 0.83256,0.0378 0.6055,-1.02178 -0.30275,-1.40022 -0.22707,-1.40022 1.4759,-0.37844 1.77865,1.05962 1.77865,2.0814 -0.11353,3.8979 -1.28669,1.24884 -1.47591,1.70296 -1.74081,3.74652 -0.11353,1.24884 -0.49197,2.64905 -0.79472,3.06533 -0.30275,0.41628 -0.52981,1.05962 -0.52981,1.43806 0,0.56765 0.30275,0.64334 1.74081,0.56765 1.74081,-0.0757 1.74081,-0.0757 2.19493,1.43806 0.26491,0.83256 0.75687,1.96787 1.13531,2.53552 0.64334,0.98394 0.64334,1.02178 -0.41628,1.96787 -0.56766,0.52981 -1.43806,0.98394 -1.89218,0.98394 -0.45413,0 -1.05962,0.2649 -1.36237,0.56765 -0.87041,0.83256 -1.17316,2.76259 -0.56766,3.48161 0.26491,0.3406 0.49197,1.05963 0.49197,1.58944 0,0.68118 0.22706,1.02177 0.75687,1.09746 0.41628,0.0757 1.02178,0.49197 1.36237,0.90825 0.52981,0.68118 0.75688,0.71903 2.64906,0.34059 2.989637,-0.64334 4.616917,-0.6055 5.865757,0.0757 0.6055,0.34059 2.3463,0.8704 3.86005,1.17315 3.29239,0.71903 5.71439,0.30275 7.30382,-1.13531 0.52981,-0.49196 1.13531,-0.90824 1.36237,-0.90824 0.26491,0 0.71903,-0.26491 1.05962,-0.6055 0.30275,-0.34059 1.8165,-0.87041 3.33024,-1.17315 1.4759,-0.30275 2.83827,-0.68119 3.02749,-0.83256 0.15138,-0.15138 0.52981,-1.24884 0.83256,-2.45984 0.52981,-2.00571 0.52981,-2.30846 0,-2.91396 -0.56765,-0.6055 -0.56765,-0.75687 0,-1.85434 0.34059,-0.64334 1.211,-1.55159 1.93003,-1.96787 0.71903,-0.41628 1.55159,-1.24884 1.89218,-1.85433 0.30275,-0.6055 1.02178,-1.32453 1.58943,-1.62728 0.6055,-0.30275 1.28668,-0.83256 1.55159,-1.13531 0.45412,-0.52981 0.6055,-0.52981 1.58943,-0.0378 0.56766,0.30275 1.28668,0.56765 1.58943,0.56765 0.30275,0 0.75688,0.26491 1.02178,0.56766 0.37844,0.49196 0.37844,0.71902 -0.11353,1.24884 -0.30275,0.34059 -0.64334,1.1353 -0.71903,1.77865 -0.0757,0.68118 -0.30275,1.09746 -0.6055,1.02177 -0.2649,-0.0378 -0.64334,0.37844 -0.8704,0.9461 -0.22706,0.60549 -0.56765,1.36237 -0.75687,1.7408 -0.18922,0.34059 -0.22706,1.05962 -0.11353,1.58943 0.11353,0.52982 0.0757,1.17316 -0.15138,1.43806 -0.18922,0.22706 -0.45412,1.17315 -0.56765,2.0814 -0.11353,0.90825 -0.45413,1.93003 -0.79472,2.30846 -1.09746,1.211 -0.75687,2.23278 0.90825,2.72474 1.51374,0.45413 3.06533,2.00572 3.51946,3.55731 0.15137,0.45412 -0.11353,1.58943 -0.68119,2.80042 -0.94609,2.00572 -0.94609,2.11925 -0.34059,3.40593 0.52981,1.09747 0.56765,1.51375 0.15137,2.61121 -0.22706,0.68119 -0.37843,1.36237 -0.2649,1.43806 0.0757,0.11353 1.02178,0.2649 2.0814,0.41628 1.40021,0.15137 2.11924,0.0378 2.76258,-0.41628 1.28669,-0.90825 2.04356,-0.75687 3.44377,0.64334 0.75687,0.75687 2.11925,1.51375 3.40593,1.93003 1.66512,0.52981 2.3463,0.94609 2.9518,1.93002 0.41628,0.68119 0.75687,1.51375 0.75687,1.85434 0,0.56765 0.41628,0.75687 1.43806,0.64334 0.22706,-0.0378 0.6055,0.34059 0.79472,0.83256 0.37844,0.98393 1.62727,1.36237 5.0332,1.51375 1.51375,0.0757 2.00571,0.30274 3.21671,1.4759 1.40021,1.40021 1.40021,1.43805 0.83256,2.64905 -0.34059,0.68119 -0.52981,1.4759 -0.45412,1.70296 0.22706,0.68119 1.43805,0.6055 2.00571,-0.0757 0.37843,-0.49197 0.64334,-0.45413 1.81649,0.15137 2.11925,1.09747 4.20065,3.8979 4.23849,5.67655 0,0.34059 0.2649,0.94609 0.56765,1.32452 0.49197,0.64334 0.49197,0.83256 -0.0757,1.43806 -0.6055,0.68119 -0.56766,0.75687 0.15137,1.4759 0.64334,0.64334 0.90825,0.71903 1.55159,0.37844 0.41628,-0.22706 1.09746,-0.41628 1.51374,-0.41628 0.41628,0 1.17316,-0.34059 1.70297,-0.75687 1.21099,-0.98394 2.30846,-0.94609 3.25455,0.0378 0.8704,0.94609 1.55159,0.68119 1.55159,-0.56765 0,-0.49197 0.34059,-1.17316 0.75687,-1.55159 0.6055,-0.52981 1.05962,-0.6055 2.53552,-0.3406 2.98965,0.49197 3.93574,0.37844 4.65477,-0.60549 0.64334,-0.87041 0.68119,-0.87041 2.04356,-0.22707 1.51374,0.71903 2.11924,0.52981 3.63299,-1.09746 0.79471,-0.83256 0.83256,-1.09747 0.45412,-1.74081 -0.37844,-0.6055 -0.34059,-0.90825 0.22706,-1.77865 2.72474,-4.12495 2.87612,-5.0332 1.05962,-5.75223 -1.28668,-0.49197 -1.40021,-0.79472 -0.71903,-2.23277 0.71903,-1.40022 0.3406,-2.45984 -0.8704,-2.53553 -0.41628,-0.0378 -0.94609,-0.0757 -1.17315,-0.11353 -0.26491,-0.0378 -0.49197,-0.37843 -0.49197,-0.79471 0,-0.41628 -0.49197,-1.77866 -1.13531,-3.02749 -0.90825,-1.8165 -1.32453,-2.23278 -2.15709,-2.34631 -0.90824,-0.11353 -1.09746,-0.30275 -1.36237,-1.89218 -0.30275,-1.89218 0.41628,-4.46555 1.211,-4.46555 0.8704,0 0.37844,-1.13531 -0.71903,-1.70296 l -1.17315,-0.6055 0.75687,-1.05962 c 0.41628,-0.56766 0.98394,-1.77865 1.24884,-2.64906 0.26491,-0.94609 0.79472,-1.77865 1.24884,-1.96787 0.41628,-0.15137 1.17315,-0.64334 1.66512,-1.02177 0.8704,-0.68119 0.8704,-0.83256 0.41628,-1.96787 -0.45412,-1.13531 -0.45412,-1.24884 0.45412,-2.00571 1.32453,-1.09747 1.77865,-2.15709 1.55159,-3.36809 -0.15137,-0.71903 0,-1.09746 0.56766,-1.40021 0.41628,-0.22706 0.90824,-1.09747 1.17315,-2.11924 0.37844,-1.55159 0.64334,-1.8165 2.0814,-2.45984 1.62728,-0.68119 2.11924,-1.43806 2.11924,-3.21671 0,-0.6055 0.37844,-0.90825 1.62728,-1.211 1.40021,-0.41628 1.66512,-0.37843 2.15709,0.22707 1.09746,1.36237 2.00571,1.58943 2.91395,0.71903 1.09747,-1.02178 2.38415,-0.37844 2.38415,1.21099 0,1.211 0.41628,1.62728 1.28669,1.28668 0.45412,-0.18921 0.52981,-0.56765 0.34059,-1.85433 -0.18922,-1.62728 -0.18922,-1.66512 1.05962,-2.00572 1.51375,-0.37843 1.77865,-1.1353 0.94609,-2.76258 -0.56765,-1.09747 -0.45412,-2.23277 0.18922,-2.23277 0.15137,0 0.68119,-0.41628 1.17315,-0.90825 0.49197,-0.52981 1.70297,-1.17315 2.76259,-1.4759 1.62727,-0.45413 1.89218,-0.68119 2.11924,-1.70297 0.11353,-0.64334 0.52981,-1.62727 0.90825,-2.19493 0.56765,-0.90824 0.79471,-0.94609 2.3463,-0.71903 1.211,0.18922 1.93003,0.0757 2.57337,-0.34059 1.17315,-0.75687 0.94609,-1.40021 -1.09747,-3.5573 l -1.51374,-1.58943 0.6055,-1.24884 c 0.34059,-0.64334 0.71903,-1.66512 0.83256,-2.23278 0.11353,-0.52981 0.34059,-1.24884 0.45412,-1.55158 0.11353,-0.37844 -0.18922,-0.9461 -0.75687,-1.43806 -0.6055,-0.52981 -0.98394,-1.24884 -0.98394,-1.89218 0,-1.43806 -0.94609,-1.89219 -4.27633,-2.04356 -2.57336,-0.15137 -2.76258,-0.22706 -3.5573,-1.40021 -0.49196,-0.68119 -0.8704,-1.43806 -0.8704,-1.70297 0,-0.2649 -0.15138,-0.49196 -0.37844,-0.49196 -0.18922,0 -0.37843,-0.37844 -0.37843,-0.87041 0,-0.90825 1.93002,-2.98964 3.10317,-3.40592 0.79472,-0.26491 2.00572,-2.49768 1.55159,-2.91396 -0.15137,-0.18922 -1.32452,-0.45413 -2.57336,-0.64335 -2.15709,-0.30274 -2.27062,-0.37843 -2.38415,-1.438055 -0.0757,-0.6055 -0.83256,-2.0814 -1.70297,-3.25456 -0.8704,-1.17315 -1.7408,-2.42199 -1.96786,-2.76258 -0.26491,-0.49197 -0.9461,-0.68119 -2.45984,-0.71903 -2.00571,-0.0757 -2.0814,-0.11353 -1.96787,-1.09746 0.15138,-1.47591 -1.02178,-1.93003 -5.10889,-1.96787 -1.96787,-0.0378 -3.67083,-0.22707 -3.89789,-0.45413 -0.26491,-0.2649 -1.05962,-0.30275 -2.49768,-0.0757 -1.66512,0.2649 -2.23278,0.18921 -2.98965,-0.30275 -0.52981,-0.3406 -0.94609,-0.75688 -0.94609,-0.94609 0,-0.64335 -1.09747,-0.3406 -1.77865,0.49196 -0.45412,0.56766 -1.17315,0.90825 -2.11924,0.98394 -1.32453,0.0757 -1.40022,0.0378 -1.02178,-0.71903 0.68118,-1.211 0.11353,-3.40593 -1.36237,-5.22242 -1.62728,-2.11925 -1.70297,-3.48162 -0.18922,-4.57908 0.64334,-0.41628 1.24884,-1.09747 1.36237,-1.51375 0.15137,-0.41628 0.49197,-0.75687 0.79472,-0.75687 0.52981,0 2.76258,-3.25455 2.80042,-4.08711 0,-0.22706 -0.22706,-0.45412 -0.52981,-0.45412 -1.05962,0 -0.98393,-0.71903 0.22707,-2.11925 1.02177,-1.17315 1.24884,-1.7408 1.28668,-3.33024 0.0378,-1.059624 0.0757,-2.232774 0.11353,-2.611214 0,-0.37843 0.45412,-0.83256 0.98393,-1.02178 0.71903,-0.2649 0.9461,-0.64334 0.9461,-1.55158 0,-0.83256 0.18921,-1.211 0.75687,-1.36238 0.8704,-0.22706 0.94609,-0.60549 0.30275,-1.58943 -0.37844,-0.6055 -0.26491,-0.8704 0.64334,-1.62727 1.28668,-1.13531 1.09746,-2.00572 -0.52981,-2.38415 -0.64334,-0.15138 -1.17315,-0.41628 -1.17315,-0.6055 0,-0.8704 -2.49768,-1.85434 -4.54124,-1.81649 -3.44377,0.0757 -6.69832,-0.90825 -8.40129,-2.57337 -1.21099,-1.211 -1.43805,-1.62728 -1.43805,-3.02749 0,-1.55159 -0.11353,-1.66512 -2.0814,-2.98965 l -2.0814,-1.40021 -0.87041,0.75687 c -1.62727,1.4759 -3.29239,2.04356 -5.26026,1.77865 -1.05962,-0.15137 -2.00571,-0.0757 -2.27062,0.15138 -0.2649,0.18921 -1.85434,0.41628 -3.51946,0.49196 -3.33024,0.15138 -3.36808,0.15138 -2.68689,-2.3463 0.22706,-0.79472 0.0757,-1.211 -0.56766,-1.8165 -0.71903,-0.68118 -1.13531,-0.75687 -2.83827,-0.56765 l -2.00571,0.2649 -0.41628,-1.66512 c -0.26491,-0.90824 -1.13531,-2.45983 -1.93003,-3.40592 l -1.4759,-1.77865 0.56766,-1.36237 c 0.52981,-1.211 0.52981,-1.66512 0.11353,-3.17887 -0.41628,-1.36237 -0.71903,-1.81649 -1.36237,-1.89218 -0.49197,-0.0757 -0.98394,-0.37844 -1.09747,-0.68118 -0.49197,-1.28669 -2.00571,-0.0378 -2.00571,1.66511 0,0.71903 -4.38986,4.99536 -5.10889,4.99536 -0.18922,0 -0.64334,-0.2649 -0.98394,-0.60549 -0.52981,-0.49197 -1.40021,-0.6055 -3.78436,-0.56766 -2.9518,0.0757 -4.12496,-0.2649 -4.12496,-1.21099 0,-0.22707 0.6055,-0.26491 1.55159,-0.11354 1.55159,0.22707 1.55159,0.22707 1.28669,-0.83256 -0.11353,-0.60549 -0.0378,-1.55158 0.18922,-2.15708 0.56765,-1.4759 0.15137,-2.45984 -1.36238,-3.06534 -1.66512,-0.68118 -1.77865,-0.68118 -2.87611,0.3406 z" />
</svg>
