<svg height='300px' width='300px'  fill="#000000" xmlns="http://www.w3.org/2000/svg" xmlns:xlink="http://www.w3.org/1999/xlink" viewBox="0 0 100 100" version="1.1" x="0px" y="0px"><title>25</title><desc>Created with Sketch.</desc><g stroke="none" stroke-width="1" fill="none" fill-rule="evenodd"><g fill="#000000"><path d="M87.5592172,33.9243647 L85.3611742,30.4433213 C80.9533464,23.4637655 73.9222309,18.8160279 66.064501,17.5227324 L61.1059883,11.5006353 C61.5269276,10.7094267 61.7662622,9.80712293 61.7662622,8.84946798 C61.7662622,5.73232955 59.2378865,3.19618285 56.1300587,3.19618285 C53.0226223,3.19618285 50.4942466,5.73232955 50.4942466,8.84946798 C50.4942466,11.9664101 53.0226223,14.5023605 56.1300587,14.5023605 C56.8537378,14.5023605 57.5449315,14.3633936 58.181135,14.1131353 L60.6836791,17.1525465 L39.1302544,17.1525465 L41.6327984,14.1131353 C42.2688063,14.3633936 42.9603914,14.5023605 43.6838748,14.5023605 C46.7917025,14.5023605 49.3200783,11.9664101 49.3200783,8.84946798 C49.3200783,5.73232955 46.7917025,3.19618285 43.6838748,3.19618285 C40.576047,3.19618285 38.0476712,5.73232955 38.0476712,8.84946798 C38.0476712,9.80712293 38.2872016,10.7094267 38.7079452,11.5006353 L33.7496282,17.5225362 C25.8907241,18.8158316 18.8594129,23.4635692 14.4515851,30.4433213 L12.2535421,33.9243647 C11.6750685,34.8400155 11.9464971,36.0528357 12.8596086,36.6326498 C13.1844618,36.8393337 13.5468885,36.9376705 13.9048141,36.9376705 C14.552955,36.9376705 15.187593,36.6145919 15.56,36.0247676 L17.7580431,32.5439205 C22.1770254,25.5463068 29.6367123,21.2620816 37.7134247,21.084251 C37.8934638,21.0801291 38.07409,21.0781663 38.2547162,21.0781663 L61.5580431,21.0781663 C61.738865,21.0781663 61.9190998,21.0801291 62.1005088,21.0844473 C70.1764384,21.2620816 77.6357339,25.5463068 82.0545205,32.5439205 L84.2527593,36.0247676 C84.625362,36.6145919 85.2594129,36.9376705 85.9079452,36.9376705 C86.2658708,36.9376705 86.6281018,36.8389411 86.952955,36.6326498 C87.8660665,36.0528357 88.1374951,34.8400155 87.5592172,33.9243647 M53.9297456,56.8750496 C55.0103718,56.8750496 55.8866928,57.7541921 55.8866928,58.8378595 C55.8866928,59.9219194 55.0103718,60.8006694 53.9297456,60.8006694 L43.5782779,60.8006694 C43.4906067,61.4864752 43.4446184,62.2042748 43.4446184,62.9572087 C43.4446184,63.3389752 43.4589041,63.7093574 43.4812133,64.073655 L53.9297456,64.073655 C55.0103718,64.073655 55.8866928,64.952405 55.8866928,66.0364649 C55.8866928,67.1203285 55.0103718,67.9992748 53.9297456,67.9992748 L44.2778865,67.9992748 C44.8213307,69.434874 45.6287671,70.6575083 46.6984344,71.6557934 C50.7677104,75.4540269 57.2970646,75.0304525 57.3632094,75.0253492 C58.4410959,74.9474256 59.3780822,75.7610103 59.4555773,76.8425186 C59.5330724,77.9236343 58.7221135,78.8632314 57.6440313,78.9409587 C57.5812133,78.9454731 57.2528376,78.9672603 56.7266145,78.9672603 C54.4283757,78.9672603 48.3465753,78.5570331 44.0318982,74.5295434 C42.1571429,72.7793058 40.8630137,70.5935207 40.1590998,67.9992748 L37.2225049,67.9992748 C36.1418787,67.9992748 35.2655577,67.1203285 35.2655577,66.0364649 C35.2655577,64.952405 36.1418787,64.073655 37.2225049,64.073655 L39.5610568,64.073655 C39.5428571,63.7068058 39.5307241,63.3362273 39.5307241,62.9572087 C39.5307241,62.2144814 39.569863,61.4974669 39.639726,60.8006694 L37.2225049,60.8006694 C36.1418787,60.8006694 35.2655577,59.9219194 35.2655577,58.8378595 C35.2655577,57.7541921 36.1418787,56.8750496 37.2225049,56.8750496 L40.4845401,56.8750496 C41.2317025,54.7330351 42.4136986,52.8956488 44.0318982,51.3852665 C49.3348337,46.4352562 57.3068493,46.9504938 57.6440313,46.9738512 C58.7221135,47.0515785 59.5330724,47.9911756 59.4555773,49.0724876 C59.3780822,50.1522293 58.4420744,50.9628698 57.3667319,50.889657 C57.2596869,50.8839649 50.7062622,50.5002355 46.6819961,54.2743264 C45.8882583,55.018624 45.2403131,55.8875599 44.737182,56.8750496 L53.9297456,56.8750496 Z M99.7712329,69.0120847 C99.3958904,62.7634793 96.6342466,57.2436653 91.7845401,53.0483554 C87.28591,49.1570847 83.339726,43.9430764 80.055773,37.5507934 C76.2031311,30.0524669 68.9473581,25.394719 61.1193738,25.394719 L49.907045,25.394719 L38.6947162,25.394719 C30.8667319,25.394719 23.6107632,30.0524669 19.758317,37.5507934 C16.474364,43.9430764 12.52818,49.1570847 8.02935421,53.0487479 C3.18003914,57.2436653 0.418395303,62.7632831 0.0428571429,69.0116921 C-0.380234834,76.0552355 2.4074364,83.1774876 5.24559687,86.3030661 C9.42446184,90.9050702 14.690998,93.8522293 21.8193738,95.5775393 C28.3712329,97.1634897 37.0336595,97.8706901 49.9062622,97.8706901 L49.9068493,97.8706901 L49.9076321,97.8706901 C62.7804305,97.8706901 71.4426614,97.1634897 77.9947162,95.5775393 C85.1228963,93.8522293 90.3896282,90.9050702 94.5686888,86.3030661 C97.4066536,83.1778802 100.194325,76.0556281 99.7712329,69.0120847 L99.7712329,69.0120847 Z"></path></g></g></svg>
