<svg height='300px' width='300px'  fill="#000000" xmlns="http://www.w3.org/2000/svg" viewBox="0 0 32 32" x="0px" y="0px"><title>Artboard 12</title><g data-name="Layer 2"><path d="M26.44,17.56a4.4,4.4,0,0,0-2.45.75A7.28,7.28,0,0,0,9.83,16.94a5.29,5.29,0,0,0-3.36-1.19,5.34,5.34,0,1,0,0,10.68h20a4.43,4.43,0,0,0,0-8.87Z"></path><path d="M5.45,14.9a5.37,5.37,0,0,1,.7,0c1.45,0,2.49-.08,3.36.94C10,13.33,12,12,14.37,11.31A4.84,4.84,0,0,0,5.45,14.9Z"></path><rect x="9.36" y="5.57" width="1" height="2.58"></rect><rect x="1.92" y="14.2" width="2.58" height="1"></rect><rect x="3.75" y="7.9" width="1" height="2.58" transform="translate(-5.25 5.69) rotate(-45)"></rect><rect x="14.19" y="8.69" width="2.58" height="1" transform="translate(-1.96 13.64) rotate(-45)"></rect></g></svg>
