<svg height='300px' width='300px'  fill="#000000" xmlns="http://www.w3.org/2000/svg" xmlns:xlink="http://www.w3.org/1999/xlink" version="1.1" x="0px" y="0px" viewBox="0 0 100 100" enable-background="new 0 0 100 100" xml:space="preserve"><path fill="#000000" d="M73.894,51.541H33.198c-1.521-3.925-0.654-8.514,2.622-11.67c4.474-4.31,11.729-4.31,16.203,0l1.522,1.467  l1.521-1.467c4.476-4.31,11.73-4.31,16.204,0C74.549,43.027,75.415,47.616,73.894,51.541z M61.712,6.11  c-10.208-2.78-20.18,2.874-22.275,12.631l-0.714,3.319l-3.472-0.946c-10.207-2.781-20.181,2.874-22.275,12.631  c-1.074,5.002,0.143,10.104,2.947,14.271l57.934-32.85C71.21,10.91,66.944,7.537,61.712,6.11z M25.058,67.092l2.446,2.492  l26.043,25.014l26.042-25.014l2.446-2.492c3.505-3.572,5.288-8.227,5.377-12.906H19.681C19.769,58.865,21.553,63.52,25.058,67.092z"></path></svg>
