<svg height='300px' width='300px'  fill="#000000" xmlns:dc="http://purl.org/dc/elements/1.1/" xmlns:cc="http://creativecommons.org/ns#" xmlns:rdf="http://www.w3.org/1999/02/22-rdf-syntax-ns#" xmlns:svg="http://www.w3.org/2000/svg" xmlns="http://www.w3.org/2000/svg" xmlns:sodipodi="http://sodipodi.sourceforge.net/DTD/sodipodi-0.dtd" xmlns:inkscape="http://www.inkscape.org/namespaces/inkscape" version="1.1" x="0px" y="0px" viewBox="0 0 100 100"><g transform="translate(0,-952.36218)"><path style="color:#000000;enable-background:accumulate;" d="M 73.59375,961.37127 C 42.36011,961.65761 12,968.53492 12,978.29499 c 0,12.01241 36,29.03001 36,40.04131 0,10.0104 -18.7648,16.684 -43,25.0259 l 36.375,0 c 4.48226,-1.7016 10.91575,-5.1085 12.21875,-6.4129 l 2.8125,2.8154 c -0.81351,0.8144 -2.8666,2.195 -5.375,3.5975 l 28.96875,0 c 8,-8.0083 15,-17.0176 15,-25.0259 0,-19.0196 -55,-30.03097 -55,-40.04131 0,-8.00826 37,-10.01033 55,-16.01653 -6.9375,-0.68039 -14.19849,-0.97327 -21.40625,-0.90719 z M 45.5,966.34516 l 1,3.879 c -4,1.00103 -7.83226,1.96504 -11.59375,3.84772 l -1.8125,-3.56618 C 37.33226,968.38425 41.5,967.34619 45.5,966.34516 z m -16.90625,6.538 2.8125,2.8154 C 29.64195,977.46469 29,978.96235 29,980.29706 c 0,1.33471 0.64195,2.83237 2.40625,4.5985 l -2.8125,2.8154 C 26.35805,985.47295 25,982.96649 25,980.29706 c 0,-2.66943 1.35805,-5.17589 3.59375,-7.4139 z m 7.65625,15.86012 10,8.00832 -2.5,3.1282 -10,-8.00829 2.5,-3.12823 z m 13.875,10.91752 12,8.0083 -2.25,3.3159 -12,-8.0083 2.25,-3.3159 z m 16.90625,10.9488 c 2.58407,1.5521 5.32765,3.3707 7.03125,6.0062 1.7036,2.6356 1.92088,6.3596 -0.40625,9.8539 l -3.3125,-2.221 c 1.67287,-2.5119 1.39015,-3.8243 0.34375,-5.4431 -1.0464,-1.6188 -3.30282,-3.3039 -5.71875,-4.7549 l 2.0625,-3.4411 z m 0.78125,16.1104 2.375,3.2534 -11,8.0082 -2.375,-3.2533 11,-8.0083 z" fill="#000000" stroke="none" marker="none" visibility="visible" display="inline" overflow="visible"></path></g></svg>
