<svg height='300px' width='300px'  fill="#000000" xmlns="http://www.w3.org/2000/svg" xmlns:xlink="http://www.w3.org/1999/xlink" version="1.1" x="0px" y="0px" viewBox="-399.5 300.5 24 24" enable-background="new -399.5 300.5 24 24" xml:space="preserve"><g><polygon points="-387.5,300.5 -399.5,305.5 -399.5,306.5 -387.5,302.5 -375.5,306.5 -375.5,305.5  "></polygon><polygon points="-396.5,314.5 -398.5,314.5 -398.5,324.5 -396.5,324.5 -396.5,322.5 -378.5,322.5 -378.5,324.5 -376.5,324.5    -376.5,320.5 -396.5,320.5  "></polygon><circle cx="-394" cy="318" r="1.5"></circle><circle cx="-394" cy="314" r="1.5"></circle><path d="M-380.338,315.712l-3.323-1.424c-1.011-0.434-2.738-0.788-3.838-0.788h-2c-1.1,0-2,0.9-2,2v4h13c0,0,0-0.675,0-1.5   S-379.327,316.146-380.338,315.712z"></path></g><path d="M-384.086,306.086c-0.781-0.781-2.047-0.781-2.828,0c-0.391,0.391-0.586,0.902-0.586,1.414c0-0.512-0.195-1.023-0.586-1.414  c-0.781-0.781-2.047-0.781-2.828,0c-0.781,0.781-0.781,2.047,0,2.828c0.391,0.391,3.414,2.586,3.414,2.586s3.023-2.195,3.414-2.586  C-383.305,308.133-383.305,306.867-384.086,306.086z"></path></svg>
