<svg height='300px' width='300px'  fill="#000000" xmlns="http://www.w3.org/2000/svg" data-name="Layer 1" viewBox="0 0 100 100" x="0px" y="0px"><title>8</title><path d="M33.28033,95C18.07312,95,6.60541,89.53528,6.60541,82.28577c0-6.04291,7.97754-10.83948,19.45526-12.26557v4.52735c-9.42346,1.28625-14.9679,4.956-14.9679,7.73822,0,3.44024,8.44617,8.22686,22.18756,8.22686,13.75135,0,22.18757-4.78662,22.18757-8.22686,0-2.78223-5.53443-6.452-14.95789-7.73822V70.0202c11.46771,1.42609,19.44531,6.23249,19.44531,12.26557C59.95532,89.53528,48.48755,95,33.28033,95ZM67.20215,9.51886c-12.39087,4.78271-14.408,5.82672-26.19226,0q-.00009,18.93319,0,37.86639c11.78436,5.82685,13.80133,4.78272,26.19226,0,12.74658-4.92,11.959-7.03784,26.19244,0q.00009-18.93311,0-37.86639C79.16107,2.4809,79.94879,4.59888,67.20215,9.51886ZM33.28094,82.28906A3.4351,3.4351,0,0,0,36.716,78.854V8.43506a3.43509,3.43509,0,0,0-6.87017,0V78.854A3.43511,3.43511,0,0,0,33.28094,82.28906Z"></path></svg>
