<svg height='300px' width='300px'  fill="#000000" xmlns="http://www.w3.org/2000/svg" xmlns:xlink="http://www.w3.org/1999/xlink" version="1.1" x="0px" y="0px" viewBox="0 0 90 90" enable-background="new 0 0 90 90" xml:space="preserve"><path fill-rule="evenodd" clip-rule="evenodd" d="M65.95,24.3c-1.967,1.967-4.351,2.95-7.15,2.95s-5.2-0.983-7.2-2.95  c-1.933-2-2.899-4.383-2.899-7.15c0-2.833,0.967-5.233,2.899-7.2C53.6,7.983,56,7,58.8,7s5.184,0.983,7.15,2.95  c2,1.966,3,4.367,3,7.2C68.95,19.917,67.95,22.3,65.95,24.3z M43.5,28.95c0.833-1.333,2.017-2.217,3.55-2.65  c1.533-0.433,3-0.267,4.4,0.5c1.434,0.733,2.434,1.85,3,3.35l1.899,5.4l0.801-1.7c0.767-1.467,1.949-2.5,3.55-3.1  c1.566-0.533,3.1-0.433,4.6,0.3c1.566,0.733,2.617,1.9,3.15,3.5c0.566,1.6,0.483,3.15-0.25,4.65L61.05,54  c-0.733,1.5-1.883,2.533-3.45,3.1c-1.6,0.567-3.166,0.483-4.699-0.25C51.4,56.15,50.35,55,49.75,53.4l-2.6-7.25l-7.75,12.3  L54.8,71.1c1.033,0.801,1.733,1.817,2.101,3.051c0.3,1.267,0.25,2.5-0.15,3.699c-0.467,1.2-1.233,2.184-2.3,2.95  c-1.033,0.767-2.184,1.15-3.45,1.15H26.25c-1.7,0-3.15-0.601-4.35-1.8c-1.2-1.2-1.8-2.65-1.8-4.351s0.6-3.149,1.8-4.35  c1.2-1.2,2.65-1.8,4.35-1.8h7.55l-6.35-5.15c-1.2-0.967-1.917-2.217-2.15-3.75c-0.267-1.533,0.017-2.95,0.85-4.25L43.5,28.95z"></path></svg>
