<svg height='300px' width='300px'  fill="#000000" xmlns="http://www.w3.org/2000/svg" xmlns:xlink="http://www.w3.org/1999/xlink" version="1.1" x="0px" y="0px" viewBox="0 0 100 100" enable-background="new 0 0 100 100" xml:space="preserve"><path d="M77.828,15.826c-1.317,0-2.668,0.138-4.027,0.412C72.254,7.862,64.912,1.676,56.289,1.676  c-7.72,0-14.545,5.003-16.923,12.281c-1.078-0.22-2.151-0.332-3.202-0.332c-8.96,0-16.25,7.29-16.25,16.25  c0,7.806,5.624,14.515,13.218,15.952c0.371,10.978,9.417,19.795,20.483,19.795c6.932,0,13.448-3.58,17.209-9.397  c2.258,0.811,4.609,1.222,7.004,1.222c11.475,0,20.811-9.335,20.811-20.811C98.639,25.161,89.303,15.826,77.828,15.826z"></path><path d="M30.19,66.137c-5.667,0-10.276,4.61-10.276,10.276c0,5.667,4.61,10.277,10.276,10.277c5.666,0,10.275-4.61,10.275-10.277  C40.466,70.747,35.856,66.137,30.19,66.137z"></path><path d="M8.179,84.69c-3.759,0-6.817,3.058-6.817,6.815c0,3.76,3.058,6.818,6.817,6.818c3.759,0,6.817-3.059,6.817-6.818  C14.996,87.748,11.938,84.69,8.179,84.69z"></path></svg>
