<svg height='300px' width='300px'  fill="#000000" xmlns:dc="http://purl.org/dc/elements/1.1/" xmlns:cc="http://creativecommons.org/ns#" xmlns:rdf="http://www.w3.org/1999/02/22-rdf-syntax-ns#" xmlns:svg="http://www.w3.org/2000/svg" xmlns="http://www.w3.org/2000/svg" xmlns:sodipodi="http://sodipodi.sourceforge.net/DTD/sodipodi-0.dtd" xmlns:inkscape="http://www.inkscape.org/namespaces/inkscape" version="1.1" preserveAspectRatio="xMidYMid meet" viewBox="0 0 100 100" x="0px" y="0px"><g style="" display="inline"><path style="color:#000000;font-style:normal;font-variant:normal;font-weight:normal;font-stretch:normal;font-size:medium;line-height:normal;font-family:sans-serif;font-variant-ligatures:normal;font-variant-position:normal;font-variant-caps:normal;font-variant-numeric:normal;font-variant-alternates:normal;font-feature-settings:normal;text-indent:0;text-align:start;text-decoration:none;text-decoration-line:none;text-decoration-style:solid;text-decoration-color:#000000;letter-spacing:normal;word-spacing:normal;text-transform:none;writing-mode:lr-tb;direction:ltr;text-orientation:mixed;dominant-baseline:auto;baseline-shift:baseline;text-anchor:start;white-space:normal;shape-padding:0;clip-rule:nonzero;display:inline;overflow:visible;visibility:visible;opacity:1;isolation:auto;mix-blend-mode:normal;color-interpolation:sRGB;color-interpolation-filters:linearRGB;solid-color:#000000;solid-opacity:1;vector-effect:none;fill:#000000;fill-opacity:1;fill-rule:evenodd;stroke:none;stroke-width:3;stroke-linecap:square;stroke-linejoin:miter;stroke-miterlimit:4;stroke-dasharray:none;stroke-dashoffset:0;stroke-opacity:1;paint-order:markers stroke fill;color-rendering:auto;image-rendering:auto;shape-rendering:auto;text-rendering:auto;enable-background:accumulate" d="M 50 4.7324219 C 45.056642 4.7324219 40.302379 5.5382076 35.847656 7.0058594 A 20.017811 20.017811 0 0 1 38.205078 9.4101562 C 41.949472 8.3255263 45.903741 7.7324219 50 7.7324219 C 73.361499 7.7324219 92.267578 26.638501 92.267578 50 C 92.267578 73.3615 73.3615 92.267578 50 92.267578 C 26.638501 92.267578 7.7324219 73.361499 7.7324219 50 C 7.7324219 45.565369 8.4160063 41.292035 9.6796875 37.277344 A 20.017811 20.017811 0 0 1 7.3398438 34.861328 C 5.6568619 39.597042 4.7324219 44.690193 4.7324219 50 C 4.7324219 74.98282 25.01718 95.267578 50 95.267578 C 74.98282 95.267578 95.267578 74.98282 95.267578 50 C 95.267578 25.01718 74.98282 4.7324219 50 4.7324219 z "></path><path style="color:#000000;font-style:normal;font-variant:normal;font-weight:normal;font-stretch:normal;font-size:medium;line-height:normal;font-family:sans-serif;font-variant-ligatures:normal;font-variant-position:normal;font-variant-caps:normal;font-variant-numeric:normal;font-variant-alternates:normal;font-feature-settings:normal;text-indent:0;text-align:start;text-decoration:none;text-decoration-line:none;text-decoration-style:solid;text-decoration-color:#000000;letter-spacing:normal;word-spacing:normal;text-transform:none;writing-mode:lr-tb;direction:ltr;text-orientation:mixed;dominant-baseline:auto;baseline-shift:baseline;text-anchor:start;white-space:normal;shape-padding:0;clip-rule:nonzero;display:inline;overflow:visible;visibility:visible;opacity:1;isolation:auto;mix-blend-mode:normal;color-interpolation:sRGB;color-interpolation-filters:linearRGB;solid-color:#000000;solid-opacity:1;vector-effect:none;fill:#000000;fill-opacity:1;fill-rule:nonzero;stroke:none;stroke-width:2;stroke-linecap:butt;stroke-linejoin:round;stroke-miterlimit:4;stroke-dasharray:none;stroke-dashoffset:0;stroke-opacity:1;color-rendering:auto;image-rendering:auto;shape-rendering:auto;text-rendering:auto;enable-background:accumulate" d="M 49 20.830078 L 49 45.699219 A 4.4208918 4.4208918 0 0 0 45.580078 50 A 4.4208918 4.4208918 0 0 0 50 54.419922 A 4.4208918 4.4208918 0 0 0 54.277344 51.091797 L 78.734375 51.091797 L 78.734375 48.908203 L 54.279297 48.908203 A 4.4208918 4.4208918 0 0 0 51 45.699219 L 51 20.845703 L 49.15625 20.845703 C 49.102741 20.845703 49.052816 20.832772 49 20.830078 z "></path><path style="opacity:1;fill:#000000;fill-opacity:1;fill-rule:evenodd;stroke:none;stroke-width:1.80958629;stroke-linecap:square;stroke-linejoin:round;stroke-miterlimit:4;stroke-dasharray:none;stroke-dashoffset:0;stroke-opacity:1;paint-order:markers stroke fill" d="M 22.209403,4.0736588 A 16.666636,16.666636 0 0 0 5.5433876,20.739674 16.666636,16.666636 0 0 0 22.209403,37.40569 16.666636,16.666636 0 0 0 38.875419,20.739674 16.666636,16.666636 0 0 0 22.209403,4.0736588 Z m 0,3.9296875 c 1.691096,0 3.052734,1.3616384 3.052734,3.0527347 v 12.208984 c 0,1.691096 -1.361638,3.052735 -3.052734,3.052735 -1.691096,0 -3.052734,-1.361639 -3.052734,-3.052735 V 11.056081 c 0,-1.6910963 1.361638,-3.0527347 3.052734,-3.0527347 z m 0,19.7890627 a 2.8420017,2.8420017 0 0 1 2.841797,2.841797 2.8420017,2.8420017 0 0 1 -2.841797,2.841797 2.8420017,2.8420017 0 0 1 -2.841797,-2.841797 2.8420017,2.8420017 0 0 1 2.841797,-2.841797 z"></path></g></svg>
