<svg height='300px' width='300px'  fill="#000000" xmlns="http://www.w3.org/2000/svg" xmlns:xlink="http://www.w3.org/1999/xlink" version="1.1" x="0px" y="0px" viewBox="0 0 100 100" enable-background="new 0 0 100 100" xml:space="preserve"><path d="M47.3,88.9C48,89.6,49,90,50,90c1,0,2-0.4,2.8-1.1l35-35c4.9-4.9,7.5-11.3,7.6-18.2c0-6.9-2.7-13.3-7.5-18.2  C82.9,12.7,76.5,10,69.6,10c-6.9,0-13.3,2.7-18.2,7.5L50,19l-1.4-1.4C43.7,12.6,37.2,10,30.4,10c-6.9,0-13.3,2.7-18.2,7.5  c-4.9,4.9-7.5,11.3-7.5,18.2c0,6.9,2.7,13.3,7.6,18.2L47.3,88.9z M30.1,19.5c2.1,0,3.8,1.7,3.8,3.8s-1.7,3.8-3.8,3.8  c-4.6,0-8.3,3.7-8.3,8.3c0,2.1-1.7,3.8-3.8,3.8s-3.8-1.7-3.8-3.8C14.2,26.7,21.3,19.5,30.1,19.5z"></path></svg>
