<svg height='300px' width='300px'  fill="#000000" xmlns="http://www.w3.org/2000/svg" data-name="Layer 1" viewBox="0 0 512 512" x="0px" y="0px"><title>16</title><path d="M59.9,13.1a20.39,20.39,0,0,0-27.3,9.4l-19.5,40A20.42,20.42,0,1,0,49.8,80.4l19.5-40A20.48,20.48,0,0,0,59.9,13.1Z"></path><path d="M203.1,13.1a20.39,20.39,0,0,0-27.3,9.4l-19.5,40A20.42,20.42,0,1,0,193,80.4l19.5-40A20.31,20.31,0,0,0,203.1,13.1Z"></path><path d="M346.3,13.1A20.39,20.39,0,0,0,319,22.5l-19.5,40a20.42,20.42,0,1,0,36.7,17.9l19.5-40A20.31,20.31,0,0,0,346.3,13.1Z"></path><path d="M489.5,13.1a20.39,20.39,0,0,0-27.3,9.4l-19.5,40a20.42,20.42,0,1,0,36.7,17.9l19.5-40A20.31,20.31,0,0,0,489.5,13.1Z"></path><path d="M131.5,149.5a20.39,20.39,0,0,0-27.3,9.4l-19.5,40a20.42,20.42,0,0,0,36.7,17.9l19.5-40A20.39,20.39,0,0,0,131.5,149.5Z"></path><path d="M274.7,149.5a20.39,20.39,0,0,0-27.3,9.4l-19.5,40a20.42,20.42,0,0,0,36.7,17.9l19.5-40A20.31,20.31,0,0,0,274.7,149.5Z"></path><path d="M417.9,149.5a20.39,20.39,0,0,0-27.3,9.4l-19.5,40a20.42,20.42,0,1,0,36.7,17.9l19.5-40A20.31,20.31,0,0,0,417.9,149.5Z"></path><path d="M59.9,285.9a20.39,20.39,0,0,0-27.3,9.4l-19.5,40a20.42,20.42,0,0,0,36.7,17.9l19.5-40A20.48,20.48,0,0,0,59.9,285.9Z"></path><path d="M203.1,285.9a20.39,20.39,0,0,0-27.3,9.4l-19.5,40A20.42,20.42,0,0,0,193,353.2l19.5-40A20.31,20.31,0,0,0,203.1,285.9Z"></path><path d="M346.3,285.9a20.39,20.39,0,0,0-27.3,9.4l-19.5,40a20.42,20.42,0,0,0,36.7,17.9l19.5-40A20.31,20.31,0,0,0,346.3,285.9Z"></path><path d="M489.5,285.9a20.39,20.39,0,0,0-27.3,9.4l-19.5,40a20.42,20.42,0,0,0,36.7,17.9l19.5-40A20.31,20.31,0,0,0,489.5,285.9Z"></path><path d="M131.5,422.3a20.39,20.39,0,0,0-27.3,9.4l-19.5,40a20.42,20.42,0,0,0,36.7,17.9l19.5-40A20.39,20.39,0,0,0,131.5,422.3Z"></path><path d="M274.7,422.3a20.39,20.39,0,0,0-27.3,9.4l-19.5,40a20.42,20.42,0,0,0,36.7,17.9l19.5-40A20.31,20.31,0,0,0,274.7,422.3Z"></path><path d="M417.9,422.3a20.39,20.39,0,0,0-27.3,9.4l-19.5,40a20.42,20.42,0,0,0,36.7,17.9l19.5-40A20.31,20.31,0,0,0,417.9,422.3Z"></path></svg>
