<svg height='300px' width='300px'  fill="#000000" xmlns="http://www.w3.org/2000/svg" xmlns:xlink="http://www.w3.org/1999/xlink" version="1.1" x="0px" y="0px" viewBox="0 0 512 512" enable-background="new 0 0 512 512" xml:space="preserve"><g><path d="M227.228,216.777c-2.444-6.347-8.619-10.462-15.429-10.243c-0.778,0.024-1.559,0.042-2.344,0.042   c-40.474,0-73.401-32.928-73.401-73.401s32.928-73.401,73.401-73.401c0.779,0,1.555,0.017,2.328,0.042   c6.755,0.191,12.993-3.888,15.441-10.235c2.447-6.348,0.613-13.549-4.572-17.953C198.635,11.232,168.039,0,136.502,0   C63.069,0,3.327,59.742,3.327,133.175S63.069,266.35,136.502,266.35c31.537,0,62.133-11.232,86.15-31.627   C227.836,230.321,229.671,223.123,227.228,216.777z"></path><g><path d="M-0.626,314.985c-0.085,0.668-0.144,1.343-0.144,2.024v92.842V496c0,8.837,7.163,16,16,16H496.77c8.837,0,16-7.163,16-16    v-8.789C413.717,437.157,185.024,330.974-0.626,314.985z"></path><path d="M512.77,451.424v-141.86c0-7.926-5.803-14.657-13.643-15.825c-115.636-17.227-223.166-9.706-325.003,23.012    C307.91,354.73,437.916,414.263,512.77,451.424z"></path></g><path d="M470.811,114.39h-6.338l-0.04-7.671c-0.066-33.405-27.264-60.56-60.684-60.56c-20.323,0-39.04,10.355-50.156,26.589   c-5.981-1.937-12.268-2.933-18.689-2.933c-33.461,0-60.684,27.223-60.684,60.684c0,8.836,7.164,16,16,16l180.591-0.11   c8.836,0,16-7.164,16-16S479.647,114.39,470.811,114.39z"></path></g></svg>
