<svg height='300px' width='300px'  fill="#000000" xmlns="http://www.w3.org/2000/svg" xmlns:xlink="http://www.w3.org/1999/xlink" version="1.1" x="0px" y="0px" viewBox="0 0 98 98" enable-background="new 0 0 98 98" xml:space="preserve"><g><path d="M43.845,78.1338c0,4.67-2.38,6.68-4.9,7.09v4.4h-2v-4.4c-2.52-0.41-4.89-2.42-4.89-7.09c0-3.8905,3.2434-8.2188,5.89-11.09   C40.5997,69.919,43.845,74.2336,43.845,78.1338z"></path><path d="M45.695,36.7337c0,2.78-1.34,4.07-2.85,4.46v2.23h-2v-2.23c-1.51-0.39-2.85-1.6801-2.85-4.46   c0-2.6425,2.1914-5.2421,3.85-7.06C43.529,31.5196,45.695,34.0738,45.695,36.7337z"></path><path d="M54.565,55.6637c0-3.4367,2.9099-7.1548,5.11-9.54c2.2449,2.429,5.12,6.1025,5.12,9.54c0,3.95-1.98,5.69-4.12,6.09v3.56h-2   v-3.56C56.545,61.3537,54.565,59.6137,54.565,55.6637z"></path><polygon points="96.005,38.7837 68.355,38.7837 70.085,47.1437 96.005,47.1437 96.005,49.1437 70.495,49.1437 72.225,57.5137    96.005,57.5137 96.005,59.5137 72.645,59.5137 74.375,67.8838 96.005,67.8838 96.005,69.8838 74.785,69.8838 76.515,78.2538    96.005,78.2538 96.005,80.2538 76.935,80.2538 78.665,88.6237 96.005,88.6237 96.005,90.6237 79.075,90.6237 80.255,96.3037    78.295,96.7137 64.165,28.4137 51.085,28.4137 51.085,96.5537 49.085,96.5537 49.085,28.4137 36.015,28.4137 21.885,96.7137    19.925,96.3037 21.095,90.6237 2.005,90.6237 2.005,88.6237 21.515,88.6237 23.245,80.2538 2.005,80.2538 2.005,78.2538    23.655,78.2538 25.385,69.8838 2.005,69.8838 2.005,67.8838 25.805,67.8838 27.535,59.5137 2.005,59.5137 2.005,57.5137    27.945,57.5137 29.685,49.1437 2.005,49.1437 2.005,47.1437 30.095,47.1437 31.825,38.7837 2.005,38.7837 2.005,36.7837    32.245,36.7837 33.975,28.4137 1.995,28.4137 1.995,26.4137 95.995,26.4137 95.995,28.4137 66.205,28.4137 67.945,36.7837    96.005,36.7837  "></polygon><path d="M45.285,55.6637c0,3.95-1.98,5.69-4.11,6.09v3.56h-2v-3.56c-2.14-0.4-4.12-2.14-4.12-6.09c0-3.4303,2.8863-7.123,5.12-9.54   C42.404,48.5403,45.285,52.2195,45.285,55.6637z"></path><path d="M57.005,43.4237v-2.23c-1.51-0.39-2.85-1.6801-2.85-4.46c0-2.6425,2.1915-5.2421,3.85-7.06   c1.684,1.8459,3.85,4.4001,3.85,7.06c0,2.78-1.34,4.07-2.85,4.46v2.23H57.005z"></path><path d="M67.795,78.1338c0,4.67-2.37,6.68-4.89,7.09v4.4h-2v-4.4c-2.52-0.41-4.9-2.42-4.9-7.09c0-3.8995,3.244-8.2134,5.9-11.09   C64.5516,69.915,67.795,74.2433,67.795,78.1338z"></path><path d="M20.265,11.9937c0,2.7-2.1899,4.89-4.8799,4.89c-2.7,0-4.89-2.19-4.89-4.89c0-2.69,2.19-4.88,4.89-4.88   C18.075,7.1137,20.265,9.3037,20.265,11.9937z"></path><rect x="14.3809" y="1.2863" width="2" height="3.9297"></rect><rect x="7.7929" y="4.2975" transform="matrix(0.6429 0.766 -0.766 0.6429 7.543 -5.5823)" width="3.9299" height="2.0005"></rect><rect x="4.8012" y="9.4796" transform="matrix(0.9848 0.1737 -0.1737 0.9848 1.9232 -1.016)" width="3.9299" height="2.0002"></rect><rect x="5.8403" y="15.3726" transform="matrix(-0.866 0.5 -0.5 -0.866 22.751 26.6495)" width="3.9298" height="2.0003"></rect><rect x="10.424" y="19.2188" transform="matrix(-0.3421 0.9397 -0.9397 -0.3421 35.6257 15.4928)" width="3.9299" height="1.9997"></rect><rect x="16.4077" y="19.2185" transform="matrix(-0.3419 -0.9397 0.9397 -0.3419 5.6551 44.3974)" width="3.9298" height="2.0003"></rect><rect x="20.9917" y="15.3726" transform="matrix(-0.866 -0.5 0.5 -0.866 34.6516 42.03)" width="3.9298" height="2.0003"></rect><rect x="22.0307" y="9.4796" transform="matrix(-0.9848 0.1737 -0.1737 -0.9848 49.4469 16.6319)" width="3.9299" height="2.0002"></rect><rect x="20.0038" y="3.333" transform="matrix(0.7662 0.6426 -0.6426 0.7662 8.3157 -12.2589)" width="1.9998" height="3.9296"></rect><path d="M94.705,15.3337v1h-26.8v-1c0-3.14,2.54-5.69,5.67-5.69h0.05c0.65-3.64,3.81-6.35,7.61-6.35s6.95,2.7,7.6,6.34   C91.955,9.5137,94.705,12.1637,94.705,15.3337z"></path><path d="M41.8423,15.7946c3.3945,0,6.1558,2.7612,6.1558,6.1558h2c0-3.3945,2.7612-6.1558,6.1558-6.1558v-2   c-3.0815,0-5.769,1.7173-7.1558,4.2456c-1.3867-2.5283-4.0742-4.2456-7.1558-4.2456V15.7946z"></path><path d="M37.9962,7.5734h2c0-1.5332,1.2476-2.7808,2.7808-2.7808v-2c-1.5361,0-2.9058,0.7285-3.7808,1.8579   c-0.8755-1.1294-2.2446-1.8579-3.7813-1.8579v2C36.7486,4.7926,37.9962,6.0402,37.9962,7.5734z"></path><path d="M53.2217,8.464h2c0-1.5337,1.2476-2.7813,2.7808-2.7813v-2c-1.5361,0-2.9058,0.7285-3.7808,1.8579   c-0.875-1.1294-2.2446-1.8579-3.7808-1.8579v2C51.9742,5.6828,53.2217,6.9303,53.2217,8.464z"></path></g></svg>
