<?xml version="1.0" encoding="UTF-8" standalone="no"?>
<svg
   xmlns:dc="http://purl.org/dc/elements/1.1/"
   xmlns:cc="http://creativecommons.org/ns#"
   xmlns:rdf="http://www.w3.org/1999/02/22-rdf-syntax-ns#"
   xmlns:svg="http://www.w3.org/2000/svg"
   xmlns="http://www.w3.org/2000/svg"
   xmlns:sodipodi="http://sodipodi.sourceforge.net/DTD/sodipodi-0.dtd"
   xmlns:inkscape="http://www.inkscape.org/namespaces/inkscape"
   style="font-style:normal;font-weight:normal;font-family:Dialog;fill:#000000;fill-opacity:1;stroke:#000000;stroke-width:1;stroke-linecap:square;stroke-linejoin:miter;stroke-miterlimit:10;stroke-dasharray:none;stroke-dashoffset:0pt;stroke-opacity:1"
   id="svg2"
   sodipodi:version="0.32"
   inkscape:version="0.92.4 (5da689c313, 2019-01-14)"
   viewBox="0 0 187.5 187.5"
   width="300"
   height="300"
   sodipodi:docname="Het-land-van.svg"
   version="1.0">
  <metadata
     id="metadata1014">
    <rdf:RDF>
      <cc:Work
         rdf:about="">
        <dc:format>image/svg+xml</dc:format>
        <dc:type
           rdf:resource="http://purl.org/dc/dcmitype/StillImage" />
        <dc:title />
      </cc:Work>
    </rdf:RDF>
  </metadata>
  <sodipodi:namedview
     inkscape:window-height="1051"
     inkscape:window-width="1920"
     inkscape:pageshadow="2"
     inkscape:pageopacity="0.0"
     borderopacity="1.0"
     bordercolor="#666666"
     pagecolor="#ffffff"
     id="base"
     inkscape:zoom="2.439506"
     inkscape:cx="74.28616"
     inkscape:cy="158.56643"
     inkscape:window-x="-9"
     inkscape:window-y="-9"
     inkscape:current-layer="svg2"
     width="534px"
     height="616px"
     showgrid="false"
     inkscape:window-maximized="1"
     showguides="true"
     inkscape:guide-bbox="true" />
  <!--Generated by the Batik Graphics2D SVG Generator-->
  <defs
     id="genericDefs">
    <inkscape:perspective
       sodipodi:type="inkscape:persp3d"
       inkscape:vp_x="0 : 462 : 1"
       inkscape:vp_y="0 : 999.99998 : 0"
       inkscape:vp_z="801 : 462 : 1"
       inkscape:persp3d-origin="400.5 : 308 : 1"
       id="perspective481" />
    <inkscape:perspective
       id="perspective4069"
       inkscape:persp3d-origin="0.5 : 0.33333332 : 1"
       inkscape:vp_z="1 : 0.5 : 1"
       inkscape:vp_y="0 : 999.99998 : 0"
       inkscape:vp_x="0 : 0.5 : 1"
       sodipodi:type="inkscape:persp3d" />
    <inkscape:perspective
       id="perspective4069-1"
       inkscape:persp3d-origin="0.5 : 0.33333332 : 1"
       inkscape:vp_z="1 : 0.5 : 1"
       inkscape:vp_y="0 : 999.99998 : 0"
       inkscape:vp_x="0 : 0.5 : 1"
       sodipodi:type="inkscape:persp3d" />
    <inkscape:perspective
       id="perspective4069-7"
       inkscape:persp3d-origin="0.5 : 0.33333332 : 1"
       inkscape:vp_z="1 : 0.5 : 1"
       inkscape:vp_y="0 : 999.99998 : 0"
       inkscape:vp_x="0 : 0.5 : 1"
       sodipodi:type="inkscape:persp3d" />
    <inkscape:perspective
       id="perspective4069-2"
       inkscape:persp3d-origin="0.5 : 0.33333332 : 1"
       inkscape:vp_z="1 : 0.5 : 1"
       inkscape:vp_y="0 : 999.99998 : 0"
       inkscape:vp_x="0 : 0.5 : 1"
       sodipodi:type="inkscape:persp3d" />
    <inkscape:perspective
       id="perspective4069-5"
       inkscape:persp3d-origin="0.5 : 0.33333332 : 1"
       inkscape:vp_z="1 : 0.5 : 1"
       inkscape:vp_y="0 : 999.99998 : 0"
       inkscape:vp_x="0 : 0.5 : 1"
       sodipodi:type="inkscape:persp3d" />
    <inkscape:perspective
       id="perspective4069-3"
       inkscape:persp3d-origin="0.5 : 0.33333332 : 1"
       inkscape:vp_z="1 : 0.5 : 1"
       inkscape:vp_y="0 : 999.99998 : 0"
       inkscape:vp_x="0 : 0.5 : 1"
       sodipodi:type="inkscape:persp3d" />
    <inkscape:perspective
       id="perspective4069-75"
       inkscape:persp3d-origin="0.5 : 0.33333332 : 1"
       inkscape:vp_z="1 : 0.5 : 1"
       inkscape:vp_y="0 : 999.99998 : 0"
       inkscape:vp_x="0 : 0.5 : 1"
       sodipodi:type="inkscape:persp3d" />
    <inkscape:perspective
       id="perspective4069-6"
       inkscape:persp3d-origin="0.5 : 0.33333332 : 1"
       inkscape:vp_z="1 : 0.5 : 1"
       inkscape:vp_y="0 : 999.99998 : 0"
       inkscape:vp_x="0 : 0.5 : 1"
       sodipodi:type="inkscape:persp3d" />
    <inkscape:perspective
       id="perspective4069-70"
       inkscape:persp3d-origin="0.5 : 0.33333332 : 1"
       inkscape:vp_z="1 : 0.5 : 1"
       inkscape:vp_y="0 : 999.99998 : 0"
       inkscape:vp_x="0 : 0.5 : 1"
       sodipodi:type="inkscape:persp3d" />
    <inkscape:perspective
       id="perspective4069-8"
       inkscape:persp3d-origin="0.5 : 0.33333332 : 1"
       inkscape:vp_z="1 : 0.5 : 1"
       inkscape:vp_y="0 : 999.99998 : 0"
       inkscape:vp_x="0 : 0.5 : 1"
       sodipodi:type="inkscape:persp3d" />
    <inkscape:perspective
       id="perspective4069-0"
       inkscape:persp3d-origin="0.5 : 0.33333332 : 1"
       inkscape:vp_z="1 : 0.5 : 1"
       inkscape:vp_y="0 : 999.99998 : 0"
       inkscape:vp_x="0 : 0.5 : 1"
       sodipodi:type="inkscape:persp3d" />
    <inkscape:perspective
       id="perspective4069-72"
       inkscape:persp3d-origin="0.5 : 0.33333332 : 1"
       inkscape:vp_z="1 : 0.5 : 1"
       inkscape:vp_y="0 : 999.99998 : 0"
       inkscape:vp_x="0 : 0.5 : 1"
       sodipodi:type="inkscape:persp3d" />
    <inkscape:perspective
       id="perspective4069-16"
       inkscape:persp3d-origin="0.5 : 0.33333332 : 1"
       inkscape:vp_z="1 : 0.5 : 1"
       inkscape:vp_y="0 : 999.99998 : 0"
       inkscape:vp_x="0 : 0.5 : 1"
       sodipodi:type="inkscape:persp3d" />
    <inkscape:perspective
       id="perspective4199"
       inkscape:persp3d-origin="0.5 : 0.33333332 : 1"
       inkscape:vp_z="1 : 0.5 : 1"
       inkscape:vp_y="0 : 999.99998 : 0"
       inkscape:vp_x="0 : 0.5 : 1"
       sodipodi:type="inkscape:persp3d" />
    <inkscape:perspective
       id="perspective4221"
       inkscape:persp3d-origin="0.5 : 0.33333332 : 1"
       inkscape:vp_z="1 : 0.5 : 1"
       inkscape:vp_y="0 : 999.99998 : 0"
       inkscape:vp_x="0 : 0.5 : 1"
       sodipodi:type="inkscape:persp3d" />
    <inkscape:perspective
       id="perspective4243"
       inkscape:persp3d-origin="0.5 : 0.33333332 : 1"
       inkscape:vp_z="1 : 0.5 : 1"
       inkscape:vp_y="0 : 999.99998 : 0"
       inkscape:vp_x="0 : 0.5 : 1"
       sodipodi:type="inkscape:persp3d" />
    <inkscape:perspective
       id="perspective4243-6"
       inkscape:persp3d-origin="0.5 : 0.33333332 : 1"
       inkscape:vp_z="1 : 0.5 : 1"
       inkscape:vp_y="0 : 999.99998 : 0"
       inkscape:vp_x="0 : 0.5 : 1"
       sodipodi:type="inkscape:persp3d" />
    <inkscape:perspective
       id="perspective4274"
       inkscape:persp3d-origin="0.5 : 0.33333332 : 1"
       inkscape:vp_z="1 : 0.5 : 1"
       inkscape:vp_y="0 : 999.99998 : 0"
       inkscape:vp_x="0 : 0.5 : 1"
       sodipodi:type="inkscape:persp3d" />
    <inkscape:perspective
       id="perspective4274-2"
       inkscape:persp3d-origin="0.5 : 0.33333332 : 1"
       inkscape:vp_z="1 : 0.5 : 1"
       inkscape:vp_y="0 : 999.99998 : 0"
       inkscape:vp_x="0 : 0.5 : 1"
       sodipodi:type="inkscape:persp3d" />
    <inkscape:perspective
       id="perspective4309"
       inkscape:persp3d-origin="0.5 : 0.33333332 : 1"
       inkscape:vp_z="1 : 0.5 : 1"
       inkscape:vp_y="0 : 999.99998 : 0"
       inkscape:vp_x="0 : 0.5 : 1"
       sodipodi:type="inkscape:persp3d" />
    <inkscape:perspective
       id="perspective4334"
       inkscape:persp3d-origin="0.5 : 0.33333332 : 1"
       inkscape:vp_z="1 : 0.5 : 1"
       inkscape:vp_y="0 : 999.99998 : 0"
       inkscape:vp_x="0 : 0.5 : 1"
       sodipodi:type="inkscape:persp3d" />
    <inkscape:perspective
       id="perspective3344"
       inkscape:persp3d-origin="0.5 : 0.33333332 : 1"
       inkscape:vp_z="1 : 0.5 : 1"
       inkscape:vp_y="0 : 999.99998 : 0"
       inkscape:vp_x="0 : 0.5 : 1"
       sodipodi:type="inkscape:persp3d" />
    <inkscape:perspective
       id="perspective3344-7"
       inkscape:persp3d-origin="0.5 : 0.33333332 : 1"
       inkscape:vp_z="1 : 0.5 : 1"
       inkscape:vp_y="0 : 999.99998 : 0"
       inkscape:vp_x="0 : 0.5 : 1"
       sodipodi:type="inkscape:persp3d" />
    <inkscape:perspective
       id="perspective3344-3"
       inkscape:persp3d-origin="0.5 : 0.33333332 : 1"
       inkscape:vp_z="1 : 0.5 : 1"
       inkscape:vp_y="0 : 999.99998 : 0"
       inkscape:vp_x="0 : 0.5 : 1"
       sodipodi:type="inkscape:persp3d" />
    <inkscape:perspective
       id="perspective3406"
       inkscape:persp3d-origin="0.5 : 0.33333332 : 1"
       inkscape:vp_z="1 : 0.5 : 1"
       inkscape:vp_y="0 : 999.99998 : 0"
       inkscape:vp_x="0 : 0.5 : 1"
       sodipodi:type="inkscape:persp3d" />
    <inkscape:perspective
       id="perspective3406-0"
       inkscape:persp3d-origin="0.5 : 0.33333332 : 1"
       inkscape:vp_z="1 : 0.5 : 1"
       inkscape:vp_y="0 : 999.99998 : 0"
       inkscape:vp_x="0 : 0.5 : 1"
       sodipodi:type="inkscape:persp3d" />
    <inkscape:perspective
       id="perspective3406-9"
       inkscape:persp3d-origin="0.5 : 0.33333332 : 1"
       inkscape:vp_z="1 : 0.5 : 1"
       inkscape:vp_y="0 : 999.99998 : 0"
       inkscape:vp_x="0 : 0.5 : 1"
       sodipodi:type="inkscape:persp3d" />
    <inkscape:perspective
       id="perspective3446"
       inkscape:persp3d-origin="0.5 : 0.33333332 : 1"
       inkscape:vp_z="1 : 0.5 : 1"
       inkscape:vp_y="0 : 999.99998 : 0"
       inkscape:vp_x="0 : 0.5 : 1"
       sodipodi:type="inkscape:persp3d" />
    <inkscape:perspective
       id="perspective3446-2"
       inkscape:persp3d-origin="0.5 : 0.33333332 : 1"
       inkscape:vp_z="1 : 0.5 : 1"
       inkscape:vp_y="0 : 999.99998 : 0"
       inkscape:vp_x="0 : 0.5 : 1"
       sodipodi:type="inkscape:persp3d" />
    <inkscape:perspective
       id="perspective3446-4"
       inkscape:persp3d-origin="0.5 : 0.33333332 : 1"
       inkscape:vp_z="1 : 0.5 : 1"
       inkscape:vp_y="0 : 999.99998 : 0"
       inkscape:vp_x="0 : 0.5 : 1"
       sodipodi:type="inkscape:persp3d" />
  </defs>
  <g
     id="g902"
     transform="matrix(0.3095591,0,0,0.3095591,0.75446743,-1.4974398)">
    <path
       inkscape:connector-curvature="0"
       transform="scale(0.66666667)"
       id="path17"
       d="m 739.4375,34.78125 -3,1.5 -12,1.5 -1.5,1.5 -4.5,1.5 h -1.5 l -1.5,1.5 h -3 l -3,3 h -1.5 -1.5 -1.5 l -3,1.5 -3,1.5 -1.5,-1.5 -1.5,1.5 h -7.5 l -4.5,1.5 -6,1.5 h -3 l -3,1.5 h -3 l -4.5,1.5 -4.5,1.5 -1.5,1.5 v 1.5 l -3,1.5 -1.5,-1.5 -1.5,-1.5 -7.5,-4.5 h -1.5 l -6,3 v -1.5 h -1.5 v 1.5 h -1.5 v -1.5 l -1.5,1.5 1.5,1.5 h 1.5 l 1.5,1.5 h 1.5 l 1.5,1.5 h 1.5 v 1.5 h -1.5 -1.5 -1.5 v -1.5 l -3,-1.5 v -1.5 h -3 l -1.5,3 h 1.5 l 1.5,1.5 h 1.5 v 1.5 l -1.5,1.5 -1.5,-1.5 v 1.5 l 1.5,1.5 h 1.5 1.5 1.5 1.5 1.5 v 1.5 h -3 -1.5 l -3,-1.5 v 1.5 l -1.5,-1.5 v 1.5 l 1.5,1.5 h 1.5 1.5 1.5 1.5 1.5 l 1.5,-1.5 v 1.5 1.5 h -1.5 l 1.5,1.5 1.5,-1.5 h 1.5 v 1.5 l -1.5,1.5 h -3 v 1.5 l 1.5,1.5 1.5,-1.5 h 1.5 l -1.5,1.5 h -1.5 -1.5 l 1.5,1.5 v 1.5 h -1.5 v -1.5 l -1.5,-1.5 v -1.5 h -1.5 l 1.5,-1.5 h -1.5 l -1.5,-1.5 v 1.5 l -1.5,3 v -1.5 -1.5 l -3,-1.5 -1.5,1.5 v 1.5 l 3,3 v 1.5 h -1.5 v -1.5 l -1.5,1.5 v -1.5 l -1.5,-1.5 v -1.5 -1.5 -3 l -1.5,-1.5 v -1.5 l 1.5,-1.5 h -1.5 v -1.5 -1.5 l -1.5,-1.5 1.5,-3 v -1.5 -1.5 l 3,-1.5 -7.5,3 h -1.5 l -3,-1.5 h -4.5 v 1.5 h -1.5 -1.5 l -1.5,-1.5 -6,1.5 h -3 -1.5 l -1.5,1.5 -6,1.5 h -1.5 -1.5 l -6,3 h -3 -1.5 -1.5 -1.5 v -1.5 l -1.5,-1.5 v 3 l -3,1.5 -3,1.5 -1.5,1.5 -3,1.5 -1.5,1.5 -3,1.5 h -3 l -4.5,3 -6,3 -3,1.5 -7.5,4.5 h -4.5 l -1.5,1.5 -3,1.5 h -1.5 l -1.5,1.5 -3,1.5 -3,1.5 -1.5,1.5 -3,3 -1.5,3 -1.5,1.5 v 1.5 h -1.5 v 1.5 l -3,1.5 -1.5,1.5 h -1.5 l -3,3 -1.5,1.5 h -1.5 l -1.5,1.5 -1.5,3 h -1.5 l -1.5,1.5 -1.5,3 -1.5,4.5 -1.5,1.5 v 1.5 h 1.5 l -1.5,1.5 -1.5,1.5 -1.5,1.5 v 1.5 h 1.5 v 3 l -1.5,3 v 4.5 3 1.5 l -1.5,1.5 v 1.5 l -3,1.5 h -1.5 l 1.5,1.5 -1.5,1.5 v 1.5 l -1.5,1.5 h 1.5 l 1.5,1.5 1.5,3 v 1.5 1.5 1.5 l 1.5,3 h -1.5 l 1.5,1.5 h -1.5 v -1.5 -1.5 -1.5 h -1.5 v -1.5 -1.5 h -1.5 -1.5 v -1.5 h -1.5 l 1.5,3 v 1.5 l 1.5,1.5 1.5,1.5 h -1.5 v 1.5 1.5 h 1.5 1.5 v 3 1.5 l 1.5,-1.5 v 1.5 h -1.5 v 1.5 h 1.5 l 1.5,1.5 v 1.5 1.5 1.5 l -1.5,1.5 v 3 l 1.5,4.5 v 3 l 1.5,1.5 v 0.5 l 3,-2 -3,3 v -1 l -1.5,1 v 1.5 3 h -1.5 l -1.5,1.5 1.5,1.5 1.5,3 v 1.5 3 1.5 l -1.5,1.5 h -1.5 -1.5 l -3,3 -1.5,1.5 -1.5,1.5 1.5,1.5 v 1.5 1.5 h 3 v 1.5 h 1.5 l 3,3 3,3 h 1.5 1.5 1.5 3 v -1.5 l 4.5,1.5 h 3 l 1.5,1.5 6,3 h 3 v 1.5 h 3 l 1.5,-1.5 h 1.5 v -1.5 l 1.5,-1.5 v -1.5 l 3,-1.5 3,1.5 1.5,-1.5 3,-1.5 h 1.5 l 1.5,1.5 v 3 h 1.5 1.5 3 1.5 1.5 v 1.5 h 1.5 l 1.5,-1.5 v 1.5 1.5 h -1.5 l -7.5,1.5 h -1.5 v 1.5 l -4.5,7.5 -7.5,12 v 1.5 l -1.5,4.5 v 15 7.5 3 1.5 1.5 h 1.5 l 1.5,1.5 1.5,1.5 3,4.5 4.5,6 1.5,1.5 h 1.5 15 1.5 4.5 12 1.5 l -1.5,1.5 v 3 1.5 1.5 l 1.5,1.5 v 1.5 l -6,-1.5 1.5,1.5 h 1.5 1.5 v 1.5 l 1.5,1.5 v 1.5 1.5 l 1.5,1.5 1.5,1.5 v 1.5 1.5 l 1.5,1.5 v 3 3 1.5 l -1.5,4.5 -1.5,3 v 1.5 1.5 l -1.5,3 v 1.5 1.5 l -1.5,-1.5 v 3 h -1.5 v -1.5 -1.5 l 4.5,-9 1.5,-3 v -1.5 -3 -7.5 l -1.5,-3 -7.5,-7.5 v -1.5 h -1.5 -7.5 -1.5 l -6,-1.5 -13.5,-4.5 h -1.5 l -1.5,-3 h -1.5 l -1.5,1.5 -10.5,3 h -1.5 l -1.5,1.5 -12,10.5 v 1.5 h -1.5 -6 -1.5 v 1.5 l -1.5,4.5 v -1.5 l -1.5,3 v 1.5 1.5 1.5 1.5 l -3,1.5 h -1.5 l -1.5,1.5 -1.5,3 h -1.5 -1.5 v 1.5 l -25.5,16.5 -4.5,3 v 1.5 h -1.5 v 1.5 h -1.5 -0.90625 l -9.59375,6 -1.5,1.5 -6,4.5 h -1.5 v 1.5 l 3,3 v 3 4.5 l -1.5,1.5 h 1.5 l 1.5,3 h -1.5 l 1.5,1.5 1.5,-1.5 h 1.5 l 6,-1.5 h 1.5 1.5 l 1.5,1.5 h 1.5 1.5 3 l 4.5,1.5 3,3 4.5,1.5 1.5,1.5 v 1.5 h 1.5 l 13.5,12 1.5,3 h 1.5 l 3,1.5 3,-1.5 7.5,-3 h 1.5 3 l 1.5,-1.5 4.5,-1.5 h 1.5 l 1.5,-6 1.5,-1.5 v -4.5 h 1.5 v -3 -1.5 -1.5 -1.5 h -1.5 v -1.5 l -1.5,-3 1.5,-1.5 4.5,-4.5 3,1.5 4.5,-1.5 h 1.5 l 1.5,-1.5 h -1.5 l 1.5,-1.5 1.5,-1.5 1.5,-1.5 4.5,-4.5 12,-6 h 1.5 1.5 l 1.5,1.5 h 1.5 l 6,-4.5 1.5,-3 3,-3 1.5,-3 1.5,-1.5 v 1.5 h 1.5 v 1.5 h -1.5 l 1.5,1.5 -1.5,1.5 -1.5,1.5 -4.5,4.5 -3,3 -3,1.5 v 1.5 h -1.5 l -1.5,1.5 h -1.5 l -1.5,1.5 v 1.5 h -1.5 v 1.5 h -1.5 -1.5 l -3,1.5 -1.5,1.5 h -1.5 l -1.5,1.5 -3,1.5 h -1.5 l -1.5,1.5 -1.5,1.5 v 1.5 h -1.5 -1.5 v 1.5 1.5 h -1.5 v 1.5 h -1.5 v 1.5 h -1.5 v 1.5 l -3,1.5 -1.5,1.5 -1.5,1.5 v 1.5 l -1.5,3 v 3 l -1.5,3 v 1.5 l -1.5,3 -1.5,1.5 h -6 -1.5 l -3,3 -1.5,-1.5 -1.5,1.5 -4.5,1.5 h -3 l -1.5,1.5 h -3 l -1.5,-1.5 -1.5,-1.5 -1.5,-1.5 h -1.5 v -1.5 l -1.5,-1.5 h -1.5 -1.5 -1.5 l -1.5,-1.5 h -3 l -1.5,-1.5 -3,-3 v -1.5 l 1.5,-1.5 h -1.5 -1.5 l -1.5,-1.5 h -1.5 l -1.5,-1.5 h -1.5 v -1.5 l -1.5,-1.5 -1.5,1.5 h -1.5 -1.5 -6 l -1.5,1.5 h -1.5 l -1.5,1.5 h -1.5 v -1.5 h -1.5 l -1.5,-1.5 -1.5,-1.5 -1.5,-3 h -1.5 v -1.5 h -3 -1.5 l -1.5,-3 h -4.5 -1.5 -1.5 l -3,1.5 -1.5,-1.5 v 1.5 h -1.5 v -1.5 h 1.5 v -1.5 l -1.5,-1.5 h -1.5 l -1.5,1.5 h -1.5 -1.5 v -1.5 h 1.5 v -1.5 -1.5 l -3,-1.5 h -1.5 v 1.5 h -1.5 l -1.5,-1.5 h -1.5 v -1.5 h 1.5 1.5 l 1.5,-1.5 -4.5,-3 v -1.5 l 3,1.5 1.5,1.5 h 1.5 l 1.5,-1.5 v 1.5 l 1.5,1.5 1.5,-1.5 v -1.5 -1.5 h 1.5 l 1.5,-1.5 v -3 l 1.5,-1.5 1.5,-1.5 1.5,-1.5 h 1.5 1.5 v -1.5 l 1.5,-1.5 v -1.5 l 3,-3 h -1.5 -1.5 l -1.5,-1.5 v 1.5 l -3,-1.5 v -1.5 -1.5 -1.5 l 1.5,-1.5 v -1.5 h -1.5 l -1.5,1.5 -1.5,-1.5 3,-1.5 h 3 v -1.5 l -1.5,-1.5 v -1.5 -1.5 l 1.5,-1.5 1.5,1.5 v -1.5 l 1.5,-1.5 1.5,-3 h -1.5 v -3 h -1.5 v -1.5 l -1.5,-1.5 v -1.5 l -1.5,-3 v -1.5 l -3,-4.5 v -1.5 l -1.5,-1.5 v -3 l -1.5,-3 v -1.5 l -1.5,-1.5 1.5,-1.5 -1.5,-1.5 v -1.5 -1.5 -1.5 -3 -1.5 h 1.5 v -1.5 h 1.5 l 1.5,-1.5 h 1.5 1.5 v 1.5 l 1.5,1.5 v -1.5 l 1.5,-1.5 h 1.5 1.5 1.5 l 1.5,1.5 1.5,1.5 h 1.5 l 1.5,1.5 v 1.5 h 3 1.5 1.5 l 1.5,-1.5 3,-3 h 1.5 3 v -1.5 l 1.5,-1.5 h 1.5 v -1.5 l 3,-1.5 v -1.5 l 1.5,-1.5 v -3 -1.5 l 1.5,-3 h 1.5 1.5 1.5 l 1.5,-1.5 h 1.5 l -1.5,-1.5 h 1.5 l 1.5,-1.5 1.5,-1.5 -1.5,-1.5 -1.5,-1.5 v -1.5 -1.5 -1.5 -1.5 -1.5 -1.5 h -1.5 l -1.5,-1.5 -3,-1.5 h -4.5 -1.5 l -1.5,-1.5 h -3 -1.5 l -1.5,3 -1.5,1.5 v 1.5 l -1.5,-1.5 h -1.5 -1.5 -1.5 l -3,-3 -1.5,-1.5 -1.5,-1.5 1.5,-3 h -1.5 l -1.5,-1.5 h -1.5 l 3,-22.5 -3,-4.5 -4.5,-9 v -1.5 l -1.5,-1.5 -4.5,-9 h -1.5 -1.5 v 3 l -3,3 h -1.5 l -3,1.5 h -1.5 l -1.5,3 h -1.5 -1.5 -4.5 -1.5 v 1.5 h -3 l -3,-1.5 -4.5,1.5 -1.5,-1.5 -4.5,-3 h -1.5 l -4.5,-3 -1.5,-1.5 -1.5,-1.5 -1.5,-3 v -3 -3 l 1.5,-3 v -1.5 h -1.5 v 1.5 h -1.5 -1.5 v -1.5 -1.5 h -3 -3 -1.5 -1.5 l -3,4.5 v 1.5 1.5 3 l -1.5,4.5 v 4.5 6 l -3,9 -1.5,9 -3,9 v 3 h -1.5 v 3 l -3,6 v 3 l -3,9 v 1.5 1.5 1.5 1.5 4.5 l -1.5,6 v 3 3 l -1.5,6 v 3 1.5 3 l -1.5,1.5 v 1.5 l -1.5,10.5 -1.5,13.5 -1.5,7.5 -1.5,3 -1.5,3 -1.5,3 -1.5,4.5 3,-1.5 h 1.5 l 3,-1.5 1.5,1.5 h -1.5 v 1.5 h -3 l -1.5,1.5 h 3 v 1.5 l -3,-1.5 h -1.5 v 1.5 l -3,-1.5 v 3 l 1.5,3 -1.5,1.5 v 3 l -1.5,3 -1.5,6 -1.5,4.5 -3,7.5 -6,12 -9,19.5 -3,4.5 -1.5,3 -4.5,7.5 -1.5,1.5 v 1.5 l -3,4.5 -1.5,3 -4.5,6 -9,12 -4.5,3 v 1.5 l -3,3 h -1.5 v 1.5 1.5 h 1.5 l -1.5,1.5 v -1.5 h -1.5 l -1.5,1.5 -1.5,3 -1.5,1.5 -4.5,4.5 -3,3 -4.5,6 -1.5,1.5 -3,3 -1.5,1.5 v 1.5 l -3,4.5 -3,1.5 -3,3 h -1.5 l -1.5,-1.5 -7.5,-1.5 -1.5,1.5 h -1.5 -1.5 l -1.5,1.5 v 1.5 l -1.5,1.5 -1.5,3 1.5,1.5 1.5,1.5 v 1.5 l -3,3 -1.5,3 -3,4.5 h 1.5 1.5 l 1.5,1.5 1.5,-1.5 6,-1.5 h 1.5 l 1.5,3 h -1.5 v 1.5 l -3,3 v 1.5 l -1.5,1.5 v 1.5 l 1.5,1.5 6,9 v 1.5 1.5 l -1.5,1.5 3,-1.5 1.5,1.5 1.5,1.5 1.5,1.5 v 1.5 h 1.5 1.5 1.5 1.5 l -1.5,1.5 1.5,1.5 h 1.5 v -1.5 h 1.5 1.5 1.5 l 1.5,1.5 3,4.5 h 1.5 1.5 1.5 v 1.5 h 3 l 1.5,3 1.5,1.5 h 1.5 1.5 l -1.5,1.5 h -1.5 l 1.5,3 1.5,1.5 4.5,1.5 v 1.5 h 3 l 3,1.5 h 3 v 1.5 l 6,1.5 3,3 h 1.5 l 3,1.5 4.5,3 h 1.5 l 1.5,1.5 h 3 v 1.5 h 6 1.5 l 3,1.5 h 1.5 1.5 l 1.5,1.5 h 1.5 l 1.5,1.5 h 1.5 l 3,-1.5 h 1.5 l 4.5,-1.5 h 1.5 l 1.5,-1.5 h 3 l 1.5,-3 1.5,1.5 h 1.5 l 3,-1.5 v 1.5 1.5 l -3,1.5 -1.5,1.5 h -1.5 l -1.5,1.5 -1.5,1.5 -12,3 h -1.5 -1.5 l -4.5,1.5 h -3 l -4.5,-1.5 -1.5,-1.5 h -1.5 l -1.5,-1.5 h -1.5 -3 l -1.5,1.5 -3,1.5 -1.5,1.5 v 1.5 l -1.5,3 -1.5,1.5 -1.5,1.5 -1.5,1.5 -3,1.5 h -1.5 l -1.5,1.5 h -1.5 v -1.5 h -1.5 l -1.5,1.5 h -3 -1.5 l -1.5,1.5 h -1.5 -1.5 l -1.5,3 h -1.5 v -1.5 h -1.5 -1.5 -1.5 l -3,-1.5 h -3 -1.5 -1.5 l -3,-1.5 -4.5,-3 h -1.5 l -4.5,-1.5 v 1.5 l -3,3 h -1.5 l 1.5,3 h 1.5 l 1.5,3 1.5,3 h 3 3 1.5 1.5 v -1.5 h 1.5 v 1.5 1.5 l -1.5,1.5 h -1.5 -1.5 -1.5 -1.5 -1.5 l -1.5,1.5 h -1.5 l -3,-3 -6,-1.5 h -1.5 l -3,1.5 -1.5,1.5 h -1.5 l -3,1.5 -1.5,1.5 -1.5,-1.5 -3,1.5 -1.5,1.5 v 3 h 1.5 v 1.5 h 1.5 1.5 l 1.5,1.5 1.5,1.5 h 1.5 v 1.5 1.5 l 1.5,1.5 h 1.5 l 1.5,1.5 1.5,1.5 v 3 l 1.5,1.5 h 1.5 v 1.5 h 1.5 1.5 6 1.5 1.5 l 1.5,1.5 h 1.5 v -1.5 l 3,1.5 3,1.5 -1.5,1.5 v 1.5 1.5 h 1.5 l 6,3 1.5,1.5 v 9 1.5 l 1.5,6 h -1.5 -1.5 -1.5 l -1.5,-1.5 h -1.5 -1.5 -1.5 l -1.5,1.5 h -1.5 l -1.5,1.5 h -1.5 -1.5 -1.5 v -1.5 h -1.5 l -4.5,-3 h -1.5 l -1.5,-4.5 h -1.5 l -3,-4.5 v -1.5 l -1.5,-1.5 1.5,-1.5 -1.5,-1.5 v -1.5 -1.5 h -1.5 l -1.5,-1.5 -3,-3 -1.5,-1.5 h -1.5 -1.5 l -1.5,-1.5 h -1.5 l -3,-1.5 h -1.5 l -1.5,-1.5 -1.5,1.5 h -1.5 v 1.5 l -3,-4.5 h 1.5 l -1.5,-1.5 v -1.5 h -1.5 -1.5 -1.5 l -1.5,1.5 h -1.5 -1.5 -3 -1.5 -1.5 -1.5 v -1.5 l -1.5,-1.5 h -3 l -3,1.5 h -1.5 l -1.5,1.5 -4.5,-1.5 h -1.5 l -1.5,-1.5 -1.5,1.5 -3,1.5 v 1.5 l -1.5,1.5 v 1.5 l -1.5,1.5 h -1.5 l -1.5,1.5 h 1.5 1.5 l -3,1.5 v -1.5 l -3,-3 -1.5,-1.5 v -1.5 l -1.5,-4.5 v -1.5 h -1.5 l -1.5,-1.5 -3,-1.5 -1.5,-1.5 -1.5,-1.5 v -1.5 -3 l 1.5,-1.5 h -1.5 -1.5 l -1.5,-1.5 h -4.5 -1.5 -1.5 -3 v 1.5 h -1.5 -1.5 l -1.5,1.5 -3,1.5 -1.5,1.5 -3,1.5 h -1.5 l -1.5,1.5 -1.5,1.5 -3,1.5 -1.5,1.5 h -1.5 l -1.5,1.5 -1.5,1.5 v 1.5 1.5 1.5 l 1.5,3 h 1.5 l 1.5,1.5 1.5,1.5 3,1.5 v 1.5 h 1.5 l 1.5,1.5 1.5,1.5 v 1.5 l 1.5,1.5 v 1.5 l 1.5,1.5 v 1.5 l 1.5,1.5 1.5,1.5 3,1.5 v 1.5 h 1.5 l 1.5,1.5 v 1.5 h 1.5 3 1.5 v -1.5 -3 h 1.5 v 3 l 1.5,1.5 h 1.5 3 l 1.5,-1.5 v -1.5 h 1.5 3 1.5 l -3,-1.5 1.5,-1.5 3,-1.5 h 1.5 v 1.5 l 4.5,-3 v -1.5 -1.5 l 1.5,1.5 v 1.5 h 1.5 l -1.5,1.5 h -1.5 l -3,1.5 3,1.5 h 1.5 1.5 l -1.5,1.5 1.5,1.5 v 1.5 l -1.5,-1.5 -1.5,1.5 h -1.5 l 1.5,-3 -3,-1.5 -1.5,-1.5 -1.5,3 1.5,1.5 4.5,3 1.5,1.5 v 1.5 h 1.5 v 3 1.5 h 1.5 l 1.5,1.5 h 1.5 v -1.5 h 1.5 l 3,1.5 h 1.5 v 1.5 l 3,1.5 v 1.5 h 1.5 l 3,3 h 1.5 3 l 3,-1.5 h 1.5 l 1.5,-1.5 h 3 1.5 l 1.5,1.5 1.5,-1.5 1.5,-6 h 1.5 v -1.5 -1.5 h 1.5 v -3 -1.5 -1.5 -1.5 -1.5 l 3,1.5 3,-1.5 h 1.5 l 3,-3 1.5,1.5 1.5,1.5 1.5,1.5 v 1.5 h 1.5 v 1.5 h 1.5 1.5 l 1.5,1.5 1.5,1.5 h 3 v 1.5 3 l 3,1.5 h 1.5 l 1.5,1.5 h 1.5 l 3,1.5 3,1.5 h 3 l 1.5,1.5 h 3 l 4.5,-1.5 3,-1.5 h 1.5 1.5 v 1.5 h 1.5 1.5 l 3,1.5 1.5,4.5 v 3 h 4.5 l 3,-1.5 h 10.5 v 1.5 l 1.5,1.5 v 4.5 l 1.5,-1.5 4.5,1.5 h 1.5 1.5 1.5 1.5 l 1.5,-1.5 3,-1.5 h 1.5 v -1.5 -1.5 l -7.5,-10.5 -1.5,-4.5 1.5,-1.5 h 1.5 v -1.5 -1.5 -1.5 -1.5 h -1.5 l -1.5,-1.5 1.5,-1.5 10.5,-4.5 h 3 l 1.5,-1.5 1.5,-1.5 h 1.5 1.5 l 10.5,-1.5 1.5,3 -3,7.5 1.5,9 7.5,-3 h 1.5 3 l 6,1.5 3,1.5 h 1.5 v -1.5 l 1.5,1.5 3,-1.5 -1.5,-6 4.5,-1.5 h 1.5 l 1.5,-4.5 3,-1.5 1.5,-1.5 1.5,-3 3,-1.5 1.5,-1.5 -1.5,-1.5 h 1.5 1.5 v -1.5 l 3,-1.5 1.5,1.5 v 1.5 h 1.5 1.5 l 3,1.5 h 1.5 v 1.5 1.5 l 1.5,1.5 1.5,-1.5 1.5,1.5 -1.5,3 v 3 h 1.5 v 1.5 h -1.5 l -1.5,1.5 -1.5,1.5 1.5,6 v 1.5 h 1.5 1.5 v 1.5 h -1.5 l -4.5,-1.5 -1.5,-1.5 h -3 v -1.5 h -1.5 l -3,1.5 v 1.5 1.5 l 1.5,1.5 3,1.5 h 1.5 l 4.5,-1.5 h 3 3 l 1.5,1.5 h 1.5 v -1.5 h 1.5 1.5 1.5 1.5 l 3,3 v 1.5 h 1.5 l 1.5,1.5 h 1.5 l 6,-9 9,-6 v -3 h 1.5 v -1.5 l -1.5,-1.5 v -1.5 l 1.5,-1.5 v -1.5 l 1.5,-1.5 3,-1.5 h 1.5 l -1.5,1.5 1.5,1.5 v 1.5 h 1.5 6 l 4.5,13.5 -1.5,3 -4.5,9 9,10.5 v 1.5 l 1.5,1.5 1.5,1.5 v 10.5 l 6,1.5 1.5,-1.5 4.5,-1.5 h 1.5 v -1.5 l 9,6 -3,12 1.5,1.5 6,-1.5 6,1.5 h 4.5 3 l 1.5,-1.5 1.5,-3 4.5,1.5 6,1.5 3,1.5 4.5,-4.5 1.5,-1.5 4.5,-1.5 1.5,-1.5 1.5,-1.5 v -1.5 h 1.5 l 6,1.5 v 1.5 l 1.5,3 4.5,3 1.5,1.5 v 1.5 1.5 1.5 1.5 3 l 1.5,6 h 1.5 l 3,1.5 12,4.5 1.5,1.5 v 1.5 l 1.5,3 1.5,-1.5 1.5,1.5 h 1.5 1.5 3 1.5 1.5 3 l 1.5,-1.5 h 1.5 l 1.5,1.5 h 3 l 1.5,1.5 v 1.5 h 1.5 l -1.5,1.5 h -1.5 v 1.5 h 1.5 v 1.5 1.5 1.5 h 1.5 v -1.5 h 1.5 1.5 v -1.5 h 1.5 1.5 v -1.5 l 3,-1.5 v 1.5 h 1.5 v 3 l 4.5,3 -1.5,1.5 -1.5,1.5 v 1.5 l -3,1.5 h -1.5 v 1.5 l -1.5,1.5 -1.5,1.5 1.5,1.5 h 3 l 1.5,1.5 v 1.5 l -1.5,1.5 v 1.5 h -1.5 l -1.5,-1.5 h -1.5 -1.5 v 1.5 1.5 l 1.5,1.5 v 1.5 h -1.5 v 1.5 l 1.5,3 h -1.5 v 1.5 h -1.5 l -3,-1.5 -1.5,4.5 v 3 l -1.5,1.5 v 1.5 h 1.5 l 1.5,1.5 v 1.5 l -1.5,3 v 1.5 1.5 1.5 l -1.5,1.5 -1.5,1.5 -1.5,3 h -1.5 l -1.5,3 -1.5,3 v 1.5 h 1.5 1.5 l 1.5,-1.5 h 1.5 l 1.5,1.5 v 1.5 l -3,1.5 v 1.5 1.5 l -3,3 v 1.5 l -1.5,1.5 1.5,1.5 -1.5,1.5 h -1.5 -1.5 -1.5 l -1.5,1.5 v 1.5 1.5 l -3,3 v 1.5 h -1.5 l -1.5,1.5 h -1.5 v 1.5 h -1.5 -1.5 l 1.5,1.5 -1.5,1.5 v 1.5 1.5 1.5 1.5 1.5 1.5 h 1.5 v 1.5 1.5 h 1.5 v 1.5 l 1.5,1.5 h 1.5 1.5 v 1.5 h 3 l 1.5,1.5 v 1.5 l -1.5,1.5 1.5,4.5 v 3 l -3,4.5 v 1.5 h 1.5 1.5 l 1.5,-1.5 h 1.5 l 1.5,-1.5 v 1.5 l 1.5,1.5 h 1.5 l 1.5,-1.5 v -1.5 l 1.5,-1.5 3,-4.5 h 3 v 3 l 1.5,3 1.5,-1.5 3,4.5 h 1.5 l 1.5,-1.5 1.5,1.5 1.5,-1.5 1.5,-1.5 v 1.5 3 l 1.5,-1.5 1.5,-1.5 v -1.5 h 1.5 1.5 l 3,-1.5 v 1.5 3 l 3,1.5 v -1.5 h 1.5 1.5 v 1.5 l 3,-1.5 1.5,-1.5 h 1.5 1.5 1.5 1.5 l 1.5,1.5 3,1.5 h 1.5 v -1.5 h 3 1.5 v -3 l 1.5,-3 -4.5,-3 h -1.5 l -1.5,-1.5 v -1.5 h -1.5 l -1.5,-1.5 v -1.5 -1.5 l 1.5,-1.5 1.5,1.5 3,1.5 1.5,-3 1.5,-1.5 v -1.5 h 1.5 l -1.5,-1.5 v -1.5 l -1.5,-1.5 v -1.5 -1.5 l 1.5,-1.5 h 3 l 1.5,-1.5 h 1.5 v -1.5 h 1.5 v 1.5 l 3,1.5 v -3 -1.5 h 1.5 v -1.5 l 1.5,-1.5 v -3 l -1.5,-1.5 v 1.5 l -1.5,-3 v -1.5 -1.5 l 1.5,-1.5 v -1.5 l 1.5,-1.5 v -1.5 l -1.5,-1.5 h -1.5 -1.5 -3 v -1.5 -1.5 l -1.5,1.5 -1.5,-1.5 -4.5,-1.5 v -3 -1.5 l -3,-1.5 1.5,-1.5 h 1.5 v -1.5 l 1.5,-6 h -1.5 -6 -1.5 l -1.5,1.5 h -1.5 l -1.5,-1.5 v -1.5 h -1.5 l -3,1.5 h -1.5 l -1.5,1.5 h -1.5 l -1.5,1.5 h -1.5 l -1.5,-1.5 3,-3 v -4.5 h -1.5 l -1.5,-1.5 v -1.5 h -1.5 v -1.5 h -1.5 v -1.5 -1.5 -1.5 -3 l -1.5,-1.5 -1.5,-3 h 1.5 3 1.5 v -1.5 l 3,-1.5 1.5,-1.5 v 1.5 l 3,4.5 1.5,3 v 1.5 l 1.5,-1.5 h 1.5 v 1.5 h 1.5 v -1.5 l 1.5,-1.5 v -1.5 l 1.5,-1.5 v -1.5 -1.5 l 1.5,-1.5 v -1.5 l 1.5,-1.5 v -1.5 l 1.5,-1.5 3,-1.5 1.5,-1.5 3,-1.5 h 1.5 l 1.5,-1.5 1.5,-1.5 v -1.5 l 1.5,-1.5 h 1.5 1.5 l 1.5,-1.5 v -1.5 -1.5 l 1.5,-1.5 h 1.5 1.5 l 1.5,-1.5 h 1.5 v -1.5 h 3 l 1.5,-1.5 h 1.5 3 l -1.5,-1.5 h 1.5 l 1.5,-1.5 -6,-4.5 h -1.5 l 9,-4.5 -3,-3 -9,4.5 -1.5,1.5 -1.5,1.5 h -1.5 -1.5 -3 v -1.5 l -1.5,-1.5 v -10.5 l -1.5,-1.5 1.5,-1.5 h 3 l -3,-6 3,-1.5 1.5,-3 6,-6 v -1.5 l 1.5,-1.5 3,-4.5 1.5,-3 v -1.5 l 1.5,-1.5 v -1.5 -1.5 l 1.5,-1.5 v -1.5 h 1.5 1.5 1.5 v -1.5 l 7.5,-7.5 -1.5,-4.5 -1.5,-3 v -1.5 l 1.5,-1.5 1.5,-1.5 h -4.5 v -1.5 l 1.5,-9 v -4.5 h 1.5 l -1.5,-3 1.5,-1.5 v -4.5 l -1.5,-3 -1.5,-3 1.5,-3 -1.5,-1.5 v -3 -1.5 l -1.5,-3 -3,-1.5 -3,-1.5 -3,-9 -3,-1.5 -1.5,-1.5 -1.5,-1.5 -1.5,-3 v -1.5 h -1.5 l -4.5,-3 v -3 -3 h 1.5 v -1.5 l 1.5,-4.5 v -1.5 l 1.5,-1.5 v -1.5 l -3,-1.5 h -1.5 -1.5 v -1.5 h -1.5 -1.5 l -7.5,-3 -1.5,-1.5 v -1.5 -1.5 l 1.5,-1.5 -1.5,-1.5 v -1.5 -3 h 1.5 1.5 v -1.5 h -1.5 v -1.5 -1.5 h -1.5 l -4.5,-3 -1.5,-1.5 h -3 -1.5 -4.5 v -1.5 -1.5 l 1.5,-1.5 3,-1.5 h 1.5 l 1.5,-3 v -1.5 h -1.5 v -3 h 1.5 l -1.5,-1.5 h -1.5 v -1.5 -1.5 -1.5 l -3,-3 h -1.5 -1.5 v -1.5 l 1.5,-1.5 h 1.5 l -3,-1.5 3,-4.5 h 1.5 v 1.5 h 3 1.5 l 3,-1.5 h 1.5 l 1.5,-1.5 1.5,-1.5 1.5,1.5 1.5,-1.5 1.5,-1.5 h 1.5 l -1.5,-1.5 1.5,-1.5 1.5,-1.5 1.5,1.5 3,3 h 1.5 1.5 l 6,1.5 h 4.5 l 1.5,1.5 v -3 -1.5 -1.5 -1.5 l -3,-1.5 h -1.5 v -1.5 -1.5 l -1.5,-3 -1.5,-1.5 h -3 -1.5 l 1.5,-1.5 v -1.5 h 1.5 l 1.5,1.5 6,-3 1.5,1.5 h 1.5 l 1.5,1.5 3,1.5 v 1.5 h -3 l 1.5,1.5 1.5,1.5 1.5,1.5 3,1.5 h 3 v -1.5 h 3 l 1.5,1.5 h 1.5 v -1.5 h 1.5 v -1.5 l 1.5,1.5 4.5,1.5 v 1.5 l 1.5,3 v 1.5 l 3,-1.5 h 3 1.5 l 1.5,1.5 h 1.5 l 1.5,1.5 v 1.5 1.5 h 1.5 1.5 1.5 l 3,1.5 h 1.5 l -1.5,-3 1.5,1.5 -1.5,-3 v -1.5 l 1.5,-1.5 h -1.5 v -1.5 h -1.5 l -1.5,-1.5 v -1.5 -3 l 3,1.5 h 1.5 l 1.5,1.5 h 1.5 v 1.5 h 1.5 1.5 l 1.5,-1.5 1.5,3 h 1.5 l 1.5,1.5 1.5,-1.5 4.5,-1.5 v -1.5 -1.5 h 1.5 l 1.5,-1.5 h 1.5 1.5 l 1.5,-1.5 v -1.5 h 1.5 l 1.5,-1.5 v 1.5 h 1.5 l 1.5,-1.5 3,-1.5 7.5,-3 h 1.5 1.5 v -1.5 l 3,-1.5 3,-1.5 h 1.5 l 1.5,-1.5 v 1.5 h 1.5 1.5 v 1.5 l 1.5,1.5 3,3 3,-1.5 v -1.5 h 1.5 l 1.5,-1.5 h 1.5 v -1.5 l 1.5,-1.5 h 1.5 l 3,-4.5 1.5,-1.5 v -1.5 -1.5 -4.5 l 3,-1.5 h 3 l 1.5,-3 -1.5,-1.5 v -3 -1.5 l -4.5,-1.5 h 1.5 l -9,-6 -1.5,-1.5 -1.5,-3 -7.5,-3 h -6 v -1.5 -3 -1.5 l 1.5,-1.5 v -1.5 -1.5 h 4.5 l 3,-1.5 3,-1.5 v -1.5 -1.5 -1.5 h 1.5 v -1.5 l 1.5,-6 h 12 4.5 l 1.5,-1.5 1.5,-1.5 1.5,-1.5 v -1.5 l 1.5,-7.5 h 1.5 v -1.5 l 4.5,-3 v -1.5 l 4.5,-1.5 h 4.5 l 1.5,-3 v -1.5 l 1.5,-1.5 v -1.5 l 1.5,-1.5 v -1.5 -1.5 -1.5 l 1.5,-1.5 3,-1.5 1.5,1.5 h 1.5 1.5 3 l 4.5,-3 v -1.5 l -4.5,-6 -1.5,-1.5 v -3 h -1.5 v -1.5 -1.5 -1.5 -1.5 l 1.5,-4.5 v -1.5 h 1.5 v -1.5 h 1.5 v -1.5 -1.5 l 1.5,-3 v -1.5 l 3,-4.5 v -7.5 l -3,-6 v -1.5 -1.5 h -1.5 -1.5 -1.5 l -1.5,-3 -1.5,-3 -3,-3 v -1.5 l -1.5,-3 v -3 l -1.5,-3 v -1.5 h -1.5 -1.5 l -1.5,3 -1.5,4.5 -3,1.5 v 1.5 h -1.5 l -7.5,-1.5 -3,-1.5 -4.5,-1.5 h -3 l 1.5,-3 h -3 -4.5 -9 -3 l -1.5,-1.5 -6,-3 -1.5,-1.5 -3,-1.5 1.5,-12 -3,-4.5 -3,-6 h 1.5 l 3,1.5 h 3 l 1.5,-4.5 h 3 l 3,1.5 1.5,-1.5 -9,-7.5 v -3 l 1.5,-6 v -1.5 l -1.5,-1.5 -1.5,-1.5 1.5,-1.5 h 1.5 l 1.5,-1.5 1.5,-3 h 3 1.5 l 1.5,-1.5 h 1.5 1.5 1.5 1.5 1.5 l 1.5,1.5 1.5,-1.5 h 1.5 3 3 l 1.5,-1.5 1.5,1.5 h 3 1.5 l 3,1.5 v 1.5 h 1.5 3 1.5 1.5 3 l 1.5,-1.5 h 1.5 l 1.5,1.5 1.5,-1.5 v 1.5 h 1.5 l 4.5,1.5 h 1.5 l 3,-3 v -1.5 -3 -6 l 1.5,-15 v -19.5 -9 l 4.5,-9 -1.5,-3 v -1.5 l 3,-4.5 9,-15 6,-10.5 3,-12 1.5,-7.5 1.5,-1.5 v -1.5 l -3,-13.5 v -7.5 -1.5 -10.5 l -4.5,-3 v -3 -1.5 -1.5 l 1.5,-1.5 v -3 -1.5 l 1.5,-4.5 h 1.5 l 1.5,-1.5 h 3 l -3,-1.5 -1.5,-1.5 1.5,-1.5 v -1.5 -6 l -1.5,-4.5 v -1.5 h -1.5 l -4.5,-1.5 h -1.5 v -1.5 h -1.5 -1.5 -1.5 -1.5 v -1.5 h -1.5 -1.5 -3 l -1.5,-1.5 h -1.5 l -1.5,-1.5 -1.5,-1.5 v -1.5 -3 l 1.5,-1.5 -1.5,-3 v -1.5 h 1.5 l 1.5,-3 v -1.5 l -3,1.5 -1.5,1.5 h -4.5 -1.5 -1.5 -1.5 l -3,-1.5 v -1.5 h -1.5 -1.5 l -3,-1.5 -3,-1.5 v 1.5 l -3,-1.5 -3,-1.5 h -1.5 v -1.5 h 1.5 l -1.5,-1.5 -3,-3 h -1.5 l -1.5,-1.5 v -1.5 -3 -3 l -1.5,-1.5 v -1.5 -1.5 -3 l -1.5,-3 h -1.5 v -4.5 l 1.5,-4.5 v -1.5 l -4.5,-4.5 -3,-1.5 -1.5,3 1.5,1.5 h -1.5 -1.5 -1.5 v -1.5 l 1.5,1.5 v -1.5 l 1.5,-3 h -1.5 l -3,-1.5 -3,3 -1.5,-1.5 -3,-1.5 h -4.5 z m 37.5,43.5 1.5,1.5 v -1.5 z m 54,30 v -3 l -1.5,1.5 z m -447,598.5 h -1.5 -1.5 l 1.5,1.5 z m -259.5,-66 h 1.5 v 1.5 1.5 h 1.5 v 3 h 1.5 l 1.5,1.5 h 1.5 l 1.5,1.5 1.5,1.5 1.5,-1.5 v 1.5 h -1.5 l 3,3 v 1.5 1.5 l -1.5,1.5 1.5,1.5 v 1.5 l 1.5,-3 h 1.5 l 1.5,-3 1.5,-1.5 6,-1.5 h 3 l 1.5,1.5 h 3 1.5 1.5 v -1.5 h 1.5 3 l 1.5,1.5 1.5,1.5 h 3 l 1.5,-3 h 3 l 1.5,-1.5 v -1.5 -1.5 -1.5 h -1.5 v -1.5 l -1.5,-1.5 -1.5,-3 v -1.5 l -1.5,-1.5 h -1.5 -1.5 v -1.5 h -1.5 -1.5 l -3,1.5 -1.5,-1.5 h -3 l -3,1.5 -1.5,1.5 -3,-1.5 -3,1.5 h -1.5 l -1.5,1.5 h -1.5 l -1.5,-1.5 h -1.5 l -1.5,-1.5 h -1.5 -1.5 v -1.5 h -1.5 v 1.5 l -4.5,1.5 z m 87,-79.5 -1.5,1.5 h 1.5 z m 151.5,-360 v -1.5 h -1.5 z m 33,192 v 1.5 h 1.5 z m 129,3 -3,-1.5 1.5,1.5 z m -81.90625,-19.5 2.40625,-1.5 -3,1.5 z m 30.90625,-217.5 -4.5,4.5 h -1.5 -1.5 l 1.5,1.5 h 1.5 l 1.5,-1.5 z m 10.5,-30 v -1.5 l -1.5,1.5 z m 154.5,-55.5 v 1.5 l 1.5,1.5 z m -9,9 h 1.5 v 1.5 z m -3,1.5 h 1.5 l -1.5,1.5 z m -147,90 h 1.5 l -1.5,1.5 z m -62.09375,115.1875 0.125,0.0625 -0.9375,0.4375 z m -4.375,3.0625 -0.3125,0.28125 v -0.0312 z m -0.3125,0.8125 0.125,0.9375 -2.25,0.34375 -0.0312,-0.0312 -3.0625,1.1875 3,-1.1875 H 411 l 2.15625,-0.34375 z m 131.28125,23.4375 v 1.5 h 1.5 v 1.5 l 1.5,1.5 v -1.5 h 1.5 l 1.5,-1.5 -1.5,-1.5 h -1.5 -1.5 z m -123,43.5 v 1.5 1.5 l -1.5,3 h 1.5 l 1.5,-1.5 h 1.5 l 1.5,-1.5 h 1.5 v -1.5 l -3,1.5 -1.5,-1.5 z m -133.5,210 h 1.5 l -1.5,1.5 z"
       style="fill:#00000f;fill-opacity:0.94117647;fill-rule:evenodd;stroke:#000000;stroke-width:1.04999995;stroke-linecap:butt;stroke-linejoin:bevel;stroke-miterlimit:10;stroke-dasharray:none;stroke-opacity:1" />
    <path
       inkscape:connector-curvature="0"
       id="path65"
       style="fill:#00000f;fill-opacity:0.94117647;fill-rule:evenodd;stroke:#000000;stroke-width:0.69999999;stroke-linecap:butt;stroke-linejoin:bevel;stroke-miterlimit:10;stroke-dasharray:none;stroke-opacity:1"
       d="m 404.96708,27.18733 v 1 l -1,1 h -1 v 0 -1 -1 0 l 1,-1 v 0 h 1 z" />
    <path
       inkscape:connector-curvature="0"
       id="path71"
       style="fill:#00000f;fill-opacity:0.94117647;fill-rule:evenodd;stroke:#000000;stroke-width:0.69999999;stroke-linecap:butt;stroke-linejoin:bevel;stroke-miterlimit:10;stroke-dasharray:none;stroke-opacity:1"
       d="m 362.96708,26.18733 h 3 3 l 13,-1 6,-1 h 3 l 2,1 h 1 v 1 0 1 h -1 -3 -2 -3 l -2,1 v 0 l -2,1 h -1 v 0 0 l -4,1 -4,1 h -2 -1 -1 l -3,-1 h -1 -2 -1 v 1 l -1,1 -1,1 h -2 l -1,1 h -1 -1 1 l -1,1 -1,-1 h -2 l -1,-1 -2,-1 -1,-2 v -1 l 1,-1 1,-2 1,-1 2,-2 h 1 1 l 1,1 h 1 l 1,1 h -1 v 0 l -1,-1 v 0 h -1 -2 l -1,1 h 2 1 v 0 l 4,1 z" />
    <path
       inkscape:connector-curvature="0"
       id="path99"
       style="fill:#00000f;fill-opacity:0.94117647;fill-rule:evenodd;stroke:#000000;stroke-width:0.69999999;stroke-linecap:butt;stroke-linejoin:bevel;stroke-miterlimit:10;stroke-dasharray:none;stroke-opacity:1"
       d="m 441.96708,15.18733 v 2 h -1 -1 -1 -1 l -2,1 v 0 l -3,1 -1,1 v 1 l -2,1 h -1 -2 v 0 h -1 v 0 l -3,1 h -1 v 0 h -3 -1 l -1,2 v 1 h -1 v 1 0 h -1 v 0 h -1 v 1 0 l -1,-2 v 0 -1 h 1 l 1,-1 -1,-1 v -1 -2 l 1,-1 2,-1 v -1 0 h -1 -1 -1 v 0 h -1 1 v 0 l 1,-1 2,1 h 3 l 10,-1 h 3 l 6,-1 2,-1 z" />
    <path
       inkscape:connector-curvature="0"
       id="path105"
       style="fill:#00000f;fill-opacity:0.94117647;fill-rule:evenodd;stroke:#000000;stroke-width:0.69999999;stroke-linecap:butt;stroke-linejoin:bevel;stroke-miterlimit:10;stroke-dasharray:none;stroke-opacity:1"
       d="m 299.96708,72.18733 v 0 0 l -1,-1 h 1 v 0 h 2 1 v 0 h -1 v 1 h -1 v 0 h -1 v -1 0 0 0 z" />
    <path
       inkscape:connector-curvature="0"
       id="path107"
       style="fill:#00000f;fill-opacity:0.94117647;fill-rule:evenodd;stroke:#000000;stroke-width:0.69999999;stroke-linecap:butt;stroke-linejoin:bevel;stroke-miterlimit:10;stroke-dasharray:none;stroke-opacity:1"
       d="m 323.96708,38.18733 h -4 l -2,1 h -1 l -1,1 v 0 l -2,2 -1,1 v 0 h -1 -1 v 1 h -1 l -1,-1 v 1 h -1 l -1,1 v 0 0 h -1 v 1 0 l -1,-1 h -1 v 0 h -1 -1 v 0 l -1,1 -1,1 -1,-1 -1,1 h -1 l -1,1 v 1 0 0 h -1 l -2,1 h 1 l -1,1 h -1 -2 l -1,-2 h -1 v 0 -1 l 1,-1 2,-3 2,-3 v 0 l 2,-1 2,-1 4,-1 6,-1 h 2 l 6,-2 5,-2 11,-4 h 3 l 3,-1 1,1 h 1 l 1,1 v 0 2 1 0 -1 -1 l -1,-1 v 0 1 l -1,1 v 0 l -1,1 h -2 -1 l -2,1 v 0 0 l -1,-1 v 0 0 0 1 h 1 l -1,1 h -1 v 0 h -1 v -1 h -1 v 0 l 1,1 v 1 h -1 -1 v 0 l -1,-1 v 0 0 l 1,1 1,1 h 1 1 v 0 l -1,1 h -2 -2 z" />
    <path
       inkscape:connector-curvature="0"
       id="path109"
       style="fill:#00000f;fill-opacity:0.94117647;fill-rule:evenodd;stroke:#000000;stroke-width:0.69999999;stroke-linecap:butt;stroke-linejoin:bevel;stroke-miterlimit:10;stroke-dasharray:none;stroke-opacity:1"
       d="m 288.96708,61.18733 v 0 l -1,1 -1,1 h -1 -1 -1 v 0 1 0 h -1 v 0 -1 0 h 1 -1 l 1,-1 1,-1 h 2 z" />
    <path
       inkscape:connector-curvature="0"
       id="path111"
       style="fill:#00000f;fill-opacity:0.94117647;fill-rule:evenodd;stroke:#000000;stroke-width:0.69999999;stroke-linecap:butt;stroke-linejoin:bevel;stroke-miterlimit:10;stroke-dasharray:none;stroke-opacity:1"
       d="m 275.96708,62.18733 v 1 l -1,1 -2,1 -6,2 -2,1 v 1 2 h 1 v -1 0 0 0 h 1 l -1,1 -1,2 v 0 0 l -3,2 -1,1 h -1 v 1 l -1,1 -2,1 v 0 0 h -1 -2 -3 l -1,1 v 0 1 h 1 -1 -1 v 0 -2 -1 -1 l 6,-3 3,-3 2,-1 2,-2 1,-1 4,-3 2,-1 1,-1 v 0 l 3,-1 2,-1 2,-1 h 1 l 3,1 v 1 l -1,1 v 0 0 h -1 -1 z" />
    <path
       inkscape:connector-curvature="0"
       id="path415"
       style="fill:#00000f;fill-opacity:0.94117647;fill-rule:evenodd;stroke:#000000;stroke-width:0.69999999;stroke-linecap:butt;stroke-linejoin:bevel;stroke-miterlimit:10;stroke-dasharray:none;stroke-opacity:1"
       d="m 227.96708,131.18733 -2,1 v 0 0 0 l -1,1 h -1 v 1 0 h -1 v 0 l -1,-1 v 0 -1 -1 -1 h 1 v 0 0 0 h 1 1 l 3,-1 v 0 h 2 v 1 0 z" />
    <path
       inkscape:connector-curvature="0"
       id="path417"
       style="fill:#00000f;fill-opacity:0.94117647;fill-rule:evenodd;stroke:#000000;stroke-width:0.69999999;stroke-linecap:butt;stroke-linejoin:bevel;stroke-miterlimit:10;stroke-dasharray:none;stroke-opacity:1"
       d="m 249.96708,116.18733 -2,2 -1,1 h -1 -1 -1 l -3,4 v 1 0 1 h -1 -1 l -1,-1 -2,-1 h -1 l 1,1 1,1 v 0 l 1,1 h 1 -2 v 0 1 0 0 h -2 -1 1 l -1,1 h -1 l -1,1 h -1 v -1 -2 l -1,-4 v -2 -1 l 1,-3 v -1 0 l 1,-3 1,-3 1,-3 1,-1 2,-3 2,-4 3,-3 v 0 0 1 1 l 1,-1 v 0 0 l 1,-1 v 0 l 1,-1 h 1 v 1 -1 0 h -1 v -1 l -1,1 v 0 l -2,1 v 0 l 3,-6 1,-1 2,-1 v -1 h 1 1 v 0 l 1,1 1,1 v 1 1 h 1 -1 v 0 1 l 1,1 v 0 l 1,1 2,3 v 1 0 0 0 l -1,1 v 6 3 1 l -1,2 h -1 l -1,1 v 0 0 2 l -2,2 z" />
    <path
       inkscape:connector-curvature="0"
       id="path433"
       style="fill:#00000f;fill-opacity:0.94117647;fill-rule:evenodd;stroke:#000000;stroke-width:0.69999999;stroke-linecap:butt;stroke-linejoin:bevel;stroke-miterlimit:10;stroke-dasharray:none;stroke-opacity:1"
       d="m 289.96708,126.18733 v 0 l -14,12 -1,1 h -1 v -1 h 2 z" />
    <path
       inkscape:connector-curvature="0"
       id="path435"
       style="fill:#00000f;fill-opacity:0.94117647;fill-rule:evenodd;stroke:#000000;stroke-width:0.69999999;stroke-linecap:butt;stroke-linejoin:bevel;stroke-miterlimit:10;stroke-dasharray:none;stroke-opacity:1"
       d="m 256.96708,150.18733 -2,-1 -3,1 v 0 l 4,-2 1,-1 2,-1 h 1 l 2,-3 v -1 0 l 2,-2 h 2 l 1,-1 h 1 l 1,1 h 1 l 1,-1 v 0 h 1 l 1,1 v 0 0 0 0 -1 h 1 v 2 0 l -1,-1 v 0 0 2 0 h -1 v 2 0 l -2,2 h -1 l -2,1 h -1 l -1,2 h -1 v 0 h -1 v 0 h -3 -1 v 1 0 0 z" />
    <path
       inkscape:connector-curvature="0"
       transform="scale(0.66666667)"
       id="path479"
       d="m 200.9375,558.28125 -3,1.5 h 3 z m 0,1.5 -4.5,1.5 h -1.5 -1.5 l 3,-1.5 -4.5,1.5 -9,3 -3,1.5 h -1.5 l -4.5,1.5 h -1.5 l -1.5,3 v 1.5 1.5 l 1.5,4.5 v 1.5 h 1.5 v 1.5 h 1.5 l 3,-1.5 v -1.5 h -1.5 v -1.5 h 1.5 1.5 1.5 l 1.5,-1.5 h 1.5 1.5 1.5 l 1.5,-1.5 1.5,-1.5 3,1.5 h 3 l 3,1.5 v 1.5 l 1.5,1.5 1.5,3 h 1.5 v 3 1.5 h -1.5 v 1.5 h 1.5 l -1.5,1.5 v 1.5 l 1.5,3 h 1.5 v 1.5 l 1.5,1.5 v 1.5 l 1.5,3 v 3 h 1.5 1.5 l 1.5,1.5 1.5,-1.5 v 1.5 h 3 3 1.5 1.5 l 1.5,1.5 4.5,1.5 1.5,3 1.5,1.5 h 3 1.5 v 1.5 h 3 l 1.5,1.5 h 1.5 v 1.5 1.5 l 3,1.5 1.5,1.5 h 4.5 1.5 1.5 l 3,-1.5 h 3 1.5 l 4.5,-1.5 3,-1.5 1.5,-1.5 1.5,-3 v -1.5 h -1.5 v -1.5 h 1.5 1.5 1.5 1.5 l 3,-1.5 h -1.5 v -1.5 -1.5 h -1.5 l -1.5,1.5 h -3 -3 -3 -1.5 -3 l -3,-4.5 h -3 l -1.5,-1.5 h -1.5 l -1.5,-1.5 v -1.5 l -3,-1.5 v -1.5 -1.5 h -1.5 l -4.5,-4.5 -4.5,-4.5 h -1.5 v -1.5 h -3 l -1.5,-1.5 h -1.5 l -3,-3 -3,-1.5 h -1.5 l -6,-3 -1.5,-1.5 -4.5,-1.5 v -1.5 l -1.5,-1.5 h -1.5 v 1.5 l -1.5,-1.5 h 1.5 v -1.5 -1.5 h -1.5 v 1.5 h -1.5 v -1.5 l -3,-1.5 v -1.5 z m -28.5,21 -1.5,3 -1.5,1.5 -3,1.5 h 1.5 l 3,1.5 1.5,1.5 h 1.5 v -1.5 l -1.5,-1.5 -1.5,-1.5 z"
       style="fill:#00000f;fill-opacity:0.94117647;fill-rule:evenodd;stroke:#000000;stroke-width:1.04999995;stroke-linecap:butt;stroke-linejoin:bevel;stroke-miterlimit:10;stroke-dasharray:none;stroke-opacity:1" />
    <path
       inkscape:connector-curvature="0"
       id="path483"
       style="fill:#00000f;fill-opacity:0.94117647;fill-rule:evenodd;stroke:#000000;stroke-width:0.69999999;stroke-linecap:butt;stroke-linejoin:bevel;stroke-miterlimit:10;stroke-dasharray:none;stroke-opacity:1"
       d="m 126.96709,387.18733 1,1 v 0 l -1,-1 h -2 l -2,1 -2,1 h -1 v -1 0 l 2,-1 v -1 l 1,-1 1,-1 v 1 h 1 z" />
    <path
       inkscape:connector-curvature="0"
       id="path547"
       style="fill:#00000f;fill-opacity:0.94117647;fill-rule:evenodd;stroke:#000000;stroke-width:0.69999999;stroke-linecap:butt;stroke-linejoin:bevel;stroke-miterlimit:10;stroke-dasharray:none;stroke-opacity:1"
       d="m 172.96708,394.18733 2,1 3,1 2,1 v 0 l 1,1 h -1 v 0 l -2,1 h -3 -1 l -1,-1 -1,-1 v 0 h -1 l -2,-2 h -1 l -1,-1 v 0 0 l 1,-1 v 0 h 2 z" />
    <path
       inkscape:connector-curvature="0"
       transform="scale(0.66666667)"
       id="path625"
       d="m 95.9375,699.28125 v 1.5 h -1.5 -1.5 l -3,1.5 h -1.5 -1.5 l -1.5,1.5 h -1.5 -1.5 -1.5 -1.5 -1.5 v 1.5 h -1.5 l -1.5,1.5 h -1.5 -1.5 l -1.5,1.5 h -1.5 v 1.5 l 1.5,1.5 v 3 1.5 1.5 l 1.5,1.5 v 3 l -4.5,4.5 -1.5,1.5 1.5,1.5 3,3 h -1.5 -1.5 v 1.5 l 1.5,1.5 1.5,1.5 v 1.5 l -1.5,1.5 1.5,1.5 h 1.5 l 1.5,3 h 1.5 l 1.5,3 1.5,-1.5 1.5,1.5 v 1.5 1.5 h 1.5 l 1.5,1.5 h 1.5 4.5 l 12,-1.5 -1.5,-10.5 -1.5,-1.5 3,-1.5 1.5,1.5 h 1.5 v -1.5 h 1.5 1.5 v -1.5 h 1.5 l 1.5,1.5 1.5,1.5 1.5,-1.5 -1.5,-3 3,-1.5 1.5,1.5 3,1.5 1.5,1.5 3,1.5 h 1.5 v -1.5 h 3 l 3,3 h 1.5 l 1.5,1.5 v 1.5 h 4.5 l 1.5,1.5 v -1.5 l 6,1.5 h 1.5 l 1.5,3 h 1.5 v -1.5 l 1.5,1.5 1.5,1.5 h 1.5 v 1.5 l -1.5,1.5 v 3 4.5 3 l 1.5,1.5 h 1.5 v -1.5 l 1.5,1.5 h 1.5 1.5 1.5 1.5 1.5 1.5 1.5 l 3,-3 h 1.5 1.5 v 3 h -1.5 l -1.5,1.5 1.5,1.5 h 1.5 1.5 l 3,-1.5 h 1.5 l -1.5,-3 3,-1.5 1.5,3 h 1.5 v -1.5 h 1.5 1.5 l 1.5,-1.5 v -1.5 h 3 l 1.5,-3 h 1.5 l 1.5,-1.5 3,-1.5 h 1.5 v 1.5 h 1.5 l 1.5,-1.5 v 1.5 h 3 l 1.5,-1.5 h 1.5 l 1.5,-1.5 3,-3 3,-1.5 3,-1.5 7.5,-6 1.5,-1.5 15,-18 h -1.5 v -1.5 h -1.5 v -1.5 -1.5 l -1.5,1.5 v -1.5 -1.5 l -1.5,-1.5 h -1.5 -1.5 l 1.5,-1.5 h -1.5 -1.5 v 1.5 l -1.5,1.5 v 1.5 l 1.5,1.5 h 1.5 v 1.5 1.5 l -1.5,-1.5 -1.5,1.5 h 1.5 l -1.5,1.5 h 1.5 v 1.5 l -1.5,-1.5 h -3 l 1.5,1.5 v 1.5 l -1.5,-3 -1.5,-1.5 h -1.5 l 1.5,1.5 1.5,1.5 h -1.5 v -1.5 h -1.5 v -1.5 -1.5 l -1.5,-1.5 -1.5,-1.5 h -1.5 -3 v 1.5 h 1.5 1.5 1.5 l -1.5,1.5 v 1.5 l 1.5,-1.5 1.5,1.5 h -1.5 v 1.5 1.5 h 1.5 v 1.5 h -1.5 l -3,-6 h -1.5 l -4.5,-3 v -1.5 h -1.5 v 1.5 l -6,-1.5 -1.5,-1.5 v -1.5 l -1.5,-1.5 v -1.5 l -1.5,-1.5 1.5,-1.5 h -1.5 l -1.5,-1.5 v -1.5 h -3 -1.5 l -1.5,-1.5 h -3 l -1.5,3 v 1.5 h -1.5 v 3 1.5 1.5 1.5 l -1.5,1.5 v -1.5 l -1.5,1.5 h -1.5 l -4.5,1.5 -3,1.5 -1.5,1.5 h -1.5 v 1.5 h -3 v 1.5 l -1.5,1.5 h -1.5 -3 -1.5 l -1.5,-1.5 h -1.5 v 1.5 l -1.5,-1.5 v 1.5 1.5 l -1.5,-3 v -1.5 h -1.5 -1.5 v -1.5 h -4.5 v 4.5 l -3,-1.5 v -1.5 l 1.5,-1.5 h -1.5 -3 -1.5 -1.5 -1.5 v -1.5 l -1.5,-1.5 -1.5,-1.5 h -1.5 v -1.5 l -1.5,-1.5 h -4.5 l -3,-1.5 h -1.5 l -4.5,-1.5 h -1.5 v -1.5 h -1.5 l -3,-1.5 h -1.5 l -1.5,-1.5 -1.5,-1.5 h -1.5 l -1.5,-1.5 h -1.5 v -1.5 h -4.5 -1.5 z m 136.5,21 -1.5,-1.5 -1.5,1.5 z m -1.5,-1.5 h 1.5 1.5 1.5 l -1.5,-1.5 h -1.5 v -1.5 h -1.5 v -1.5 h -1.5 -1.5 v 1.5 1.5 l 1.5,1.5 z m 3,-4.5 1.5,1.5 h -1.5 z m 3,0 h 1.5 l -1.5,1.5 z m -10.5,10.5 h 1.5 v 1.5 h -1.5 z"
       style="fill:#00000f;fill-opacity:0.94117647;fill-rule:evenodd;stroke:#000000;stroke-width:1.04999995;stroke-linecap:butt;stroke-linejoin:bevel;stroke-miterlimit:10;stroke-dasharray:none;stroke-opacity:1" />
    <path
       inkscape:connector-curvature="0"
       id="path651"
       style="fill:#00000f;fill-opacity:0.94117647;fill-rule:evenodd;stroke:#000000;stroke-width:0.69999999;stroke-linecap:butt;stroke-linejoin:bevel;stroke-miterlimit:10;stroke-dasharray:none;stroke-opacity:1"
       d="m 289.96708,126.18733 4,-4 1,-1 11,-10 h 1 l 3,-1 h 1 v 0 0 -1 1 l 1,1 -1,-1 h -1 v 0 l -2,1 h -2 l -9,9 -1,1 v 0 h -1 l -1,1 z" />
    <path
       inkscape:connector-curvature="0"
       id="path659"
       style="fill:#00000f;fill-opacity:0.94117647;fill-rule:evenodd;stroke:#000000;stroke-width:0.69999999;stroke-linecap:butt;stroke-linejoin:bevel;stroke-miterlimit:10;stroke-dasharray:none;stroke-opacity:1"
       d="m 89.967095,437.18733 v 0 l -1,-1 v -1 0 h 1 l 1,1 v 1 l -1,1 v 0 z" />
    <path
       inkscape:connector-curvature="0"
       id="path661"
       style="fill:#00000f;fill-opacity:0.94117647;fill-rule:evenodd;stroke:#000000;stroke-width:0.69999999;stroke-linecap:butt;stroke-linejoin:bevel;stroke-miterlimit:10;stroke-dasharray:none;stroke-opacity:1"
       d="m 94.967095,414.18733 v 0 0 l -1,1 v 2 1 0 l 1,1 1,-1 -1,-1 v 0 l 1,1 -1,1 v 0 l -2,-1 v 1 1 0 0 l -1,-1 v 0 0 l -1,1 v 0 h 1 v 1 h -1 v -1 l -1,1 v 0 1 2 h -1 v 0 l 1,-2 v -1 l -1,-1 v 0 h -1 v 0 0 0 h 1 l 1,-2 2,-1 v -1 0 -1 0 0 1 0 0 h 1 v 0 0 0 h 1 v -1 z" />
    <path
       inkscape:connector-curvature="0"
       id="path861"
       style="fill:#00000f;fill-opacity:0.94117647;fill-rule:evenodd;stroke:#000000;stroke-width:0.69999999;stroke-linecap:butt;stroke-linejoin:bevel;stroke-miterlimit:10;stroke-dasharray:none;stroke-opacity:1"
       d="m 304.96708,192.18733 v 0 h 2 l 7,3 1,1 5,5 2,3 v 1 l 5,8 2,5 v 1 h -1 l -1,1 -2,1 -1,4 -1,2 h 1 v 0 l -1,2 v -2 0 l 1,-2 1,-4 1,-1 2,-1 h 1 v -1 l -2,-5 -7,-12 -5,-5 -1,-1 -6,-3 -1,2 v 0 h -1 -1 -1 1 l 1,-1 1,-1 h -1 v 0 z" />
    <path
       inkscape:connector-curvature="0"
       id="path869"
       style="fill:#00000f;fill-opacity:0.94117647;fill-rule:evenodd;stroke:#000000;stroke-width:0.69999999;stroke-linecap:butt;stroke-linejoin:bevel;stroke-miterlimit:10;stroke-dasharray:none;stroke-opacity:1"
       d="m 441.96708,15.18733 h 2 v 0 1 0 l -2,1 z" />
    <path
       inkscape:connector-curvature="0"
       id="path871"
       style="fill:#00000f;fill-opacity:0.94117647;fill-rule:evenodd;stroke:#000000;stroke-width:0.69999999;stroke-linecap:butt;stroke-linejoin:bevel;stroke-miterlimit:10;stroke-dasharray:none;stroke-opacity:1"
       d="m 459.96708,6.1873306 v 1 0 l 1,1 1,1 1,0.9999994 -1,-0.9999994 h -1 -2 -1 v 0 0.9999994 1 h 1 v 0 l -1,2 -1,-1 -1,-2.9999994 -1,-1 v -1 l 1,-2 h 1 1 1 z" />
    <path
       inkscape:connector-curvature="0"
       id="path873"
       style="fill:#00000f;fill-opacity:0.94117647;fill-rule:evenodd;stroke:#000000;stroke-width:0.69999999;stroke-linecap:butt;stroke-linejoin:bevel;stroke-miterlimit:10;stroke-dasharray:none;stroke-opacity:1"
       d="m 469.96708,7.1873306 h 2 2 l 2,1 v 1 -1 h -2 -2 -1 v 0 h -1 l -1,1 v 0 -1 z" />
    <path
       inkscape:connector-curvature="0"
       id="path907"
       style="fill:#00000f;fill-opacity:0.94117647;fill-rule:evenodd;stroke:#000000;stroke-width:0.69999999;stroke-linecap:butt;stroke-linejoin:bevel;stroke-miterlimit:10;stroke-dasharray:none;stroke-opacity:1"
       d="m 120.96709,396.18733 v 0 0 -1 h 1 l 2,1 h -1 z" />
    <path
       inkscape:connector-curvature="0"
       id="path909"
       style="fill:#00000f;fill-opacity:0.94117647;fill-rule:evenodd;stroke:#000000;stroke-width:0.69999999;stroke-linecap:butt;stroke-linejoin:bevel;stroke-miterlimit:10;stroke-dasharray:none;stroke-opacity:1"
       d="m 157.96708,418.18733 v -1 l -1,-1 -1,-1 v 1 h -1 l -2,-2 1,-1 v 0 h -1 v 1 h -2 v -1 h 2 v 0 h 3 1 v 0 h -1 v 0 h -1 v 0 1 0 h 2 v 1 l 1,1 v 1 z" />
    <path
       inkscape:connector-curvature="0"
       id="path911"
       style="fill:#00000f;fill-opacity:0.94117647;fill-rule:evenodd;stroke:#000000;stroke-width:0.69999999;stroke-linecap:butt;stroke-linejoin:bevel;stroke-miterlimit:10;stroke-dasharray:none;stroke-opacity:1"
       d="m 129.96709,392.18733 h 1 l 1,-1 v 0 1 1 l 1,3 1.99999,2 v 0 0 l -1,1 h -0.99999 v -1 l -1,-1 v -1 l -1,-2 -1,-1 v 0 z" />
    <path
       inkscape:connector-curvature="0"
       id="path913"
       style="fill:#00000f;fill-opacity:0.94117647;fill-rule:evenodd;stroke:#000000;stroke-width:0.69999999;stroke-linecap:butt;stroke-linejoin:bevel;stroke-miterlimit:10;stroke-dasharray:none;stroke-opacity:1"
       d="m 126.96709,394.18733 -1,1 h -1 -1 v -1 h 1 1 2 z" />
    <path
       inkscape:connector-curvature="0"
       id="path915"
       style="fill:#000000;fill-opacity:1;fill-rule:evenodd;stroke:#000000;stroke-width:0.69999999;stroke-linecap:butt;stroke-linejoin:bevel;stroke-miterlimit:10;stroke-dasharray:none;stroke-opacity:1"
       d="m 123.96709,418.18733 -1,1 h -1 v 0 h -1 v 0 l -2,-1 h -1 v 0 l 2,-1 v -1 1 l -2,1 h -1 l 1,-2 -1,-1 v -2 h -1 v -1 -1 l -1,-2 -2,-1 -1,1 v -1 l -3,-1 v 0 0 -1 0 -1 l -1,-1 h -2 -0.99999 l -1,1 v 1 h 1 l 0.99999,-1 1,1 -1,-1 -0.99999,1 h -2 l -1,2 -2.000005,1 v 0 0 0 h -1 -1 l -2,1 -1,1 v 2 0 h 1 v 1 h -1 v 0 0 l -1,-1 v 0 0 h 1 v 0 -2 0 l -1,-1 h -1 -1 v -1 l -1,-1 -1,-2 v -2 -2 -1 l 1,-2 2,-2 2,-1 h 1 1 l 4.000005,-1 1,-1 h 2 1.99999 l 3,1 v -1 0 -1 l 1,-1 v -1 h 1 1 l -1,1 h 1 l -1,1 v 0 0 0 -1 0 h -1 v 1 l -1,2 h 1 1 1 1 v 0 0 h 3 l 2,-1 v 0 l 1,1 v 0 l 1,1 v 1 h 1 v 0 h 1 1 l 2,-1 1,1 h 3 v 0 1 0 -1 l 1,1 v 2 0 l 1,1 2,2 0.99999,2 v 2 h 1 2 1 l 2,1 v 0 l 3,2 h 1 v 0 1 h 1 l 2,-2 h 1 1 v 0 h 3 v 0 l 1,-1 h 1 v 2 1 h 1 v 0 l -1,1 v 0 h -1 l 1,-1 v 0 l -1,-1 v -1 h -1 v 1 l -1,-1 -3,1 h -1 l -1,1 h -1 v 1 l 1,1 v 0 1 0 0 0 l -1,1 h 1 v -1 l -1,1 v 1 h -1 l -1,1 -1,2 h -1 l -1,1 -1,-1 -2,1 -1,1 h -2 v 1 h -2.99999 -1 -2 -1 v 0 l -2,-2 v 0 0 z" />
    <path
       inkscape:connector-curvature="0"
       id="path929"
       style="fill:#00000f;fill-opacity:0.94117647;fill-rule:evenodd;stroke:#000000;stroke-width:0.69999999;stroke-linecap:butt;stroke-linejoin:bevel;stroke-miterlimit:10;stroke-dasharray:none;stroke-opacity:1"
       d="m 113.96709,438.18733 v -1 h -1 1 v 0 z" />
    <path
       inkscape:connector-curvature="0"
       id="path949"
       style="fill:#00000f;fill-opacity:0.94117647;fill-rule:evenodd;stroke:#000000;stroke-width:0.69999999;stroke-linecap:butt;stroke-linejoin:bevel;stroke-miterlimit:10;stroke-dasharray:none;stroke-opacity:1"
       d="m 186.96708,405.18733 -1,1 v 0 h 1 v 0 h -1 v 1 l -1,-1 v 0 0 z" />
  </g>
</svg>
