<svg height='300px' width='300px'  fill="#000000" xmlns="http://www.w3.org/2000/svg" data-name="Layer 1" viewBox="0 0 64 64" x="0px" y="0px"><title>alone-lonely-stress-sad-tired</title><path d="M16.88,59.19c8,1.68,16.29-1.41,20.7-7.73l5.45-7.81,4.46,14.88A5.10044,5.10044,0,0,0,52.46,62a4.9449,4.9449,0,0,0,5.16-4.7,4.23629,4.23629,0,0,0-.24-1.42L50.26,35.33l-.04327-.01062a3.19958,3.19958,0,0,0,.59765-6.25629L28.06,22.37054V22.37A8.46845,8.46845,0,0,0,26.53,19a7.63434,7.63434,0,0,0-5.59-2.89l-.76-.07c-4.59-.42-8.7,2.58-9.24,6.76L7.71,47.29C6.98,52.81,10.94,57.94,16.88,59.19ZM38.38208,32.41632,38.03,32.33a6.77827,6.77827,0,0,0-.8.9L28.39,45.32V29.79l-.00012-.00318Z"></path><circle cx="33" cy="11" r="9"></circle><rect x="3" y="2" width="2" height="10"></rect><rect x="3" y="14" width="2" height="2"></rect><rect x="7" y="2" width="2" height="4"></rect><rect x="7" y="8" width="2" height="4"></rect><rect x="11" y="2" width="2" height="12"></rect><rect x="15" y="2" width="2" height="6"></rect><rect x="15" y="10" width="2" height="2"></rect><rect x="19" y="2" width="2" height="10"></rect><rect x="47" y="2" width="2" height="12"></rect><rect x="47" y="16" width="2" height="2"></rect><rect x="51" y="2" width="2" height="6"></rect><rect x="51" y="10" width="2" height="4"></rect><rect x="55" y="2" width="2" height="8"></rect><rect x="55" y="12" width="2" height="6"></rect><rect x="59" y="2" width="2" height="6"></rect><rect x="59" y="10" width="2" height="6"></rect><rect x="59" y="18" width="2" height="4"></rect><rect x="3" y="18" width="2" height="4"></rect></svg>
