<svg height='300px' width='300px'  fill="#000000" xmlns="http://www.w3.org/2000/svg" xmlns:xlink="http://www.w3.org/1999/xlink" xml:space="preserve" version="1.1" style="shape-rendering:geometricPrecision;text-rendering:geometricPrecision;image-rendering:optimizeQuality;" viewBox="0 0 305 305" x="0px" y="0px" fill-rule="evenodd" clip-rule="evenodd"><defs><style type="text/css">
   
    .fil0 {fill:#000000}
   
  </style></defs><g><path class="fil0" d="M197 63c11,-51 -10,-46 -23,-21 -3,-24 -15,-42 -21,-42 -7,0 -19,18 -22,42 -13,-25 -34,-30 -23,21 -17,11 -3,38 20,51l0 0c-7,-38 5,-34 12,-16 2,-17 9,-30 13,-30 3,0 10,13 12,30 7,-18 19,-22 12,16l0 0c23,-13 37,-40 20,-51zm-44 49c-23,0 -41,18 -41,41 0,22 18,40 41,40 22,0 40,-18 40,-40 0,-23 -18,-41 -40,-41zm66 -26c-13,-15 -14,-29 -2,-41 11,-12 31,-10 61,-18 0,23 -2,45 -14,57 -12,12 -36,8 -45,2zm49 -46c-4,10 -11,13 -19,16 0,0 3,-3 4,-6 1,-4 -1,-7 -1,-7 0,2 -2,7 -3,8l-6 7c-4,5 -19,8 -19,24 4,-7 8,-10 14,-13 0,0 12,-1 18,-1 3,1 5,3 5,2 -3,-7 -14,-5 -13,-6 9,-3 17,-9 20,-24zm-49 179c15,-13 29,-14 41,-2 12,11 10,31 18,61 -23,0 -45,-2 -57,-14 -12,-12 -8,-36 -2,-45zm46 49c-10,-4 -13,-11 -16,-19 0,0 3,3 6,4 4,1 7,-1 7,-1 -2,0 -7,-2 -8,-3l-7 -6c-5,-4 -8,-19 -24,-19 7,4 10,8 13,14 0,0 1,12 1,18 -1,3 -3,5 -2,5 7,-3 5,-14 6,-13 3,9 9,17 24,20zm-179 -49c-15,-13 -29,-14 -41,-2 -12,11 -10,31 -18,61 23,0 45,-2 57,-14 12,-12 8,-36 2,-45zm-46 49c10,-4 13,-11 16,-19 0,0 -3,3 -6,4 -4,1 -7,-1 -7,-1 2,0 7,-2 8,-3l7 -6c5,-4 8,-19 24,-19 -7,4 -10,8 -13,14 0,0 -1,12 -1,18 1,3 3,5 2,5 -7,-3 -5,-14 -6,-13 -3,9 -9,17 -24,20zm46 -182c13,-15 14,-29 2,-41 -11,-12 -31,-10 -61,-18 0,23 2,45 14,57 12,12 36,8 45,2zm-49 -46c4,10 11,13 19,16 0,0 -3,-3 -4,-6 -1,-4 1,-7 1,-7 0,2 2,7 3,8l6 7c4,5 19,8 19,24 -4,-7 -8,-10 -14,-13 0,0 -12,-1 -18,-1 -3,1 -5,3 -5,2 3,-7 14,-5 13,-6 -9,-3 -17,-9 -20,-24zm26 68c-51,-11 -46,10 -21,23 -24,3 -42,15 -42,22 0,6 18,18 42,21 -25,13 -30,34 21,23 11,17 38,3 51,-20l0 0c-38,7 -34,-5 -16,-12 -17,-2 -30,-9 -30,-12 0,-4 13,-11 30,-13 -18,-7 -22,-19 16,-12l0 0c-13,-23 -40,-37 -51,-20zm134 134c11,51 -10,46 -23,21 -3,24 -15,42 -21,42 -7,0 -19,-18 -22,-42 -13,25 -34,30 -23,-21 -17,-11 -3,-38 20,-51l0 0c-7,38 5,34 12,16 2,17 9,30 13,30 3,0 10,-13 12,-30 7,18 19,22 12,-16l0 0c23,13 37,40 20,51zm45 -134c51,-11 46,10 21,23 24,3 42,15 42,22 0,6 -18,18 -42,21 25,13 30,34 -21,23 -11,17 -38,3 -51,-20l0 0c38,7 34,-5 16,-12 17,-2 30,-9 30,-12 0,-4 -13,-11 -30,-13 18,-7 22,-19 -16,-12l0 0c13,-23 40,-37 51,-20z"></path></g></svg>
