<svg height='300px' width='300px'  fill="#000000" xmlns="http://www.w3.org/2000/svg" xmlns:xlink="http://www.w3.org/1999/xlink" version="1.1" x="0px" y="0px" viewBox="0 0 100 100" enable-background="new 0 0 100 100" xml:space="preserve"><path d="M52.031,10.182c2.505-0.999,3.729-3.871,2.728-6.407c-1.015-2.532-3.87-3.773-6.38-2.774  c-2.509,0.997-3.73,3.855-2.717,6.394C46.668,9.928,49.522,11.178,52.031,10.182"></path><path d="M58.791,21.257c0.385,0.218,0.803,0.321,1.219,0.321c0.771,0,1.528-0.362,2.01-1.026l5.349-7.384  c0.806-1.11,0.556-2.667-0.552-3.467c-1.12-0.808-2.666-0.557-3.468,0.552l-4.05,5.595c0,0-6.228-3.485-6.25-3.496  c-2.13-0.937-4.573-0.995-5.461-0.961H36.64c-0.755,0-1.471,0.344-1.94,0.934l-5.74,7.203c-0.856,1.073-0.68,2.633,0.392,3.487  c0.458,0.364,1.004,0.543,1.548,0.543c0.729,0,1.453-0.32,1.941-0.935l4.997-6.268h4.121c-3.017,4.338-7.178,10.409-7.165,10.817  h0.004c-0.48,0.836-0.623,1.85-0.212,2.805l2.662,6.222H24.646c-1.754,0-3.177,1.424-3.177,3.176c0,1.754,1.423,3.176,3.177,3.176  h17.417c1.068,0,2.064-0.535,2.649-1.424c0.588-0.894,0.689-2.018,0.269-3.001l-2.247-5.252h9.875l5.881,12.625  c0.542,1.158,1.688,1.836,2.885,1.836c0.445,0,0.901-0.097,1.337-0.296c1.593-0.744,2.278-2.631,1.537-4.225l-6.733-14.458  c-0.525-1.118-1.647-1.833-2.883-1.833h-6.17l5.572-7.938L58.791,21.257z"></path><path d="M31.813,52.298H0V99.62h14.029c0-14.974,11.117-27.318,25.544-29.304L31.813,52.298z"></path><path d="M52.725,52.298l7.187,17.932c14.701,1.735,26.115,14.218,26.115,29.391h14.032V52.298H52.725z"></path></svg>
