<svg height='300px' width='300px'  fill="#000000" xmlns="http://www.w3.org/2000/svg" xmlns:xlink="http://www.w3.org/1999/xlink" version="1.1" x="0px" y="0px" viewBox="0 0 100 100" style="enable-background:new 0 0 100 100;" xml:space="preserve"><path d="M70,84.2l27-20c0.9-0.7,0.9-2.2,0-2.9l-27-20c-0.6-0.4-1.3-0.5-1.9-0.2c-0.6,0.3-1,0.9-1,1.6v10.2H39.5  c-1,0-1.8,0.8-1.8,1.8v16.1c0,1,0.8,1.8,1.8,1.8h27.6v10.2c0,0.7,0.4,1.3,1,1.6C68.8,84.7,69.5,84.6,70,84.2z"></path><path d="M32.6,57.7V47.5h27.6c1,0,1.8-0.8,1.8-1.8V29.6c0-1-0.8-1.8-1.8-1.8H32.6V17.6c0-0.7-0.4-1.3-1-1.6  c-0.6-0.3-1.4-0.2-1.9,0.2l-27,20c-0.5,0.3-0.7,0.9-0.7,1.5c0,0.6,0.3,1.1,0.7,1.5l27,20c0.6,0.4,1.3,0.5,1.9,0.2  C32.2,59,32.6,58.4,32.6,57.7z"></path></svg>
