<svg height='300px' width='300px'  fill="#000000" xmlns="http://www.w3.org/2000/svg" xmlns:xlink="http://www.w3.org/1999/xlink" version="1.1" x="0px" y="0px" viewBox="0 0 100 100" enable-background="new 0 0 100 100" xml:space="preserve"><g><g><path d="M40.475,78.897c2.156,0,4.257-1.108,5.43-3.102l12.932-22.182c1.763-2.997,0.763-6.854-2.231-8.618    c-2.998-1.762-6.855-0.764-8.619,2.231L35.056,69.409c-1.763,2.997-0.764,6.854,2.232,8.617    C38.292,78.617,39.39,78.897,40.475,78.897L40.475,78.897z"></path><circle cx="78.835" cy="46.078" r="7.731"></circle><path d="M94.312,91.4L82.885,75.839c-0.079-0.107-0.163-0.212-0.25-0.31c-0.032-0.037-0.069-0.072-0.103-0.108    c-0.055-0.059-0.11-0.118-0.167-0.175c-0.043-0.04-0.089-0.078-0.134-0.117c-0.052-0.046-0.104-0.094-0.158-0.138    c-0.049-0.041-0.101-0.076-0.152-0.113c-0.051-0.039-0.103-0.078-0.156-0.114c-0.054-0.037-0.111-0.071-0.167-0.105    c-0.053-0.031-0.104-0.063-0.156-0.094c-0.06-0.032-0.119-0.062-0.18-0.093c-0.053-0.027-0.105-0.054-0.16-0.079    c-0.062-0.027-0.124-0.052-0.187-0.078c-0.054-0.022-0.109-0.044-0.164-0.063c-0.063-0.022-0.128-0.043-0.192-0.062    c-0.057-0.019-0.112-0.035-0.169-0.049c-0.064-0.018-0.132-0.033-0.198-0.048c-0.056-0.013-0.113-0.025-0.171-0.036    c-0.066-0.011-0.134-0.021-0.2-0.03c-0.058-0.008-0.117-0.014-0.174-0.021c-0.068-0.006-0.137-0.01-0.206-0.015    c-0.057-0.002-0.115-0.004-0.173-0.006c-0.069,0-0.138,0-0.207,0.003c-0.058,0.001-0.115,0.005-0.174,0.011    c-0.069,0.004-0.139,0.01-0.209,0.019c-0.058,0.007-0.114,0.016-0.172,0.023c-0.07,0.012-0.139,0.023-0.207,0.038    c-0.059,0.012-0.116,0.025-0.174,0.04c-0.068,0.017-0.137,0.035-0.204,0.055c-0.06,0.018-0.118,0.037-0.177,0.057    c-0.064,0.023-0.128,0.045-0.192,0.07c-0.018,0.007-0.035,0.012-0.053,0.019L64.986,79.42c0.837-1.856,8.721-15.045,8.721-15.046    l9.286,9.545c0.763,0.784,1.775,1.178,2.788,1.178c0.978,0,1.957-0.367,2.713-1.102c1.54-1.499,1.574-3.962,0.076-5.502    c0,0-13.576-13.943-13.636-13.998c-1.883-1.718-4.047-1.642-6.417-0.919c-1.232,0.376-8.719,3.348-14.206,12.352    c-6.108,10.024-7.125,18.782-7.11,21.016c0.012,1.767,0.334,5.731,2.749,7.298c2.054,1.333,4.243,1.395,5.856,0.673L77.79,84.278    l9.187,12.509c0.892,1.214,2.272,1.857,3.671,1.857c0.936,0,1.878-0.289,2.69-0.884C95.363,96.273,95.8,93.427,94.312,91.4z"></path></g><polygon points="98.426,0.475 1.377,44.265 1.377,57.067 14.511,51.086 14.511,98.645 26.821,98.645 26.821,45.598 98.426,13.172     "></polygon></g></svg>
