<svg height='300px' width='300px'  fill="#000000" xmlns="http://www.w3.org/2000/svg" xmlns:xlink="http://www.w3.org/1999/xlink" version="1.1" x="0px" y="0px" viewBox="0 0 100 97.695" enable-background="new 0 0 100 97.695" xml:space="preserve"><g><path d="M91.239,32.638c-1.093-4.588-5.208-8.004-10.131-8.004c-4.926,0-9.043,3.421-10.133,8.013   c-4.772,0.163-8.593,4.072-8.593,8.883c0,4.915,3.984,8.899,8.899,8.899h19.82c4.915,0,8.899-3.984,8.899-8.899   C100,36.662,96.089,32.713,91.239,32.638z"></path><path d="M47.698,72.23c-0.957-0.014-1.78-0.676-2.002-1.607c-1.646-6.907-7.752-11.732-14.849-11.732   c-7.104,0-13.211,4.829-14.852,11.744c-0.217,0.917-1.022,1.576-1.964,1.607C7.135,72.477,1.732,78.061,1.732,84.957   c0,7.024,5.715,12.739,12.739,12.739h33.03c7.023,0,12.738-5.715,12.738-12.739C60.239,78.043,54.614,72.334,47.698,72.23z"></path><path d="M52.723,40.71c0-14.777,10.556-27.147,24.557-30.022c-4.876-2.522-10.272-3.834-15.877-3.834   c-19.119,0-34.675,15.554-34.675,34.674c0,4.694,0.948,9.168,2.645,13.255c0.488-0.039,0.977-0.073,1.474-0.073   c8.516,0,15.912,5.452,18.495,13.437c5.316,0.583,9.898,3.673,12.572,8.035c7.093-0.103,13.882-2.326,19.578-6.385   C65.433,67.507,52.723,55.116,52.723,40.71z"></path><path d="M9.099,26.375h16.527c2.429-5.714,6.195-10.725,10.895-14.654c-1.638-2.103-4.151-3.492-7.014-3.536   C28.388,3.493,24.18,0,19.147,0C14.11,0,9.9,3.497,8.786,8.193C3.907,8.359,0,12.356,0,17.276C0,22.301,4.074,26.375,9.099,26.375z   "></path></g></svg>
