<svg height='300px' width='300px'  fill="#000000" xmlns="http://www.w3.org/2000/svg" data-name="Layer 1" viewBox="0 0 64 64" x="0px" y="0px"><title>content</title><path d="M48,11H43V8a1,1,0,0,0-1-1H38a1,1,0,0,0-1,1v3H35V8a1,1,0,0,0-1-1H30a1,1,0,0,0-1,1v3H27V8a1,1,0,0,0-1-1H22a1,1,0,0,0-1,1v3H16a1,1,0,0,0-1,1V56a1,1,0,0,0,1,1H48a1,1,0,0,0,1-1V12A1,1,0,0,0,48,11Zm-9,2V9h2v6H39Zm-8,0V9h2v6H31Zm-8,0V9h2v6H23ZM47,55H17V13h4v3a1,1,0,0,0,1,1h4a1,1,0,0,0,1-1V13h2v3a1,1,0,0,0,1,1h4a1,1,0,0,0,1-1V13h2v3a1,1,0,0,0,1,1h4a1,1,0,0,0,1-1V13h4Z"></path><path d="M34,25H30a1,1,0,0,0-1,1V38a1,1,0,0,0,1,1h4a1,1,0,0,0,1-1V26A1,1,0,0,0,34,25ZM33,37H31V27h2Z"></path><path d="M32,41a3,3,0,1,0,3,3A3.00328,3.00328,0,0,0,32,41Zm0,4a1,1,0,1,1,1-1A1.0013,1.0013,0,0,1,32,45Z"></path></svg>
