<?xml version="1.0" encoding="UTF-8" standalone="no"?>
<!-- Created with Inkscape (http://www.inkscape.org/) -->

<svg
   xmlns:dc="http://purl.org/dc/elements/1.1/"
   xmlns:cc="http://creativecommons.org/ns#"
   xmlns:rdf="http://www.w3.org/1999/02/22-rdf-syntax-ns#"
   xmlns:svg="http://www.w3.org/2000/svg"
   xmlns="http://www.w3.org/2000/svg"
   xmlns:sodipodi="http://sodipodi.sourceforge.net/DTD/sodipodi-0.dtd"
   xmlns:inkscape="http://www.inkscape.org/namespaces/inkscape"
   version="1.1"
   id="svg815"
   width="300"
   height="300"
   viewBox="0 0 300 300"
   sodipodi:docname="DenHaag.svg"
   inkscape:version="0.92.4 (5da689c313, 2019-01-14)">
  <metadata
     id="metadata821">
    <rdf:RDF>
      <cc:Work
         rdf:about="">
        <dc:format>image/svg+xml</dc:format>
        <dc:type
           rdf:resource="http://purl.org/dc/dcmitype/StillImage" />
        <dc:title></dc:title>
      </cc:Work>
    </rdf:RDF>
  </metadata>
  <defs
     id="defs819" />
  <sodipodi:namedview
     pagecolor="#ffffff"
     bordercolor="#666666"
     borderopacity="1"
     objecttolerance="10"
     gridtolerance="10"
     guidetolerance="10"
     inkscape:pageopacity="0"
     inkscape:pageshadow="2"
     inkscape:window-width="1920"
     inkscape:window-height="1051"
     id="namedview817"
     showgrid="false"
     inkscape:zoom="1.7825"
     inkscape:cx="221.32373"
     inkscape:cy="132.73089"
     inkscape:window-x="-9"
     inkscape:window-y="-9"
     inkscape:window-maximized="1"
     inkscape:current-layer="svg815" />
  <path
     style="fill:#000000;stroke-width:1.10685098"
     d="m 263.69108,293.91261 c -1.90428,-0.4146 -2.49045,-1.31861 -2.49045,-3.84076 v -3.29852 l 6.55783,0.74193 c 6.06542,0.68623 6.77199,0.52791 9.40824,-2.10844 2.01219,-2.01215 2.85032,-4.02799 2.85032,-6.85499 v -4.00462 l -2.91639,2.29404 c -3.47515,2.73358 -9.38632,2.9868 -13.0891,0.56074 -5.27336,-3.45535 -6.61351,-14.20894 -2.76195,-22.16507 3.10566,-6.41563 7.55224,-8.39262 17.93037,-7.97224 l 8.03165,0.32536 v 17.70962 c 0,19.82273 -0.9772,23.92174 -6.36818,26.70944 -3.44533,1.78171 -12.89522,2.83041 -17.15234,1.90351 z m 13.63469,-24.14598 c 0.98306,-1.50016 2.05489,-5.6799 2.38206,-9.2883 0.54847,-6.04773 0.4044,-6.62127 -1.84321,-7.33458 -1.34092,-0.42563 -3.89234,-0.1715 -5.66978,0.56473 -5.14103,2.12952 -6.96723,12.64202 -3.0218,17.39595 1.92564,2.32016 6.21738,1.6159 8.15273,-1.3378 z m -265.166612,6.81781 c 0,-2.09154 0.649444,-2.92169 2.490355,-3.18313 2.432749,-0.3455 2.497472,-0.71877 2.797527,-16.12632 l 0.307075,-15.77263 h -2.797527 c -2.274836,0 -2.79743,-0.53768 -2.79743,-2.87828 v -2.87829 l 14.112366,0.38787 c 12.203269,0.3354 14.636306,0.71624 17.98624,2.81542 4.859342,3.04501 6.439436,5.61475 7.771697,12.63983 1.255131,6.61831 -0.14041,14.19221 -3.478996,18.8807 -4.130749,5.80119 -10.042686,7.88658 -23.939242,8.44441 l -12.452065,0.49983 z m 26.380166,-6.99941 c 5.41627,-3.54486 7.249679,-13.40089 3.779723,-20.31932 -2.342828,-4.67115 -5.912898,-6.61847 -12.173648,-6.64019 l -4.704026,-0.0163 v 14.20459 c 0,7.81253 0.373529,14.57963 0.830151,15.03802 1.197524,1.20236 9.23677,-0.28309 12.2678,-2.26678 z m 25.990094,7.99019 c -4.569674,-2.06525 -6.989439,-6.88979 -6.989439,-13.93584 0,-10.38951 5.434157,-16.60277 14.5209,-16.60277 7.658984,0 11.860707,3.9102 12.785875,11.89865 l 0.67291,5.81096 H 75.403793 c -11.268485,0 -12.508421,1.02862 -7.399033,6.13799 2.9288,2.92881 4.48187,3.17747 10.748967,1.72114 3.604211,-0.83752 4.125844,-0.6821 4.667865,1.39088 0.335734,1.28357 0.127235,2.81691 -0.463353,3.40744 -1.809463,1.80942 -14.542443,1.92796 -18.428821,0.17155 z m 12.933883,-19.94447 c 0,-4.8254 -7.573969,-6.70935 -10.452279,-2.59989 -2.635766,3.76306 -2.199341,4.18111 4.364637,4.18111 4.53813,0 6.087642,-0.40249 6.087642,-1.58122 z m 16.361811,8.56651 c -0.301305,-12.6055 -0.401515,-13.08561 -2.802816,-13.42667 -1.542875,-0.21911 -2.490451,-1.12162 -2.490451,-2.37198 0,-2.45402 2.116922,-3.362 7.838536,-3.362 3.649509,0 4.336839,0.36355 4.336839,2.29404 v 2.29404 l 2.9164,-2.29404 c 4.4307,-3.48522 11.74116,-3.15561 14.74632,0.66491 2.10952,2.68173 2.2985,4.15937 2.01729,15.77263 l -0.31015,12.81368 h -3.32051 -3.3205 l -0.27659,-9.96165 c -0.38199,-13.76426 -0.74466,-14.9425 -4.59814,-14.9425 -4.91599,0 -6.60331,3.65334 -6.97934,15.1121 l -0.32141,9.79205 -3.561507,0.34417 -3.561511,0.34418 z m 47.835588,10.33746 c 0,-1.95018 0.76379,-2.8854 2.76714,-3.38819 l 2.76704,-0.69451 v -15.47483 -15.47483 h -2.76704 c -2.21377,0 -2.76714,-0.55343 -2.76714,-2.76713 0,-2.72101 0.14753,-2.76713 8.85478,-2.76713 8.63964,0 8.85487,0.0654 8.85487,2.69015 0,1.94708 -0.68801,2.78783 -2.49045,3.04384 -2.20347,0.31294 -2.49045,0.99142 -2.49045,5.88795 v 5.53425 l 9.13156,0.32147 9.13156,0.32148 v -6.13244 c 0,-5.39454 -0.2664,-6.13244 -2.21377,-6.13244 -1.62347,0 -2.21367,-0.7379 -2.21367,-2.76713 0,-2.723 0.14243,-2.76713 8.93181,-2.76713 8.62945,0 8.91979,0.0842 8.57819,2.49041 -0.22879,1.61079 -1.24388,2.61673 -2.87417,2.84803 -2.50402,0.3553 -2.51825,0.45934 -2.21358,16.04935 0.30179,15.44634 0.34651,15.69739 2.86273,16.05404 1.91016,0.27075 2.46958,0.97009 2.21367,2.76713 -0.31313,2.19897 -1.07673,2.43248 -8.92056,2.72808 -8.43056,0.31772 -8.57809,0.2771 -8.57809,-2.36132 0,-1.75373 0.76754,-2.88533 2.21367,-3.26349 1.88092,-0.49186 2.21377,-1.50976 2.21377,-6.7702 v -6.1913 h -9.46354 -9.46345 l 0.33189,6.36439 c 0.29678,5.68965 0.60299,6.4028 2.88821,6.72671 1.91016,0.27075 2.46958,0.97009 2.21367,2.76713 -0.31313,2.19897 -1.07673,2.43248 -8.92056,2.72808 -8.43826,0.31801 -8.57809,0.27937 -8.57809,-2.37042 z m 51.28795,0.96612 c -5.01697,-3.51398 -4.137,-11.81887 1.61116,-15.20512 1.64828,-0.97105 5.3628,-2.1187 8.25438,-2.55031 5.55216,-0.82875 6.56301,-2.39046 3.51833,-5.43521 -1.98296,-1.98288 -4.99408,-2.19325 -10.16521,-0.71021 -3.28059,0.9409 -3.6473,0.79411 -4.27626,-1.71182 -0.9141,-3.64227 -0.3491,-4.03027 6.72247,-4.61669 14.24268,-1.18113 17.2062,1.60782 17.2062,16.19295 0,8.45266 0.10627,8.81641 2.76713,9.48427 1.72868,0.43389 2.76714,1.47837 2.76714,2.78326 0,1.66452 -1.11366,2.24192 -5.48321,2.84289 -5.93732,0.81658 -7.79901,0.25503 -7.79901,-2.35235 0,-1.33926 -0.58501,-1.21516 -2.91639,0.61875 -3.41119,2.6832 -8.89459,2.9795 -12.20673,0.65959 z m 11.58373,-5.83679 c 1.23215,-1.06534 2.56595,-3.05767 2.96439,-4.4274 0.63059,-2.16876 0.31746,-2.49043 -2.42467,-2.49043 -3.63855,0 -8.06887,2.73906 -8.06887,4.9886 0,1.3952 2.81311,3.74844 4.5815,3.83256 0.38921,0.0186 1.7156,-0.83799 2.94765,-1.90333 z m 22.56457,5.21442 c -1.66818,-1.55415 -2.42236,-3.5618 -2.42236,-6.44816 0,-5.6228 3.37417,-8.64499 11.46631,-10.27013 5.39415,-1.0833 6.30403,-1.61054 6.02205,-3.48952 -0.55096,-3.67062 -3.41975,-4.6981 -9.58875,-3.43436 -5.31905,1.0896 -5.52543,1.0378 -6.01225,-1.50876 -0.64954,-3.39766 2.52575,-4.69093 11.51719,-4.69093 5.55216,0 7.05733,0.43801 9.33621,2.71682 2.4791,2.47919 2.71674,3.582 2.71674,12.6088 0,9.62835 0.074,9.91049 2.76714,10.58647 4.49552,1.12829 3.60536,4.65156 -1.38352,5.47616 -6.77989,1.12064 -8.02473,0.88997 -8.02473,-1.48699 0,-2.19117 -0.0106,-2.19119 -3.59728,-0.004 -4.63536,2.82628 -9.72744,2.8043 -12.79675,-0.0552 z m 12.37071,-5.57147 c 3.86637,-3.04119 3.90734,-6.56078 0.076,-6.56078 -4.27664,0 -7.12187,1.96854 -7.12187,4.92754 0,2.30686 1.10674,3.53942 3.44794,3.83989 0.37458,0.0481 1.99334,-0.94493 3.59728,-2.20665 z M 26.548208,205.08674 c -4.422243,-0.58943 -5.375878,-1.25508 -8.503752,-5.93513 -3.963508,-5.93067 -7.466066,-14.64932 -8.5830951,-21.3658 l -0.7485011,-4.50003 8.0876202,0.80345 c 11.418223,1.13432 42.735822,2.06396 70.347845,2.08823 l 23.520505,0.0207 v 14.94249 14.94248 l -39.569856,-0.16624 c -21.763463,-0.0915 -41.811327,-0.46499 -44.550766,-0.83013 z m 6.646686,-13.66495 c 1.518833,-3.80235 2.927549,-7.28893 3.130471,-7.74795 0.202921,-0.45902 -0.917763,-0.83458 -2.490355,-0.83458 -2.669426,0 -3.961488,1.57066 -1.972762,2.39817 0.487685,0.20292 0.03558,2.61032 -1.003547,5.34978 l -1.890246,4.98082 -1.34486,-3.32055 c -0.739749,-1.8263 -1.367267,-4.69028 -1.394579,-6.36439 -0.04039,-2.43668 -0.56491,-3.04383 -2.632496,-3.04383 -3.10489,0 -3.076423,-0.33105 -0.440657,5.12424 1.178002,2.43826 2.477179,5.76936 2.887061,7.40244 1.298024,5.17184 4.13575,3.60689 7.15197,-3.94415 z m 10.228295,5.52981 c -0.607994,-0.76096 -0.759176,-2.33432 -0.336022,-3.49636 0.694453,-1.90667 1.012395,-1.7717 3.259148,1.38357 2.379662,3.34198 5.659488,4.72674 5.659488,2.38951 0,-0.60877 -0.480568,-1.10686 -1.067982,-1.10686 -2.187128,0 -3.481016,-4.26277 -2.009307,-6.61944 2.109228,-3.3774 -0.098,-6.03933 -5.336832,-6.43617 l -4.314725,-0.32683 v 7.79807 c 0,7.46824 0.111078,7.79807 2.625957,7.79807 1.952469,0 2.342444,-0.35481 1.520275,-1.38356 z m -0.688586,-9.17341 c -0.37853,-0.9864 0.06828,-1.97909 1.062885,-2.36069 2.066817,-0.79313 4.328573,1.17439 3.287038,2.85957 -1.086158,1.75739 -3.594497,1.46971 -4.349923,-0.49888 z m 21.999949,9.45013 c 1.205987,-1.9514 -0.732441,-3.86255 -2.105959,-2.07629 -1.690979,2.19907 -4.427629,1.92357 -4.892906,-0.49258 -0.251584,-1.30611 0.424789,-2.22804 1.921694,-2.61951 2.943226,-0.76966 3.010546,-2.55959 0.09636,-2.55959 -1.475844,0 -2.213766,-0.7379 -2.213766,-2.21369 0,-1.4758 0.737922,-2.21371 2.213766,-2.21371 1.217528,0 2.213671,0.49809 2.213671,1.10686 0,0.60876 0.498071,1.10685 1.106835,1.10685 0.608764,0 1.106835,-0.99618 1.106835,-2.21371 0,-1.91853 -0.737922,-2.21369 -5.534176,-2.21369 -3.043917,0 -5.534272,0.49808 -5.534272,1.10684 0,0.60877 0.498071,1.10685 1.106835,1.10685 1.570285,0 1.378615,10.35406 -0.221386,11.95399 -1.033072,1.03306 -0.06347,1.32822 4.36204,1.32822 3.129702,0 5.998203,-0.49808 6.374425,-1.10684 z m 15.395193,-0.99561 c 1.046536,-1.15635 1.949007,-3.72834 2.00546,-5.71554 0.136756,-4.80958 -3.411772,-7.67791 -9.498548,-7.67791 h -4.5816 v 7.74795 7.74795 h 5.086018 c 3.590651,0 5.645446,-0.61816 6.98867,-2.10245 z m -8.20062,-4.53866 c 0,-2.43506 -0.124542,-4.80096 -0.276781,-5.25754 -0.152143,-0.45657 1.088755,-0.98733 2.757807,-1.17946 2.362351,-0.27197 3.321083,0.27959 4.328285,2.49041 1.83437,4.02588 -0.252258,8.374 -4.018517,8.374 -2.518149,0 -2.790794,-0.43269 -2.790794,-4.42741 z m 23.243827,4.42741 c 0,-2.64822 -0.7008,-2.77791 -2.935435,-0.54325 -2.008057,2.00803 -3.705672,1.21282 -3.705672,-1.73578 0,-1.41046 0.76033,-2.14838 2.21367,-2.14838 1.217529,0 2.213767,-0.49808 2.213767,-1.10684 0,-0.60877 -0.996238,-1.10686 -2.213767,-1.10686 -1.475748,0 -2.21367,-0.7379 -2.21367,-2.21369 0,-1.4758 0.737922,-2.21371 2.21367,-2.21371 1.217529,0 2.213767,0.49809 2.213767,1.10686 0,0.60876 0.498071,1.10685 1.106835,1.10685 0.608764,0 1.106835,-0.99618 1.106835,-2.21371 0,-1.90301 -0.737922,-2.21369 -5.257587,-2.21369 h -5.257491 v 7.74795 7.74795 h 5.257491 c 4.519665,0 5.257587,-0.31068 5.257587,-2.2137 z m 92.975498,-4.83987 v -15.08344 l 27.94795,-0.0665 c 15.37144,-0.0366 36.66376,-0.46067 47.31617,-0.94234 17.13109,-0.7746 19.52056,-0.67103 20.68712,0.89671 1.91515,2.57349 5.66804,15.24323 6.46742,21.83444 l 0.6883,5.67288 -3.68221,0.72781 c -2.02517,0.40029 -25.22419,1.02393 -51.55348,1.38588 l -47.87127,0.65809 V 191.28168 Z M 209.4,197.00694 c -1.59366,-1.5937 -1.7685,-5.31289 -0.24986,-5.31289 0.59319,0 1.8512,1.49426 2.79561,3.32056 0.9443,1.8263 2.4514,3.32055 3.34897,3.32055 2.16645,0 2.06306,-0.71289 -0.65724,-4.53325 -1.25897,-1.76808 -1.79061,-3.2147 -1.18146,-3.2147 1.79388,0 2.66192,-4.39478 1.21282,-6.1408 -1.51316,-1.82329 -11.0245,-2.25492 -11.0245,-0.50031 0,0.60877 0.49807,1.10685 1.10693,1.10685 1.57028,0 1.37852,10.35406 -0.22139,11.95399 -1.03307,1.03306 -0.49191,1.32822 2.43496,1.32822 2.92707,0 3.46823,-0.29516 2.43516,-1.32822 z m -1.32823,-9.74028 c 0,-1.4758 0.73793,-2.21371 2.21368,-2.21371 1.47584,0 2.21376,0.73791 2.21376,2.21371 0,1.47579 -0.73792,2.21369 -2.21376,2.21369 -1.47575,0 -2.21368,-0.7379 -2.21368,-2.21369 z m 22.137,8.8548 c 0,-1.21754 -0.49807,-2.2137 -1.10684,-2.2137 -0.60876,0 -1.10683,0.49808 -1.10683,1.10685 0,0.60877 -0.99615,1.10685 -2.21367,1.10685 -1.47575,0 -2.21377,-0.7379 -2.21377,-2.2137 0,-1.47579 0.73802,-2.21371 2.21377,-2.21371 1.21752,0 2.21367,-0.49808 2.21367,-1.10684 0,-0.60877 -0.99615,-1.10686 -2.21367,-1.10686 -1.47575,0 -2.21377,-0.7379 -2.21377,-2.21369 0,-1.4758 0.73802,-2.21371 2.21377,-2.21371 1.21752,0 2.21367,0.49809 2.21367,1.10686 0,0.60876 0.49807,1.10685 1.10683,1.10685 0.60877,0 1.10684,-0.99618 1.10684,-2.21371 0,-1.91853 -0.73793,-2.21369 -5.53418,-2.21369 -4.95955,0 -7.03012,1.15855 -4.67373,2.61493 1.03634,0.64048 0.83265,8.22933 -0.2938,10.94399 -0.70388,1.6968 -0.10291,1.93698 4.84905,1.93698 4.91473,0 5.65266,-0.28896 5.65266,-2.2137 z m 14.38914,1.75081 c 0,-0.25459 0.30217,-1.25077 0.67176,-2.21371 0.44094,-1.14889 0.0596,-1.7508 -1.10674,-1.7508 -0.97845,0 -1.77878,0.49808 -1.77878,1.10685 0,0.60877 -1.25581,1.10685 -2.79089,1.10685 -3.73289,0 -5.85395,-4.34574 -4.0517,-8.30138 0.92844,-2.03766 2.11817,-2.76713 4.51293,-2.76713 1.78869,0 3.47429,0.6226 3.74616,1.38356 0.27178,0.76097 0.87295,1.0315 1.33582,0.60117 1.92997,-1.79398 -0.57731,-4.19842 -4.37781,-4.19842 -4.9608,0 -8.33613,3.21399 -8.33613,7.93751 0,4.92655 2.75762,7.55839 7.91952,7.55839 2.34061,0 4.25586,-0.20831 4.25586,-0.46289 z m 8.85468,-0.64395 c 0,-0.60877 -0.45392,-1.10686 -1.00883,-1.10686 -0.55491,0 -0.88391,-0.87164 -0.73119,-1.93699 0.18436,-1.28599 1.45353,-2.05356 3.77607,-2.28382 2.79897,-0.27752 3.49823,0.0654 3.49823,1.71561 0,1.13436 -0.59761,2.66016 -1.32822,3.39068 -1.03298,1.03306 -0.49182,1.32822 2.43505,1.32822 2.92697,0 3.46823,-0.29516 2.43516,-1.32822 -1.60001,-1.59993 -1.79168,-11.95399 -0.22139,-11.95399 0.60876,0 1.10683,-0.49808 1.10683,-1.10685 0,-0.60876 -1.49431,-1.10684 -3.3206,-1.10684 -1.82629,0 -3.3205,0.49808 -3.3205,1.10684 0,0.60877 0.49807,1.10685 1.10693,1.10685 0.60867,0 1.10674,0.99617 1.10674,2.21371 0,1.74144 -0.73783,2.21369 -3.4589,2.21369 -3.2529,0 -3.41937,-0.19775 -2.79474,-3.32054 0.57857,-2.89357 0.34737,-3.32055 -1.79869,-3.32055 -2.31119,0 -2.46275,0.47673 -2.46275,7.74795 0,7.29701 0.14502,7.74795 2.49045,7.74795 1.36967,0 2.49035,-0.49808 2.49035,-1.10684 z m 20.13769,-5.53427 c -0.40372,-5.58192 -0.19436,-6.6411 1.31293,-6.6411 0.98634,0 1.79331,0.49809 1.79331,1.10686 0,0.60876 0.49807,1.10685 1.10693,1.10685 0.60867,0 1.10674,-0.99618 1.10674,-2.21371 0,-1.98665 -0.73783,-2.21369 -7.19448,-2.21369 -6.45665,0 -7.19447,0.22704 -7.19447,2.21369 0,1.21753 0.49807,2.21371 1.10673,2.21371 0.60877,0 1.10684,-0.49809 1.10684,-1.10685 0,-0.60877 0.80707,-1.10686 1.7934,-1.10686 1.50729,0 1.71675,1.05918 1.31293,6.6411 -0.44748,6.18652 -0.31919,6.64111 1.87457,6.64111 2.19377,0 2.32206,-0.45459 1.87457,-6.64111 z M 9.9671256,204.15337 c -2.7275135,-0.23988 -5.5513907,-0.92766 -6.2751757,-1.52839 -0.9030482,-0.74951 -1.2840788,-5.58809 -1.2141623,-15.41982 0.092324,-12.96734 0.289187,-14.32756 2.0743182,-14.32756 1.4175646,0 2.1684699,1.1678 2.6692337,4.15068 1.2016601,7.15831 2.8283975,11.64379 7.2255405,19.92332 3.446779,6.49034 3.900034,7.9877 2.370526,7.8313 -1.040189,-0.10638 -4.122767,-0.38965 -6.8502804,-0.62953 z M 292.25251,195.33082 c -0.74985,-4.73967 -2.48747,-11.43467 -3.86147,-14.87777 l -2.49824,-6.26021 3.28819,-0.65762 c 7.89028,-1.57804 7.53464,-2.29335 7.19333,14.47086 -0.36036,17.70539 -2.0145,20.64503 -4.12181,7.32474 z m -176.41832,-4.37467 c -0.40584,-0.40583 -0.73792,-5.13762 -0.73792,-10.51509 v -9.77717 H 90.192146 c -24.166207,0 -24.904129,-0.0657 -24.904129,-2.21371 0,-2.63932 0.570488,-2.65287 30.962438,-0.73614 l 20.447265,1.28957 4.614,10.51509 c 2.53768,5.78329 4.38926,10.88864 4.11469,11.34521 -0.6178,1.02761 -8.5803,1.10417 -9.59222,0.0922 z m 35.41998,-0.36894 -23.0587,-0.55343 -4.43176,-10.51508 c -2.43756,-5.7833 -5.15911,-11.08513 -6.04802,-11.78183 -0.97095,-0.76102 -9.33592,-1.58836 -20.952546,-2.07231 -10.635004,-0.44306 -19.561718,-1.17013 -19.837056,-1.61571 -0.641366,-1.03765 12.572471,-2.09205 37.063352,-2.95748 17.90757,-0.63278 19.98333,-0.50038 27.49584,1.75395 l 8.126,2.43838 7.92336,-2.43268 c 7.38133,-2.26631 9.3239,-2.38491 28.40014,-1.73402 20.74751,0.70795 36.87515,1.81879 36.2005,2.49343 -0.2033,0.20333 -7.31094,1.36673 -15.79478,2.58531 -8.48365,1.21858 -17.04367,2.49594 -19.0222,2.83859 l -3.59728,0.62302 v 10.94897 10.94899 l -4.70403,-0.20734 c -2.5873,-0.11405 -15.08062,-0.45638 -27.76282,-0.76076 z m -4.70499,-8.45981 c 0.38382,-1.00028 0.36892,-2.12097 -0.0337,-2.49042 -0.40199,-0.36944 -0.95325,-0.0491 -1.22503,0.71185 -0.83322,2.33301 -4.73711,1.6489 -4.73711,-0.83013 0,-1.53257 0.73783,-2.21371 2.39813,-2.21371 1.31899,0 2.0247,-0.37355 1.56807,-0.83014 -0.45662,-0.45657 -1.40438,-0.83013 -2.10634,-0.83013 -0.70186,0 -1.44401,-0.87165 -1.64914,-1.93699 -0.43835,-2.2762 3.69432,-2.77444 4.59054,-0.55343 0.30698,0.76096 0.59751,0.26288 0.6456,-1.10685 0.076,-2.15545 -0.47086,-2.49041 -4.06334,-2.49041 h -4.15065 v 7.19453 7.19453 h 4.03227 c 2.71934,0 4.25952,-0.59219 4.73018,-1.8187 z m 6.31721,-0.46073 c -0.9144,-3.50297 -1.00326,-6.57538 -0.19023,-6.57538 0.47239,0 2.25262,2.01116 3.956,4.46925 1.70349,2.45808 3.45832,4.07685 3.89956,3.59726 0.44133,-0.47958 1.02412,-3.73595 1.29514,-7.23637 0.42536,-5.49454 0.22984,-6.36439 -1.43007,-6.36439 -1.60885,0 -1.83447,0.76782 -1.38237,4.70411 l 0.54029,4.70412 -4.05794,-4.70412 c -3.80502,-4.41081 -7.19496,-6.1057 -7.19496,-3.59726 0,0.60876 0.49807,1.10684 1.10683,1.10684 0.60877,0 1.10684,2.24138 1.10684,4.98084 0,2.7677 -0.52086,4.98082 -1.17214,4.98082 -0.64473,0 -0.84736,0.52567 -0.45017,1.16815 1.05249,1.70307 4.4634,0.64384 3.97322,-1.23387 z M 28.761879,168.94864 c 0,-0.94338 -0.84525,-3.30927 -1.878418,-5.25755 -1.27927,-2.41252 -1.798499,-5.66036 -1.627795,-10.1834 0.247161,-6.55123 -0.965271,-15.87099 -2.555751,-19.6466 -0.63223,-1.50078 -0.274377,-1.93698 1.588845,-1.93698 2.70626,0 6.826237,-1.92509 8.053479,-3.76297 0.447293,-0.66984 0.841018,-3.95733 0.875062,-7.30555 l 0.06251,-6.08768 3.275593,3.83218 c 4.159023,4.86577 4.575637,12.47943 0.936228,17.10636 -5.390785,6.8532 -6.816524,19.01878 -3.170671,27.05363 3.103928,6.84028 2.877156,7.90381 -1.684536,7.90381 -2.760885,0 -3.873971,-0.49287 -3.873971,-1.71525 z m 9.961709,0.17584 c 0,-0.84667 -0.985275,-3.71064 -2.189435,-6.3644 -3.128067,-6.89363 -2.896679,-14.69044 0.646944,-21.8016 2.394568,-4.80538 3.157303,-5.56323 4.487832,-4.45904 3.356282,2.78551 3.677782,4.95492 1.390925,9.38557 -3.780396,7.32445 -0.605686,17.03092 5.570529,17.03092 3.012469,0 7.80276,4.16877 7.80276,6.79038 0,0.52667 -3.984664,0.95758 -8.854777,0.95758 -6.824026,0 -8.854778,-0.35305 -8.854778,-1.53941 z m 171.008492,-1.26975 c 23.76603,-3.4527 24.90412,-3.45078 24.90412,0.0421 v 2.76712 l -21.30693,-0.11819 -21.30685,-0.11818 17.70966,-2.57281 z m 33.7589,1.14888 c 0,-2.5607 4.12171,-6.08768 7.11418,-6.08768 6.26055,0 9.29447,-10.0788 5.45666,-18.12682 -1.7307,-3.6293 -1.71099,-3.94928 0.41084,-6.64666 2.07971,-2.64387 2.33562,-2.70612 3.8179,-0.92881 4.60661,5.52319 6.23325,15.4809 3.65788,22.39328 -1.01817,2.7331 -2.10952,6.33902 -2.42525,8.01313 -0.56827,3.01473 -0.65723,3.04384 -9.30303,3.04384 -7.02146,0 -8.72918,-0.32483 -8.72918,-1.66028 z m 19.92332,-1.04152 c 0,-1.48599 0.46451,-2.98894 1.03231,-3.33986 0.56789,-0.35093 1.58346,-3.29191 2.25685,-6.53551 1.49604,-7.20659 0.0692,-14.84852 -3.89638,-20.88134 -3.7577,-5.71535 -3.7352,-13.42762 0.0539,-18.56349 l 2.76704,-3.75063 v 5.74929 c 0,6.59251 2.31927,9.8104 7.87085,10.92072 2.83244,0.56648 3.25136,1.04976 2.60913,3.00926 -0.42104,1.28392 -1.01807,7.81332 -1.32687,14.50976 -0.35661,7.73428 -1.11905,12.97174 -2.09009,14.35863 -0.84073,1.2008 -1.52874,3.31764 -1.52874,4.70413 0,2.14306 -0.58049,2.52084 -3.87397,2.52084 -3.36937,0 -3.87398,-0.35192 -3.87398,-2.7018 z M 140.46847,157.44918 c -12.24886,-3.96796 -20.027,-8.03073 -26.11051,-13.63826 -6.88644,-6.34771 -8.33362,-9.71394 -8.96931,-20.8624 -0.45768,-8.02601 -0.84131,-9.55988 -2.33773,-9.34564 -1.03721,0.14848 -1.94026,1.52262 -2.14683,3.2667 -0.19619,1.65572 -0.913053,2.82491 -1.593176,2.59821 -0.680123,-0.2267 -6.12034,-7.55525 -12.089403,-16.28563 -8.433547,-12.334998 -10.577205,-16.205497 -9.616454,-17.363063 2.113941,-2.547259 3.537468,-1.741498 12.033623,6.811783 4.535341,4.565759 8.881129,8.30139 9.657231,8.30139 0.802839,0 1.411309,1.31679 1.411309,3.0543 0,1.85558 0.86882,3.59689 2.21367,4.43679 2.19425,1.37029 2.21377,1.10541 2.21377,-30.043063 V 46.954756 l 2.49035,-0.66136 c 7.34739,-1.951181 42.69053,-3.019403 62.11838,-1.877465 11.28723,0.663428 21.29116,1.501272 22.23076,1.861866 1.48565,0.570055 1.70848,4.82876 1.70848,32.635876 v 31.980257 l 2.21377,-2.2137 c 1.21752,-1.21754 2.21376,-3.45891 2.21376,-4.98083 0,-1.88396 0.6104,-2.76713 1.91246,-2.76713 1.05183,0 5.72133,-3.786501 10.3766,-8.414449 7.61186,-7.567227 8.70176,-8.287213 10.82513,-7.150854 2.27955,1.220029 2.02681,1.749096 -7.33277,15.346613 -13.67007,19.85972 -13.42686,19.545 -14.37241,18.59942 -0.86083,-0.86081 -1.01653,-1.42782 -1.27071,-4.62625 -0.0817,-1.02805 -0.9319,-1.59029 -2.07538,-1.37246 -1.62578,0.30971 -2.02768,1.99919 -2.50209,10.51761 -0.50134,9.00079 -0.94219,10.68958 -3.8983,14.93139 -5.64035,8.09365 -17.60858,15.07362 -34.3618,20.04005 -5.41377,1.60491 -5.96118,1.55528 -14.94242,-1.35416 z m 16.41143,-9.35673 c 3.76549,-1.2709 4.81914,-2.88614 1.88246,-2.88614 -1.47094,0 -1.68954,-2.08423 -1.53749,-14.66577 0.1355,-11.23424 -0.15291,-14.66578 -1.23311,-14.66578 -1.08424,0 -1.35034,3.38923 -1.15213,14.66578 l 0.25783,14.66577 h -3.8858 c -2.1374,0 -4.19393,0.49808 -4.57015,1.10686 -0.39103,0.63277 0.58712,1.10684 2.28387,1.10684 2.64692,0 2.80368,0.20203 1.44902,1.86751 -1.35304,1.66329 -1.27716,1.76645 0.69454,0.94328 1.21753,-0.50834 3.83253,-1.4706 5.81096,-2.13835 z m 25.49481,-34.39802 c -0.93767,-14.611251 -9.15935,-27.112271 -21.11728,-32.108581 -2.39659,-1.001402 -7.40827,-1.683747 -12.36657,-1.683747 -4.58535,0 -8.33709,-0.410844 -8.33709,-0.912992 0,-0.50213 1.24523,-4.574031 2.76723,-9.048669 1.52191,-4.474628 2.76714,-9.26542 2.76714,-10.646199 0,-4.933442 -6.81633,-6.97938 -10.09424,-3.029808 -1.04682,1.261469 -0.74148,2.187309 1.51211,4.584513 l 2.82387,3.003814 -3.72865,8.301379 c -4.24,9.439615 -4.82511,16.138271 -1.85842,21.275769 2.65645,4.60009 21.37965,19.886641 23.40549,19.109291 0.87959,-0.33751 4.24731,0.6819 7.48386,2.26537 3.23636,1.58349 6.38029,2.57264 6.98627,2.19813 0.60597,-0.37452 2.96948,0.58821 5.25229,2.1394 2.28273,1.55118 4.34945,2.82035 4.59247,2.82035 0.24322,0 0.2034,-3.72061 -0.0885,-8.26802 z m -5.32221,1.00142 c -0.59367,-1.56154 -1.07943,-3.53545 -1.07943,-4.38642 0,-2.79201 -4.37704,-12.725371 -8.33083,-18.906167 -4.42109,-6.911233 -2.27522,-6.747232 3.91147,0.298949 4.76471,5.426757 7.77112,12.409638 8.53674,19.828228 0.67397,6.52952 -1.06856,8.34515 -3.03795,3.16541 z m -8.95585,-1.09041 c -2.34658,-1.23179 -3.03863,-2.59823 -3.6499,-7.20563 -0.41478,-3.12709 -1.54008,-7.649531 -2.50045,-10.049891 -1.99411,-4.983874 -1.79157,-5.545813 1.67309,-4.639802 1.44305,0.377405 3.46024,2.549412 4.79222,5.160392 2.96688,5.815501 6.62245,16.438251 5.90414,17.156621 -0.30601,0.30598 -0.55644,0.16326 -0.55644,-0.31712 0,-0.48039 -0.62252,-0.35842 -1.38343,0.27102 -0.96758,0.80027 -2.25454,0.68732 -4.27923,-0.37559 z m -12.17942,-7.6259 c -4.94196,-3.62686 -9.82909,-11.263281 -9.82909,-15.35839 0,-2.388836 0.64281,-2.345386 4.34934,0.293919 1.71628,1.222106 3.99727,1.905432 5.25894,1.575478 1.68069,-0.439474 2.54796,0.189361 3.52948,2.558822 1.5649,3.77786 3.40658,14.748941 2.46959,14.710281 -0.36574,-0.015 -2.96593,-1.71615 -5.77826,-3.78011 z m -12.19019,-7.636901 c -3.58248,-2.93928 -4.79395,-6.557384 -3.19558,-9.543925 1.66116,-3.103899 3.34291,-2.828628 3.34291,0.547167 0,1.541471 0.7537,4.60645 1.67482,6.811058 0.92123,2.2046 1.54375,4.136291 1.38362,4.292641 -0.16022,0.15634 -1.60279,-0.791781 -3.20577,-2.106941 z m -3.38071,-40.226803 c 0.79899,-0.31974 1.75359,-0.280425 2.12144,0.08732 0.36776,0.367797 -0.28601,0.629393 -1.45276,0.581336 -1.28947,-0.05309 -1.55163,-0.315384 -0.66868,-0.668717 z m 11.52882,56.045014 c -0.39075,-3.35007 -1.24686,-4.13342 -2.42833,-2.22185 -0.75936,1.2288 -3.40667,0.32917 -13.29212,-4.51707 -6.78911,-3.32831 -12.59064,-5.65199 -12.89243,-5.16372 -0.30178,0.48826 -1.51547,0.88776 -2.69712,0.88776 -1.18156,0 -2.14828,0.20831 -2.14828,0.4629 0,0.2546 -0.32236,1.37529 -0.71638,2.49041 -0.58616,1.65887 -0.44517,1.77596 0.77476,0.64396 1.99911,-1.85485 3.85608,-1.77263 2.30042,0.10183 -0.67801,0.81697 -0.92623,1.79196 -0.55155,2.16662 0.37469,0.37469 1.58327,-0.41826 2.68578,-1.7621 1.99728,-2.43464 2.01094,-2.43544 3.80607,-0.22965 1.16396,1.43017 1.99373,1.75921 2.34456,0.92962 0.57145,-1.35147 19.43833,6.77877 20.18212,8.69699 0.78524,2.02553 2.92332,0.007 2.6325,-2.48571 z M 121.57764,72.309774 c -1.03394,-1.655685 -0.87343,-2.622744 0.82082,-4.94605 1.85216,-2.539893 2.89379,-2.892168 8.64195,-2.922761 l 6.53599,-0.03481 -2.07383,-2.291492 c -1.6151,-1.784708 -2.87697,-2.140801 -5.70575,-1.610118 -5.18103,0.971935 -11.66317,-0.405266 -10.92775,-2.3217 0.33333,-0.868446 -0.11454,-1.524651 -1.04038,-1.524651 -0.89401,0 -1.62558,0.996171 -1.62558,2.213709 0,1.229828 0.73792,2.213699 1.6603,2.213699 2.29936,0 2.08951,1.939188 -0.27669,2.557569 -1.19175,0.311432 -0.76591,0.555591 1.10684,0.634586 3.53218,0.148998 3.62623,0.424327 1.33793,3.916652 -1.54345,2.355552 -1.53585,2.773503 0.0789,4.388449 2.38294,2.382971 3.04854,2.259064 1.46719,-0.273116 z M 78.570232,156.38082 c 0,-1.31144 -3.805401,-7.80642 -8.456436,-14.43331 -7.278339,-10.37059 -8.974223,-12.14606 -12.175284,-12.74658 -3.493133,-0.65531 -4.511298,-1.64988 -3.116718,-3.04447 0.33131,-0.3313 2.946207,0.0577 5.810957,0.86448 2.864846,0.80676 7.291032,2.00087 9.836109,2.6536 4.516107,1.15818 4.790291,1.50603 11.387929,14.44695 4.57631,8.9761 6.25498,13.26018 5.195846,13.26018 -0.860637,0 -3.121143,0.31131 -5.023603,0.69178 -3.017566,0.60354 -3.4588,0.38759 -3.4588,-1.69263 z m 135.865868,1.31492 c -1.67405,-0.25361 -3.04372,-0.67937 -3.04372,-0.94615 0,-0.91183 10.93034,-22.05368 12.49168,-24.16209 2.12077,-2.86359 20.71385,-7.79757 20.71385,-5.49676 0,0.86576 -1.52604,1.87337 -3.40715,2.24957 -2.79714,0.55944 -4.92715,2.85711 -11.8986,12.83508 -4.67037,6.68451 -8.37296,13.08954 -8.22793,14.23339 0.27014,2.13098 -0.31121,2.24387 -6.62813,1.28696 z M 84.661624,145.21367 c -3.424851,-6.82886 -6.00628,-12.6369 -5.736328,-12.90671 0.269761,-0.26982 1.726756,-0.18033 3.237702,0.19891 1.997574,0.50134 3.103928,1.88021 4.054485,5.05303 1.871589,6.24686 7.296996,12.07482 11.240691,12.07482 2.923606,0 7.676486,3.55576 7.676486,5.74296 0,0.49398 -1.68107,0.89815 -3.73568,0.89815 -2.054599,0 -5.259987,0.30486 -7.123017,0.67749 -3.363302,0.67265 -3.431968,0.58879 -9.614339,-11.73865 z M 200.04705,156.5681 c -3.34137,-0.26347 -5.25749,-0.93506 -5.25749,-1.84264 0,-2.46143 3.901,-5.09174 7.55146,-5.09174 2.8486,0 4.14008,-0.87887 6.91251,-4.70412 1.87514,-2.58726 3.69163,-6.11281 4.03659,-7.83453 0.56645,-2.82658 3.75049,-5.17096 7.02301,-5.17096 0.56577,0 -1.82245,5.72795 -5.30741,12.72877 -4.2123,8.46245 -6.9,12.66192 -8.01856,12.52928 -0.92527,-0.10969 -4.04843,-0.38606 -6.94011,-0.61406 z M 46.606074,139.29311 c -3.946196,-5.1151 -4.561981,-6.6592 -4.561981,-11.4403 0,-4.67962 -0.622324,-6.32591 -4.059004,-10.73698 -2.916971,-3.74404 -4.551883,-4.99045 -5.810957,-4.42991 -3.563627,1.58654 -10.341586,1.7484 -13.027169,0.3111 -3.332143,-1.78329 -5.89001,-6.42527 -5.855485,-10.62622 0.02116,-2.647391 1.835621,-4.452471 12.452065,-12.39143 l 12.426579,-9.292616 -6.194199,6.52548 C 18.664568,101.23562 18.257187,101.8781 20.575876,105.18854 c 2.39553,3.41999 6.42905,2.95497 11.22665,-1.29427 3.680186,-3.25953 5.30423,-3.82755 14.241042,-4.980831 5.547929,-0.71594 10.638178,-1.30172 11.311762,-1.30172 0.673679,0 0.02789,1.76374 -1.434972,3.919451 -3.335412,4.91496 -4.172679,11.57287 -3.717885,29.56481 0.196093,7.7629 0.04424,14.11345 -0.338812,14.11234 -0.382569,-8.3e-4 -2.748382,-2.66295 -5.257587,-5.91521 z M 246.84601,126.38984 c -0.0587,-18.42615 -0.19224,-19.59909 -2.75078,-24.074 -3.15615,-5.520281 -3.67278,-5.367361 10.78618,-3.193241 8.40095,1.263191 10.22262,1.940331 13.33492,4.956911 3.74443,3.62924 8.10685,4.53135 10.47247,2.16564 2.88014,-2.87996 1.22167,-6.02124 -8.04597,-15.240719 -5.15584,-5.129064 -9.18782,-9.511964 -8.95999,-9.739803 0.22783,-0.22782 5.9405,3.898225 12.6948,9.168998 8.91046,6.953313 12.27943,10.240394 12.27645,11.977914 -0.0106,3.18919 -3.71759,9.13366 -6.70044,10.73002 -2.31706,1.2401 -8.08676,1.00193 -12.68528,-0.52365 -1.78283,-0.59144 -2.95592,0.28353 -5.81096,4.3341 -2.91986,4.14241 -3.57959,6.13717 -3.5895,10.85376 -0.0106,5.36021 -0.40872,6.21939 -5.48628,11.86629 l -5.47426,6.08768 -0.0606,-19.3699 z M 75.24963,128.6284 c -21.913298,-5.73412 -21.030157,-5.38658 -21.030157,-8.27588 0,-2.5991 7.135716,-9.45859 9.839379,-9.45859 0.939978,0 18.428628,13.85682 23.739302,18.80936 2.245696,2.09421 -1.743489,1.7525 -12.548524,-1.07489 z m 136.68265,2.16702 c -0.57433,-0.92906 21.7022,-19.90149 23.36741,-19.90149 0.48278,0 2.79762,1.33041 5.14391,2.95648 3.56401,2.46985 4.21144,3.50192 3.9335,6.27042 -0.32996,3.28616 -0.46489,3.34874 -16.10099,7.45984 -8.67263,2.28022 -16.02733,3.72685 -16.34383,3.21475 z M 91.011044,115.59805 C 89.804479,114.5327 84.68182,108.53572 79.627058,102.27142 71.343057,92.004949 70.605231,90.713302 72.145029,89.173455 c 1.539798,-1.539846 2.629996,-0.362075 11.055081,11.943065 10.530466,15.38027 11.194528,16.41852 10.500556,16.41852 -0.272934,0 -1.483249,-0.87165 -2.689622,-1.93699 z M 214.84223,102.96551 c 5.56341,-8.119121 10.21233,-14.881406 10.3312,-15.027307 0.11887,-0.145892 1.14059,0.410651 2.27032,1.236801 1.91708,1.401802 1.32072,2.37494 -8.93566,14.580266 -6.04437,7.19302 -11.61778,13.27938 -12.38542,13.52524 -0.76764,0.24585 3.15625,-6.19589 8.71956,-14.315 z m -159.776738,9.23631 c -0.692337,-3.27078 1.643471,-8.97954 5.533502,-13.524211 5.7471,-6.714235 7.500398,-7.301514 10.755026,-3.60243 1.495368,1.69948 2.734534,3.61012 2.753769,4.24588 0.01923,0.63575 -4.168737,4.212811 -9.306687,7.949001 -7.41644,5.39309 -9.422765,6.40948 -9.73561,4.93176 z m 180.677548,-4.24333 c -4.56573,-3.33074 -8.99769,-6.45981 -9.8488,-6.95348 -1.24427,-0.72174 -0.94758,-1.684141 1.51489,-4.912571 1.68424,-2.208226 3.41927,-4.014977 3.8555,-4.014977 0.43623,0 3.08344,2.257917 5.8827,5.017597 5.09573,5.023791 7.92153,10.784691 7.25334,14.786461 -0.30852,1.84699 -1.46892,1.32118 -8.65763,-3.92303 z M 43.197187,92.581506 c 4.106417,-4.185999 5.398959,-4.903755 7.701684,-4.276776 1.522007,0.414364 5.506671,1.337551 8.854874,2.051507 5.973102,1.273654 6.035613,1.326808 3.320506,2.822434 -2.371584,1.306458 -18.315146,4.336838 -23.19757,4.409138 -0.912569,0.0136 0.530673,-2.16238 3.320506,-5.006303 z m 203.738173,3.327383 c -5.10631,-0.79698 -9.9998,-2.164529 -10.87419,-3.039004 -1.38207,-1.382039 -0.96402,-1.688258 3.19654,-2.341617 2.63269,-0.413421 6.38712,-1.323548 8.34315,-2.02254 3.41245,-1.219394 3.76963,-1.06073 8.819,3.917576 6.08149,5.995695 6.23556,5.939055 -9.4845,3.485585 z M 25.164592,85.344944 c 8.261593,-8.505993 9.542114,-11.515289 6.28537,-14.772013 -1.266287,-1.266268 -3.956102,-1.739345 -9.889581,-1.739345 -11.8242588,0 -17.1492623,2.655472 -17.1492623,8.552002 0,2.789496 -0.053856,2.81049 -2.2136704,0.856232 -2.55892528,-2.315804 -2.99044578,-8.492529 -0.7246505,-10.372985 0.8189945,-0.679691 3.0461289,-1.547213 4.94907,-1.927811 2.9886185,-0.597705 3.3066569,-0.978812 2.3337882,-2.796584 -1.6965574,-3.170074 -0.2687025,-4.324764 3.145474,-2.543692 1.663859,0.867956 5.764603,1.583941 9.112806,1.591096 9.193493,0.01962 14.149968,1.769234 16.656192,5.879537 3.758565,6.164107 3.037762,7.674968 -7.524729,15.771954 -5.326639,4.083414 -10.431987,7.950701 -11.345133,8.593991 -0.913147,0.643308 1.950834,-2.54827 6.364326,-7.092382 z m 183.460938,4.220659 c 1.33274,-2.10291 1.74676,-4.272197 1.3188,-6.90956 l -0.62387,-3.844292 3.52641,1.792786 c 1.93939,0.986034 3.64037,1.885034 3.77972,1.997766 0.13945,0.112741 -2.04075,2.415303 -4.8451,5.116783 -3.70606,3.570349 -4.56795,4.074642 -3.15596,1.846517 z m 61.20898,-5.01412 c -8.38547,-6.45868 -9.63627,-7.861819 -9.68503,-10.864507 -0.0721,-4.421677 3.49188,-8.938803 8.01934,-10.165775 1.95083,-0.528673 6.53532,-1.072329 10.188,-1.208104 3.65258,-0.135784 8.01078,-0.927418 9.68493,-1.759184 2.72809,-1.355438 3.04391,-1.31444 3.04391,0.395177 0,1.049133 -0.54596,2.453349 -1.213,3.120499 -0.87949,0.879428 0.0375,1.424296 3.33483,1.981378 6.74132,1.138918 8.86074,6.624364 4.55612,11.791521 l -2.17694,2.613041 -0.0365,-2.850911 c -0.0212,-1.579113 -1.2811,-4.019776 -2.82609,-5.471126 -2.39534,-2.250331 -4.17403,-2.686458 -12.5995,-3.089281 -8.86429,-0.423807 -10.03643,-0.243092 -12.15345,1.873869 -1.2885,1.288599 -2.34283,3.100388 -2.34283,4.026181 0,0.925803 3.49698,5.159502 7.77112,9.408234 4.27405,4.248732 7.38701,7.700338 6.91779,7.670227 -0.46931,-0.0301 -5.18642,-3.392154 -10.48247,-7.471239 z M 87.101586,86.778704 83.008248,82.5868 86.217483,80.691033 c 4.319437,-2.551539 4.531879,-2.447722 3.358974,1.641923 -0.758695,2.645316 -0.593184,4.18094 0.656177,6.08768 2.351868,3.589497 1.584133,3.186837 -3.131048,-1.641932 z m -30.363964,0.903519 c -3.961007,-0.941084 -9.159256,-4.013929 -9.159256,-5.414269 0,-0.497023 1.281963,-1.487779 2.848785,-2.201688 4.907524,-2.235991 10.994877,-7.747692 14.257295,-12.908945 1.726082,-2.730658 3.50352,-4.964842 3.950139,-4.964842 0.446524,0 3.16317,2.75222 6.03696,6.11606 2.873886,3.363822 6.727469,6.892932 8.563667,7.84245 l 3.33849,1.726429 -9.049236,5.439745 c -9.364197,5.629059 -12.603631,6.309317 -20.786844,4.36506 z M 222.07672,83.50161 c -7.91057,-4.67453 -8.50299,-5.261915 -6.64111,-6.58326 1.12434,-0.797933 5.21556,-4.562192 9.09155,-8.365035 4.51293,-4.428005 7.24006,-6.394467 7.58407,-5.468722 1.98709,5.348171 13.599,16.252022 19.37841,18.196894 2.62577,0.883602 -1.3211,4.058293 -7.22534,5.811639 -9.01164,2.676158 -12.55045,2.103324 -22.18758,-3.591516 z M 6.8039562,76.055924 C 7.3762715,72.880156 11.810344,71.082225 19.1159,71.063606 c 6.062348,-0.01548 6.340187,0.101499 5.218542,2.197389 -0.991141,1.852056 -2.317439,2.213699 -8.118875,2.213699 -4.043811,0 -7.5327126,0.57672 -8.3698836,1.383558 C 6.6848,77.977013 6.485437,77.823437 6.8039562,76.055924 Z m 42.0713748,-2.2624 c -0.178974,-2.657491 0.276589,-4.101667 1.434106,-4.545824 0.932958,-0.358026 1.696366,-1.593827 1.696366,-2.746238 0,-3.589045 3.982452,-6.522682 8.854777,-6.522682 5.373089,0 5.613518,1.351601 1.299274,7.30517 -3.087771,4.261147 -10.213197,10.404443 -12.067667,10.404443 -0.524999,0 -1.072599,-1.752683 -1.216856,-3.894869 z M 241.05496,71.087985 c -7.16716,-7.370095 -8.30766,-11.118582 -3.37494,-11.094097 5.75374,0.02856 7.89355,1.214528 9.17003,5.082441 0.68205,2.06649 1.69944,3.757257 2.26108,3.757257 0.56155,0 1.02096,1.992333 1.02096,4.427409 0,2.707558 -0.51634,4.427398 -1.32918,4.427398 -0.73119,0 -4.21779,-2.970173 -7.74795,-6.600408 z m 49.99858,5.450325 c -0.89554,-0.566334 -4.39252,-1.037352 -7.77121,-1.046671 -5.62785,-0.01548 -8.79948,-1.298274 -8.79948,-3.558866 0,-1.29611 10.17713,-1.081042 14.13506,0.298718 1.86842,0.65131 3.69769,1.967808 4.06535,2.925539 0.86525,2.255092 0.38959,2.658328 -1.62972,1.38128 z M 85.764709,74.997069 C 83.938416,74.173275 79.388938,70.332618 75.654896,66.462311 69.471852,60.053726 68.798846,58.881754 68.118338,53.337672 67.707398,49.98945 65.902071,42.85057 64.106361,37.473499 l -3.264919,-9.776483 2.499973,-2.033388 c 2.231558,-1.815059 2.697988,-1.855182 4.344825,-0.373654 1.413718,1.271769 2.366872,1.380385 4.078047,0.464642 3.138934,-1.679939 3.485343,-1.537038 3.485343,1.437963 0,1.448166 1.618755,5.32157 3.597287,8.607579 3.437642,5.709583 5.913956,13.704685 8.653299,27.938419 0.783699,4.07242 2.210304,7.481163 3.793572,9.06444 3.910324,3.910286 0.912665,5.0998 -5.529079,2.194052 z m 120.885171,0.900538 c -0.44652,-0.446648 0.24678,-1.939198 1.54095,-3.316765 1.61491,-1.719023 3.35292,-6.943844 5.54072,-16.65721 2.41024,-10.700776 4.14662,-15.706001 7.11918,-20.521825 2.16221,-3.503097 3.7826,-7.016849 3.60084,-7.808338 -0.38738,-1.686806 1.07192,-2.158093 3.90148,-1.260017 1.23637,0.392398 2.57777,-0.124475 3.46235,-1.334175 1.32505,-1.812299 1.59,-1.828687 3.21943,-0.199209 0.97653,0.976542 2.31369,1.954931 2.9715,2.174183 0.76582,0.255267 0.34776,2.377459 -1.16223,5.900194 -2.81272,6.561833 -5.48945,17.417368 -5.51205,22.355282 -0.0135,2.929887 -1.4694,5.014755 -8.30872,11.898647 -4.56083,4.590476 -8.91902,8.353119 -9.68502,8.361428 -0.76582,0.0087 -2.4014,0.286206 -3.63441,0.617526 -1.23301,0.331329 -2.6073,0.236956 -3.05402,-0.209721 z m -3.62565,-13.772871 c -3.00709,-3.053053 -5.34299,-5.781038 -5.19085,-6.062185 0.15224,-0.281138 0.27678,-3.499673 0.27678,-7.152277 0,-6.144152 -0.18647,-6.642377 -2.49045,-6.658053 -1.36977,-0.0087 -3.17692,-0.451716 -4.01582,-0.983111 -2.84581,-1.802519 -0.0269,-3.427352 5.94348,-3.427352 4.68565,0 6.08216,0.411056 6.58061,1.936986 0.34805,1.065347 2.37389,3.062257 4.50197,4.437583 2.12798,1.375326 3.86926,3.19932 3.86926,4.053331 0,2.018645 -3.16432,18.562922 -3.64172,19.040325 -0.20119,0.201162 -2.82609,-2.132194 -5.83326,-5.185247 z M 88.187552,56.93494 86.299998,47.249992 88.79949,45.603761 c 1.374768,-0.905423 3.820019,-3.022278 5.433965,-4.704121 2.436499,-2.53898 3.872048,-3.057882 8.459705,-3.057882 3.87964,0 5.71411,0.492349 6.15958,1.653185 0.47441,1.236493 -0.4722,1.830129 -3.75559,2.355167 l -4.38993,0.701993 v 7.935274 c 0,7.72691 -0.1103,8.04291 -4.197391,12.033902 -2.308495,2.254226 -4.700755,4.098608 -5.316059,4.098608 -0.615304,0 -1.968049,-4.358232 -3.006218,-9.684947 z M 46.946136,56.253605 c -0.07694,-3.718895 0.01827,-3.80368 3.597286,-3.222825 3.512848,0.570075 3.676051,0.441532 3.676051,-2.896226 0,-2.665407 -0.627421,-3.731292 -2.648365,-4.499681 -1.456514,-0.553793 -3.629311,-0.750367 -4.828182,-0.436849 -2.235213,0.584529 -4.203743,-2.150351 -2.976886,-4.135595 0.34237,-0.553831 0.09521,-1.006971 -0.549715,-1.006971 -2.121057,0 -1.220606,-1.623737 2.14837,-3.873972 1.822831,-1.217537 3.315601,-3.075865 3.317332,-4.129604 0,-1.186686 1.161749,-2.17373 3.046995,-2.593287 1.674149,-0.372567 3.862334,-0.896845 4.862804,-1.165048 1.411698,-0.378501 2.563734,1.570929 5.146894,8.709858 1.830428,5.058628 3.669319,11.928758 4.086414,15.266939 l 0.75831,6.069447 -5.351835,-0.01 c -2.943514,-0.0058 -7.344215,0.3848 -9.779272,0.866599 l -4.427341,0.876005 -0.07886,-3.819365 z M 56.986609,33.41435 c 0.387955,-0.627758 -0.542021,-1.106844 -2.14837,-1.106844 -1.557879,0 -2.832436,0.49808 -2.832436,1.106844 0,0.608774 0.966713,1.106855 2.148273,1.106855 1.181657,0 2.456215,-0.498081 2.832533,-1.106855 z M 245.15128,58.695903 c -2.43505,-0.583288 -6.10735,-0.875149 -8.1608,-0.648608 l -3.73328,0.411902 0.6581,-6.296814 c 0.36199,-3.463234 2.08182,-10.219006 3.82204,-15.012827 3.04959,-8.400724 3.28098,-8.701942 6.39578,-8.326643 4.10305,0.494368 7.1059,2.082723 7.1059,3.758671 0,0.716668 1.20435,2.317911 2.67635,3.558328 2.10923,1.777293 2.55527,2.993792 2.10461,5.739896 -0.51596,3.144762 -0.94065,3.474158 -4.35396,3.37741 -4.71383,-0.133611 -7.59513,2.462667 -6.51387,5.869554 0.66358,2.090792 1.35044,2.371074 4.54121,1.853278 3.4988,-0.567786 5.05332,0.534068 2.75636,1.953681 -0.55164,0.340918 -0.74254,1.615514 -0.42431,2.832456 0.64589,2.470188 -0.05,2.56432 -6.87413,0.929716 z m 1.66021,-25.281553 c 0,-0.608764 -0.99614,-1.106844 -2.21358,-1.106844 -1.21762,0 -2.21376,0.49808 -2.21376,1.106844 0,0.608774 0.99614,1.106855 2.21376,1.106855 1.21744,0 2.21358,-0.498081 2.21358,-1.106855 z M 35.666976,51.49355 c -0.767831,-0.309374 -1.92631,-1.552974 -2.57412,-2.76353 -1.078753,-2.015586 -0.974696,-2.092225 1.234935,-0.909645 1.609523,0.861377 4.954456,1.036139 10.045475,0.524874 9.027982,-0.906646 10.092309,0.596636 1.789074,2.527034 -6.136112,1.426615 -8.193985,1.548416 -10.495364,0.621267 z M 252.06907,50.786047 c -8.2387,-1.786334 -6.19141,-2.939879 4.74442,-2.673148 9.70888,0.236793 9.93228,0.300727 7.62533,2.180933 -2.60596,2.123914 -4.49716,2.199178 -12.36975,0.492215 z M 114.48453,32.777831 c -0.46076,-3.688437 -0.32949,-6.612891 0.32631,-7.268721 1.52037,-1.5204 38.75519,-2.543644 56.02909,-1.539712 l 14.23691,0.82741 -0.47009,6.499178 c -0.2586,3.574551 -0.6882,6.672805 -0.95469,6.885017 -0.26639,0.212202 -7.70659,0.01 -16.53386,-0.448553 -14.96781,-0.77816 -26.4547,-0.600416 -44.47094,0.688154 l -7.39154,0.528644 z m 8.43249,0.597589 c 3.9459,-2.111786 1.44987,-4.868844 -3.28656,-3.630244 -3.42293,0.895124 -2.93726,3.755142 0.7962,4.688648 0.19215,0.04809 1.31283,-0.428222 2.49036,-1.058404 z m 58.59033,-1.610667 c 0,-1.628881 -3.90514,-2.908777 -6.19449,-2.030243 -2.31109,0.886853 -1.88188,2.522246 0.9369,3.570061 2.95621,1.098872 5.25759,0.424856 5.25759,-1.539818 z M 138.21296,31.30267 c 1.23013,-0.779074 1.08193,-1.212355 -0.74994,-2.192782 -2.31254,-1.237619 -5.76393,-0.632788 -5.76393,1.010106 0,1.883341 4.20259,2.646402 6.51387,1.182676 z m 15.06965,-1.208873 c 0,-2.036071 -5.82788,-2.916211 -7.59676,-1.147295 -0.91478,0.914743 -0.80697,1.520016 0.41142,2.310255 2.41333,1.565111 7.18534,0.79274 7.18534,-1.16296 z m 12.72885,1.089909 c 1.47565,-0.96881 1.47565,-1.211008 0,-2.179809 -0.91315,-0.599445 -1.90938,-1.08989 -2.21377,-1.08989 -0.30428,0 -1.30052,0.490445 -2.21367,1.08989 -1.47584,0.968801 -1.47584,1.210999 0,2.179809 0.91315,0.599445 1.90939,1.089899 2.21367,1.089899 0.30439,0 1.30062,-0.490454 2.21377,-1.089899 z m -55.12124,-9.059238 c -3.04998,-3.049995 -0.36237,-7.253825 3.65259,-5.713151 2.72376,1.04518 1.30994,7.041372 -1.66021,7.041372 -0.36526,0 -1.26186,-0.597695 -1.99238,-1.328221 z m 74.21441,0.533 c -1.95122,-0.699607 -1.7257,-5.784086 0.29073,-6.55788 1.9515,-0.748829 4.96676,1.421978 4.96676,3.575705 0,1.78768 -3.32656,3.674551 -5.25749,2.982175 z m -66.67612,-1.957816 c -1.94689,-2.345819 -0.55279,-4.994915 2.62846,-4.994915 3.08719,0 4.16296,1.870493 2.70568,4.704122 -1.21926,2.370554 -3.50467,2.495144 -5.33414,0.290793 z m 9.11983,0.850962 c -1.95113,-0.699608 -1.7257,-5.784077 0.29082,-6.557871 1.95141,-0.748838 4.96676,1.421969 4.96676,3.575705 0,1.78768 -3.32656,3.674551 -5.25758,2.982166 z m 40.95348,0 c -1.653,-0.592733 -1.85428,-5.424262 -0.26688,-6.405421 1.94102,-1.199544 5.52437,0.622479 5.52437,2.808884 0,2.29431 -3.0569,4.385555 -5.25749,3.596537 z m 6.90307,-1.465371 c -0.90718,-2.857913 0.66012,-4.738273 3.49448,-4.192443 1.34448,0.258941 2.05451,1.346735 2.05451,3.147657 0,3.704325 -4.43965,4.540246 -5.54899,1.044786 z m -40.33423,-0.444966 c -2.00921,-2.421044 -0.57683,-5.270907 2.43438,-4.84331 1.82514,0.259172 2.49536,1.093486 2.49536,3.106313 0,3.229489 -2.8559,4.235787 -4.92974,1.736997 z m 24.41616,0.07867 c -1.82572,-2.199744 -0.29871,-5.12112 2.67683,-5.12112 2.94765,0 3.98678,1.915145 2.55238,4.704112 -1.19425,2.322084 -3.49582,2.505627 -5.22921,0.417008 z m -17.05531,-1.079688 c -0.34025,-0.88691 0.0644,-2.532622 0.90065,-3.657134 1.20945,-1.627535 1.92775,-1.7942 3.52121,-0.81709 3.08845,1.893757 2.5471,5.350402 -0.90055,5.750206 -1.7683,0.205066 -3.14422,-0.293544 -3.52131,-1.275982 z m 8.51395,-0.08982 c -1.10203,-2.871914 0.44268,-5.245585 3.1624,-4.85938 1.82937,0.259768 2.49536,1.092909 2.49536,3.121469 0,2.02856 -0.66599,2.861702 -2.49536,3.12147 -1.49691,0.212538 -2.76233,-0.341129 -3.1624,-1.383559 z m -42.06022,-5.534262 c -1.10202,-2.871915 0.44258,-5.2455761 3.16221,-4.8593811 1.82937,0.259855 2.49536,1.093006 2.49536,3.1215661 0,2.02856 -0.66599,2.861701 -2.49536,3.121469 -1.49671,0.212539 -2.76223,-0.341129 -3.16221,-1.383568 z m 76.72718,0.89144 c -1.16262,-1.16273 -0.95075,-4.6096911 0.33217,-5.4026041 2.22877,-1.377404 5.66651,0.657908 5.31221,3.1450311 -0.33756,2.370016 -4.04784,3.854016 -5.64438,2.257573 z M 146.4884,10.723934 c -0.98296,-2.5615411 0.39969,-4.9808351 2.84658,-4.9808351 2.82108,0 4.90454,3.581216 3.12104,5.3646931 -1.80369,1.803741 -5.21229,1.58449 -5.96762,-0.383858 z"
     id="path825"
     inkscape:connector-curvature="0"
     sodipodi:nodetypes="cscscsccccscsccccccccscccsscscccccsccccsccccssccscccccscssccsssccccccccssccccsccccsssscscccssssccssccscscccccccsccsccccscscsccccsscccsssscscsccsccccsscccccccsscccsccccscccccsccccccsscccsscccccccccssssssssscscscscccssscccssscsssssssssscccssccccccccsccccssscscsscscsssssssssssssssssssccssscssscsccssssssccscscssssssscsssscssssssssscscsccscccscccccccscssscccccscccscscccscccccccscccsssscccscccscccscscscccssssccccccsccccccsccsccccsssscscccccsscccccssccccccsccccssccccccccccssscsccccsccsscccccccccccscsccscscscccsscscccccccccsccsccccccccccscccscccccccscsccccccccccssccccccccccccsccccssscsccccscsccssscscscsccccccccsssccsssccsccscsccccccsccsscccccccccccccccccccccssscscsccccccccsccccccccccccccccscccccccccccccccccssccccccccccccccccccccccsccccccscsccccccccccssccsccccsccccssccccsccccsscsccscsssccsscccccccccccscccccccccccccccccscccsccsccsccccccscccscscccssccscccccccccccccsssccccccsscsccccccssssscccccccsccccsccsccccccccsccsccscsccsccsccscccscccsccsccccscccscccscccsccscccccscccsccccsccccccccscc" />
</svg>
