<svg height='300px' width='300px'  fill="#000000" xmlns="http://www.w3.org/2000/svg" xmlns:xlink="http://www.w3.org/1999/xlink" version="1.1" x="0px" y="0px" viewBox="28.318 57.488 463.364 417.512" enable-background="new 28.318 57.488 463.364 417.512" xml:space="preserve"><g><path d="M484.1,387.897L313.385,87.969C302.521,68.883,282.563,57.488,260,57.488c-22.564,0-42.521,11.395-53.384,30.481   l-90.322,158.685c-0.494,0.546-0.847,1.181-1.058,1.858L35.9,387.897c-10.199,17.919-10.104,39.251,0.254,57.063   C47.091,463.771,66.953,475,89.284,475h341.432c22.331,0,42.193-11.229,53.13-30.039   C494.203,427.147,494.298,405.815,484.1,387.897z M215.306,92.916c9.063-15.922,25.771-25.428,44.694-25.428   c18.923,0,35.631,9.506,44.693,25.428l150.465,264.351c-7.549,5.124-36.607,24.063-73.387,38.011   c-38.832,14.728-94.511,26.753-139.234,0.414c-23.054-13.576-34.457-31.479-32.977-51.772   c1.973-27.036,25.915-52.457,47.923-61.415c7.113-2.895,20.366-6.586,29.201,1.239c1.626,1.439,3.996,1.667,5.864,0.559   c1.869-1.108,2.809-3.295,2.326-5.413c-0.503-2.207-12.822-54.243-56.213-69.963c-28.482-10.319-63.042-2.301-102.933,23.799   L215.306,92.916z M475.201,439.934C466.074,455.63,449.444,465,430.716,465H89.284c-18.729,0-35.359-9.37-44.485-25.065   c-8.547-14.699-8.625-32.303-0.208-47.09l79.491-139.657c44.519-33.69,81.902-45.433,111.118-34.881   c26.842,9.695,40.542,36.471,46.365,51.749c-8.016-2.059-17.533-1.013-27.851,3.187c-24.493,9.969-51.786,37.872-54.126,69.949   c-1.238,16.977,4.327,41.36,37.876,61.117c19.2,11.307,41.537,17.017,66.504,17.017c2.843,0,5.721-0.074,8.631-0.223   c22.502-1.146,47.039-6.716,72.929-16.554c37.049-14.078,65.766-32.574,74.598-38.557l15.284,26.853   C483.825,407.632,483.747,425.235,475.201,439.934z"></path><path d="M167.229,284.162c0.852,0.567,1.814,0.839,2.767,0.839c1.617,0,3.203-0.783,4.167-2.23   c20.292-30.479,44.124-27.984,45.19-27.854c2.724,0.359,5.229-1.556,5.602-4.282c0.374-2.736-1.542-5.257-4.278-5.63   c-1.247-0.17-30.879-3.764-54.838,32.225C164.308,279.527,164.931,282.632,167.229,284.162z"></path><path d="M170.333,324.989c2.746-0.184,4.829-2.552,4.657-5.301c-0.172-2.757-2.543-4.852-5.302-4.679   c-0.375,0.023-9.297,0.641-19.208,6.421c-9.085,5.301-20.863,16.115-25.373,37.539c-0.569,2.702,1.16,5.354,3.862,5.923   c0.348,0.073,0.694,0.108,1.035,0.108c2.314,0,4.392-1.616,4.888-3.971C141.968,327.425,169.153,325.074,170.333,324.989z"></path><path d="M119.688,385.01c-0.375,0.023-9.297,0.641-19.208,6.421c-9.085,5.301-20.863,16.115-25.373,37.539   c-0.569,2.702,1.16,5.354,3.862,5.923c0.348,0.073,0.694,0.108,1.035,0.108c2.314,0,4.392-1.616,4.888-3.971   c7.075-33.605,34.261-35.956,35.44-36.041c2.746-0.184,4.829-2.552,4.657-5.301C124.818,386.932,122.45,384.84,119.688,385.01z"></path><path d="M189.688,385.01c-0.375,0.023-9.297,0.641-19.208,6.421c-9.085,5.301-20.863,16.115-25.373,37.539   c-0.569,2.702,1.16,5.354,3.862,5.923c0.348,0.073,0.694,0.108,1.035,0.108c2.314,0,4.392-1.616,4.888-3.971   c7.075-33.605,34.261-35.956,35.44-36.041c2.746-0.184,4.829-2.552,4.657-5.301C194.818,386.932,192.454,384.84,189.688,385.01z"></path></g></svg>
