<svg height='300px' width='300px'  fill="#000000" xmlns="http://www.w3.org/2000/svg" xmlns:xlink="http://www.w3.org/1999/xlink" version="1.1" x="0px" y="0px" viewBox="0 0 48 48" enable-background="new 0 0 48 48" xml:space="preserve"><g><path fill="#000000" d="M40.4,8.6c-0.1-0.7-0.2-1.6-0.5-2.4c-0.7-1.7-2.3-2.7-3.4-3.3C31.7,0.3,26-0.2,21.2,1.6   c-1.8,0.7-3.6,1.7-5.7,3.2c-0.8,0.5-1.6,1.2-2.4,2c-2.6,2.8-3.5,6.7-4.1,9.8c-0.2,0.8,0.3,1.5,1.1,1.7c0.8,0.2,1.5-0.3,1.7-1.1   c0.6-2.9,1.4-6.2,3.4-8.5c0.6-0.6,1.3-1.2,2-1.7c1.9-1.4,3.5-2.3,5.1-2.8c4.1-1.5,8.9-1.1,12.9,1.1c1.2,0.7,1.9,1.3,2.2,2   c0.2,0.4,0.2,1,0.3,1.6c0.3,3.2,0.7,6.8-0.4,9.9c-0.7,1.9-1.9,3.5-3.2,5.2l-0.5,0.7c-0.6,0.8-1.1,1.5-1.5,2.4   c-0.4,0.8-0.6,1.7-0.7,2.5L31.1,30c-0.8,3.4-2,6.7-3.6,9.7c-0.6,1.2-1.2,2.1-2,2.8c-1.1,0.9-2.6,1.3-4,1.6c-2.1,0.5-4.2,1-5.7,0.1   c-0.8-0.4-1.4-1.3-2.1-2.1c-0.2-0.2-0.3-0.4-0.5-0.6c-0.9-1.1-2.3-2.6-4.3-2.9c-0.8-0.1-1.5,0.4-1.6,1.2s0.4,1.5,1.2,1.6   c0.8,0.1,1.6,0.7,2.5,1.8c0.1,0.2,0.3,0.4,0.4,0.6c0.8,1,1.6,2.1,2.9,2.8c1.1,0.6,2.3,0.9,3.5,0.9c1.4,0,2.9-0.3,4.3-0.7   c1.6-0.4,3.5-0.9,5.1-2.2c1.2-1,2-2.3,2.7-3.6c1.7-3.3,3-6.8,3.9-10.4l0.1-0.3c0.2-0.7,0.3-1.4,0.6-2c0.3-0.6,0.7-1.2,1.2-1.9   l0.5-0.7c1.4-1.8,2.8-3.7,3.6-6C41.2,16.1,40.7,12.1,40.4,8.6z"></path><path fill="#000000" d="M19.5,24.9c-3,0-5.5,2.8-5.5,6.3c0,3.5,2.5,6.3,5.5,6.3s5.5-2.8,5.5-6.3c0-1-0.2-2-0.6-2.8   c-0.2-0.5-0.2-1-0.1-1.5c0.7-3.6-0.2-7.3-1.1-10l-0.1-0.2c-0.3-0.8-0.5-1.6-0.5-2.3c0-0.6,0.3-1.1,0.6-1.3c0.2-0.1,0.4-0.1,0.7-0.2   c1.6-0.2,3.2-0.1,4.7,0.4c0.7,0.2,1.5-0.2,1.8-0.9c0.2-0.7-0.2-1.5-0.9-1.8c-1.9-0.6-4-0.8-6-0.5c-0.5,0.1-1,0.2-1.5,0.4   c-1.3,0.7-2.1,2.1-2.1,3.8c0,1.2,0.3,2.2,0.6,3.2l0.1,0.2c0.8,2.5,1.2,4.7,1.2,6.6c0,0.5-0.5,0.8-0.9,0.7   C20.4,24.9,20,24.9,19.5,24.9z"></path></g></svg>
