<svg height='300px' width='300px'  fill="#000000" xmlns="http://www.w3.org/2000/svg" viewBox="0 0 64 64" x="0px" y="0px"><g><path d="M25.07,21.66H38.93a1,1,0,0,1,1,1v3.56a1,1,0,0,1-1,1H25.07a1,1,0,0,1-1-1V22.66A1,1,0,0,1,25.07,21.66Zm31.72,7.56H51.86a1,1,0,0,0-1,1v3.56a1,1,0,0,0,1,1h4.93a1,1,0,0,0,1-1V30.22A1,1,0,0,0,56.79,29.22ZM33,30.22v3.56a1,1,0,0,0,1,1H47.86a1,1,0,0,0,1-1V30.22a1,1,0,0,0-1-1H34A1,1,0,0,0,33,30.22Zm6.93,11.12V37.78a1,1,0,0,0-1-1H25.07a1,1,0,0,0-1,1v3.56a1,1,0,0,0,1,1H38.93A1,1,0,0,0,39.93,41.34ZM7.21,34.78h4.93a1,1,0,0,0,1-1V30.22a1,1,0,0,0-1-1H7.21a1,1,0,0,0-1,1v3.56A1,1,0,0,0,7.21,34.78Zm15.86-5.56H16.14a1,1,0,0,0-1,1v3.56a1,1,0,0,0,1,1H30a1,1,0,0,0,1-1V30.22a1,1,0,0,0-1-1Zm-15.86-2H21.07a1,1,0,0,0,1-1V22.66a1,1,0,0,0-1-1H7.21a1,1,0,0,0-1,1v3.56A1,1,0,0,0,7.21,27.22ZM22.07,41.34V37.78a1,1,0,0,0-1-1H7.21a1,1,0,0,0-1,1v3.56a1,1,0,0,0,1,1H21.07A1,1,0,0,0,22.07,41.34Zm34.72-4.56H42.93a1,1,0,0,0-1,1v3.56a1,1,0,0,0,1,1H56.79a1,1,0,0,0,1-1V37.78A1,1,0,0,0,56.79,36.78Zm0-15.12H42.93a1,1,0,0,0-1,1v3.56a1,1,0,0,0,1,1H56.79a1,1,0,0,0,1-1V22.66A1,1,0,0,0,56.79,21.66ZM34,19.66H47.86a1,1,0,0,0,1-1V15.09a1,1,0,0,0-1-1H34a1,1,0,0,0-1,1v3.57A1,1,0,0,0,34,19.66Zm-17.86,0H30a1,1,0,0,0,1-1V15.09a1,1,0,0,0-1-1H16.14a1,1,0,0,0-1,1v3.57A1,1,0,0,0,16.14,19.66Zm-8.93,0h4.93a1,1,0,0,0,1-1V15.09a1,1,0,0,0-1-1H7.21a1,1,0,0,0-1,1v3.57A1,1,0,0,0,7.21,19.66Zm4.93,24.68H7.21a1,1,0,0,0-1,1v3.57a1,1,0,0,0,1,1h4.93a1,1,0,0,0,1-1V45.34A1,1,0,0,0,12.14,44.34Zm17.86,0H16.14a1,1,0,0,0-1,1v3.57a1,1,0,0,0,1,1H30a1,1,0,0,0,1-1V45.34A1,1,0,0,0,30,44.34Zm17.86,0H34a1,1,0,0,0-1,1v3.57a1,1,0,0,0,1,1H47.86a1,1,0,0,0,1-1V45.34A1,1,0,0,0,47.86,44.34Zm8.93,0H51.86a1,1,0,0,0-1,1v3.57a1,1,0,0,0,1,1h4.93a1,1,0,0,0,1-1V45.34A1,1,0,0,0,56.79,44.34Z"></path></g></svg>
