<svg height='300px' width='300px'  fill="#000000" xmlns="http://www.w3.org/2000/svg" xmlns:xlink="http://www.w3.org/1999/xlink" version="1.1" x="0px" y="0px" viewBox="0 0 100 100" enable-background="new 0 0 100 100" xml:space="preserve"><path d="M58.077,55.202c-0.252,0.946,0.757,0.632,0.693-1.325c-0.062-1.956-0.378-1.702-1.135-2.839  c-0.222-0.333,0.126-1.037,0-2.045c-0.127-1.01,0.126-1.992-0.506-4.77c-0.63-2.775-0.741-3.407-1.063-5.174  c-0.324-1.768-0.704-5.174-0.83-6.562c-0.126-1.388-2.019-4.038-2.145-5.679c-0.125-1.642,0.379-3.534-1.134-4.922  c-0.61-0.559-1.852-1.32-3.152-2.031c0.011,0.303-3.434-0.754-5.181-1.394c0,0,2.198,0.158,3.809,0.669  c-1.44-0.731-2.693-1.282-2.925-1.282c-0.504,0,0-1.321,0-1.321s1.263,0.438,1.894-2.97c0.63-3.407,1.388-5.427-1.262-7.319  c-2.65-1.893-5.732-1.388-6.652,0c-0.919,1.389-1.586,4.164-0.793,5.301c0.793,1.135,0.793,2.775,0.793,2.775v1.01l-0.542,1.767  c0,0-4.923,1.894-6.562,3.155c-1.64,1.263-1.742,2.992-2.196,4.714c-0.454,1.722-3.483,12.701-3.609,14.468  c-0.126,1.768,0.506,7.068,0.884,8.456c0.379,1.388,0.63,2.117,0.63,2.117s-0.63,3.309,0.126,4.697  c0.757,1.389,3.028,2.272,3.028,2.272s-0.503-2.903-0.251-3.534c0.251-0.631,0.63,0.884,0.63,0.884s0.472-1.175,0.333-2.633  c-0.052-0.539-0.188-1.116-0.459-1.686c-1.009-2.117-1.009-2.749-1.009-2.749s0.62-4.6,1.64-5.174  c1.02-0.574,1.008,1.768,0.883,3.156c-0.127,1.387-0.378,2.97-0.378,4.767c0,1.794-0.126,4.193,0.378,7.222  c0.505,3.028,1.893,10.979,2.65,14.133c0.756,3.155,3.03,13.63,3.03,13.63l0.793,3.029c0,0-1.425,3.028-1.298,3.659  c0.125,0.631,0.505,1.298,0.505,1.298s5.116,1.23,6.722,1.796c1.606,0.566,3.751,0,3.373-0.898  c-0.378-0.897-2.398-3.457-2.398-3.457s-1.262-2.02-0.629-4.164c0.629-2.146,2.358-10.728,3.072-12.747  c0.713-2.019,1.723-5.932,1.343-6.814c-0.378-0.884,0.039-8.708,0.083-10.096c0.043-1.389-0.083-9.339-0.083-10.286  S49,42.961,49.026,42.205c0.026-0.757,1.036-2.398,1.036-2.398l-0.821-6.058c0,0,1.579,6.31,1.958,7.572  c0.378,1.263,1.388,4.543,1.642,5.68c0.251,1.135,2.144,4.92,2.521,5.678c0,0,0.633,0.82,0.884,1.325  c0.044,0.085,0.133,0.148,0.249,0.2l1.267-1.084l0.249,1.648C58.095,54.877,58.127,55.016,58.077,55.202z M41.733,14.945  c1.263,0,0.83,0.631-2.235,0.631C39.499,15.576,40.472,14.945,41.733,14.945z M35.633,19.347c1.02-0.408,2.088-0.771,2.856-0.868  c1.982-0.253-5.968,2.271-5.968,2.271S34.018,19.993,35.633,19.347z M27.094,40.718c-0.213,0.037-0.406,0.151-0.574,0.303  c-0.51,0.767-0.814,1.31-0.814,1.31s0.289-0.836,0.814-1.31c0.218-0.329,0.476-0.699,0.765-1.089c0.955-1.288,1.576,0,1.576,0  S27.978,40.564,27.094,40.718z M28.104,32.802c0,0,1.009-7.257,2.397-8.896C31.889,22.265,28.355,31.099,28.104,32.802z   M31.17,38.279c-0.402,0.785-0.668,1.023-0.668,1.023S30.78,38.893,31.17,38.279c0.43-0.838,1.016-2.305,1.603-4.782  c1.136-4.796,1.767-7.192,1.767-7.192s-0.377,5.678-1.009,7.571C33.114,35.125,31.929,37.088,31.17,38.279z M31.759,39.302  c0,0,4.133-2.776,5.432-5.301c1.298-2.524,2.523-7.697,2.523-7.697s-0.757,6.435-1.767,8.075S33.14,38.671,31.759,39.302z   M36.686,57.601c-0.939-0.506-2.146-1.642-2.146-1.642s1.207,1.136,3.949,1.011C41.23,56.843,37.624,58.105,36.686,57.601z   M40.052,85.602l-1.246-0.743l1.627-5.048l-0.814,4.67L40.052,85.602z M36.686,40.69c0,0,4.922-1.641,6.814-3.533  c1.893-1.894-0.54,1.767-2.776,2.775C38.489,40.942,36.686,40.69,36.686,40.69z M41.733,66.812c0,0,0.505-1.01,1.431-1.262  c0.925-0.253,2.354,0,2.354,0s-1.01,0.252-2.271,0.506C41.986,66.308,41.733,66.812,41.733,66.812z M43.375,72.997  c-0.883-1.263-0.757-2.65-0.757-2.65s0.757,1.009,1.447,2.146c0.692,1.135,1.454,2.145,1.454,2.145S44.258,74.259,43.375,72.997z   M44.181,69.211c-0.933,0-1.563-0.631-1.563-0.631h3.533C47.414,68.58,45.111,69.211,44.181,69.211z M48.422,31.982  c-0.505,2.65-0.537-0.141,0-2.776c0.537-2.637,0.604-4.417,0.604-4.417S48.927,29.332,48.422,31.982z M73.41,61.513  c-0.504-0.884-2.777-3.281-2.777-3.281l-3.154-1.137l0.253-1.388l-0.884-0.252c0,0,1.135-0.505,1.389-2.271  c0.253-1.768,0.63-5.552-2.65-5.932c-3.282-0.378-4.796,2.146-4.796,3.661c0,1.513,1.388,3.659,2.02,3.785  c0.63,0.126-0.253,1.137-0.253,1.137s-2.776,0.883-3.532,1.135c-0.758,0.254-1.642,0.379-1.642,0.379s-0.379-1.01,0.253-1.641  l0.441-0.505l-0.066-0.434c-0.269-0.349-1.085-0.372-1.517-0.564l0.006,0.619c0,0-0.505,0.253-1.009,0.758  c-0.507,0.504-1.012,2.02-1.012,2.903c0,0.883,0.632,3.154,2.021,3.154c1.388,0,3.406-0.757,3.153,0.252  c-0.251,1.01-0.503,4.67-0.757,5.553c-0.252,0.884,0.379,5.68-0.126,6.688c-0.504,1.01,0.906,0.253,0.906,0.253s0.021,5.679,0,7.319  c-0.023,1.641-0.97,3.028,0.009,3.407s0.726,1.262,0.726,1.262s0,4.038,0.633,3.913c0.418-0.084,0.779,0.165,0.978,0.343  c-0.163,0.425-0.2,0.916-0.201,1.258c0.023-0.132,0.085-0.229,0.169-0.322c0.089-0.458,0.188-0.773,0.188-0.773  s-0.058-0.072-0.156-0.162c0.157-0.418,0.435-0.768,0.914-0.848c1.515-0.253,0,0.63,0,0.63c-0.335,0.705-0.726,0.91-0.946,1.153  c-0.247,1.247-0.421,3.551,1.705,3.431c2.9-0.166,1.179-2.262,1.135-3.069c-0.045-0.806-0.126-2.145-0.126-2.145l-0.253-2.902  l-0.127-1.894l0.506-2.02c0,0,0.589,2.65,0.547,4.038c-0.043,1.389,0.919,3.845,0.919,3.845s-0.33,2.123,0.679,2.123  s1.767,1.442,2.146,0.722c0.379-0.722,0.884-5.301,0.884-6.941s0.126-3.786,0-5.553s-0.394-3.028,0.056-4.543  c0.448-1.515,2.09-2.146,2.09-2.146s-1.262-5.174-1.262-6.437c0-1.262-0.38-2.776-0.38-2.776s1.389,3.534,1.642,5.301  c0.252,1.768,0,3.786,0.632,4.29c0.63,0.505,1.64-0.757,1.64-2.145v-1.894c0,0-0.126-1.64,0-3.155  C74.547,66.182,73.914,62.396,73.41,61.513z M57.13,60.756c0,0-0.504-3.408,0-2.712c0.149,0.205,0.21,0.524,0.223,0.874  C57.382,59.752,57.13,60.756,57.13,60.756z M58.645,59.619c0.252-1.388,0-1.899,0-1.899C59.653,59.354,58.393,61.008,58.645,59.619z   M61.044,57.72c-0.633-0.751,0.903-0.751,0.767,0c-0.134,0.735-1.104,1.188-1.146,1.208C60.73,58.896,61.65,58.444,61.044,57.72z   M59.653,69.211c0.215-0.554,0.527-1.77,0.85-3.138c0.634-2.683,1.297-5.949,1.297-5.949s0.127,2.776-0.504,5.314  C60.664,67.976,59.024,70.851,59.653,69.211z M60.66,82.706l2.275,2.896C62.936,85.602,61.164,85.475,60.66,82.706z M60.66,80.568  l2.275,2.138C62.936,82.706,60.911,82.714,60.66,80.568z M66.091,73.501c0.504-0.35,0.95-1.119,1.324-2.015  c0.066-0.156,0.13-0.316,0.19-0.479c0.724-1.933,1.135-4.195,1.135-4.195C68.994,73.501,64.45,74.637,66.091,73.501z M71.139,62.144  c0,0,0.251,2.285,0.884,3.982C72.652,67.821,70.255,65.298,71.139,62.144z M61.819,91.887c0,0.229,0.013,0.391,0.016,0.421  c-0.002-0.015-0.007-0.057-0.016-0.129C61.803,92.063,61.805,91.97,61.819,91.887z M48.806,19.854  c-0.458-0.251-0.925-0.496-1.372-0.724c0.421,0.133,0.803,0.291,1.095,0.476C48.718,19.727,48.804,19.807,48.806,19.854z"></path></svg>
