<svg height='300px' width='300px'  fill="#000000" xmlns="http://www.w3.org/2000/svg" xmlns:xlink="http://www.w3.org/1999/xlink" version="1.1" x="0px" y="0px" viewBox="0 0 100 100" style="enable-background:new 0 0 100 100;" xml:space="preserve"><path d="M57.9,44.5c1.5-0.4,2.8-0.8,4-1.5c0.8-0.5,1.1-0.3,1.2,0.6c0.1,1-0.3,2-0.6,2.9c-0.3,1.2-0.1,2.3,0.1,3.5  c0.2,0.9-0.4,1.4-1.3,1.2c-1-0.2-2-0.5-2.9-1.1c-0.3,0.2-0.1,0.3-0.1,0.4c0.8,1.6,0.4,2.4-1.4,2.4c-0.6,0-1.1,0.1-1.5,0.5  c-0.1,0.1-0.2,0.2-0.2,0.1c-1.2-0.5-1.4,0.6-2,1.2c-1,1-2,1.9-3.3,2.4c-0.3,0.1-0.7,0.3-0.5,0.8c0.6,2.1,0.1,4.2-0.4,6.2  c-0.1,0.5-0.1,0.9,0.2,1.3c2.2,3.1,3.4,6.6,3.8,10.4c0.1,0.7,0.2,1.4,0.4,2.2c0.4,1.2-0.2,1.8-1.5,2c-1.7,0.2-3.4-0.2-5.1,0.2  c-0.4,0.1-0.6,0.1-0.6,0.6c0.2,2.6-0.3,5.3-0.3,7.9c0,1.5,0.7,2.7,1.3,3.9c0.2,0.5,0.6,1,0.5,1.6c-0.2,1.3-2,2.3-3.4,1.7  c-0.5-0.2-0.9-0.2-1.2,0.2c-0.8,1.1-1.7,0.4-2.5,0.2c-0.5-0.1-1-1.6-0.9-2.3c0.2-0.6,0.3-1.3,0.6-1.8c1.4-1.9,1.1-4.1,0.9-6.2  c-0.2-2-0.3-4-0.3-6c0-0.5-0.4-0.5-0.8-0.5c-1.2,0.1-2.4,0-3.6,0c-0.5,0-1-0.2-0.8-0.9c0.4-1.3,0.4-2.7,0.6-4.1  c0.6-3.3,1.7-6.3,4.1-8.6c0.7-0.7,0.8-1.3,0.4-2.1c-0.3-0.7-0.4-1.4-0.6-2.1c-0.2-0.5-0.1-1-1-0.5c-1.3,0.8-2.4,2-3.8,2.8  c-2,1.2-3.8,2.6-6.3,2.9c-0.1,0-0.3,0-0.3,0.1c-0.9,1.6-2.7,2.3-4.1,3.3c-0.5,0.4-1.4,0.2-1.9-0.3c-0.5-0.6-0.5-1.3,0-2  c0.6-0.8,1.3-1.4,2.2-1.4c2.1-0.1,4-0.7,5.9-1.3c0.9-0.2,1.8-0.9,2.6-1.4c2-1.2,3.9-2.7,5.7-4.2c0.7-0.5,0.8-1.5,1.1-2.2  c0.1-0.2-0.1-0.4-0.3-0.5c-2.5-0.7-3.3-2.8-3.9-5c-0.2-0.7-0.4-1.2-1.3-0.8c-0.7,0.3-1.6,0.1-2.4-0.2c-1-0.3-1.2-0.8-0.8-1.7  c0.1-0.3,0.3-0.7,0.1-0.9c-0.3-0.3-0.8,0-1,0.2c-1.3,1.2-3,1.9-4.3,3c-0.3,0.3-0.7,0.4-1,0.3c-0.4-0.1-0.3-0.5-0.3-0.9  c0-1.3-0.2-2.6-0.9-3.8C24,46.3,25,45,27,45c1.5,0,2.9-0.4,4.4,0.2c0.6,0.2,1,0,0.7-0.8c-0.1-0.4-0.3-0.8-0.3-1.2  c-0.1-0.8,0.5-1.3,1.2-1c1,0.4,2.2,0.1,3.1,0.9c0.4,0.3,0.7,0,1-0.3c1.6-1.5,3.4-2.7,5.6-3.3c2.9-0.8,5.6-0.3,8.1,1.3  c0.6,0.4,1.1,0.9,1.7,1.3c0.9,0.7,2,0.7,3,0.4c0.5-0.1,0.9-0.4,1.5-0.2c0.3,0.1,0.7,0,0.7-0.4c0-0.4,0.2-0.8-0.2-1.1  c-1.4-0.9-1.5-2.4-1.6-3.9c0-0.3,0.1-0.7,0.4-0.9c1.4-0.7,1.4-2,1.7-3.3c0.1-0.4-0.1-1.2,0.6-1.2c0.6,0.1,0.6,0.7,0.6,1.3  c0,0.7,0,1.5,0,2.2c0,0.3,0.1,0.3,0.2,0.5c1,1,1,2.7,0,3.7c-0.6,0.6-0.8,1.2-0.7,2.1C58.7,42.4,58.2,43.4,57.9,44.5z M44.9,42.3  c0-0.3-0.1-0.6,0-0.9c0.1-0.9-0.3-1.2-1.2-1.1c-3.4,0.5-5.8,2.2-6.6,5.6c-0.6,2.4-0.1,4.8,0.7,7.2c0.3,0.9,0.6,1.8,1.4,2.4  c2.6,2,7.3,3.3,10.8,0.9c0.4-0.3,0.9-0.6,1.3-0.9c2.1-1.7,3.1-3.8,2.9-6.6c0-0.4-0.4-0.6-0.4-1.1c0-1.4-0.5-2.6-1.2-3.8  c-1.2-2.1-3.1-3.2-5.4-3.6c-0.7-0.1-1.2,0-1.3,0.9c0,0.7,0,1.4-0.2,2.1c-0.2,0.9,0.1,1.8,0,2.8c-0.2,1.5-0.5,3.1-0.3,4.7  c0.2,1.7,0.2,3.4,0.7,5.1c0.1,0.5-0.1,0.9-0.6,0.9c-0.5,0-0.6-0.4-0.6-0.8c0-1.8-0.2-3.6-0.3-5.3c0-0.5-0.1-1,0-1.5  C45,46.9,44.7,44.5,44.9,42.3z M49.4,78.8c0.4,0,0.9,0,1.3,0c1.4-0.2,1.7-0.5,1.6-1.8c0-0.5-0.1-1-0.2-1.6c-0.3-2.9-1.5-5.5-2.6-8.1  C49,66.2,48.3,65.8,47,66c-0.4,0.1-0.8,0-1.2,0c-1.2-0.2-2.4-0.2-3.6,0.3c-2.3,1.1-3.3,3.3-4.1,5.5c-0.6,1.7-0.6,3.7-1,5.5  c-0.2,1,0.3,1.2,1.1,1.2c1-0.1,2.1-0.2,3,0C44,79.1,46.7,78.7,49.4,78.8z M46.3,64.9c0.9,0.1,1.7,0,2-1.1c0.4-1.3,0.6-2.5,0.6-3.8  c0-1.5-0.2-1.7-1.7-1.5c-1.6,0.2-3.1,0.2-4.7-0.3c-0.3-0.1-0.7-0.1-0.9,0.3c-0.6,1.1-0.3,5.2,0.6,6.1c0.2,0.2,0.4,0.2,0.6,0.2  C44,64.8,45.2,64.7,46.3,64.9z M43.6,92.7c0.5-1.4,1.3-2.5,1.5-3.8c0.1-0.7,0-1.3,0.1-2c0.1-1.8,0.4-3.6,0.1-5.3  c-0.1-0.4,0-1.2-0.7-1.3c-0.7-0.1-1.3-0.1-2-0.2c-0.3,0-0.6,0-0.6,0.4c0,0.9-0.2,1.7-0.1,2.6c0.1,2.1,0.3,4.1,0.6,6.2  C42.8,90.3,42.6,91.6,43.6,92.7z M26.4,51.4c0.7-0.4,1.1-0.6,1.5-0.9c1.5-1,2.9-2.3,4.7-3.1c0.2-0.1,0.5,0,0.5-0.3  c0-0.2-0.2-0.5-0.3-0.4c-0.3,0.2-0.8-0.3-0.9,0.2c-0.1,0.6-0.5,0.5-0.8,0.7c-1.2,0.6-2.6,0.6-3.6,1.6c-0.1,0.1-0.3,0.2-0.5,0.1  c-0.2-0.1-0.1-0.4-0.1-0.6c0.1-0.3,0.3-0.6,0.7-0.6c0.4,0,0.7-0.2,1-0.6c-0.5-0.1-0.9,0-1.3,0.2c-0.3,0.2-0.5,0-0.6-0.1  c-0.2-0.2-0.1-0.5,0.1-0.6c0.6-0.3,0.9-0.8,1.7-0.8c0.3,0,0.7-0.1,0.7-0.5c-1.1-0.3-2.1-0.1-3.1,0.4c-0.4,0.2-0.6,0.4-0.4,0.9  C26.1,48.4,26.7,49.7,26.4,51.4z M58.8,45.5c0.6,0,1,0.1,1.4,0.1c0.2,0,0.6-0.2,0.7,0.1c0.2,0.5-0.4,0.3-0.6,0.6  c0.4,0.1,1,0.1,0.9,0.6c-0.1,0.6-0.6,0.2-1,0.3c-0.4,0-0.8,0-1.2,0.2c-0.8,0.4-1.4,0-1.9-0.7c-0.1-0.2-0.2-0.4-0.5-0.5  c0.4,0.9,0.8,1.7,1.2,2.5c0,0.1,0.8-0.3,1.3-0.5c0,0,0.1,0,0.1,0c0.3,0,0.7-0.2,0.8,0.1c0.2,0.4-0.3,0.4-0.5,0.6  c-0.1,0.1-0.3,0.2-0.3,0.2c0.2,0.5,0.7,0.7,1.2,0.8c0.5,0,1.2-0.1,1.1-0.6c-0.3-1.7,0.3-3.2,0.5-4.8c0.1-0.7-0.2-0.6-0.7-0.5  C60.4,44.3,59.6,44.7,58.8,45.5z M55.5,52.3c0.4-0.2,1.1-0.2,1.8-0.2c0.4,0,0.6-0.2,0.4-0.7c-0.3-0.9-1.2-1.5-1.3-2.5  c0-0.3,0-0.8-0.5-0.6c-0.4,0.1-0.7,0.3-0.7,0.8c0.1,1-0.1,1.9-0.3,2.9C54.7,52.4,54.9,52.4,55.5,52.3z M35,47.3  c-1.2,0.6-1.6,1.6-2.1,2.6c-0.1,0.1-0.1,0.4,0,0.5c0.6,0.5,1.4,0.7,2.2,0.4c0.7-0.2,0.7-0.7,0.7-1.4C35.8,48.6,34.9,48.2,35,47.3z   M57.9,36.5c-0.7,0-1.5,0.7-1.3,1.3c0.3,0.7,0.2,1.7,1.1,1.9c0.5,0.1,1.4-1.4,1.4-2.2C59.1,36.6,58.4,36.6,57.9,36.5z M45.5,91.5  c-0.3,0.1-0.4,0.3-0.4,0.5c-0.2,0.7-0.3,1.4-0.2,2.2c0,0.4,0.1,0.7,0.5,0.9c0.5,0.3,0.8-0.1,1.2-0.3c0.4-0.2,0.2-0.6,0.1-0.9  c-0.2-0.6-0.4-1.1-0.6-1.7C46,91.9,45.7,91.7,45.5,91.5z M42.1,92.3c-0.9,0.7-1.1,1.5-1,2.4c0.1,0.5,1,1.1,1.4,0.9  c0.5-0.3,0.7-0.7,0.4-1.3C42.6,93.7,42.4,93,42.1,92.3z M55.4,45c0-0.4,0.2-0.9-0.3-1.1c-0.3-0.1-0.8-0.2-1,0.1  c-0.4,0.4,0.1,0.7,0.2,1.1c0,0.2,0.1,0.5,0.2,0.7c0.1,0.2-0.1,0.7,0.4,0.7c0.4,0,0.5-0.4,0.6-0.7C55.6,45.5,55.5,45.2,55.4,45z   M33.2,44.4c0.2,0.4,0.1,1.3,0.8,1.3c0.5,0,1.1-0.5,1-1.2c-0.1-0.7-0.7-0.9-1.3-0.9C33.1,43.5,33.2,43.9,33.2,44.4z M26.8,67.9  c-1.1-0.2-1.9,0.1-2.7,0.8c-0.2,0.1-0.4,0.3-0.2,0.6c0.2,0.2,0.3,0.4,0.7,0.3C25.6,69.3,26.2,68.7,26.8,67.9z"></path><path d="M54.3,29.8c0.3,0.7-0.1,1.3-0.4,1.9c-0.9,1.9-2.3,3.4-2.8,5.5c-0.1,0.4-0.5,0.4-0.8,0.3c-0.4-0.1-0.4-0.5-0.2-0.8  c1.4-2.2,2.6-4.4,3.5-6.8c0.1-0.4,0.1-0.5-0.1-0.7c-0.9-0.9-1.8-1.8-2.7-2.7c-0.3-0.3-0.6-0.5-1-0.3c-2.3,0.9-4.7,1.5-6.6,3.1  c-0.1,0-0.1,0.1-0.2,0.1c-0.4,0.2-0.8,0.4-1,0c-0.2-0.4,0.2-0.6,0.5-0.8c2-1.1,4-2.3,6.1-3.2c0.7-0.3,0.9-0.7,0.5-1.3  C49,23.4,49,22.8,49,22.3c0-0.9-0.6-1.2-1.2-1.3c-1.8-0.2-3.5-0.6-5.3-0.6c-0.5,0-1,0.3-1.5,0.1c-0.4-0.1-0.7-0.2-0.7-0.7  c0.1-0.4,0.5-0.4,0.8-0.4c1.5,0,3,0.3,4.5,0.6c0.4,0.1,0.7,0.2,1.1,0.2c1.8,0.3,2.3,0,2.9-1.7c0.7-2.1,0.7-2.1-1-3.4  c-1.5-1.2-2.9-2.7-4.6-3.7c-0.2-0.1-0.4-0.3-0.4-0.6c0.1-0.3,0.3-0.5,0.5-0.6c0.3-0.1,0.5,0,0.7,0.3c1.3,1.7,2.9,3,4.6,4.2  c1.1,0.7,1.4,1.2,2.9-0.1c1-0.9,2.3-1.5,3.5-2.2c0.5-0.3,0.7-0.7,0.6-1.2c-0.5-2.2-0.3-4.6-1.1-6.7c-0.1-0.4,0-0.7,0.2-0.9  c0.1-0.1,0.3-0.3,0.4-0.2c0.4,0.2,0.2,0.6,0.3,0.9c0.5,2.4,0.7,4.8,1,7.2c0.1,0.5,0.4,0.6,0.8,0.5c1.4-0.1,2.7,0.1,3.9,0.6  c0.4,0.2,0.8,0,1-0.3c1.4-1.9,2.6-3.9,3.6-6C66.9,6,67.2,5.6,67.2,5c0-0.4,0.3-0.7,0.8-0.5c0.4,0.2,0.3,0.5,0.2,0.8  c-0.4,1.4-1.2,2.6-2,3.7c-0.9,1.3-1.4,2.8-2.3,4.1c-0.2,0.4-0.1,0.8,0.3,1.1c1.2,0.9,2.3,1.9,3,3.2c0.2,0.3,0.4,0.4,0.7,0.4  c0.7,0,1.3-0.1,1.9-0.3c1.8-0.7,3.8-1,5.5-2.1c0.3-0.2,0.7-0.5,0.9,0.1c0.2,0.5-0.1,0.8-0.6,0.9c-2.3,0.5-4.3,1.8-6.6,2.2  c-1.1,0.2-1.4,0.9-1.4,1.8c0.1,1.2-0.2,2.3-0.5,3.5c-0.2,0.7-0.1,1.2,1,1.3c1.5,0.1,3.1,0.5,4.6,0.9c1.1,0.3,2.2,0.1,3.3,0.1  c0.5,0,1.1-0.2,1.1,0.7c-0.1,0.8-0.8,0.7-1.2,0.5c-2.1-0.7-4.4-0.6-6.5-1.1c-1.6-0.3-2.9-0.3-3.7,1.4c-0.3,0.7-1,1.3-1.7,1.7  c-0.6,0.3-0.4,0.6,0,0.8c1.4,0.8,2.3,2.2,3.7,3c0.7,0.4,1.4,0.8,2,1.2c0.2,0.2,0.5,0.3,0.7,0.6c0.2,0.2,0.2,0.4,0.1,0.7  c-0.2,0.2-0.5,0.3-0.7,0.1c-1-1-2.3-1.6-3.4-2.5c-1.2-0.9-2.5-1.7-3.6-2.6c-0.4-0.3-0.9-0.3-1.2-0.2c-2.4,0.9-4.7,0.4-6.9-0.6  C54.6,29.7,54.5,29.7,54.3,29.8z M66.7,19.7c-0.1-0.9-0.3-2-1.1-2.8c-0.6-0.6-1.2-1.1-1.8-1.6c-0.9-0.9-2-1.6-3.3-1.9  c-1.5-0.4-2.9,0-4.3,0.4c-1.8,0.6-3.4,1.6-4.7,3.1c-1.2,1.5-1.7,3.2-1.6,5.1c0.1,2.4,1.8,3.9,3.4,5.4c1.6,1.5,3.5,2.3,5.8,2.3  c2.4,0,4.9-1.1,6.1-3.2C66.4,24.4,66.4,22.1,66.7,19.7z"></path><path d="M46.5,43.6c0-0.2-0.1-0.4,0.2-0.5c0.2-0.1,0.4,0,0.5,0.2c1.2,1.1,2.5,2,4,2.7c0.3,0.1,0.8,0.3,0.4,0.9  c-0.4,0.6-0.6,0.2-1-0.1c-1-0.7-2-1.6-3.2-2.1C47.1,44.6,46.5,44.3,46.5,43.6z"></path><path d="M42.1,43.7c0.1,0.1,0.3,0.1,0.3,0.2c0.1,0.2,0,0.4-0.2,0.6c-0.6,0.6-1.5,0.8-2.2,1.3c-0.6,0.5-1.3,0.7-2,1.1  c-0.2,0.1-0.3,0.3-0.5,0.1c-0.2-0.3,0-0.4,0.1-0.6c0.2-0.4,0.7-0.4,1-0.6c1-0.7,2-1.3,3.1-1.9C41.9,43.9,42,43.8,42.1,43.7z"></path><path d="M52.2,51.2c-0.3,0.3-0.4,0.7-0.7,0.8c-1.1,0.7-2.3,1.2-3.1,2.4c-0.2,0.2-0.4,0.3-0.6,0.1c-0.2-0.2-0.1-0.4,0.1-0.6  c1.1-1.1,2.3-2.1,3.5-2.9C51.7,50.7,52,50.8,52.2,51.2z"></path><path d="M51.3,48.7c0,0.4-0.4,0.5-0.5,0.5c-1.3-0.1-2.5,0.4-3.6,1c-0.3,0.1-0.5,0-0.6-0.2c-0.1-0.3,0.2-0.5,0.4-0.6  c0.8-0.3,1.6-0.6,2.4-0.7c0.4-0.1,0.8-0.2,1.3-0.3C50.9,48.4,51.2,48.4,51.3,48.7z"></path><path d="M38.8,52.2c0-0.5,0.4-0.5,0.7-0.4c0.9,0.4,1.9,0.7,2.6,1.6c0.2,0.2,0.3,0.4,0.1,0.6c-0.3,0.3-0.4,0-0.5-0.2  c-0.5-0.6-1.1-1-1.9-1.1C39.4,52.7,38.9,52.7,38.8,52.2z"></path><path d="M40.8,49.6c-0.5,0-1,0-1.5-0.1c-0.2,0-0.6-0.1-0.5-0.5c0.1-0.4,0.4-0.2,0.6-0.2c0.5,0,1,0,1.5,0.2c0.2,0.1,0.8-0.1,0.8,0.4  C41.5,49.9,41,49.3,40.8,49.6z"></path></svg>
