<svg height='300px' width='300px'  fill="#000000" xmlns="http://www.w3.org/2000/svg" xmlns:xlink="http://www.w3.org/1999/xlink" version="1.1" x="0px" y="0px" viewBox="0 0 100 100" enable-background="new 0 0 100 100" xml:space="preserve"><rect x="7.5" y="25.5" fill="none" stroke="#000000" stroke-miterlimit="10" width="84" height="4"></rect><rect x="7.5" y="70.5" fill="none" stroke="#000000" stroke-miterlimit="10" width="84" height="4"></rect><rect x="12.5" y="31.5" stroke="#000000" stroke-miterlimit="10" width="4" height="37"></rect><rect x="22.5" y="31.5" stroke="#000000" stroke-miterlimit="10" width="4" height="37"></rect><rect x="32.5" y="31.5" stroke="#000000" stroke-miterlimit="10" width="4" height="37"></rect><rect x="42.5" y="31.5" stroke="#000000" stroke-miterlimit="10" width="4" height="37"></rect><rect x="52.5" y="31.5" stroke="#000000" stroke-miterlimit="10" width="4" height="37"></rect><rect x="62.5" y="31.5" stroke="#000000" stroke-miterlimit="10" width="4" height="37"></rect><rect x="72.5" y="31.5" stroke="#000000" stroke-miterlimit="10" width="4" height="37"></rect><rect x="82.5" y="31.5" stroke="#000000" stroke-miterlimit="10" width="4" height="37"></rect><rect x="12.5" y="76.5" stroke="#000000" stroke-miterlimit="10" width="4" height="4"></rect><rect x="22.5" y="76.5" stroke="#000000" stroke-miterlimit="10" width="4" height="4"></rect><rect x="32.5" y="76.5" stroke="#000000" stroke-miterlimit="10" width="4" height="4"></rect><rect x="42.5" y="76.5" stroke="#000000" stroke-miterlimit="10" width="4" height="4"></rect><rect x="52.5" y="76.5" stroke="#000000" stroke-miterlimit="10" width="4" height="4"></rect><rect x="62.5" y="76.5" stroke="#000000" stroke-miterlimit="10" width="4" height="4"></rect><rect x="72.5" y="76.5" stroke="#000000" stroke-miterlimit="10" width="4" height="4"></rect><rect x="82.5" y="76.5" stroke="#000000" stroke-miterlimit="10" width="4" height="4"></rect><rect x="12.5" y="19.5" stroke="#000000" stroke-miterlimit="10" width="4" height="4"></rect><rect x="22.5" y="19.5" stroke="#000000" stroke-miterlimit="10" width="4" height="4"></rect><rect x="32.5" y="19.5" stroke="#000000" stroke-miterlimit="10" width="4" height="4"></rect><rect x="42.5" y="19.5" stroke="#000000" stroke-miterlimit="10" width="4" height="4"></rect><rect x="52.5" y="19.5" stroke="#000000" stroke-miterlimit="10" width="4" height="4"></rect><rect x="62.5" y="19.5" stroke="#000000" stroke-miterlimit="10" width="4" height="4"></rect><rect x="72.5" y="19.5" stroke="#000000" stroke-miterlimit="10" width="4" height="4"></rect><rect x="82.5" y="19.5" stroke="#000000" stroke-miterlimit="10" width="4" height="4"></rect></svg>
