<svg height='300px' width='300px'  fill="#000000" xmlns="http://www.w3.org/2000/svg" data-name="Layer 1" viewBox="0 0 100 100" x="0px" y="0px"><title>109all</title><path d="M15.94,60.79A5.2,5.2,0,0,0,25,58.84l1.1-4.33v37a6,6,0,0,0,6,6H46a6,6,0,0,0,4-1.5,6,6,0,0,0,4,1.58H67.77a6,6,0,0,0,6-6V77.52H80a2,2,0,0,0,2-2.42L79.28,62.85h.91a5,5,0,0,0,4.88-6.11L79.49,32.31a5.92,5.92,0,0,0-5.58-10.22L63.74,25.39h-32a12,12,0,0,0-11.68,9.24L15,56.37A5.17,5.17,0,0,0,15.94,60.79ZM52,91.61v0s0,0,0-.06v-14h6.91V93.61H54A2,2,0,0,1,52,91.61Zm17.81,0a2,2,0,0,1-2,2H62.86V77.52h6.91ZM81,58.47a1,1,0,0,1-.78.38H78.42L74.91,42.53a2,2,0,1,0-3.91.84l6.48,30.15H52V37.39H64.05a2,2,0,0,0,.58-.09l11.12-3.39,5.41,23.71A1,1,0,0,1,81,58.47ZM18.85,57.29,24,35.55a8,8,0,0,1,7.79-6.16H64.05a2,2,0,0,0,.62-.1l10.48-3.4a1.93,1.93,0,0,1,2.51,1.6,1.93,1.93,0,0,1-1.35,2.08L63.76,33.39H50a2,2,0,0,0-2,2V91.52a2,2,0,0,1-2,2H41.05V66.16a2,2,0,0,0-4,0V93.52H32.15a2,2,0,0,1-2-2V39a2,2,0,0,0,0-.23A2,2,0,0,0,26.21,38l-5,19.87a1.2,1.2,0,0,1-1.16.9,1.2,1.2,0,0,1-1.17-1.47Z"></path><path d="M50,12.05a11,11,0,1,0,0,2.77,11,11,0,1,0,0-2.77ZM39.05,20.4a7,7,0,1,1,7-7A7,7,0,0,1,39.05,20.4Zm28.81-6.92a7,7,0,1,1-7-7A7,7,0,0,1,67.87,13.48Z"></path></svg>
