<svg height='300px' width='300px'  fill="#000000" xmlns="http://www.w3.org/2000/svg" xmlns:xlink="http://www.w3.org/1999/xlink" version="1.1" x="0px" y="0px" viewBox="0 0 100 100" enable-background="new 0 0 100 100" xml:space="preserve"><path fill-rule="evenodd" clip-rule="evenodd" d="M55.635,62.829h23.058c0.459,0,0.456,1.327,0,1.376  c-4.24,0.456-7.963,5.078-7.519,8.448c0.343,2.603,4.577,3.318,4.077,5.317H58.388c-0.264,0-0.126-1.243,0.643-1.688  c2.475-1.429,5.342-6.512-0.232-6.512c-6.202,0-15.381-5.566-10.39-5.566h6.538C55.406,64.205,55.189,62.829,55.635,62.829z"></path><path fill-rule="evenodd" clip-rule="evenodd" d="M35.311,36.283c4.104,0,7.451-3.825,7.451-8.515s-3.347-8.515-7.451-8.515  c-4.103,0-7.45,3.825-7.45,8.515S31.208,36.283,35.311,36.283z"></path><path fill-rule="evenodd" clip-rule="evenodd" d="M26.629,41.024c1.474-3.196,5.057-4.029,8.457-3.118  c7.075,1.896,15.638-5.889,14.434-13.173c-0.188-1.154,0.271-2.265,1.109-2.962l-4.472-7.746L48,12.961l4.663,8.077  c1.535-0.002,2.888,1.109,3.143,2.673c1.18,7.139-2.851,13.69-8.519,17.712c-7.328,5.199-9.622,2.436-11.188,12.366  c-1.102,6.981,0.189,12.314,1.801,18.791c1.761,7.076,3.357,14.223,3.782,18.316c0.209,2.041-1.276,3.865-3.318,4.074  c-2.041,0.209-3.865-1.276-4.074-3.317c-0.393-3.784-1.916-10.498-3.607-17.298c-0.388-1.562-0.778-3.055-1.155-4.409  c-1.21,6.751-2.2,12.714-2.2,21.328c0,2.058-1.668,3.726-3.726,3.726c-2.057,0-3.725-1.668-3.725-3.726  c0-11.227,2.3-18.65,3.22-27.398C23.994,55.346,24.039,46.61,26.629,41.024z"></path><path fill-rule="evenodd" clip-rule="evenodd" d="M39.01,10.464l9.217-5.322c0.507-0.293,1.161-0.117,1.454,0.39l2.129,3.687  c0.293,0.508,0.117,1.162-0.39,1.454l-9.217,5.322c-0.507,0.292-1.161,0.117-1.454-0.39l-2.128-3.688  C38.328,11.41,38.503,10.756,39.01,10.464z"></path><path fill-rule="evenodd" clip-rule="evenodd" d="M53.516,79.035h26.607V95H53.516V79.035L53.516,79.035z M54.581,80.1v13.836H79.06  V80.1H54.581z"></path><path fill-rule="evenodd" clip-rule="evenodd" d="M39.364,47.691c0.856,0.902,1.795,1.827,2.788,2.735  c3.167,2.896,6.768,5.463,9.81,6.389c0.993,0.301,1.73,1.045,2.063,1.949h22.395v3.192h-22.99c-0.798,0.908-2.081,1.318-3.313,0.945  c-4.029-1.227-8.479-4.334-12.253-7.786c-0.249-0.228-0.495-0.457-0.738-0.688l0.026-0.172c0.248-1.571,0.573-3.362,1.178-4.84  C38.593,48.767,38.911,48.19,39.364,47.691z"></path></svg>
