<svg height='300px' width='300px'  fill="#000000" xmlns="http://www.w3.org/2000/svg" data-name="Layer 1 copy 4" viewBox="0 0 48 48" x="0px" y="0px"><title>Legal services_glyph</title><polygon points="7.71 17.75 4.16 20.63 7.71 23.47 7.71 17.75"></polygon><polygon points="40.29 17.73 40.29 23.47 43.85 20.63 40.29 17.73"></polygon><path d="M24,30.13l3.99,3.19,11-8.81V.75H9.01V24.51l11,8.81Zm.047-2.813a3.262,3.262,0,1,1,3.269-3.256A3.262,3.262,0,0,1,24.047,27.317ZM31.04,26.03H28.16a4.329,4.329,0,0,0,.46-1.97,4.6,4.6,0,0,0-.45-1.98h2.87l-.85,1.97ZM13.948,5.281h20.2a.65.65,0,0,1,0,1.3h-20.2a.65.65,0,0,1,0-1.3Zm0,4.724h20.2a.65.65,0,1,1,0,1.3h-20.2a.65.65,0,0,1,0-1.3ZM13.3,15.38a.65.65,0,0,1,.65-.65h20.2a.65.65,0,0,1,0,1.3h-20.2A.65.65,0,0,1,13.3,15.38ZM19.95,26.03H17.06l.85-1.95-.85-2h2.9a4.535,4.535,0,0,0-.47,1.97A4.4,4.4,0,0,0,19.95,26.03Z"></path><polygon points="3.64 21.88 3.64 46.42 3.77 46.32 18.97 34.15 3.64 21.88"></polygon><polygon points="40.29 25.14 40.29 25.16 40.26 25.16 29.03 34.15 43.6 45.81 44.36 46.42 44.36 21.88 40.29 25.14"></polygon><polygon points="24 31.79 4.68 47.25 43.32 47.25 42.83 46.86 24 31.79"></polygon></svg>
