<svg height='300px' width='300px'  fill="#000000" xmlns="http://www.w3.org/2000/svg" xmlns:xlink="http://www.w3.org/1999/xlink" version="1.1" x="0px" y="0px" viewBox="0 0 100 100" style="enable-background:new 0 0 100 100;" xml:space="preserve"><g><circle cx="67.2834473" cy="23.7769623" r="4.8802872"></circle><ellipse transform="matrix(0.9732492 -0.229752 0.229752 0.9732492 -4.2919598 12.1430216)" cx="49.9998322" cy="24.5024872" rx="6.3066883" ry="6.306654"></ellipse><path d="M58.4329834,32.1856995c-0.6241455-0.3817139-1.3612061-0.583252-2.1323853-0.583252   c-1.4157715,0-2.4488525,0.8792114-3.2024536,1.520874c-0.8773193,0.7468262-1.5978394,1.1265869-3.0983276,1.1265869   c-1.496582,0-2.2677002-0.4118652-3.0943604-1.1226807c-0.7059326-0.6075439-1.7731323-1.5247803-3.2064209-1.5247803   c-0.7711792,0-1.5082397,0.2015381-2.1323853,0.583252c-2.0388794,1.2453613-5.4604492,4.664978-5.4604492,13.5723267   c0,8.7797852,2.7575073,11.817688,4.4020386,12.848877c0.2921143,0.1820679,0.4936523,0.4897461,0.5423584,0.7526245   l1.3612061,18.0162964c0.015625,0.1810913,0.4450073,4.4283447,7.5880127,4.4283447   c7.1439819,0,7.5714722-4.2472534,7.5870361-4.4342041l1.3505249-17.9208374   c0.0584106-0.352478,0.2609253-0.6591797,0.5559692-0.8432007c1.6436157-1.0311279,4.4001465-4.0700684,4.4001465-12.8479004   C63.8934937,36.8506775,60.4719238,33.4310608,58.4329834,32.1856995z"></path><circle cx="84.7063599" cy="24.5024872" r="6.3066483"></circle><path d="M93.1395874,32.1856995c-0.6241455-0.3817139-1.3612671-0.583252-2.1324463-0.583252   c-1.4157104,0-2.4487915,0.8792114-3.2024536,1.520874c-0.8773193,0.7468262-1.5978394,1.1265869-3.0983276,1.1265869   c-1.496521,0-2.2677002-0.4118652-3.0943604-1.1226807c-0.7059326-0.6075439-1.7731323-1.5247803-3.2063599-1.5247803   c-0.7711792,0-1.5083008,0.2015381-2.1324463,0.583252c-2.0388794,1.2453613-5.4604492,4.664978-5.4604492,13.5723267   c0,8.777832,2.7565308,11.8167725,4.4020386,12.848877c0.2930908,0.1830444,0.4946899,0.4887695,0.5423584,0.7526245   l1.3612671,18.0162964c0.015564,0.1810913,0.4449463,4.4283447,7.5879517,4.4283447   c7.144043,0,7.5714722-4.2472534,7.5870361-4.4342041l1.3515015-17.9227905   c0.0584106-0.3515015,0.2600098-0.6572266,0.5549927-0.8412476c1.6436157-1.0311279,4.4001465-4.0700684,4.4001465-12.8479004   C98.6000366,36.8506775,95.1784668,33.4310608,93.1395874,32.1856995z"></path><path d="M68.8184204,45.7583923c0-9.2332153,3.5911865-12.9359131,5.8200684-14.3463135   c-0.4541626-0.4917603-0.8898926-0.8223877-1.2318115-1.031189c-0.3743896-0.2286987-0.8087769-0.3378906-1.2474976-0.3378906   c-0.7797852,0-1.3840942,0.4870605-1.9778442,0.9926147c-0.7481689,0.637085-1.4812622,1.0559082-2.8978882,1.0559082   c-1.6365356,0-2.3887939-0.5742798-3.2371216-1.3604736c-0.4110107-0.3809814-0.9343872-0.6536865-1.4940186-0.684082   c-0.4872437-0.0264893-0.9766235,0.0800781-1.3920898,0.3339233c-0.3290405,0.2009277-0.744873,0.5124512-1.180481,0.9738159   c2.2211304,1.3690796,5.9080811,5.0511475,5.9080811,14.4036865c0,7.317688-1.8320923,10.9682007-3.7268677,12.7905884   c-0.2669067,0.2567139-0.3919067,0.6260376-0.3640137,0.9953003l0.3843384,5.085083c0,0,0.2218628,2.7177124,5.1021729,2.7177124   s5.1021118-2.7177124,5.1021118-2.7177124l0.3937378-5.2088623c0.0271606-0.3594971-0.0898438-0.7205811-0.3445435-0.975708   C70.5799561,56.5867004,68.8184204,52.9333801,68.8184204,45.7583923z"></path><ellipse transform="matrix(0.9732493 -0.2297517 0.2297517 0.9732493 -4.5891767 8.1392479)" cx="32.6578522" cy="23.7769623" rx="4.8802967" ry="4.8802624"></ellipse><path d="M34.1928101,45.7583923c0-9.2332153,3.5911865-12.9359131,5.8200684-14.3463135   c-0.4541626-0.4917603-0.8898926-0.8223877-1.2318115-1.031189c-0.3743896-0.2286987-0.8087769-0.3378906-1.2474976-0.3378906   c-0.7798462,0-1.3840942,0.4870605-1.9778442,0.9926147c-0.7481689,0.637085-1.4812622,1.0559082-2.8978882,1.0559082   c-1.6365967,0-2.3887939-0.5742798-3.2371216-1.3604736c-0.4110107-0.3809814-0.9343872-0.6536865-1.4940186-0.684082   c-0.4872437-0.0264893-0.9766235,0.0800781-1.3920898,0.3339233c-0.3291016,0.2009277-0.7449341,0.5124512-1.180542,0.9738159   c2.2211914,1.3690796,5.9080811,5.0511475,5.9080811,14.4036865c0,7.317688-1.8320312,10.9682007-3.7268066,12.7905884   c-0.2669067,0.2567139-0.3919678,0.6260376-0.3640137,0.9953003l0.3843384,5.085083c0,0,0.2218628,2.7177124,5.1021729,2.7177124   s5.1021118-2.7177124,5.1021118-2.7177124l0.3937378-5.2088623c0.0271606-0.3594971-0.0898438-0.7205811-0.3445435-0.975708   C35.9543457,56.5867004,34.1928101,52.9333801,34.1928101,45.7583923z"></path><ellipse transform="matrix(0.9732492 -0.229752 0.229752 0.9732492 -5.2203875 4.1691241)" cx="15.2932892" cy="24.5024872" rx="6.3066883" ry="6.306654"></ellipse><path d="M23.7258301,32.1856995c-0.6241455-0.3817139-1.3612061-0.583252-2.1314087-0.583252   c-1.4157715,0-2.4488525,0.8792114-3.2025146,1.520874c-0.8772583,0.7468262-1.5977783,1.1265869-3.0982666,1.1265869   c-1.496582,0-2.2677612-0.4118652-3.0944214-1.1226807c-0.7059326-0.6075439-1.7730713-1.5247803-3.2063599-1.5247803   c-0.7711792,0-1.5082397,0.2015381-2.1323853,0.583252c-2.0389404,1.2453613-5.4605103,4.664978-5.4605103,13.5723267   c0,8.7797852,2.7575073,11.817688,4.4020996,12.848877c0.2921143,0.1820679,0.4936523,0.4897461,0.5423584,0.7526245   L7.7056274,77.375824c0.015564,0.1810913,0.4450073,4.4283447,7.5880127,4.4283447   c7.1439819,0,7.5714722-4.2472534,7.5870361-4.4342041l1.3505249-17.9208374   c0.0584106-0.352478,0.2609253-0.6601562,0.5549927-0.8432007c1.6436157-1.0302124,4.401062-4.0690918,4.401062-12.8479004   C29.1872559,36.8506775,25.7657471,33.4310608,23.7258301,32.1856995z"></path></g></svg>
