<svg height='300px' width='300px'  fill="#000000" xmlns="http://www.w3.org/2000/svg" viewBox="0 0 66 66" x="0px" y="0px"><path fill="#000000" fill-rule="evenodd" d="M437.606057,235.08172 C440.832733,236.320894 444.33706,237 448,237 C449.161877,237 450.315088,236.931724 451.455721,236.796337 C452.004156,236.731241 452.501521,237.123065 452.566617,237.6715 C452.631714,238.219935 452.23989,238.7173 451.691455,238.782396 C450.47263,238.927064 449.240705,239 448,239 C430.879173,239 417,225.120827 417,208 C417,190.879173 430.879173,177 448,177 C465.120827,177 479,190.879173 479,208 C479,209.240705 478.927064,210.47263 478.782396,211.691455 C478.7173,212.23989 478.219935,212.631714 477.6715,212.566617 C477.123065,212.501521 476.731241,212.004156 476.796337,211.455721 C476.931724,210.315088 477,209.161877 477,208 C477,198.204783 472.143695,189.543816 464.707418,184.293433 L463.970143,187.242536 C463.89934,187.525744 463.708319,187.763874 463.447214,187.894427 L457.915851,190.660108 L457.043982,196.763197 L460.83205,202.4453 C461.138403,202.904828 461.014229,203.525698 460.5547,203.83205 L455.331344,207.314288 L458.868243,213.503861 C459.142253,213.983379 458.975656,214.594233 458.496139,214.868243 C458.016621,215.142253 457.405767,214.975656 457.131757,214.496139 L453.131757,207.496139 C452.870995,207.039806 453.007989,206.45949 453.4453,206.16795 L458.61325,202.72265 L455.16795,197.5547 C455.031473,197.349985 454.975256,197.102143 455.010051,196.858579 L456.010051,189.858579 C456.056457,189.533732 456.259285,189.252324 456.552786,189.105573 L462.141408,186.311262 L462.935107,183.136468 C458.572753,180.510439 453.462767,179 448,179 C434.570818,179 423.273601,188.128027 419.97435,200.518079 L426.190945,205.846589 L430.628609,204.071523 C430.80872,203.999479 431.005898,203.981376 431.196116,204.019419 L436.196116,205.019419 C436.567533,205.093703 436.865102,205.371457 436.964764,205.736883 L439.823948,216.220557 L445.316228,218.051317 C445.78834,218.208688 446.072892,218.689262 445.98387,219.178885 L443.98387,230.178885 C443.937337,230.434814 443.79291,230.662539 443.581238,230.813733 L437.606057,235.08172 L437.606057,235.08172 Z M435.460665,234.156335 L442.088691,229.422032 L443.860984,219.67442 L438.683772,217.948683 C438.366577,217.842952 438.12321,217.585689 438.035236,217.263117 L435.197852,206.859374 L431.095382,206.03888 L426.371391,207.928477 C426.025728,208.066742 425.631873,208.00154 425.349209,207.759257 L419.478226,202.726986 C419.164123,204.436896 419,206.199281 419,208 C419,219.524852 425.722774,229.479517 435.460665,234.156335 L435.460665,234.156335 Z M470,243 C462.820298,243 457,237.179702 457,230 C457,222.820298 462.820298,217 470,217 C477.179702,217 483,222.820298 483,230 C483,237.179702 477.179702,243 470,243 Z M470,241 C476.075132,241 481,236.075132 481,230 C481,223.924868 476.075132,219 470,219 C463.924868,219 459,223.924868 459,230 C459,236.075132 463.924868,241 470,241 Z M470,231.414214 L467.707107,233.707107 C467.316582,234.097631 466.683418,234.097631 466.292893,233.707107 C465.902369,233.316582 465.902369,232.683418 466.292893,232.292893 L468.585786,230 L466.292893,227.707107 C465.350084,226.764298 466.764298,225.350084 467.707107,226.292893 L470,228.585786 L472.292893,226.292893 C472.683418,225.902369 473.316582,225.902369 473.707107,226.292893 C474.097631,226.683418 474.097631,227.316582 473.707107,227.707107 L471.414214,230 L473.707107,232.292893 C474.649916,233.235702 473.235702,234.649916 472.292893,233.707107 L470,231.414214 Z" transform="translate(-417 -177)"></path></svg>
