<svg height='300px' width='300px'  fill="#000000" xmlns="http://www.w3.org/2000/svg" xmlns:xlink="http://www.w3.org/1999/xlink" version="1.1" x="0px" y="0px" viewBox="0 0 153.683 270.226" style="enable-background:new 0 0 153.683 270.226;" xml:space="preserve"><g><circle cx="77.348" cy="65.335" r="22.5"></circle><path d="M0.293,68.459l12.888,0.459V103.5c0,4.128,3.169,7.598,7.282,7.967l24.961,2.251c10.035,17.469,15.669,30.233,8.225,56.234   c-1.894,1.076-3.854,2.346-5.84,3.867c-5.459,4.212-10.92,10.391-14.813,18.758c-3.917,8.365-6.251,18.772-6.243,31.351   c0.002,10.603,1.625,22.786,5.32,36.949c1.467,5.621,6.536,9.348,12.087,9.348c1.044,0,2.106-0.132,3.164-0.408   c6.68-1.743,10.681-8.571,8.938-15.251c-3.264-12.5-4.514-22.608-4.509-30.638c0.007-9.554,1.725-16.121,3.89-20.767   c3.274-6.905,7.605-10.081,11.382-12.037c1.873-0.941,3.575-1.479,4.692-1.757c0.556-0.14,0.966-0.214,1.17-0.248   c0.044-0.007,0.077-0.012,0.102-0.016c0.26-0.027,0.513-0.077,0.768-0.12c0.841,9.825,3.477,22.317,10.438,35.224   c8.924,16.65,25.266,33.499,52.055,44.933c1.607,0.69,3.279,1.018,4.926,1.018c4.846,0,9.458-2.836,11.492-7.57   c2.723-6.344-0.209-13.693-6.553-16.417c-22.156-9.589-33.45-21.999-39.924-33.847c-6.421-11.852-7.785-23.607-7.779-31.163   c0-1.764,0.074-3.278,0.168-4.5c1.215-5.566,2.353-10.715,3.362-15.603c-1.087,0.398-2.237,0.61-3.417,0.61   c-3.185,0-6.206-1.532-8.084-4.101c-1.577-2.159-2.22-4.799-1.807-7.439c0.413-2.64,1.828-4.962,3.985-6.538   c6.39-4.66,10.668-8.634,13.524-11.767c0.381-7.546,0.096-15.329-1.101-24.1c2.381,1.074,4.65,2.456,6.315,3.991   c0.18,0.169,0.336,0.334,0.502,0.5c2.215,2.226,3.191,4.259,3.22,6.799c-0.002,2.175-0.791,5.37-3.968,9.87   c-3.157,4.464-8.675,10.019-17.314,16.32c-3.57,2.606-4.35,7.611-1.743,11.18c1.566,2.145,4.001,3.282,6.469,3.282   c1.637,0,3.287-0.5,4.71-1.539c9.594-7.016,16.359-13.564,20.926-19.984c4.548-6.388,6.925-12.862,6.923-19.129   c0.019-5.345-1.794-10.23-4.462-14.044c-0.055-0.078-0.115-0.146-0.17-0.222c-4.025-5.626-9.569-9.256-15.027-11.709   c-5.598-2.446-11.077-3.715-16.044-3.751c-1.921,0.022-3.787,0.163-5.911,0.903c-0.127,0.021-0.265,0.029-0.383,0.059   c-11.367,2.753-22.73,5.511-34.094,8.265L29.18,96.19V69.488l4.55,0.162c-1.13-1.583-1.851-3.486-1.97-5.567   c-0.119-2.08,0.379-4.051,1.32-5.752l-4.695,0.709c-1.291-2.683-4.027-4.54-7.205-4.54c-4.018,0-7.332,2.964-7.902,6.823L0,63.329   L0.293,68.459z"></path><ellipse transform="matrix(0.9984 -0.0572 0.0572 0.9984 -3.5605 2.5291)" cx="42.41" cy="63.475" rx="8.667" ry="8.667"></ellipse><path d="M23.145,25.04c-1.234,0.039-2.564,0.4-3.827,1.104c-3.241,1.805-4.804,5.18-3.491,7.537c1.311,2.357,5,2.805,8.241,1   c2.575-1.432,4.065-3.85,3.924-5.969l0.036-0.012V12.015c0-1.973-1.409-4.373-3.134-5.334h-0.002L13.61,0.399   c-1.725-0.959-3.134-0.131-3.134,1.844v15.553c-0.395-0.059-0.798-0.1-1.222-0.084c-1.234,0.039-2.565,0.398-3.828,1.102   c-3.239,1.805-4.805,5.18-3.492,7.537s5.004,2.807,8.246,1c2.575-1.432,4.063-3.85,3.921-5.967l0.038-0.012V10.794   c0-1.975,1.387-2.762,3.082-1.75l4.064,2.43c1.694,1.012,3.08,3.455,3.08,5.428v8.226C23.973,25.067,23.567,25.026,23.145,25.04z"></path></g></svg>
