<svg height='300px' width='300px'  fill="#000000" xmlns="http://www.w3.org/2000/svg" xmlns:xlink="http://www.w3.org/1999/xlink" version="1.1" x="0px" y="0px" viewBox="0 0 33 33" enable-background="new 0 0 33 33" xml:space="preserve"><path d="M28.549,29.566c-6.666,2.328-14.488,0.297-19.161-0.916c-1.723-0.447-2.854-0.75-3.564-0.723  c-0.043,0-0.105,0.004-0.207-0.102c-0.355-0.367-0.525-1.283-0.537-1.638c0.016-0.03,0.033-0.064,0.055-0.103  c0.287-0.547,0.885-1.687,1.088-4.064c0.234-2.746,0.671-7.859,3.369-12.834c1.012-1.865,3.094-3.68,4.472-4.881  c0.899-0.785,1.382-1.213,1.626-1.594c0.212-0.332,0.396-0.618,2.572,0.352c0.91,0.406,1.812,0.629,2.607,0.826  c1.912,0.473,1.988,0.65,1.941,1.14c-0.146,1.495-1.768,3.337-2.348,3.834c-0.254-0.027-0.516-0.095-0.917-0.235  s-0.567-0.844-0.587-0.906c-0.046-0.154-0.094-0.313-0.141-0.473c0.229,0.121,0.521,0.32,0.756,0.525  c0.274,0.24,0.69,0.215,0.93-0.061c0.24-0.272,0.214-0.688-0.059-0.929c-0.418-0.367-1.484-1.19-2.318-0.915  c-0.154,0.053-0.395,0.172-0.566,0.447c-0.074,0.117-0.234,0.509-0.164,0.76c0.072,0.252,0.216,0.749,0.328,1.117  c-0.034-0.002-0.061,0-0.107-0.009c-0.217-0.048-0.829-0.482-1.286-0.913c-0.238-0.226-0.577-0.311-0.892-0.225  c-0.315,0.084-0.564,0.327-0.658,0.641c-0.323,1.094-0.692,3.205-0.744,4.266c-0.018,0.346-0.008,0.778,0.005,1.273  c0.036,1.388,0.077,3.168-0.472,4.764c-0.096,0.126-0.144,0.273-0.168,0.428c-0.473,1.111-1.27,2.104-2.621,2.766  c-0.467,0.229-0.662,0.791-0.434,1.258c0.164,0.335,0.499,0.529,0.848,0.529c0.138,0,0.279-0.031,0.412-0.096  c1.821-0.891,2.879-2.219,3.496-3.656c1.01-0.479,4.184-1.766,6.354-0.321c-0.526,0.499-0.976,1.099-1.277,1.839  c-0.197,0.481,0.034,1.031,0.516,1.227c0.116,0.049,0.236,0.07,0.355,0.07c0.371,0,0.723-0.221,0.871-0.586  c1.287-3.152,6.838-2.961,6.898-2.961c0.502,0.016,0.957-0.383,0.979-0.902c0.022-0.519-0.38-0.957-0.899-0.979  c-0.188-0.008-3.281-0.111-5.822,1.165c-2.279-2.029-5.359-1.509-7.322-0.844c0.225-1.396,0.193-2.739,0.168-3.748  c-0.011-0.44-0.021-0.826-0.006-1.134c0.027-0.57,0.173-1.555,0.347-2.443c0.316,0.195,0.654,0.36,0.97,0.426  c0.387,0.08,0.723,0.063,1.016-0.004c0.693,0.555,2.258,0.883,2.893,0.631c0.627-0.252,3.293-2.877,3.541-5.445  c0.219-2.262-1.768-2.753-3.362-3.148c-0.755-0.186-1.536-0.379-2.294-0.717c-2.37-1.058-3.857-1.313-4.924,0.352  c-0.121,0.183-0.762,0.741-1.277,1.19c-1.479,1.29-3.716,3.239-4.889,5.401c-2.887,5.32-3.361,10.895-3.59,13.572  c-0.171,1.999-0.633,2.877-0.88,3.35c-0.107,0.203-0.2,0.379-0.242,0.592C3.122,26.313,3.312,28.016,4.142,29  c0.461,0.549,1.061,0.826,1.732,0.809c0.426-0.02,1.703,0.316,3.041,0.664C11.949,31.26,16.722,32.5,21.7,32.5  c2.502,0,5.059-0.314,7.469-1.154c0.491-0.172,0.75-0.709,0.579-1.199C29.576,29.654,29.038,29.395,28.549,29.566z"></path><path d="M17.966,28c-3.127,0-5.73-1.686-5.876-1.784c-0.304-0.199-0.388-0.607-0.187-0.911c0.199-0.304,0.608-0.388,0.912-0.188  c0.042,0.027,4.242,2.733,7.948,0.947c0.328-0.158,0.722-0.021,0.88,0.307c0.158,0.329,0.021,0.721-0.307,0.879  C20.204,27.797,19.054,28,17.966,28z"></path></svg>
