<svg height='300px' width='300px'  fill="#000000" xmlns="http://www.w3.org/2000/svg" xmlns:xlink="http://www.w3.org/1999/xlink" version="1.1" x="0px" y="0px" viewBox="0 0 60 60" enable-background="new 0 0 60 60" xml:space="preserve"><g><path d="M17.9771118,15.6830444l-3.7544556-3.7544556c-0.8130493,0.7098389-1.579834,1.4765625-2.2907715,2.2901611   l3.7472534,3.7467041C16.3789063,17.1395264,17.1472778,16.3761597,17.9771118,15.6830444z"></path><path d="M44.3308716,17.9654541L48.078125,14.21875c-0.7109375-0.8135986-1.4777222-1.5803223-2.2907715-2.2901611   l-3.7544556,3.7544556C42.8627319,16.3761597,43.6311035,17.1395264,44.3308716,17.9654541z"></path><path d="M42.0323486,44.3192139l3.7550049,3.7544556c0.8130493-0.7097778,1.579834-1.4765625,2.2907715-2.2901611   l-3.7472534-3.7466431C43.6311035,42.8627319,42.8627319,43.6261597,42.0323486,44.3192139z"></path><path d="M15.6791382,42.0368652l-3.7472534,3.7466431c0.7109375,0.8135986,1.4777222,1.5803833,2.2907715,2.2901611   l3.7550049-3.7544556C17.1472778,43.6261597,16.3789063,42.8627319,15.6791382,42.0368652z"></path><path d="M14.2999878,19.8200073C12.2999878,22.8599854,11.25,26.3599854,11.25,30s1.0499878,7.1400146,3.0499878,10.1900024   L10.5,43.9800415C7.5599976,39.8900146,6,35.0900269,6,30c0-5.0800171,1.5599976-9.8900146,4.5-13.9799805L14.2999878,19.8200073z"></path><path d="M54,30c0,5.0900269-1.5499878,9.8900146-4.4899902,13.9800415l-3.7999878-3.7900391   c2-3.0499878,3.0499878-6.5499878,3.0499878-10.1900024s-1.0499878-7.1400146-3.0499878-10.1799927l3.7999878-3.7999878   C52.4500122,20.1099854,54,24.9199829,54,30z"></path><path d="M41.7700195,47.2900391L43.9899902,49.5C39.9000244,52.4500122,35.0900269,54,30,54   c-5.0800171,0-9.8900146-1.5499878-13.9799805-4.5l2.2199707-2.2099609l1.6000366-1.6000366   c3.039978,1.9700317,6.539978,3,10.1599731,3c3.6300049,0,7.1300049-1.0299683,10.1699829-3L41.7700195,47.2900391z"></path><path d="M18.2399902,12.710022L16.0200195,10.5C20.1099854,7.5499878,24.9199829,6,30,6   c5.0900269,0,9.9000244,1.5499878,13.9899902,4.5l-2.2199707,2.210022l-1.6000366,1.5999756   c-3.039978-1.9599609-6.539978-3-10.1699829-3c-3.6199951,0-7.1199951,1.0400391-10.1599731,3L18.2399902,12.710022z"></path></g></svg>
