<svg height='300px' width='300px'  fill="#000000" xmlns="http://www.w3.org/2000/svg" xmlns:xlink="http://www.w3.org/1999/xlink" version="1.1" x="0px" y="0px" viewBox="0 0 128 128" style="enable-background:new 0 0 128 128;" xml:space="preserve"><g><g><rect x="32.37" y="91.172" width="25.501" height="7.906"></rect><path d="M64,2C29.813,2,2,29.813,2,64s27.813,62,62,62s62-27.813,62-62S98.187,2,64,2z M104.939,41.016H87.516    c1.801-8.214-0.271-15.624-6.316-22.592l-0.208-0.24C94.097,19.573,103.748,28.666,104.939,41.016z M105.06,44.012v0.693    c0,2.363-1.925,4.285-4.291,4.285s-4.291-1.922-4.291-4.285v-0.693H105.06z M93.407,44.012v0.693c0,2.363-1.925,4.285-4.291,4.285    c-2.366,0-4.29-1.922-4.29-4.285v-0.693H93.407z M77.463,18.801l1.415,1.631c5.516,6.358,7.31,13.103,5.483,20.584H70.565    c-1.828-7.48-0.034-14.225,5.482-20.584L77.463,18.801z M64.523,76.327c0.757,0,1.371,0.613,1.371,1.369    c0,0.756-0.614,1.369-1.371,1.369h-3.91v4.851h-5.832V60.381c2.039,0.786,4.003,1.817,5.832,3.123v12.823H64.523z M65.81,48.99    c-2.366,0-4.291-1.922-4.291-4.285v-0.693H70.1v0.693C70.1,47.068,68.176,48.99,65.81,48.99z M73.934,18.184l-0.208,0.24    c-6.045,6.968-8.117,14.378-6.316,22.592H49.986C51.178,28.665,60.829,19.573,73.934,18.184z M49.865,44.012h8.582v0.693    c0,2.363-1.925,4.285-4.291,4.285s-4.291-1.922-4.291-4.285V44.012z M46.512,58.611c1.862,0.094,3.716,0.382,5.527,0.863v24.443    h-5.527V58.611z M37.606,59.651c2.013-0.587,4.084-0.927,6.164-1.033v25.299h-6.164V59.651z M25.033,76.327h4.595l0-12.218    l0.012-0.613c1.647-1.175,3.403-2.131,5.224-2.886v23.307h-5.236l0-4.851h-4.595c-0.757,0-1.371-0.613-1.371-1.369    C23.662,76.94,24.276,76.327,25.033,76.327z M105.131,101.816H22.869c-0.757,0-1.371-0.613-1.371-1.369s0.614-1.369,1.371-1.369    h6.759v-7.906v-0.685v-3.832h30.985v4.517v7.906h15.479V48.745c-1.692-0.575-2.92-2.159-2.92-4.04v-0.693h8.582v0.693    c0,1.881-1.228,3.465-2.92,4.04v50.333h26.297c0.757,0,1.371,0.613,1.371,1.369S105.888,101.816,105.131,101.816z"></path></g></g></svg>
